<svg xmlns="http://www.w3.org/2000/svg" xmlns:xlink="http://www.w3.org/1999/xlink" width="95" height="95" viewBox="0 0 95 95">
  <defs>
    <clipPath id="clip-path">
      <rect id="Rect치ngulo_375020" data-name="Rect치ngulo 375020" width="95" height="95" transform="translate(310 1727)" fill="#fff" stroke="#707070" stroke-width="1"/>
    </clipPath>
  </defs>
  <g id="Enmascarar_grupo_75" data-name="Enmascarar grupo 75" transform="translate(-310 -1727)" clip-path="url(#clip-path)">
    <g id="atencion" transform="translate(307.013 1722.603)">
      <path id="Trazado_780595" data-name="Trazado 780595" d="M64.454,91.509H36.521A3.3,3.3,0,0,1,33.132,88.3v-.113A3.127,3.127,0,0,1,36.521,85.2H64.454a3.127,3.127,0,0,1,3.388,2.986V88.3A3.3,3.3,0,0,1,64.454,91.509Z" fill="#5358a1"/>
      <rect id="Rect치ngulo_375022" data-name="Rect치ngulo 375022" width="34.71" height="6.311" rx="3.155" transform="translate(33.132 91.509)" fill="#5358a1"/>
      <path id="Trazado_780596" data-name="Trazado 780596" d="M50.487,6.311c-18.3,0-33.132,13.213-33.132,30.5,0,8.123,3.278,19.24,8.649,28.747C29.237,71.284,36.288,78.634,36.288,85.2h28.4c0-6.563,7.05-13.914,10.284-19.637,5.371-9.507,8.649-20.624,8.649-28.747,0-17.29-14.834-30.5-33.132-30.5Z" fill="#fccc38"/>
      <circle id="Elipse_4734" data-name="Elipse 4734" cx="4.733" cy="4.733" r="4.733" transform="translate(45.754 17.355)" fill="#f4393d"/>
      <path id="Trazado_780597" data-name="Trazado 780597" d="M47.332,34.71h6.311l1.578,31.555H45.754Z" fill="#f4393d"/>
      <path id="Trazado_780598" data-name="Trazado 780598" d="M50.487,4.733c-19.464,0-34.71,14.092-34.71,32.08,0,8.545,3.392,19.859,8.853,29.524.981,1.736,2.261,3.562,3.617,5.494,2.734,3.9,5.771,8.261,6.343,12.126A4.527,4.527,0,0,0,31.555,88.3a4.659,4.659,0,0,0,1.269,3.167A4.716,4.716,0,0,0,36.288,99.4h28.4a4.717,4.717,0,0,0,3.457-7.944,4.826,4.826,0,0,0,1.277-3.27,4.461,4.461,0,0,0-3.036-4.227c.572-3.865,3.61-8.226,6.343-12.125,1.356-1.932,2.636-3.758,3.617-5.494C81.806,56.672,85.2,45.358,85.2,36.813c0-17.988-15.247-32.08-34.71-32.08ZM66.265,88.3a1.731,1.731,0,0,1-1.81,1.635H36.52a1.75,1.75,0,0,1-1.81-1.747c0-.968.938-1.408,1.81-1.408H64.454C65.326,86.775,66.265,87.216,66.265,88.3Zm-1.578,7.946h-28.4a1.578,1.578,0,1,1,0-3.155h28.4a1.578,1.578,0,1,1,0,3.155ZM73.6,64.784c-.906,1.6-2.143,3.368-3.453,5.235-2.961,4.223-6.278,8.952-6.923,13.6H37.754c-.646-4.648-3.962-9.377-6.923-13.6-1.31-1.867-2.547-3.632-3.453-5.235-5.13-9.08-8.445-20.059-8.445-27.971,0-16.22,13.861-28.925,31.555-28.925S82.042,20.594,82.042,36.813C82.042,44.725,78.727,55.7,73.6,64.784Z"/>
      <path id="Trazado_780599" data-name="Trazado 780599" d="M50.487,29.977A6.311,6.311,0,1,1,56.8,23.666,6.311,6.311,0,0,1,50.487,29.977Zm0-9.466a3.155,3.155,0,1,0,3.155,3.155A3.155,3.155,0,0,0,50.487,20.511Z"/>
      <path id="Trazado_780600" data-name="Trazado 780600" d="M55.221,67.843H45.754a1.576,1.576,0,0,1-1.575-1.656l1.578-31.555a1.578,1.578,0,0,1,1.575-1.5h6.311a1.577,1.577,0,0,1,1.575,1.5L56.8,66.186a1.576,1.576,0,0,1-1.575,1.656Zm-7.808-3.155h6.149l-1.42-28.4h-3.31Z"/>
      <g id="Grupo_1066824" data-name="Grupo 1066824">
        <path id="Trazado_780601" data-name="Trazado 780601" d="M89.931,36.288h6.311v3.155H89.931Z" fill="#fccc38"/>
        <path id="Trazado_780602" data-name="Trazado 780602" d="M4.733,36.288h6.311v3.155H4.733Z" fill="#fccc38"/>
        <path id="Trazado_780603" data-name="Trazado 780603" d="M82.967,66.918h3.155v6.311H82.967Z" transform="translate(-24.786 80.315) rotate(-45.005)" fill="#fccc38"/>
        <path id="Trazado_780604" data-name="Trazado 780604" d="M18.788,4.589h3.155V10.9H18.788Z" transform="translate(0.489 16.669) rotate(-45)" fill="#fccc38"/>
        <path id="Trazado_780605" data-name="Trazado 780605" d="M78.761,6.964h6.311V10.12H78.761Z" transform="translate(17.953 60.425) rotate(-45)" fill="#fccc38"/>
        <path id="Trazado_780606" data-name="Trazado 780606" d="M13.546,68.767h6.311v3.155H13.546Z" transform="translate(-44.85 32.413) rotate(-45)" fill="#fccc38"/>
      </g>
    </g>
  </g>
</svg>
