<svg xmlns="http://www.w3.org/2000/svg" xmlns:xlink="http://www.w3.org/1999/xlink" width="95" height="95" viewBox="0 0 95 95">
  <defs>
    <clipPath id="clip-path">
      <rect id="Rectángulo_375021" data-name="Rectángulo 375021" width="95" height="95" transform="translate(835 1727)" fill="#fff" stroke="#707070" stroke-width="1"/>
    </clipPath>
  </defs>
  <g id="Enmascarar_grupo_76" data-name="Enmascarar grupo 76" transform="translate(-835 -1727)" clip-path="url(#clip-path)">
    <g id="calendario" transform="translate(831.833 1723.833)">
      <path id="Trazado_780607" data-name="Trazado 780607" d="M7.917,14.25H96.583V96.583H7.917Z" fill="#c3c6c7"/>
      <path id="Trazado_780608" data-name="Trazado 780608" d="M4.75,11.083h85.5V90.25H4.75Z" fill="#e9eef2"/>
      <path id="Trazado_780609" data-name="Trazado 780609" d="M4.75,11.083h85.5v19H4.75Z" fill="#eb423f"/>
      <path id="Trazado_780610" data-name="Trazado 780610" d="M58.583,76,47.5,69.667,36.417,76,38,63.333l-9.5-9.5L41.167,52.25,47.5,41.167,53.833,52.25,66.5,53.833l-9.5,9.5Z" fill="#f7cc38"/>
      <path id="Trazado_780611" data-name="Trazado 780611" d="M96.583,12.667h-4.75V11.083A1.583,1.583,0,0,0,90.25,9.5H79.167V7.917a4.75,4.75,0,1,0-9.5,0V9.5H66.5V7.917a4.75,4.75,0,1,0-9.5,0V9.5H38V7.917a4.75,4.75,0,1,0-9.5,0V9.5H25.333V7.917a4.75,4.75,0,1,0-9.5,0V9.5H4.75a1.583,1.583,0,0,0-1.583,1.583V90.25A1.583,1.583,0,0,0,4.75,91.833H6.333v4.75a1.583,1.583,0,0,0,1.583,1.583H96.583a1.583,1.583,0,0,0,1.583-1.583V14.25A1.583,1.583,0,0,0,96.583,12.667Zm-90.25,76v-57H88.667v57Zm66.5-80.75a1.583,1.583,0,1,1,3.167,0V9.5H72.833Zm-12.667,0a1.583,1.583,0,0,1,3.167,0V9.5H60.167Zm-28.5,0a1.583,1.583,0,0,1,3.167,0V9.5H31.667ZM19,7.917a1.583,1.583,0,0,1,3.167,0V9.5H19Zm-3.167,4.75V14.25A4.756,4.756,0,0,0,20.583,19a1.583,1.583,0,0,0,0-3.167A1.585,1.585,0,0,1,19,14.25V12.667h9.5V14.25A4.756,4.756,0,0,0,33.25,19a1.583,1.583,0,1,0,0-3.167,1.585,1.585,0,0,1-1.583-1.583V12.667H57V14.25A4.756,4.756,0,0,0,61.75,19a1.583,1.583,0,1,0,0-3.167,1.585,1.585,0,0,1-1.583-1.583V12.667h9.5V14.25A4.756,4.756,0,0,0,74.417,19a1.583,1.583,0,1,0,0-3.167,1.585,1.585,0,0,1-1.583-1.583V12.667H88.667V28.5H6.333V12.667ZM95,95H9.5V91.833H90.25a1.583,1.583,0,0,0,1.583-1.583V15.833H95Z"/>
      <path id="Trazado_780612" data-name="Trazado 780612" d="M68,53.319a1.583,1.583,0,0,0-1.3-1.057L54.815,50.777l-5.94-10.4a1.583,1.583,0,0,0-2.749,0l-5.94,10.4L28.3,52.261a1.583,1.583,0,0,0-.923,2.691L36.333,63.9,34.846,75.8A1.583,1.583,0,0,0,37.2,77.374L47.5,71.49l10.3,5.884A1.583,1.583,0,0,0,60.154,75.8l-1.487-11.9,8.953-8.952A1.583,1.583,0,0,0,68,53.319ZM55.88,62.213a1.583,1.583,0,0,0-.451,1.316l1.19,9.525-8.334-4.762a1.583,1.583,0,0,0-1.571,0l-8.334,4.762,1.19-9.525a1.583,1.583,0,0,0-.451-1.316L31.909,55l9.454-1.182a1.583,1.583,0,0,0,1.178-.786L47.5,44.358l4.959,8.677a1.583,1.583,0,0,0,1.178.786L63.091,55Z"/>
    </g>
  </g>
</svg>
