<svg xmlns="http://www.w3.org/2000/svg" xmlns:xlink="http://www.w3.org/1999/xlink" width="70" height="70" viewBox="0 0 70 70">
  <defs>
    <clipPath id="clip-path">
      <rect id="Rectángulo_374111" data-name="Rectángulo 374111" width="70" height="70" transform="translate(920 852)" fill="#8f52f5"/>
    </clipPath>
  </defs>
  <g id="Enmascarar_grupo_56" data-name="Enmascarar grupo 56" transform="translate(-920 -852)" clip-path="url(#clip-path)">
    <g id="analisis-de-los-datos" transform="translate(918.871 850.872)">
      <path id="Trazado_778532" data-name="Trazado 778532" d="M67.739,50.8a3.387,3.387,0,0,0,3.387-3.387V4.516a3.387,3.387,0,0,0-3.387-3.387H4.516A3.387,3.387,0,0,0,1.129,4.516v42.9A3.387,3.387,0,0,0,4.516,50.8h19.87a19.279,19.279,0,0,0,9.231,7.683l-3.6,3.607H25.967V58.707A3.387,3.387,0,0,0,22.58,55.32H9.032a3.387,3.387,0,0,0-3.387,3.387v9.032a3.387,3.387,0,0,0,3.387,3.387H22.58a3.387,3.387,0,0,0,3.387-3.387V64.352h4.516a1.129,1.129,0,0,0,.8-.331l4.766-4.766A18.869,18.869,0,0,0,50.792,56.9l2.935,2.935-.331.331a1.129,1.129,0,0,0,0,1.6l7.629,7.629a5.919,5.919,0,0,0,8.37-8.37l-7.629-7.629a1.129,1.129,0,0,0-1.6,0l-.334.331-2.92-2.92ZM23.709,67.739a1.129,1.129,0,0,1-1.129,1.129H9.032A1.129,1.129,0,0,1,7.9,67.739V58.707a1.129,1.129,0,0,1,1.129-1.129H22.58a1.129,1.129,0,0,1,1.129,1.129ZM4.516,48.546a1.129,1.129,0,0,1-1.129-1.129V4.516A1.129,1.129,0,0,1,4.516,3.387H67.739a1.129,1.129,0,0,1,1.129,1.129v42.9a1.129,1.129,0,0,1-1.129,1.129H58.113a19.122,19.122,0,0,0-9.652-25.415l5.73-5.73v2.92h2.258V14.677a1.129,1.129,0,0,0-1.129-1.129H49.675v2.258h2.92l-6.457,6.457a19.094,19.094,0,0,0-4.849-.779l-5.333-8.534A1.129,1.129,0,0,0,35,12.419H30.483V9.032A3.387,3.387,0,0,0,27.1,5.645H13.548a3.387,3.387,0,0,0-3.387,3.387v9.032a3.387,3.387,0,0,0,3.387,3.387H27.1a3.387,3.387,0,0,0,3.387-3.387V14.677h3.89l4.3,6.876a19.16,19.16,0,0,0-12.54,6.568L24.55,26.345a1.129,1.129,0,0,0-.835-.378h-.006a1.129,1.129,0,0,0-.832.366L10.458,39.88l1.664,1.526L23.7,28.78l1.026,1.156A18.941,18.941,0,0,0,21.768,44.03H7.9V13.548H5.645V45.159a1.129,1.129,0,0,0,1.129,1.129H22.3a18.853,18.853,0,0,0,.873,2.258ZM28.225,9.032v9.032A1.129,1.129,0,0,1,27.1,19.193H13.548a1.129,1.129,0,0,1-1.129-1.129V9.032A1.129,1.129,0,0,1,13.548,7.9H27.1A1.129,1.129,0,0,1,28.225,9.032ZM23.709,40.644A16.935,16.935,0,1,1,40.644,57.578,16.935,16.935,0,0,1,23.709,40.644ZM67.8,62.618A3.661,3.661,0,1,1,62.618,67.8l-6.83-6.831,5.178-5.178ZM55.32,58.24l-2.657-2.657a19.293,19.293,0,0,0,2.92-2.92L58.24,55.32Z" fill="#8f52f5"/>
      <path id="Trazado_778533" data-name="Trazado 778533" d="M40.644,25.967A14.677,14.677,0,1,0,55.32,40.644,14.677,14.677,0,0,0,40.644,25.967Zm-.492,2.283-7.362,7.362-2.1-2.362a12.392,12.392,0,0,1,9.462-5Zm.492,24.813A12.419,12.419,0,0,1,29.6,46.288H42.9V44.03h-14.2a12.227,12.227,0,0,1,.759-8.76L31.9,38.007a1.129,1.129,0,0,0,.812.378h.033a1.129,1.129,0,0,0,.8-.331l9.581-9.581a12.419,12.419,0,0,1-2.476,24.588Z" fill="#8f52f5"/>
      <path id="Trazado_778534" data-name="Trazado 778534" d="M14.677,10.161h11.29v2.258H14.677Z" fill="#8f52f5"/>
      <path id="Trazado_778535" data-name="Trazado 778535" d="M14.677,14.677h11.29v2.258H14.677Z" fill="#8f52f5"/>
      <path id="Trazado_778536" data-name="Trazado 778536" d="M10.161,59.836h11.29v2.258H10.161Z" fill="#8f52f5"/>
      <path id="Trazado_778537" data-name="Trazado 778537" d="M10.161,64.352h11.29V66.61H10.161Z" fill="#8f52f5"/>
    </g>
  </g>
</svg>
