<svg xmlns="http://www.w3.org/2000/svg" width="206.465" height="152.925" viewBox="0 0 206.465 152.925">
  <g id="Operating_system-rafiki" data-name="Operating system-rafiki" transform="translate(0 -57.948)">
    <g id="freepik--background-complete--inject-4" transform="translate(0 55)">
      <rect id="Rectángulo_374021" data-name="Rectángulo 374021" width="206.465" height="0.103" transform="translate(0 135.193)" fill="#ae7eff"/>
      <rect id="Rectángulo_374022" data-name="Rectángulo 374022" width="13.676" height="0.103" transform="translate(172.101 141.838)" fill="#ae7eff"/>
      <rect id="Rectángulo_374023" data-name="Rectángulo 374023" width="3.588" height="0.103" transform="translate(133.183 142.961)" fill="#ebebeb"/>
      <rect id="Rectángulo_374024" data-name="Rectángulo 374024" width="7.924" height="0.103" transform="translate(163.764 138.006)" fill="#ae7eff"/>
      <rect id="Rectángulo_374025" data-name="Rectángulo 374025" width="17.834" height="0.103" transform="translate(21.662 138.699)" fill="#ae7eff"/>
      <rect id="Rectángulo_374026" data-name="Rectángulo 374026" width="2.614" height="0.103" transform="translate(43.176 138.699)" fill="#ebebeb"/>
      <rect id="Rectángulo_374027" data-name="Rectángulo 374027" width="38.683" height="0.103" transform="translate(54.288 140.442)" fill="#ebebeb"/>
      <path id="Trazado_778443" data-name="Trazado 778443" d="M427.306,69.176V67.405l-.9-.087a4.761,4.761,0,0,0-.681-1.652l.586-.706-1.239-1.239-.731.582a4.761,4.761,0,0,0-1.652-.681l-.083-.913h-1.776l-.087.913a4.74,4.74,0,0,0-1.652.681l-.71-.586-1.239,1.239.59.723a4.682,4.682,0,0,0-.681,1.652l-.913.087v1.771l.913.087a4.682,4.682,0,0,0,.681,1.652l-.586.706,1.239,1.239.71-.586a4.741,4.741,0,0,0,1.652.681l.087.913h1.776l.083-.913a4.761,4.761,0,0,0,1.652-.681l.71.586,1.239-1.239-.586-.706a4.761,4.761,0,0,0,.681-1.652Zm-5.579,1.5a2.4,2.4,0,1,1,2.4-2.4,2.4,2.4,0,0,1-2.4,2.4Z" transform="translate(-244.303 -59.526)" fill="#ffc84c"/>
      <path id="Trazado_778444" data-name="Trazado 778444" d="M448.156,83.287V81.9l-.719-.054a3.716,3.716,0,0,0-.533-1.28l.462-.557-.983-.983-.537.446a3.688,3.688,0,0,0-1.284-.537l-.066-.714H443.11l-.091.735a3.716,3.716,0,0,0-1.284.537l-.553-.462-.983.983.458.557a3.774,3.774,0,0,0-.533,1.28l-.714.07v1.387l.714.07a3.716,3.716,0,0,0,.533,1.28l-.458.557.983.983.537-.483a3.717,3.717,0,0,0,1.284.537l.07.714h1.387l.066-.714a3.688,3.688,0,0,0,1.284-.537l.557.462.983-.983-.462-.557a3.716,3.716,0,0,0,.533-1.28Zm-4.373,1.189a1.883,1.883,0,1,1,1.879-1.883A1.883,1.883,0,0,1,443.783,84.476Z" transform="translate(-257.964 -68.632)" fill="#ffc84c"/>
      <path id="Trazado_778445" data-name="Trazado 778445" d="M432.736,94V92.829l-.6-.058a3.08,3.08,0,0,0-.45-1.078l.388-.467-.826-.826-.467.388a3.159,3.159,0,0,0-1.078-.45l-.058-.6h-1.164l-.058.6a3.159,3.159,0,0,0-1.078.45l-.467-.388-.826.826.384.467a3.151,3.151,0,0,0-.446,1.078l-.6.058V94l.6.054a3.151,3.151,0,0,0,.446,1.078l-.384.467.826.826.467-.384a3.072,3.072,0,0,0,1.078.446l.058.6h1.164l.058-.6a3.072,3.072,0,0,0,1.078-.446l.467.384.826-.826-.388-.467a3.079,3.079,0,0,0,.45-1.078Zm-3.671,1a1.582,1.582,0,1,1,1.577-1.582,1.582,1.582,0,0,1-1.577,1.582Z" transform="translate(-249.733 -75.395)" fill="#e0e0e0"/>
      <text id="_1011100010101000101010101010101010000000111111001011110101" data-name="1011100010101000101010101010101010000000111111001011110101" transform="translate(26.473 8.294)" fill="#e0e0e0" font-size="4" font-family="SegoeUI, Segoe UI"><tspan x="0" y="0" letter-spacing="0.02em">1</tspan><tspan y="0" letter-spacing="0.01em">011</tspan><tspan y="0" letter-spacing="0.02em">100</tspan><tspan y="0" letter-spacing="0.01em">0</tspan><tspan y="0" letter-spacing="0.02em">1</tspan><tspan y="0" letter-spacing="0.01em">0</tspan><tspan y="0" letter-spacing="0.02em">1</tspan><tspan y="0" letter-spacing="0.01em">0</tspan><tspan y="0" letter-spacing="0.02em">100</tspan><tspan y="0" letter-spacing="0.01em">0</tspan><tspan y="0" letter-spacing="0.02em">1</tspan><tspan y="0" letter-spacing="0.01em">0</tspan><tspan y="0" letter-spacing="0.02em">1</tspan><tspan y="0" letter-spacing="0.01em">0</tspan><tspan y="0" letter-spacing="0.02em">1</tspan><tspan y="0" letter-spacing="0.01em">0</tspan><tspan y="0" letter-spacing="0.02em">1</tspan><tspan y="0" letter-spacing="0.01em">0</tspan><tspan y="0" letter-spacing="0.02em">1</tspan><tspan y="0" letter-spacing="0.01em">0</tspan><tspan y="0" letter-spacing="0.02em">1</tspan><tspan y="0" letter-spacing="0.01em">0</tspan><tspan y="0" letter-spacing="0.02em">1</tspan><tspan y="0" letter-spacing="0.01em">0</tspan><tspan y="0" letter-spacing="0.02em">1</tspan><tspan y="0" letter-spacing="0.01em">0</tspan><tspan y="0" letter-spacing="0.02em">1000000</tspan><tspan y="0" letter-spacing="0.01em">011111</tspan><tspan y="0" letter-spacing="0.02em">10</tspan><tspan y="0" letter-spacing="0.01em">0</tspan><tspan y="0" letter-spacing="0.02em">1</tspan><tspan y="0" letter-spacing="0.01em">0111</tspan><tspan y="0" letter-spacing="0.02em">1</tspan><tspan y="0" letter-spacing="0.01em">0</tspan><tspan y="0" letter-spacing="0.02em">1</tspan><tspan y="0" letter-spacing="0.01em">0</tspan><tspan y="0">1</tspan></text>
      <text id="_1011100010101000101010101000111110101010000111010100000" data-name="1011100010101000101010101000111110101010000111010100000" transform="translate(58.867 107.765)" fill="#e0e0e0" font-size="4" font-family="SegoeUI, Segoe UI"><tspan x="0" y="0" letter-spacing="0.02em">1</tspan><tspan y="0" letter-spacing="0.01em">011</tspan><tspan y="0" letter-spacing="0.02em">100</tspan><tspan y="0" letter-spacing="0.01em">0</tspan><tspan y="0" letter-spacing="0.02em">1</tspan><tspan y="0" letter-spacing="0.01em">0</tspan><tspan y="0" letter-spacing="0.02em">1</tspan><tspan y="0" letter-spacing="0.01em">0</tspan><tspan y="0" letter-spacing="0.02em">100</tspan><tspan y="0" letter-spacing="0.01em">0</tspan><tspan y="0" letter-spacing="0.02em">1</tspan><tspan y="0" letter-spacing="0.01em">0</tspan><tspan y="0" letter-spacing="0.02em">1</tspan><tspan y="0" letter-spacing="0.01em">0</tspan><tspan y="0" letter-spacing="0.02em">1</tspan><tspan y="0" letter-spacing="0.01em">0</tspan><tspan y="0" letter-spacing="0.02em">1</tspan><tspan y="0" letter-spacing="0.01em">0</tspan><tspan y="0" letter-spacing="0.02em">100</tspan><tspan y="0" letter-spacing="0.01em">01111</tspan><tspan y="0" letter-spacing="0.02em">1</tspan><tspan y="0" letter-spacing="0.01em">0</tspan><tspan y="0" letter-spacing="0.02em">1</tspan><tspan y="0" letter-spacing="0.01em">0</tspan><tspan y="0" letter-spacing="0.02em">1</tspan><tspan y="0" letter-spacing="0.01em">0</tspan><tspan y="0" letter-spacing="0.02em">1000</tspan><tspan y="0" letter-spacing="0.01em">011</tspan><tspan y="0" letter-spacing="0.02em">1</tspan><tspan y="0" letter-spacing="0.01em">0</tspan><tspan y="0" letter-spacing="0.02em">1</tspan><tspan y="0" letter-spacing="0.01em">0</tspan><tspan y="0" letter-spacing="0.02em">10000</tspan><tspan y="0">0</tspan></text>
      <text id="_01010100010101010000000111111001011110101" data-name="01010100010101010000000111111001011110101" transform="translate(35.285 23.585)" fill="#e0e0e0" font-size="4" font-family="SegoeUI, Segoe UI"><tspan x="0" y="0" letter-spacing="0.01em">0</tspan><tspan y="0" letter-spacing="0.02em">1</tspan><tspan y="0" letter-spacing="0.01em">0</tspan><tspan y="0" letter-spacing="0.02em">1</tspan><tspan y="0" letter-spacing="0.01em">0</tspan><tspan y="0" letter-spacing="0.02em">100</tspan><tspan y="0" letter-spacing="0.01em">0</tspan><tspan y="0" letter-spacing="0.02em">1</tspan><tspan y="0" letter-spacing="0.01em">0</tspan><tspan y="0" letter-spacing="0.02em">1</tspan><tspan y="0" letter-spacing="0.01em">0</tspan><tspan y="0" letter-spacing="0.02em">1</tspan><tspan y="0" letter-spacing="0.01em">0</tspan><tspan y="0" letter-spacing="0.02em">1000000</tspan><tspan y="0" letter-spacing="0.01em">011111</tspan><tspan y="0" letter-spacing="0.02em">10</tspan><tspan y="0" letter-spacing="0.01em">0</tspan><tspan y="0" letter-spacing="0.02em">1</tspan><tspan y="0" letter-spacing="0.01em">0111</tspan><tspan y="0" letter-spacing="0.02em">1</tspan><tspan y="0" letter-spacing="0.01em">0</tspan><tspan y="0" letter-spacing="0.02em">1</tspan><tspan y="0" letter-spacing="0.01em">0</tspan><tspan y="0">1</tspan></text>
      <text id="_01010100010101010000000111111001011110101-2" data-name="01010100010101010000000111111001011110101" transform="translate(67.407 125.191)" fill="#e0e0e0" font-size="4" font-family="SegoeUI, Segoe UI"><tspan x="0" y="0" letter-spacing="0.01em">0</tspan><tspan y="0" letter-spacing="0.02em">1</tspan><tspan y="0" letter-spacing="0.01em">0</tspan><tspan y="0" letter-spacing="0.02em">1</tspan><tspan y="0" letter-spacing="0.01em">0</tspan><tspan y="0" letter-spacing="0.02em">100</tspan><tspan y="0" letter-spacing="0.01em">0</tspan><tspan y="0" letter-spacing="0.02em">1</tspan><tspan y="0" letter-spacing="0.01em">0</tspan><tspan y="0" letter-spacing="0.02em">1</tspan><tspan y="0" letter-spacing="0.01em">0</tspan><tspan y="0" letter-spacing="0.02em">1</tspan><tspan y="0" letter-spacing="0.01em">0</tspan><tspan y="0" letter-spacing="0.02em">1000000</tspan><tspan y="0" letter-spacing="0.01em">011111</tspan><tspan y="0" letter-spacing="0.02em">10</tspan><tspan y="0" letter-spacing="0.01em">0</tspan><tspan y="0" letter-spacing="0.02em">1</tspan><tspan y="0" letter-spacing="0.01em">0111</tspan><tspan y="0" letter-spacing="0.02em">1</tspan><tspan y="0" letter-spacing="0.01em">0</tspan><tspan y="0" letter-spacing="0.02em">1</tspan><tspan y="0" letter-spacing="0.01em">0</tspan><tspan y="0">1</tspan></text>
      <text id="_01010100010101010000000111111001011110101-3" data-name="01010100010101010000000111111001011110101" transform="translate(93.863 115.97)" fill="#e0e0e0" font-size="4" font-family="SegoeUI, Segoe UI"><tspan x="0" y="0" letter-spacing="0.01em">0</tspan><tspan y="0" letter-spacing="0.02em">1</tspan><tspan y="0" letter-spacing="0.01em">0</tspan><tspan y="0" letter-spacing="0.02em">1</tspan><tspan y="0" letter-spacing="0.01em">0</tspan><tspan y="0" letter-spacing="0.02em">100</tspan><tspan y="0" letter-spacing="0.01em">0</tspan><tspan y="0" letter-spacing="0.02em">1</tspan><tspan y="0" letter-spacing="0.01em">0</tspan><tspan y="0" letter-spacing="0.02em">1</tspan><tspan y="0" letter-spacing="0.01em">0</tspan><tspan y="0" letter-spacing="0.02em">1</tspan><tspan y="0" letter-spacing="0.01em">0</tspan><tspan y="0" letter-spacing="0.02em">1000000</tspan><tspan y="0" letter-spacing="0.01em">011111</tspan><tspan y="0" letter-spacing="0.02em">10</tspan><tspan y="0" letter-spacing="0.01em">0</tspan><tspan y="0" letter-spacing="0.02em">1</tspan><tspan y="0" letter-spacing="0.01em">0111</tspan><tspan y="0" letter-spacing="0.02em">1</tspan><tspan y="0" letter-spacing="0.01em">0</tspan><tspan y="0" letter-spacing="0.02em">1</tspan><tspan y="0" letter-spacing="0.01em">0</tspan><tspan y="0">1</tspan></text>
      <text id="_010101000101010101010101010000000111111001011110101" data-name="010101000101010101010101010000000111111001011110101" transform="translate(35.285 31.253)" fill="#e0e0e0" font-size="4" font-family="SegoeUI, Segoe UI"><tspan x="0" y="0" letter-spacing="0.01em">0</tspan><tspan y="0" letter-spacing="0.02em">1</tspan><tspan y="0" letter-spacing="0.01em">0</tspan><tspan y="0" letter-spacing="0.02em">1</tspan><tspan y="0" letter-spacing="0.01em">0</tspan><tspan y="0" letter-spacing="0.02em">100</tspan><tspan y="0" letter-spacing="0.01em">0</tspan><tspan y="0" letter-spacing="0.02em">1</tspan><tspan y="0" letter-spacing="0.01em">0</tspan><tspan y="0" letter-spacing="0.02em">1</tspan><tspan y="0" letter-spacing="0.01em">0</tspan><tspan y="0" letter-spacing="0.02em">1</tspan><tspan y="0" letter-spacing="0.01em">0</tspan><tspan y="0" letter-spacing="0.02em">1</tspan><tspan y="0" letter-spacing="0.01em">0</tspan><tspan y="0" letter-spacing="0.02em">1</tspan><tspan y="0" letter-spacing="0.01em">0</tspan><tspan y="0" letter-spacing="0.02em">1</tspan><tspan y="0" letter-spacing="0.01em">0</tspan><tspan y="0" letter-spacing="0.02em">1</tspan><tspan y="0" letter-spacing="0.01em">0</tspan><tspan y="0" letter-spacing="0.02em">1</tspan><tspan y="0" letter-spacing="0.01em">0</tspan><tspan y="0" letter-spacing="0.02em">1000000</tspan><tspan y="0" letter-spacing="0.01em">011111</tspan><tspan y="0" letter-spacing="0.02em">10</tspan><tspan y="0" letter-spacing="0.01em">0</tspan><tspan y="0" letter-spacing="0.02em">1</tspan><tspan y="0" letter-spacing="0.01em">0111</tspan><tspan y="0" letter-spacing="0.02em">1</tspan><tspan y="0" letter-spacing="0.01em">0</tspan><tspan y="0" letter-spacing="0.02em">1</tspan><tspan y="0" letter-spacing="0.01em">0</tspan><tspan y="0">1</tspan></text>
    </g>
    <g id="freepik--Shadow--inject-4" transform="translate(23.17 199.493)">
      <ellipse id="freepik--path--inject-4" cx="80.063" cy="4.674" rx="80.063" ry="4.674" fill="#ae7eff"/>
    </g>
    <g id="freepik--Window--inject-4" transform="translate(56.57 66.975)">
      <path id="Trazado_778448" data-name="Trazado 778448" d="M263.768,87.555v83.1a3.865,3.865,0,0,1-3.716,3.774H140.462A3.64,3.64,0,0,1,137,170.657v-83.1A3.452,3.452,0,0,1,140.462,84H260.051A3.679,3.679,0,0,1,263.768,87.555Z" transform="translate(-136.996 -83.999)" fill="#ffb206"/>
      <path id="Trazado_778449" data-name="Trazado 778449" d="M263.77,117.69v72.746a3.865,3.865,0,0,1-3.716,3.774H140.464A3.641,3.641,0,0,1,137,190.436V162.121c10.521-20.234,35.6-23.512,64.966-11.682C243.536,167.188,261.263,144.456,263.77,117.69Z" transform="translate(-136.998 -103.778)" fill="#fff" opacity="0.1"/>
    </g>
    <g id="freepik--Bar--inject-4" transform="translate(87.954 143.78)">
      <path id="Trazado_778450" data-name="Trazado 778450" d="M275.732,274.129H215.065A2.065,2.065,0,0,1,213,272.065h0A2.065,2.065,0,0,1,215.065,270h60.668a2.065,2.065,0,0,1,2.065,2.065h0A2.065,2.065,0,0,1,275.732,274.129Z" transform="translate(-213 -270)" opacity="0.2"/>
      <path id="Trazado_778451" data-name="Trazado 778451" d="M215.652,274.3a1.652,1.652,0,1,1,0-3.3h35.859a1.652,1.652,0,1,1,0,3.3Z" transform="translate(-213.587 -270.587)" fill="#ffb206"/>
      <path id="Trazado_778452" data-name="Trazado 778452" d="M215.652,274.3a1.652,1.652,0,1,1,0-3.3h35.859a1.652,1.652,0,1,1,0,3.3Z" transform="translate(-213.587 -270.587)" fill="#fff" opacity="0.7"/>
    </g>
    <g id="freepik--Character--inject-4" transform="translate(35.285 131.991)">
      <g id="freepik--group--inject-4">
        <path id="Trazado_778453" data-name="Trazado 778453" d="M153.793,287.26c3.849,3.093,2.507,17.855,3.229,20.126s3.82,4.129,3.82,4.129l-4.319,5.058s-3.613-.628-6.359-6.512S153.793,287.26,153.793,287.26Z" transform="translate(-123.038 -268.344)" fill="#263238"/>
        <path id="Trazado_778454" data-name="Trazado 778454" d="M153.793,287.26c3.849,3.093,2.507,17.855,3.229,20.126s3.82,4.129,3.82,4.129l-4.319,5.058s-3.613-.628-6.359-6.512S153.793,287.26,153.793,287.26Z" transform="translate(-123.038 -268.344)" opacity="0.2"/>
        <path id="Trazado_778455" data-name="Trazado 778455" d="M119.921,361.615s27.666-7.718,31.127,1.99-21.629,17.442-35.516,17.934-19.561-9.287-15.464-18.549Z" transform="translate(-93.267 -310.288)" fill="#ffb206"/>
        <path id="Trazado_778456" data-name="Trazado 778456" d="M119.921,361.615s27.666-7.718,31.127,1.99-21.629,17.442-35.516,17.934-19.561-9.287-15.464-18.549Z" transform="translate(-93.267 -310.288)" opacity="0.2"/>
        <path id="Trazado_778457" data-name="Trazado 778457" d="M215.479,401.348a.1.1,0,0,1-.1,0,.07.07,0,0,1-.025-.087c.045-.153.508-1.491.97-1.631a.306.306,0,0,1,.281.083.475.475,0,0,1,.161.45,1.239,1.239,0,0,1-.434.628,5.344,5.344,0,0,1-.851.557Zm.12-.26a1.965,1.965,0,0,0,.987-.954.3.3,0,0,0-.116-.306.091.091,0,0,0-.107-.029.251.251,0,0,0-.107.062,3.786,3.786,0,0,0-.64,1.226Z" transform="translate(-161.708 -334.309)" fill="#ffb206"/>
        <path id="Trazado_778458" data-name="Trazado 778458" d="M214.648,401.227a.083.083,0,0,1-.087-.025c-.045-.037-.685-.851-.578-1.4a.516.516,0,0,1,.219-.334.3.3,0,0,1,.372-.033c.334.235.293,1.317.128,1.73v.041Zm-.368-1.59a.339.339,0,0,0-.107.194,1.922,1.922,0,0,0,.413,1.115c.1-.462.07-1.239-.128-1.359a.143.143,0,0,0-.161.025l-.033.025Z" transform="translate(-160.901 -334.171)" fill="#ffb206"/>
        <path id="Trazado_778459" data-name="Trazado 778459" d="M147.116,415.589a.1.1,0,0,1,.074-.07.074.074,0,0,1,.078.045c.083.14.714,1.4.487,1.833a.281.281,0,0,1-.252.14.462.462,0,0,1-.434-.194,1.239,1.239,0,0,1-.145-.752,5.245,5.245,0,0,1,.19-1Zm.1.264a1.994,1.994,0,0,0,0,1.375.306.306,0,0,0,.3.132.1.1,0,0,0,.1-.058.413.413,0,0,0,.029-.12,3.911,3.911,0,0,0-.429-1.33Z" transform="translate(-121.535 -343.64)" fill="#ffb206"/>
        <path id="Trazado_778460" data-name="Trazado 778460" d="M153.333,393.07l-4.893,3.588-2.35,1.722,1.532,2.68,2.387-1.3,5.826-3.188Z" transform="translate(-121.05 -330.461)" fill="#ebb376"/>
        <path id="Trazado_778461" data-name="Trazado 778461" d="M142.878,407.3l-1.478-3.258a.351.351,0,0,0-.475-.169l-1.594.78s-2.217.9-2.478,1.615c-.826,2.106,2.267,9.394,3.229,9.4.351,0,.562-.545.611-.892.153-1.107.182-3.882.322-4.8a3.755,3.755,0,0,1,1.755-2.23A.355.355,0,0,0,142.878,407.3Z" transform="translate(-115.546 -336.78)" fill="#263238"/>
        <path id="Trazado_778462" data-name="Trazado 778462" d="M147.408,415.555a.087.087,0,0,1,.078-.045c.058,0,1.086.1,1.4.562a.529.529,0,0,1,.083.392.3.3,0,0,1-.235.289c-.413.074-1.148-.71-1.326-1.115V415.6a.087.087,0,0,1,0-.045Zm1.392.851a.33.33,0,0,0-.062-.215c-.2-.289-.8-.413-1.094-.475.256.413.826.908,1.057.863.025,0,.074,0,.095-.132v-.041Z" transform="translate(-121.823 -343.635)" fill="#ffb206"/>
        <path id="Trazado_778463" data-name="Trazado 778463" d="M156.673,393.07l-4.893,3.588,1.569,3.1,5.826-3.188Z" transform="translate(-124.39 -330.461)" opacity="0.2"/>
        <path id="Trazado_778464" data-name="Trazado 778464" d="M154.646,401.983l1.61-.359-2.672-5.1-1.495,1.524Z" transform="translate(-124.572 -332.487)" fill="#ffb206"/>
        <path id="Trazado_778465" data-name="Trazado 778465" d="M154.646,401.983l1.61-.359-2.672-5.1-1.495,1.524Z" transform="translate(-124.572 -332.487)" fill="#fff" opacity="0.6"/>
        <path id="Trazado_778466" data-name="Trazado 778466" d="M188.15,402.013l5.987.987,2.878.475.838-2.973-2.6-.789L188.9,397.78Z" transform="translate(-145.742 -333.227)" fill="#ebb376"/>
        <path id="Trazado_778467" data-name="Trazado 778467" d="M208.354,397.578l-1.3,3.332a.359.359,0,0,0,.211.462l1.672.59s2.193.958,2.891.652c2.065-.892,5.129-8.193,4.456-8.882-.248-.252-.78-.021-1.065.19-.9.661-2.891,2.585-3.654,3.126a3.793,3.793,0,0,1-2.82.31.347.347,0,0,0-.392.219Z" transform="translate(-156.829 -330.786)" fill="#263238"/>
        <path id="Trazado_778468" data-name="Trazado 778468" d="M188.15,402.013l5.987.987,1.115-3.287L188.9,397.78Z" transform="translate(-145.742 -333.227)" opacity="0.2"/>
        <path id="Trazado_778469" data-name="Trazado 778469" d="M144.63,380.671s-24.891-14.684-33.315-14.292-9.155,8.758-5.682,13.4,9.91,5.781,9.91,5.781-4.369-6.194-3.737-7.912,3.039,4.1,3.039,4.1,15.423,2.019,28.86,3.159Z" transform="translate(-96.152 -314.787)" fill="#ffb206"/>
        <path id="Trazado_778470" data-name="Trazado 778470" d="M199.319,398.719l-1.383-.929-1.776,5.455h2.131Z" transform="translate(-150.445 -333.232)" fill="#ffb206"/>
        <path id="Trazado_778471" data-name="Trazado 778471" d="M199.319,398.719l-1.383-.929-1.776,5.455h2.131Z" transform="translate(-150.445 -333.232)" fill="#fff" opacity="0.6"/>
        <path id="Trazado_778472" data-name="Trazado 778472" d="M121.279,318.528c-4.505-8.672-3.072-21.865.826-34.992-2.725-2.275-13.6-3.811-21.885-1.4a159.012,159.012,0,0,0-4.641,40.789Z" transform="translate(-91.366 -264.62)" fill="#263238"/>
        <path id="Trazado_778473" data-name="Trazado 778473" d="M126.229,277.526c-3.621,0-5.979-3.8-5.979-3.8,4.749-1.652,4.765-6.677,4.765-6.677l1.829,1.788,2.606,2.552c-2.168,1.536-1.144,2.866-.454,3.456a3.172,3.172,0,0,0,.454.339S129.851,277.526,126.229,277.526Z" transform="translate(-105.88 -256.479)" fill="#ebb376"/>
        <path id="Trazado_778474" data-name="Trazado 778474" d="M135.552,277.181c-4.443.5-4.129-6.153-4.129-6.153a11.308,11.308,0,0,1,1.99.145l2.606,2.552C133.839,275.261,134.863,276.59,135.552,277.181Z" transform="translate(-112.437 -258.813)" opacity="0.2"/>
        <path id="Trazado_778475" data-name="Trazado 778475" d="M148.372,254.032c-1.681.694-1.359,2.531,1.433,5.88,1.718-1.482,2.651-4.852,1.747-5.934S149.842,253.417,148.372,254.032Z" transform="translate(-121.788 -248.437)" fill="#263238"/>
        <path id="Trazado_778476" data-name="Trazado 778476" d="M141.636,258.366h0a11.741,11.741,0,0,1-.537,1.313,4.9,4.9,0,0,1-8.548.694l-.025-.033c-1.4-2.25-.871-4.352-.289-7.994a5.038,5.038,0,0,1,7.846-3.378C142.866,250.9,142.7,255.257,141.636,258.366Z" transform="translate(-112.565 -245.338)" fill="#ebb376"/>
        <path id="Trazado_778477" data-name="Trazado 778477" d="M145.512,263.1c-.066.293.037.566.227.607s.413-.157.462-.45-.037-.562-.223-.607S145.594,262.816,145.512,263.1Z" transform="translate(-120.699 -253.893)" fill="#263238"/>
        <path id="Trazado_778478" data-name="Trazado 778478" d="M153.552,264.917c-.066.289.037.562.231.6s.413-.153.467-.45-.041-.566-.231-.607S153.618,264.623,153.552,264.917Z" transform="translate(-125.419 -254.957)" fill="#263238"/>
        <path id="Trazado_778479" data-name="Trazado 778479" d="M149.982,265.31a10.687,10.687,0,0,0,.826,2.816,1.735,1.735,0,0,1-1.458-.054Z" transform="translate(-122.964 -255.457)" fill="#d58745"/>
        <path id="Trazado_778480" data-name="Trazado 778480" d="M143.689,259.649a.153.153,0,0,1-.1-.05.173.173,0,0,1,0-.248,1.738,1.738,0,0,1,1.557-.413.169.169,0,0,1,.12.206h0a.186.186,0,0,1-.219.12h0a1.383,1.383,0,0,0-1.239.326A.182.182,0,0,1,143.689,259.649Z" transform="translate(-119.549 -251.692)" fill="#263238"/>
        <path id="Trazado_778481" data-name="Trazado 778481" d="M156.369,261.589a.186.186,0,0,1-.132-.136,1.4,1.4,0,0,0-.793-.991.182.182,0,0,1-.107-.227.178.178,0,0,1,.223-.107,1.747,1.747,0,0,1,1.016,1.239.173.173,0,0,1-.128.211h-.078Z" transform="translate(-126.473 -252.409)" fill="#263238"/>
        <path id="Trazado_778482" data-name="Trazado 778482" d="M132.963,250.091c1.548.954.937,2.717-2.35,5.575-1.466-1.734-1.85-5.215-.78-6.132S131.608,249.261,132.963,250.091Z" transform="translate(-111.148 -245.932)" fill="#263238"/>
        <path id="Trazado_778483" data-name="Trazado 778483" d="M127.376,261.953a3.493,3.493,0,0,0,1.169,2.412c.925.826,1.912.107,2.1-1.041.169-1.036-.116-2.7-1.239-3.068A1.578,1.578,0,0,0,127.376,261.953Z" transform="translate(-110.062 -252.443)" fill="#ebb376"/>
        <path id="Trazado_778484" data-name="Trazado 778484" d="M142.53,272.09a2.578,2.578,0,0,0,2.139,1.619" transform="translate(-118.96 -259.438)" fill="none" stroke="#263238" stroke-linecap="round" stroke-linejoin="round" stroke-width="0.557"/>
        <path id="Trazado_778485" data-name="Trazado 778485" d="M146.668,263.609a1.239,1.239,0,1,1-1.239-1.239A1.239,1.239,0,0,1,146.668,263.609Z" transform="translate(-119.935 -253.731)" fill="none" stroke="#263238" stroke-linecap="round" stroke-linejoin="round" stroke-width="0.557"/>
        <path id="Trazado_778486" data-name="Trazado 778486" d="M154.838,265.289a1.239,1.239,0,1,1-1.239-1.239A1.239,1.239,0,0,1,154.838,265.289Z" transform="translate(-124.731 -254.718)" fill="none" stroke="#263238" stroke-linecap="round" stroke-linejoin="round" stroke-width="0.557"/>
        <path id="Trazado_778487" data-name="Trazado 778487" d="M150.19,266.079a.661.661,0,0,1,.871.231" transform="translate(-123.457 -255.863)" fill="none" stroke="#263238" stroke-linecap="round" stroke-linejoin="round" stroke-width="0.557"/>
        <path id="Trazado_778488" data-name="Trazado 778488" d="M138.137,262.4s-3.588-1.511-4.257-1.652" transform="translate(-113.882 -252.78)" fill="none" stroke="#263238" stroke-linecap="round" stroke-linejoin="round" stroke-width="0.557"/>
        <path id="Trazado_778489" data-name="Trazado 778489" d="M130.589,245.1a3.02,3.02,0,0,1,2.606-3.4c2.977-.483,6.871.264,8.077-.252a1.9,1.9,0,0,1-.855,1.264,6.631,6.631,0,0,0,4.059.116,8.619,8.619,0,0,1-1.78,2.977h.855a6.354,6.354,0,0,1-3.754,1.652c-2.061.033-4-2.8-6.041-1.85A2.532,2.532,0,0,1,130.589,245.1Z" transform="translate(-111.941 -241.45)" fill="#263238"/>
        <path id="Trazado_778490" data-name="Trazado 778490" d="M142.119,266.46h0a11.74,11.74,0,0,1-.537,1.313,4.9,4.9,0,0,1-8.548.694l-.025-.033a5.058,5.058,0,0,1-.219-4.051l.636-2.065.462-.458a10.527,10.527,0,0,0,.434,2.684c.326.59,2.184.764,2.564.867s1.28,1.177,1.726,1.466,2.065.05,2.275.289S142.119,266.46,142.119,266.46Z" transform="translate(-113.049 -253.432)" opacity="0.4"/>
        <path id="Trazado_778491" data-name="Trazado 778491" d="M110.89,353.5l8.564,9.5s9.464-.211,20.96,5.409c0,0,12.334-5.1,13.47-9.328s-25.895-1.239-25.895-1.239Z" transform="translate(-100.385 -307.231)" opacity="0.2"/>
        <path id="Trazado_778492" data-name="Trazado 778492" d="M114.4,346.75l13.73,4.493s4.906-1.086,5.781-1.086,4.266,2.754,2.35,3.716-7.148,1.086-7.718.776-15.795-3.873-15.795-3.873Z" transform="translate(-101.477 -303.268)" fill="#ebb376"/>
        <path id="Trazado_778493" data-name="Trazado 778493" d="M94.3,283.85c3.105-.6-2.284,18.326-.962,21.113s6.479,4.542,6.479,4.542l-2.374,5.24s-7.02-1.326-10.839-6.194S89.233,284.833,94.3,283.85Z" transform="translate(-85.45 -266.333)" fill="#263238"/>
        <path id="Trazado_778494" data-name="Trazado 778494" d="M94.3,283.85c3.105-.6-2.284,18.326-.962,21.113s6.479,4.542,6.479,4.542l-2.374,5.24s-7.02-1.326-10.839-6.194S89.233,284.833,94.3,283.85Z" transform="translate(-85.45 -266.333)" opacity="0.2"/>
        <path id="Trazado_778495" data-name="Trazado 778495" d="M116.141,345l-2.891,5.661,2.478.533L118,345.983Z" transform="translate(-101.771 -302.241)" fill="#263238"/>
        <path id="Trazado_778496" data-name="Trazado 778496" d="M116.141,345l-2.891,5.661,2.478.533L118,345.983Z" transform="translate(-101.771 -302.241)" fill="#fff" opacity="0.2"/>
        <path id="Trazado_778497" data-name="Trazado 778497" d="M134,364v.9a1.169,1.169,0,0,0,1.115,1.164h33.2a1.239,1.239,0,0,0,1.2-1.164V364Z" transform="translate(-113.952 -313.395)" fill="#263238"/>
        <path id="Trazado_778498" data-name="Trazado 778498" d="M134,364v.9a1.169,1.169,0,0,0,1.115,1.164h33.2a1.239,1.239,0,0,0,1.2-1.164V364Z" transform="translate(-113.952 -313.395)" fill="#fff" opacity="0.2"/>
        <path id="Trazado_778499" data-name="Trazado 778499" d="M164,364v.9a1.173,1.173,0,0,0,1.119,1.164h20.8a1.239,1.239,0,0,0,1.2-1.164V364Z" transform="translate(-131.564 -313.395)" fill="#fff" opacity="0.2"/>
        <path id="Trazado_778500" data-name="Trazado 778500" d="M165.412,341.168h21.931a1.788,1.788,0,0,0,1.594-1.177l5.03-15.778a.871.871,0,0,0-.826-1.214H171.193a1.833,1.833,0,0,0-1.594,1.214l-5.029,15.757a.859.859,0,0,0,.842,1.2Z" transform="translate(-131.858 -289.325)" fill="#263238"/>
        <path id="Trazado_778501" data-name="Trazado 778501" d="M165.412,341.168h21.931a1.788,1.788,0,0,0,1.594-1.177l5.03-15.778a.871.871,0,0,0-.826-1.214H171.193a1.833,1.833,0,0,0-1.594,1.214l-5.029,15.757a.859.859,0,0,0,.842,1.2Z" transform="translate(-131.858 -289.325)" fill="#fff" opacity="0.2"/>
        <path id="Trazado_778502" data-name="Trazado 778502" d="M167.412,341.168h21.1a1.788,1.788,0,0,0,1.594-1.177l5.03-15.778a.871.871,0,0,0-.826-1.214H173.193a1.833,1.833,0,0,0-1.594,1.214l-5.029,15.757a.859.859,0,0,0,.842,1.2Z" transform="translate(-133.032 -289.325)" fill="#fff" opacity="0.2"/>
        <path id="Trazado_778503" data-name="Trazado 778503" d="M201.005,340.81l-3.035,2.151,1.313,2.147,3.035-2.147Z" transform="translate(-151.507 -299.781)" fill="#fff" opacity="0.2"/>
      </g>
    </g>
    <g id="freepik--Tabs--inject-4" transform="translate(68.596 57.948)">
      <rect id="Rectángulo_374028" data-name="Rectángulo 374028" width="34.988" height="34.988" rx="8.74" transform="translate(0 13.032)" opacity="0.2"/>
      <rect id="Rectángulo_374029" data-name="Rectángulo 374029" width="29.318" height="29.318" rx="7.33" transform="translate(9.811 9.192)" fill="#ffb206"/>
      <rect id="Rectángulo_374030" data-name="Rectángulo 374030" width="29.318" height="29.318" rx="7.33" transform="translate(9.811 9.192)" fill="#fff" opacity="0.3"/>
      <path id="Trazado_778504" data-name="Trazado 778504" d="M215,102.483v-1.771l-.913-.087a4.708,4.708,0,0,0-.681-1.652l.586-.71-1.239-1.239-.706.586a4.761,4.761,0,0,0-1.652-.681L210.3,96h-1.771l-.078.929a4.761,4.761,0,0,0-1.652.681l-.706-.586-1.239,1.239.586.71a4.708,4.708,0,0,0-.681,1.652l-.913.087v1.771l.913.087a4.761,4.761,0,0,0,.681,1.652l-.586.71,1.239,1.239.706-.586a4.761,4.761,0,0,0,1.652.681l.087.913h1.771l.087-.913a4.761,4.761,0,0,0,1.652-.681l.706.586L214,104.932l-.586-.723a4.761,4.761,0,0,0,.681-1.652ZM209.42,104a2.4,2.4,0,1,1,2.4-2.4,2.4,2.4,0,0,1-2.4,2.4Z" transform="translate(-188.27 -82.018)" fill="#fff"/>
      <path id="Trazado_778505" data-name="Trazado 778505" d="M235.828,116.621v-1.392l-.714-.066a3.683,3.683,0,0,0-.533-1.284l.458-.553-.966-.983-.553.458a3.684,3.684,0,0,0-1.284-.533l-.066-.718h-1.4l-.066.718a3.683,3.683,0,0,0-1.284.533l-.553-.458-.987.983.458.553a3.683,3.683,0,0,0-.533,1.284l-.714.066v1.392l.714.066a3.683,3.683,0,0,0,.533,1.284l-.458.553.983.983.553-.458a3.683,3.683,0,0,0,1.284.533l.066.714h1.392l.066-.714a3.683,3.683,0,0,0,1.284-.533l.553.458.983-.983-.458-.553a3.683,3.683,0,0,0,.533-1.284Zm-4.373,1.185a1.883,1.883,0,1,1,1.883-1.883,1.883,1.883,0,0,1-1.883,1.883Z" transform="translate(-201.914 -91.147)" fill="#fff"/>
      <path id="Trazado_778506" data-name="Trazado 778506" d="M220.394,127.327v-1.169l-.6-.054a3.072,3.072,0,0,0-.446-1.078l.384-.467-.826-.826-.467.384a3.138,3.138,0,0,0-1.078-.446l-.058-.6h-1.169l-.058.6a3.138,3.138,0,0,0-1.078.446l-.467-.384-.826.826.384.467a3.072,3.072,0,0,0-.446,1.078l-.6.054v1.169l.6.058a3.138,3.138,0,0,0,.446,1.078l-.384.467.826.826.467-.384a3.229,3.229,0,0,0,1.078.45l.058.6H217.3l.058-.6a3.229,3.229,0,0,0,1.078-.45l.467.384.826-.826-.384-.467a3.139,3.139,0,0,0,.446-1.078Zm-3.654,1a1.582,1.582,0,1,1,1.577-1.577A1.582,1.582,0,0,1,216.74,128.322Z" transform="translate(-193.665 -97.91)" fill="#fff"/>
      <rect id="Rectángulo_374031" data-name="Rectángulo 374031" width="29.318" height="29.318" rx="7.33" transform="translate(11.05 9.192)" fill="#fff" opacity="0.2"/>
      <rect id="Rectángulo_374032" data-name="Rectángulo 374032" width="32.345" height="32.345" rx="8.08" transform="translate(52.806 46.992)" opacity="0.2"/>
      <rect id="Rectángulo_374033" data-name="Rectángulo 374033" width="27.101" height="27.101" rx="6.77" transform="translate(60.932 45.261)" fill="#ffb206"/>
      <rect id="Rectángulo_374034" data-name="Rectángulo 374034" width="27.101" height="27.101" rx="6.77" transform="translate(60.932 45.261)" fill="#fff" opacity="0.2"/>
      <path id="Trazado_778507" data-name="Trazado 778507" d="M346.217,213.719a.979.979,0,1,1-.975-.979A.979.979,0,0,1,346.217,213.719Z" transform="translate(-270.7 -150.553)" fill="#fff"/>
      <path id="Trazado_778508" data-name="Trazado 778508" d="M332.616,191.47a9.712,9.712,0,0,0-9.716,9.716h7.759a1.829,1.829,0,0,1,1.957-1.916,2.111,2.111,0,0,1,.582.111l3.638-4.224-2.568,5a1.841,1.841,0,0,1,.3,1.032h7.78a9.716,9.716,0,0,0-9.733-9.716Z" transform="translate(-258.161 -138.066)" fill="#fff"/>
      <rect id="Rectángulo_374035" data-name="Rectángulo 374035" width="27.101" height="27.101" rx="6.77" transform="translate(62.076 45.261)" fill="#fff" opacity="0.2"/>
      <rect id="Rectángulo_374036" data-name="Rectángulo 374036" width="28.381" height="28.381" rx="7.09" transform="translate(64.244 21.142)" opacity="0.2"/>
      <rect id="Rectángulo_374037" data-name="Rectángulo 374037" width="23.781" height="23.781" rx="5.94" transform="translate(71.854 18.64)" fill="#ffb206"/>
      <rect id="Rectángulo_374038" data-name="Rectángulo 374038" width="23.781" height="23.781" rx="5.94" transform="translate(71.854 18.64)" fill="#fff" opacity="0.1"/>
      <path id="Trazado_778509" data-name="Trazado 778509" d="M366.214,120.78a.78.78,0,0,0-.78-.78H353.78a.78.78,0,0,0-.78.78v2.568a.78.78,0,0,0,.78.78h11.653a.78.78,0,0,0,.78-.78Zm-3.849,1.392H361.7V121.5h.669Zm1.788.334a.669.669,0,1,1,.472-.194.673.673,0,0,1-.472.194Z" transform="translate(-275.832 -96.108)" fill="#fff"/>
      <path id="Trazado_778510" data-name="Trazado 778510" d="M366.214,131.78a.78.78,0,0,0-.78-.78H353.78a.78.78,0,0,0-.78.78v2.568a.78.78,0,0,0,.78.78h11.653a.78.78,0,0,0,.78-.78Zm-3.849,1.652H361.7v-.669h.669Zm1.788.334a.672.672,0,1,1,.471-.2.669.669,0,0,1-.471.2Z" transform="translate(-275.832 -102.566)" fill="#fff"/>
      <path id="Trazado_778511" data-name="Trazado 778511" d="M366.214,142.78a.78.78,0,0,0-.78-.78H353.78a.78.78,0,0,0-.78.78v2.568a.78.78,0,0,0,.78.78h11.653a.78.78,0,0,0,.78-.78Zm-3.849,1.908H361.7v-.669h.669Zm1.788.334a.669.669,0,1,1,.472-.194.669.669,0,0,1-.472.194Z" transform="translate(-275.832 -109.023)" fill="#fff"/>
      <rect id="Rectángulo_374039" data-name="Rectángulo 374039" width="23.781" height="23.781" rx="5.94" transform="translate(72.862 18.64)" fill="#fff" opacity="0.2"/>
      <rect id="Rectángulo_374040" data-name="Rectángulo 374040" width="34.988" height="34.988" rx="8.74" transform="translate(17.958 43.118)" opacity="0.2"/>
      <rect id="Rectángulo_374041" data-name="Rectángulo 374041" width="29.318" height="29.318" rx="7.33" transform="translate(26.167 40.645)" fill="#ffb206"/>
      <rect id="Rectángulo_374042" data-name="Rectángulo 374042" width="29.318" height="29.318" rx="7.33" transform="translate(26.167 40.645)" fill="#fff" opacity="0.5"/>
      <path id="Trazado_778512" data-name="Trazado 778512" d="M244.4,202.814h0a2.292,2.292,0,0,1,0-3.241l5.368-5.343a1.284,1.284,0,0,1,1.825,0L253,195.637a1.288,1.288,0,0,1,0,1.829l-5.347,5.347a2.284,2.284,0,0,1-3.258,0Z" transform="translate(-211.679 -139.462)" fill="#fff"/>
      <path id="Trazado_778513" data-name="Trazado 778513" d="M267.713,183.788l-1.053-1.053,6.041-6.041,1.317-.264-.264,1.317Z" transform="translate(-225.144 -129.236)" fill="#fff"/>
      <path id="Trazado_778514" data-name="Trazado 778514" d="M264.945,193.955l-1.858-1.862a.413.413,0,0,1,0-.6h0a.413.413,0,0,1,.6,0l1.858,1.858a.413.413,0,0,1,0,.6h0a.413.413,0,0,1-.6,0Z" transform="translate(-222.971 -138.003)" fill="#fff"/>
      <path id="Trazado_778515" data-name="Trazado 778515" d="M251.125,180.734l-2.548-2.556a2.8,2.8,0,0,0-1.532-3.258l-.021,1.966a.826.826,0,0,1-1.652,0v-1.933a2.717,2.717,0,0,0-1.693,2.378,2.523,2.523,0,0,0,2.205,2.478,2.176,2.176,0,0,0,1.239-.173l2.568,2.577Z" transform="translate(-211.653 -128.35)" fill="#fff"/>
      <path id="Trazado_778516" data-name="Trazado 778516" d="M274.06,204.66v1.953a2.717,2.717,0,0,0,1.693-2.378,2.527,2.527,0,0,0-2.147-2.515,1.986,1.986,0,0,0-1.177.116l-2.668-2.676-1.462,1.462,2.651,2.655a2.433,2.433,0,0,0,1.474,3.3V204.64a.818.818,0,1,1,1.635.021Z" transform="translate(-226.107 -142.58)" fill="#fff"/>
      <rect id="Rectángulo_374043" data-name="Rectángulo 374043" width="29.318" height="29.318" rx="7.33" transform="translate(27.406 40.645)" fill="#fff" opacity="0.2"/>
      <rect id="Rectángulo_374044" data-name="Rectángulo 374044" width="35.339" height="35.339" rx="8.83" transform="translate(77.994 35.339) rotate(180)" fill="#ffb206"/>
      <rect id="Rectángulo_374045" data-name="Rectángulo 374045" width="42.177" height="42.177" rx="10.54" transform="translate(34.5 5.612)" opacity="0.2"/>
      <rect id="Rectángulo_374046" data-name="Rectángulo 374046" width="35.339" height="35.339" rx="8.83" transform="translate(77.994 35.339) rotate(180)" fill="#fff" opacity="0.5"/>
      <path id="Trazado_778517" data-name="Trazado 778517" d="M296.811,78.41,286,82.655s1.367,14.866,10.823,17.653c9.46-2.787,10.827-17.653,10.827-17.653ZM296.538,92.8a.764.764,0,0,1-.6.3h0a.752.752,0,0,1-.6-.314l-3.795-5.232a.748.748,0,0,1,1.21-.88l3.2,4.41,5.236-6.912a.747.747,0,0,1,1.045-.145.826.826,0,0,1,.145,1.094Z" transform="translate(-236.498 -71.692)" fill="#fff"/>
      <rect id="Rectángulo_374047" data-name="Rectángulo 374047" width="35.339" height="35.339" rx="8.83" transform="translate(79.485 35.339) rotate(180)" fill="#fff" opacity="0.2"/>
    </g>
    <g id="freepik--Promt-2--inject-4" transform="translate(143.621 149.945)">
      <rect id="Rectángulo_374048" data-name="Rectángulo 374048" width="35.202" height="23.756" fill="#ffb206"/>
      <rect id="Rectángulo_374049" data-name="Rectángulo 374049" width="35.202" height="23.756" fill="#fff" opacity="0.7"/>
      <rect id="Rectángulo_374050" data-name="Rectángulo 374050" width="33.807" height="21.134" transform="translate(0.652 1.829)" fill="#263238"/>
      <rect id="Rectángulo_374051" data-name="Rectángulo 374051" width="27.794" height="0.619" transform="translate(2.201 5.104)" fill="#e0e0e0"/>
      <rect id="Rectángulo_374052" data-name="Rectángulo 374052" width="23.661" height="0.619" transform="translate(2.201 6.859)" fill="#e0e0e0"/>
      <rect id="Rectángulo_374053" data-name="Rectángulo 374053" width="27.794" height="0.619" transform="translate(2.201 8.614)" fill="#e0e0e0"/>
      <rect id="Rectángulo_374054" data-name="Rectángulo 374054" width="23.661" height="0.619" transform="translate(2.201 10.369)" fill="#e0e0e0"/>
      <rect id="Rectángulo_374055" data-name="Rectángulo 374055" width="3.002" height="0.619" transform="translate(2.201 12.124)" fill="#e0e0e0"/>
      <rect id="Rectángulo_374056" data-name="Rectángulo 374056" width="15.398" height="0.619" transform="translate(2.201 13.879)" fill="#e0e0e0"/>
      <rect id="Rectángulo_374057" data-name="Rectángulo 374057" width="23.661" height="0.619" transform="translate(2.201 15.634)" fill="#e0e0e0"/>
      <rect id="Rectángulo_374058" data-name="Rectángulo 374058" width="3.002" height="0.619" transform="translate(2.201 17.389)" fill="#e0e0e0"/>
      <rect id="Rectángulo_374059" data-name="Rectángulo 374059" width="3.002" height="0.619" transform="translate(2.201 19.143)" fill="#e0e0e0"/>
    </g>
    <g id="freepik--Promt-1--inject-4" transform="translate(42.111 100.521)">
      <rect id="Rectángulo_374060" data-name="Rectángulo 374060" width="35.202" height="23.756" fill="#ffb206"/>
      <rect id="Rectángulo_374061" data-name="Rectángulo 374061" width="35.202" height="23.756" fill="#fff" opacity="0.7"/>
      <rect id="Rectángulo_374062" data-name="Rectángulo 374062" width="33.807" height="21.134" transform="translate(0.657 1.829)" fill="#263238"/>
      <rect id="Rectángulo_374063" data-name="Rectángulo 374063" width="27.794" height="0.619" transform="translate(2.205 5.104)" fill="#e0e0e0"/>
      <rect id="Rectángulo_374064" data-name="Rectángulo 374064" width="23.661" height="0.619" transform="translate(2.205 6.859)" fill="#e0e0e0"/>
      <rect id="Rectángulo_374065" data-name="Rectángulo 374065" width="27.794" height="0.619" transform="translate(2.205 8.614)" fill="#e0e0e0"/>
      <rect id="Rectángulo_374066" data-name="Rectángulo 374066" width="23.661" height="0.619" transform="translate(2.205 10.369)" fill="#e0e0e0"/>
      <rect id="Rectángulo_374067" data-name="Rectángulo 374067" width="3.002" height="0.619" transform="translate(2.205 12.124)" fill="#e0e0e0"/>
      <rect id="Rectángulo_374068" data-name="Rectángulo 374068" width="15.398" height="0.619" transform="translate(2.205 13.879)" fill="#e0e0e0"/>
      <rect id="Rectángulo_374069" data-name="Rectángulo 374069" width="23.661" height="0.619" transform="translate(2.205 15.634)" fill="#e0e0e0"/>
      <rect id="Rectángulo_374070" data-name="Rectángulo 374070" width="3.002" height="0.619" transform="translate(2.205 17.389)" fill="#e0e0e0"/>
      <rect id="Rectángulo_374071" data-name="Rectángulo 374071" width="3.002" height="0.619" transform="translate(2.205 19.143)" fill="#e0e0e0"/>
    </g>
  </g>
</svg>
