<svg xmlns="http://www.w3.org/2000/svg" xmlns:xlink="http://www.w3.org/1999/xlink" width="417" height="460.095" viewBox="0 0 417 460.095">
  <defs>
    <linearGradient id="linear-gradient" y1="0.5" x2="0.923" y2="0.5" gradientUnits="objectBoundingBox">
      <stop offset="0" stop-color="#e01650"/>
      <stop offset="1" stop-color="#e01650" stop-opacity="0"/>
    </linearGradient>
    <linearGradient id="linear-gradient-2" y1="0.5" x2="0.923" y2="0.5" gradientUnits="objectBoundingBox">
      <stop offset="0" stop-color="#ffb206"/>
      <stop offset="1" stop-color="#ffb206" stop-opacity="0"/>
    </linearGradient>
    <clipPath id="clip-path">
      <rect id="Rectángulo_373478" data-name="Rectángulo 373478" width="400" height="356.292" fill="none"/>
    </clipPath>
    <clipPath id="clip-path-3">
      <rect id="Rectángulo_373444" data-name="Rectángulo 373444" width="203.757" height="236.452" fill="none"/>
    </clipPath>
    <clipPath id="clip-path-4">
      <rect id="Rectángulo_373474" data-name="Rectángulo 373474" width="70.177" height="22.379" fill="none"/>
    </clipPath>
    <clipPath id="clip-path-5">
      <rect id="Rectángulo_373436" data-name="Rectángulo 373436" width="92.19" height="79.356" fill="url(#linear-gradient)"/>
    </clipPath>
  </defs>
  <g id="Grupo_1066621" data-name="Grupo 1066621" transform="translate(-1020 -2905)">
    <path id="Rectángulo_374102" data-name="Rectángulo 374102" d="M235,0H400a0,0,0,0,1,0,0V245a0,0,0,0,1,0,0H0a0,0,0,0,1,0,0V235A235,235,0,0,1,235,0Z" transform="translate(1020 3074)" fill="#8f52f5"/>
    <g id="Grupo_1064173" data-name="Grupo 1064173" transform="translate(1020 2905)">
      <g id="Grupo_1064171" data-name="Grupo 1064171" clip-path="url(#clip-path)">
        <g id="Grupo_1064170" data-name="Grupo 1064170">
          <g id="Grupo_1064169" data-name="Grupo 1064169" clip-path="url(#clip-path)">
            <path id="Trazado_777266" data-name="Trazado 777266" d="M189.742,346.294h-.14q-2.077,0-4.14-.048l.034-1.416q2.045.049,4.106.048Zm4.28-.055-.035-1.416q2.13-.053,4.245-.159l.069,1.413q-2.132.108-4.279.161m-12.839-.147q-2.143-.1-4.273-.259l.1-1.413q2.113.155,4.238.259Zm21.39-.278-.1-1.413q2.124-.159,4.229-.368l.142,1.407c-1.416.143-2.837.265-4.266.374m-29.926-.347q-2.137-.208-4.256-.471l.174-1.4q2.1.259,4.219.466Zm38.445-.505-.177-1.4q2.113-.266,4.207-.578l.211,1.4q-2.111.316-4.241.583m-46.943-.541q-2.122-.312-4.226-.681l.244-1.395q2.088.363,4.191.677Zm55.409-.731-.246-1.395q2.1-.37,4.174-.787l.279,1.388q-2.094.423-4.207.794m-63.843-.738q-2.1-.421-4.187-.893l.314-1.379q2.064.467,4.151.885ZM227.951,342l-.316-1.379q2.075-.476,4.127-1l.348,1.371q-2.069.527-4.16,1.005m-80.586-.936q-2.077-.525-4.136-1.1l.381-1.363q2.041.569,4.1,1.092Zm88.882-1.177-.384-1.363q2.047-.576,4.073-1.2l.418,1.352q-2.043.631-4.107,1.212m-97.126-1.13q-2.058-.631-4.092-1.313l.45-1.342q2.018.678,4.057,1.3Zm105.307-1.4-.454-1.341q2.018-.682,4.007-1.406l.487,1.329q-2.007.733-4.04,1.417m-113.454-1.331q-2.02-.733-4.018-1.516l.517-1.318q1.981.777,3.984,1.5Zm121.5-1.6-.52-1.317q1.975-.777,3.919-1.6l.549,1.305q-1.96.828-3.949,1.611m-129.495-1.529q-1.979-.837-3.935-1.717l.583-1.291q1.939.877,3.9,1.7ZM260.329,331.1l-.583-1.288q1.931-.877,3.834-1.8l.617,1.276q-1.922.926-3.868,1.808m-145.176-1.737q-1.935-.93-3.841-1.91l.647-1.259q1.89.968,3.809,1.894Zm152.864-1.975-.647-1.259q1.882-.968,3.741-1.982l.678,1.242q-1.871,1.022-3.772,2m-160.5-1.94q-1.884-1.03-3.741-2.1l.709-1.225q1.841,1.066,3.708,2.083Zm167.994-2.155-.709-1.225q1.833-1.062,3.639-2.168l.739,1.208q-1.82,1.115-3.669,2.185M100.1,321.155q-1.829-1.121-3.627-2.284l.767-1.189q1.786,1.153,3.6,2.264Zm182.7-2.323-.769-1.189q1.782-1.153,3.53-2.347l.8,1.169q-1.765,1.2-3.561,2.367M92.9,316.5q-1.769-1.208-3.509-2.461l.827-1.15q1.725,1.242,3.48,2.44Zm196.961-2.491-.83-1.148q1.72-1.242,3.412-2.522l.854,1.128q-1.7,1.289-3.436,2.541M85.943,311.492q-1.708-1.3-3.383-2.631l.884-1.106q1.661,1.323,3.354,2.609Zm210.727-2.653-.882-1.106q1.657-1.323,3.282-2.687l.91,1.083q-1.637,1.376-3.31,2.71m-217.422-2.69q-1.64-1.376-3.247-2.795l.937-1.062q1.593,1.406,3.22,2.772Zm223.975-2.811-.937-1.062q1.591-1.4,3.147-2.847l.961,1.036q-1.567,1.457-3.172,2.873m-230.4-2.856q-1.569-1.457-3.1-2.951l.988-1.012q1.521,1.482,3.077,2.927Zm236.67-2.966L308.5,296.5q1.519-1.48,3-3l1.011.991q-1.493,1.531-3.024,3.024m-242.8-3.01q-1.493-1.529-2.951-3.1l1.038-.963q1.444,1.559,2.927,3.074Zm248.777-3.118-1.036-.963q1.444-1.555,2.85-3.147l1.062.937q-1.419,1.606-2.876,3.173m-254.6-3.152q-1.414-1.6-2.792-3.242l1.085-.91q1.366,1.625,2.769,3.214Zm260.273-3.265-1.083-.913q1.363-1.62,2.692-3.283l1.106.882q-1.338,1.676-2.714,3.315M55.368,281.687q-1.336-1.674-2.629-3.374l1.128-.858q1.283,1.691,2.607,3.347Zm271.121-3.411-1.128-.854q1.281-1.695,2.527-3.418l1.147.827q-1.251,1.739-2.546,3.445M50.2,274.874q-1.249-1.731-2.455-3.5l1.168-.8q1.2,1.752,2.437,3.47Zm281.3-3.548-1.17-.8q1.2-1.754,2.353-3.54l1.188.769q-1.162,1.8-2.372,3.569M45.372,267.817q-1.162-1.793-2.28-3.615l1.208-.74q1.109,1.807,2.261,3.586Zm290.785-3.69-1.209-.739q1.111-1.814,2.176-3.654l1.226.709q-1.075,1.856-2.193,3.684M40.9,260.534q-1.068-1.846-2.1-3.722l1.243-.68q1.015,1.86,2.079,3.691Zm299.546-3.829-1.242-.678q1.019-1.867,1.991-3.761l1.259.647q-.981,1.909-2.008,3.792M36.807,253.04q-.975-1.9-1.906-3.821l1.276-.616q.922,1.907,1.89,3.789Zm307.564-3.967-1.276-.614q.924-1.916,1.8-3.857l1.291.583q-.886,1.958-1.817,3.888m-311.28-3.72q-.879-1.941-1.712-3.909l1.3-.551q.826,1.95,1.7,3.875Zm314.812-4.1L346.6,240.7q.826-1.96,1.606-3.943l1.318.517q-.786,2-1.618,3.977M29.768,237.5q-.784-1.99-1.519-4l1.33-.486q.728,2,1.506,3.969Zm321.273-4.239-1.329-.484q.728-2,1.406-4.021l1.341.449q-.682,2.041-1.417,4.056m-324.211-3.8q-.684-2.024-1.317-4.073l1.352-.418q.629,2.03,1.305,4.04Zm326.945-4.342-1.355-.415q.622-2.026,1.2-4.075l1.363.384q-.58,2.062-1.206,4.106M24.3,221.275q-.58-2.056-1.11-4.134l1.372-.35q.527,2.06,1.1,4.1Zm331.783-4.408-1.372-.347q.52-2.056.991-4.129l1.38.313q-.476,2.092-1,4.163m-333.9-3.888q-.476-2.083-.9-4.185l1.389-.282q.421,2.086.892,4.151Zm335.793-4.461-1.389-.279q.418-2.077.784-4.173l1.395.244q-.367,2.113-.79,4.208m-337.49-3.93q-.372-2.1-.692-4.225l1.4-.211q.314,2.1.684,4.19Zm338.964-4.5-1.4-.21q.31-2.094.572-4.207l1.4.173q-.261,2.13-.578,4.243m-340.24-3.963q-.265-2.117-.48-4.253l1.409-.142q.212,2.117.476,4.219ZM360.5,191.588l-1.409-.14q.21-2.107.364-4.229l1.413.1q-.157,2.139-.368,4.266M18.357,187.6q-.161-2.13-.268-4.273l1.414-.071q.106,2.124.265,4.238Zm342.77-4.553-1.414-.069q.1-2.115.154-4.243l1.416.035q-.053,2.143-.156,4.277m-343.2-4q-.053-2.134-.057-4.282h1.416q0,2.13.057,4.246Zm341.991-4.559q0-2.13-.054-4.248l1.416-.035q.051,2.134.054,4.282Zm-340.585-3.97-1.416-.033q.051-2.145.153-4.277l1.414.068q-.1,2.115-.151,4.242M359.71,166q-.106-2.126-.265-4.238l1.413-.1q.157,2.128.265,4.273ZM19.739,162.044l-1.412-.1q.153-2.139.362-4.265l1.409.137q-.206,2.109-.36,4.231m339.339-4.508q-.21-2.12-.473-4.219l1.4-.176q.266,2.12.476,4.255ZM20.564,153.593l-1.4-.173q.261-2.128.573-4.242l1.4.208q-.312,2.094-.571,4.207m337.465-4.483q-.316-2.1-.681-4.191l1.393-.245q.37,2.1.687,4.225ZM21.809,145.2l-1.4-.244q.37-2.113.786-4.209l1.389.277q-.414,2.079-.779,4.175m334.752-4.447q-.418-2.086-.891-4.151l1.38-.316q.474,2.086.9,4.187Zm-333.09-3.88-1.382-.311q.474-2.092,1-4.164l1.372.345q-.518,2.056-.987,4.13m331.207-4.4q-.522-2.06-1.1-4.1l1.363-.384q.58,2.058,1.107,4.136ZM25.55,128.637l-1.363-.382q.576-2.064,1.2-4.107l1.354.413q-.62,2.028-1.194,4.076M352.38,124.3q-.629-2.032-1.3-4.042l1.341-.45q.682,2.026,1.314,4.073ZM28.043,120.5l-1.342-.449q.684-2.041,1.414-4.057l1.331.483q-.726,2-1.4,4.023m321.63-4.256q-.728-2-1.5-3.97l1.317-.52q.784,1.99,1.516,4.006ZM30.948,112.5l-1.318-.515q.784-2,1.616-3.979l1.305.548q-.826,1.962-1.6,3.946m315.623-4.137q-.822-1.952-1.693-3.877l1.288-.583q.879,1.941,1.71,3.909ZM34.25,104.649l-1.29-.583q.881-1.956,1.811-3.889l1.277.613q-.924,1.918-1.8,3.86m308.837-4q-.92-1.909-1.887-3.79l1.259-.647q.975,1.9,1.9,3.821ZM37.942,96.979l-1.26-.646q.979-1.909,2-3.792l1.243.677q-1.017,1.867-1.988,3.761m301.278-3.864q-1.017-1.863-2.076-3.694l1.225-.709q1.068,1.848,2.093,3.725ZM42.011,89.509,40.785,88.8q1.073-1.856,2.19-3.686l1.208.738q-1.109,1.814-2.172,3.656m292.967-3.729q-1.111-1.807-2.26-3.586l1.189-.769q1.16,1.792,2.275,3.616ZM46.445,82.254l-1.189-.769q1.166-1.8,2.372-3.571l1.17.8q-1.2,1.754-2.352,3.541m283.929-3.591q-1.2-1.752-2.435-3.473l1.151-.827q1.245,1.735,2.454,3.5ZM51.234,75.231,50.085,74.4q1.251-1.739,2.544-3.446l1.128.854q-1.283,1.695-2.525,3.419M325.42,71.78q-1.283-1.693-2.6-3.35l1.106-.882q1.334,1.669,2.626,3.375ZM56.365,68.459l-1.106-.884q1.336-1.674,2.711-3.315l1.086.909q-1.366,1.629-2.692,3.289m263.764-3.312q-1.363-1.627-2.768-3.217l1.062-.936q1.414,1.6,2.791,3.242Zm-258.3-3.2-1.062-.936q1.417-1.608,2.873-3.177l1.038.963q-1.444,1.559-2.849,3.15m252.691-3.166q-1.444-1.555-2.927-3.077l1.015-.988q1.493,1.533,2.948,3.1ZM67.6,55.723l-1.014-.988q1.493-1.533,3.024-3.03l.991,1.014q-1.521,1.485-3,3M308.59,52.7q-1.521-1.482-3.075-2.929l.966-1.036q1.567,1.457,3.1,2.954ZM73.671,49.79l-.964-1.038q1.567-1.457,3.17-2.873l.937,1.06q-1.589,1.4-3.143,2.85m228.7-2.867q-1.591-1.406-3.217-2.774l.913-1.085q1.637,1.38,3.242,2.8ZM80.029,44.168l-.912-1.083q1.635-1.376,3.307-2.713l.884,1.106q-1.657,1.325-3.279,2.69m215.839-2.711q-1.661-1.327-3.351-2.612l.857-1.127q1.705,1.3,3.38,2.634ZM86.653,38.87,85.8,37.743q1.7-1.293,3.436-2.544l.828,1.148q-1.72,1.24-3.408,2.523M289.1,36.317q-1.722-1.242-3.479-2.444l.8-1.168q1.769,1.211,3.506,2.462ZM93.53,33.909l-.8-1.17q1.763-1.206,3.558-2.37l.77,1.188q-1.78,1.153-3.528,2.352m188.551-2.39q-1.782-1.155-3.6-2.267l.74-1.208q1.829,1.119,3.627,2.287ZM100.642,29.3,99.9,28.088q1.82-1.115,3.669-2.189l.711,1.225q-1.835,1.064-3.639,2.172m174.191-2.222q-1.839-1.066-3.707-2.086l.681-1.243q1.88,1.03,3.737,2.1ZM107.972,25.045l-.68-1.242q1.871-1.026,3.772-2l.648,1.259q-1.884.971-3.741,1.986M267.371,23q-1.892-.973-3.81-1.9l.617-1.274q1.933.934,3.84,1.914ZM115.5,21.167l-.617-1.274q1.92-.928,3.864-1.812l.586,1.291q-1.931.873-3.833,1.8M259.706,19.3q-1.939-.875-3.9-1.7l.549-1.3q1.979.835,3.935,1.719Zm-136.5-1.625-.551-1.3q1.96-.83,3.947-1.616l.52,1.318q-1.969.777-3.916,1.6m128.657-1.688q-1.981-.777-3.984-1.508l.484-1.33q2.02.735,4.017,1.521ZM131.092,14.562l-.487-1.33q2.009-.735,4.04-1.42l.453,1.341q-2.013.68-4.006,1.409m112.765-1.491q-2.018-.68-4.056-1.307l.418-1.354q2.056.635,4.09,1.318Zm-104.72-1.225-.419-1.354q2.041-.631,4.1-1.215l.385,1.362q-2.045.578-4.071,1.206m96.591-1.28q-2.041-.573-4.1-1.1l.348-1.373q2.077.529,4.136,1.106ZM147.307,9.537l-.35-1.372q2.071-.529,4.161-1.007l.316,1.379q-2.073.476-4.127,1M227.5,8.478q-2.069-.471-4.154-.889l.279-1.389q2.1.423,4.187.9Zm-71.917-.834L155.3,6.255q2.094-.423,4.207-.8l.246,1.393q-2.094.372-4.171.793m63.59-.838q-2.086-.367-4.191-.681l.21-1.4q2.122.316,4.228.685Zm-55.229-.64-.211-1.4q2.113-.319,4.241-.586l.177,1.4q-2.113.265-4.207.582m46.83-.616q-2.1-.261-4.218-.47l.137-1.409q2.137.21,4.255.474Zm-38.406-.443L172.228,3.7q2.124-.215,4.263-.375l.108,1.412q-2.122.159-4.229.372m29.957-.394q-2.111-.155-4.236-.259l.069-1.414q2.143.106,4.272.262Zm-21.49-.245-.072-1.414q2.132-.108,4.279-.164l.037,1.416q-2.13.053-4.243.163m13.011-.17q-2.115-.053-4.245-.052h-.278V2.83h.272q2.156,0,4.286.052Z" transform="translate(7.432 1.177)" fill="#263238"/>
            <path id="Trazado_777267" data-name="Trazado 777267" d="M319.485,107.158S261.5,99.6,182.74,18.539V17.42l-.552.552-.538-.552v1.119c-78.709,81.059-136.7,88.62-136.7,88.62C24.289,276.951,167.774,335.115,181.678,340.382v.4l.538-.2.552.2v-.4c13.9-5.267,157.389-63.5,136.717-233.224" transform="translate(17.848 7.245)" fill="#263238"/>
            <path id="Trazado_777268" data-name="Trazado 777268" d="M305.542,109s-53.421-6.952-126.013-81.668V26.3l-.51.524-.5-.524v1.034C105.917,102.092,52.51,109,52.51,109,33.453,265.569,165.781,319.245,178.524,324.074v.368l.5-.184.51.184v-.368c12.814-4.828,145.113-58.5,126.013-215.072" transform="translate(21.059 10.938)" fill="#ffb206"/>
            <g id="Grupo_1064165" data-name="Grupo 1064165" transform="translate(98.191 68.09)" opacity="0.5" style="isolation: isolate">
              <g id="Grupo_1064164" data-name="Grupo 1064164">
                <g id="Grupo_1064163" data-name="Grupo 1064163" clip-path="url(#clip-path-3)">
                  <path id="Trazado_777269" data-name="Trazado 777269" d="M271.623,113.674s-42.476-5.479-100-64.776V48.09c-.127.127-.255.269-.4.4l-.4-.4V48.9c-57.584,59.3-99.989,64.776-99.989,64.776C55.715,237.846,160.66,280.422,170.826,284.244v.3l.4-.156.4.156v-.3c10.18-3.823,115.111-46.4,100-170.571" transform="translate(-69.35 -48.09)" fill="#fff"/>
                </g>
              </g>
            </g>
            <path id="Trazado_777270" data-name="Trazado 777270" d="M78.026,8.09A29.026,29.026,0,1,1,49,37.116,29.025,29.025,0,0,1,78.026,8.09" transform="translate(20.378 3.364)" fill="#fff"/>
            <path id="Trazado_777271" data-name="Trazado 777271" d="M78.441,67.973a30.441,30.441,0,1,1,30.441-30.441A30.476,30.476,0,0,1,78.441,67.973m0-58.051a27.61,27.61,0,1,0,27.61,27.61,27.642,27.642,0,0,0-27.61-27.61" transform="translate(19.962 2.949)" fill="#263238"/>
            <path id="Trazado_777272" data-name="Trazado 777272" d="M73.586,26.655H66.28V18.613a3.653,3.653,0,1,1,7.306,0Z" transform="translate(27.564 6.222)" fill="#263238"/>
            <path id="Trazado_777273" data-name="Trazado 777273" d="M70.124,21.858a.746.746,0,0,1-.34-.085l-6.2-3.3a.68.68,0,0,1-.382-.623V13.108a.708.708,0,1,1,1.416,0v4.318l5.833,3.087a.726.726,0,1,1-.326,1.416Z" transform="translate(26.284 5.157)" fill="#263238"/>
            <path id="Trazado_777274" data-name="Trazado 777274" d="M69.934,21.858a.728.728,0,0,1-.34-1.416l5.833-3.087V13.108a.708.708,0,0,1,1.416,0v4.743a.693.693,0,0,1-.368.623l-6.216,3.3a.654.654,0,0,1-.326.085" transform="translate(28.711 5.157)" fill="#263238"/>
            <path id="Trazado_777275" data-name="Trazado 777275" d="M73.628,19.6A15.348,15.348,0,1,1,58.28,34.948,15.348,15.348,0,0,1,73.628,19.6" transform="translate(24.237 8.151)" fill="#ffb206"/>
            <path id="Trazado_777276" data-name="Trazado 777276" d="M73.836,51.212A16.056,16.056,0,1,1,89.892,35.156,16.074,16.074,0,0,1,73.836,51.212m0-30.7a14.64,14.64,0,1,0,14.64,14.64,14.657,14.657,0,0,0-14.64-14.64" transform="translate(24.029 7.943)" fill="#263238"/>
            <path id="Trazado_777277" data-name="Trazado 777277" d="M50.5,29.876a.715.715,0,0,1-.51-1.218l5.479-5.479a.723.723,0,0,1,.708-.17L63.653,25.2a.735.735,0,0,1-.4,1.416l-7.079-2.081-5.14,5.125a.711.711,0,0,1-.538.212" transform="translate(20.705 9.556)" fill="#263238"/>
            <path id="Trazado_777278" data-name="Trazado 777278" d="M51.266,36.113a.708.708,0,0,1-.538-1.161l4.021-4.757a.7.7,0,0,1,.538-.255h6.2a.708.708,0,0,1,0,1.416H55.613l-3.809,4.5a.7.7,0,0,1-.538.255" transform="translate(21.029 12.451)" fill="#263238"/>
            <path id="Trazado_777279" data-name="Trazado 777279" d="M54.369,44.838h-.1a.722.722,0,0,1-.609-.793L54.4,38.2a.723.723,0,0,1,.283-.5l5.748-4.035a.721.721,0,0,1,.991.17.708.708,0,0,1-.164.987l-.006,0-5.494,3.865-.694,5.522a.708.708,0,0,1-.694.623" transform="translate(22.315 13.949)" fill="#263238"/>
            <path id="Trazado_777280" data-name="Trazado 777280" d="M91.988,29.894a.718.718,0,0,1-.51-.212L86.3,24.5l-7.079,2.152a.737.737,0,1,1-.411-1.416l7.5-2.265a.694.694,0,0,1,.708.17L92.5,28.62a.722.722,0,0,1,0,1.005.7.7,0,0,1-.51.269" transform="translate(32.553 9.538)" fill="#263238"/>
            <path id="Trazado_777281" data-name="Trazado 777281" d="M90.391,36.113a.7.7,0,0,1-.538-.255l-3.809-4.5H80.168a.708.708,0,0,1,0-1.416h6.2a.75.75,0,0,1,.552.255l4.007,4.757a.693.693,0,0,1-.071.978l-.014.013a.661.661,0,0,1-.453.17" transform="translate(33.046 12.451)" fill="#263238"/>
            <path id="Trazado_777282" data-name="Trazado 777282" d="M86.191,44.868a.707.707,0,0,1-.694-.623L84.8,38.709l-5.451-3.922a.708.708,0,1,1,.722-1.218.67.67,0,0,1,.1.071l5.664,4.106a.725.725,0,0,1,.3.481l.722,5.848a.709.709,0,0,1-.609.793Z" transform="translate(32.856 13.919)" fill="#263238"/>
            <path id="Trazado_777283" data-name="Trazado 777283" d="M70.036,48.425H68.62V27.47l4.672-3.37.835,1.147-4.092,2.959Z" transform="translate(28.538 10.023)" fill="#263238"/>
            <path id="Trazado_777284" data-name="Trazado 777284" d="M69.783,38.01l-.623-1.26,7.632-3.823V26.06h1.416v7.745Z" transform="translate(28.762 10.838)" fill="#263238"/>
            <path id="Trazado_777285" data-name="Trazado 777285" d="M70.677,33.835,64.49,29.97V23.74h1.416v5.451l5.522,3.441Z" transform="translate(26.82 9.873)" fill="#263238"/>
            <path id="Trazado_777286" data-name="Trazado 777286" d="M71.308,41.532,62.94,36.208V30.7h1.416v4.729l7.717,4.9Z" transform="translate(26.175 12.768)" fill="#263238"/>
            <path id="Trazado_777287" data-name="Trazado 777287" d="M65.344,22.76A1.444,1.444,0,1,1,63.9,24.2a1.445,1.445,0,0,1,1.444-1.444" transform="translate(26.575 9.465)" fill="#263238"/>
            <path id="Trazado_777288" data-name="Trazado 777288" d="M72.834,23.42a1.444,1.444,0,1,1-1.444,1.444,1.445,1.445,0,0,1,1.444-1.444" transform="translate(29.69 9.74)" fill="#263238"/>
            <path id="Trazado_777289" data-name="Trazado 777289" d="M76.812,26.376A1.416,1.416,0,1,1,75.4,24.96a1.416,1.416,0,0,1,1.416,1.416" transform="translate(30.767 10.38)" fill="#263238"/>
            <path id="Trazado_777290" data-name="Trazado 777290" d="M65.3,30.976a1.416,1.416,0,1,1-1.416-1.416A1.416,1.416,0,0,1,65.3,30.976" transform="translate(25.98 12.293)" fill="#263238"/>
            <path id="Trazado_777291" data-name="Trazado 777291" d="M78.735,12.682a10.86,10.86,0,1,1,6.2,14.051,10.86,10.86,0,0,1-6.2-14.051" transform="translate(32.437 2.389)" fill="#fff"/>
            <path id="Trazado_777292" data-name="Trazado 777292" d="M89.281,29.3a12.306,12.306,0,1,1,4.951-1.052A12.281,12.281,0,0,1,89.281,29.3m-8.81-15.7h0A9.444,9.444,0,1,0,92.69,8.216a9.379,9.379,0,0,0-12.219,5.392" transform="translate(32.02 1.974)" fill="#263238"/>
            <rect id="Rectángulo_373445" data-name="Rectángulo 373445" width="20.8" height="2.832" transform="matrix(0.772, -0.636, 0.636, 0.772, 112.369, 24.518)" fill="#263238"/>
            <path id="Trazado_777293" data-name="Trazado 777293" d="M221.216,8.09A29.026,29.026,0,1,1,192.19,37.116,29.025,29.025,0,0,1,221.216,8.09" transform="translate(79.928 3.364)" fill="#ffb206"/>
            <rect id="Rectángulo_373446" data-name="Rectángulo 373446" width="0.249" height="1.417" transform="translate(316.735 64.171) rotate(-31.053)" fill="#fff"/>
            <path id="Trazado_777294" data-name="Trazado 777294" d="M217.548,51.411a29.55,29.55,0,0,1-16.233-4.844l.777-1.185a28.12,28.12,0,0,0,15.456,4.613Z" transform="translate(83.723 18.873)" fill="#fff"/>
            <path id="Trazado_777295" data-name="Trazado 777295" d="M232.787,22.965a28.346,28.346,0,0,0-6.769-8.98l.94-1.059a29.775,29.775,0,0,1,7.106,9.426Z" transform="translate(93.996 5.376)" fill="#fff"/>
            <path id="Trazado_777296" data-name="Trazado 777296" d="M212.78,51.411V49.995a28.073,28.073,0,0,0,15.44-4.613L229,46.566a29.494,29.494,0,0,1-16.217,4.845" transform="translate(88.491 18.873)" fill="#fff"/>
            <path id="Trazado_777297" data-name="Trazado 777297" d="M224.619,49.023l-.786-1.178a28.587,28.587,0,0,0,8.5-8.855l1.209.738a30.031,30.031,0,0,1-8.919,9.3" transform="translate(93.087 16.215)" fill="#fff"/>
            <path id="Trazado_777298" data-name="Trazado 777298" d="M231.041,42.368l-1.208-.743a27.743,27.743,0,0,0,3.578-8.975l1.386.287a29.186,29.186,0,0,1-3.756,9.431" transform="translate(95.583 13.578)" fill="#fff"/>
            <path id="Trazado_777299" data-name="Trazado 777299" d="M204,49.2a30.029,30.029,0,0,1-9.137-9.427l1.208-.738a28.623,28.623,0,0,0,8.7,8.98Z" transform="translate(81.039 16.236)" fill="#fff"/>
            <path id="Trazado_777300" data-name="Trazado 777300" d="M199.808,16.133l-.94-1.058A29.589,29.589,0,0,1,218.549,7.59h.017V9.006h-.017a28.179,28.179,0,0,0-18.741,7.128" transform="translate(82.705 3.157)" fill="#fff"/>
            <path id="Trazado_777301" data-name="Trazado 777301" d="M231.523,16.133a28.175,28.175,0,0,0-18.739-7.128h0V7.59h0a29.585,29.585,0,0,1,19.679,7.486Z" transform="translate(88.491 3.157)" fill="#fff"/>
            <path id="Trazado_777302" data-name="Trazado 777302" d="M233.746,35.674l-1.386-.29a28.2,28.2,0,0,0,.595-5.746,27.562,27.562,0,0,0-.207-3.227l1.4-.173a28.821,28.821,0,0,1,.218,3.4,29.647,29.647,0,0,1-.624,6.04" transform="translate(96.634 10.912)" fill="#fff"/>
            <path id="Trazado_777303" data-name="Trazado 777303" d="M233.4,29.173a27.756,27.756,0,0,0-2.6-8.975l1.274-.614a29.155,29.155,0,0,1,2.728,9.431Z" transform="translate(95.985 8.144)" fill="#fff"/>
            <path id="Trazado_777304" data-name="Trazado 777304" d="M192.36,35.671a29.582,29.582,0,0,1-.61-6.034,29.036,29.036,0,0,1,.2-3.4l1.4.167a28.159,28.159,0,0,0,.388,8.977Z" transform="translate(79.745 10.913)" fill="#fff"/>
            <path id="Trazado_777305" data-name="Trazado 777305" d="M195.126,22.916l-1.277-.613a29.738,29.738,0,0,1,7.106-9.426l.94,1.059a28.293,28.293,0,0,0-6.769,8.98" transform="translate(80.618 5.355)" fill="#fff"/>
            <path id="Trazado_777306" data-name="Trazado 777306" d="M193.33,29.175l-1.407-.163a29.512,29.512,0,0,1,2.728-9.428l1.274.613a28.149,28.149,0,0,0-2.6,8.978" transform="translate(79.817 8.145)" fill="#fff"/>
            <path id="Trazado_777307" data-name="Trazado 777307" d="M195.937,42.417a29.481,29.481,0,0,1-3.756-9.43l1.385-.29a28.08,28.08,0,0,0,3.578,8.978Z" transform="translate(79.924 13.598)" fill="#fff"/>
            <rect id="Rectángulo_373447" data-name="Rectángulo 373447" width="19.212" height="1.416" transform="translate(301.272 18.052)" fill="#fff"/>
            <rect id="Rectángulo_373448" data-name="Rectángulo 373448" width="19.228" height="1.416" transform="translate(282.043 18.052)" fill="#fff"/>
            <rect id="Rectángulo_373449" data-name="Rectángulo 373449" width="52.317" height="1.416" transform="translate(275.105 27.256)" fill="#fff"/>
            <rect id="Rectángulo_373450" data-name="Rectángulo 373450" width="57.64" height="1.416" transform="translate(272.443 36.459)" fill="#fff"/>
            <rect id="Rectángulo_373451" data-name="Rectángulo 373451" width="12.373" height="1.416" transform="translate(317.314 45.662)" fill="#fff"/>
            <rect id="Rectángulo_373452" data-name="Rectángulo 373452" width="12.969" height="1.416" transform="translate(272.84 45.662)" fill="#fff"/>
            <rect id="Rectángulo_373453" data-name="Rectángulo 373453" width="31.503" height="1.416" transform="translate(285.809 45.662)" fill="#fff"/>
            <rect id="Rectángulo_373454" data-name="Rectángulo 373454" width="49.513" height="1.416" transform="translate(276.507 54.865)" fill="#fff"/>
            <rect id="Rectángulo_373455" data-name="Rectángulo 373455" width="0.212" height="1.416" transform="translate(317.1 64.069)" fill="#fff"/>
            <rect id="Rectángulo_373456" data-name="Rectángulo 373456" width="15.83" height="1.416" transform="translate(301.271 64.069)" fill="#fff"/>
            <rect id="Rectángulo_373457" data-name="Rectángulo 373457" width="0.384" height="1.416" transform="translate(285.426 64.069)" fill="#fff"/>
            <rect id="Rectángulo_373458" data-name="Rectángulo 373458" width="15.461" height="1.416" transform="translate(285.809 64.069)" fill="#fff"/>
            <rect id="Rectángulo_373459" data-name="Rectángulo 373459" width="1.416" height="7.306" transform="translate(300.563 11.454)" fill="#fff"/>
            <rect id="Rectángulo_373460" data-name="Rectángulo 373460" width="1.416" height="8.495" transform="translate(316.605 19.468)" fill="#fff"/>
            <rect id="Rectángulo_373461" data-name="Rectángulo 373461" width="1.416" height="8.495" transform="translate(285.101 19.468)" fill="#fff"/>
            <rect id="Rectángulo_373462" data-name="Rectángulo 373462" width="1.416" height="8.75" transform="translate(300.563 28.318)" fill="#fff"/>
            <rect id="Rectángulo_373463" data-name="Rectángulo 373463" width="1.416" height="8.453" transform="translate(316.605 37.917)" fill="#fff"/>
            <rect id="Rectángulo_373464" data-name="Rectángulo 373464" width="1.416" height="8.453" transform="translate(285.101 37.917)" fill="#fff"/>
            <rect id="Rectángulo_373465" data-name="Rectángulo 373465" width="1.416" height="8.75" transform="translate(300.563 46.724)" fill="#fff"/>
            <rect id="Rectángulo_373466" data-name="Rectángulo 373466" width="1.416" height="4.729" transform="translate(300.563 64.776)" fill="#fff"/>
            <rect id="Rectángulo_373467" data-name="Rectángulo 373467" width="1.416" height="8.325" transform="translate(316.605 56.324)" fill="#fff"/>
            <path id="Trazado_777308" data-name="Trazado 777308" d="M225.026,45.788H223.61l1.416-.127Z" transform="translate(92.995 18.989)" fill="#fff"/>
            <rect id="Rectángulo_373468" data-name="Rectángulo 373468" width="1.416" height="8.453" transform="translate(285.101 56.324)" fill="#fff"/>
            <path id="Trazado_777309" data-name="Trazado 777309" d="M221.63,67.973a30.441,30.441,0,1,1,30.441-30.441A30.476,30.476,0,0,1,221.63,67.973m0-58.051a27.61,27.61,0,1,0,27.61,27.61,27.642,27.642,0,0,0-27.61-27.61" transform="translate(79.511 2.949)" fill="#263238"/>
            <path id="Trazado_777310" data-name="Trazado 777310" d="M248.662,37.946c-4.573,4.474-12.474,6.386-18.633,3.37-4.856-2.379-8.764-6.386-7.915-12.276s6.117-9.161,8.325-14.484C232.8,8.892,232.96,0,232.96,0s4.092,4.644,4.559,7.476a34.558,34.558,0,0,1,.481,5.2l3.072-8.2c.68,2.832,1.218,5.805,2.1,8.594,1.557,4.885,5.961,7.348,8.17,11.624s.722,9.855-2.676,13.253" transform="translate(92.324)" fill="#263238"/>
            <path id="Trazado_777311" data-name="Trazado 777311" d="M233.8,32.811s-4.63-3.426-3.738-8.2,3.88-5.664,3.88-5.664a9.046,9.046,0,0,1,2.988,7.164,9.681,9.681,0,0,1-3.129,6.7" transform="translate(95.631 7.881)" fill="#ffb206"/>
            <path id="Trazado_777312" data-name="Trazado 777312" d="M234.01,33.728a.714.714,0,0,1-.422-.139c-.2-.152-4.974-3.749-4.011-8.9s4.232-6.17,4.371-6.211a.7.7,0,0,1,.675.151,9.715,9.715,0,0,1,3.223,7.725,10.318,10.318,0,0,1-3.357,7.184.711.711,0,0,1-.479.187M234,19.992c-.736.389-2.411,1.624-3.036,4.958-.637,3.411,1.927,6.138,3.006,7.113a8.915,8.915,0,0,0,2.459-5.774,8.309,8.309,0,0,0-2.43-6.3" transform="translate(95.423 7.673)" fill="#263238"/>
            <path id="Trazado_777313" data-name="Trazado 777313" d="M30.026,121.59A29.026,29.026,0,1,1,1,150.616,29.025,29.025,0,0,1,30.026,121.59" transform="translate(0.416 50.567)" fill="#ffb206"/>
            <path id="Trazado_777314" data-name="Trazado 777314" d="M28.291,180.557c-12.749,0-23.121-13.338-23.121-29.733S15.543,121.09,28.291,121.09s23.121,13.338,23.121,29.733S41.04,180.557,28.291,180.557m0-58.051c-11.968,0-21.705,12.7-21.705,28.318s9.737,28.318,21.705,28.318S50,166.438,50,150.823s-9.737-28.318-21.705-28.318" transform="translate(2.15 50.359)" fill="#fff"/>
            <path id="Trazado_777315" data-name="Trazado 777315" d="M24.827,180.557c-6.352,0-11.327-13.06-11.327-29.733s4.975-29.733,11.327-29.733,11.327,13.06,11.327,29.733-4.975,29.733-11.327,29.733m0-58.051c-5.372,0-9.911,12.968-9.911,28.318s4.539,28.318,9.911,28.318,9.911-12.968,9.911-28.318-4.539-28.318-9.911-28.318" transform="translate(5.614 50.359)" fill="#fff"/>
            <rect id="Rectángulo_373469" data-name="Rectángulo 373469" width="29.776" height="1.416" transform="translate(15.32 175.696)" fill="#fff"/>
            <rect id="Rectángulo_373470" data-name="Rectángulo 373470" width="54.596" height="1.416" transform="translate(2.917 190.478)" fill="#fff"/>
            <rect id="Rectángulo_373471" data-name="Rectángulo 373471" width="57.584" height="1.416" transform="translate(1.416 205.26)" fill="#fff"/>
            <rect id="Rectángulo_373472" data-name="Rectángulo 373472" width="45.662" height="1.416" transform="translate(7.377 220.056)" fill="#fff"/>
            <path id="Trazado_777316" data-name="Trazado 777316" d="M30.441,181.473a30.441,30.441,0,1,1,30.441-30.441,30.476,30.476,0,0,1-30.441,30.441m0-58.051a27.61,27.61,0,1,0,27.61,27.61,27.642,27.642,0,0,0-27.61-27.61" transform="translate(0 50.151)" fill="#263238"/>
            <path id="Trazado_777317" data-name="Trazado 777317" d="M38.315,139A10.28,10.28,0,0,0,28.05,149.265V172.7H48.58V149.336A10.279,10.279,0,0,0,38.358,139h-.042m-7.433,13.1v-2.832a7.433,7.433,0,1,1,14.867,0V152.1Z" transform="translate(11.665 57.807)" fill="#263238"/>
            <path id="Trazado_777318" data-name="Trazado 777318" d="M38.914,154.623a2.832,2.832,0,1,0-4.007,2.605l-.75,6.216h3.809l-.75-6.216a2.831,2.831,0,0,0,1.7-2.605" transform="translate(13.828 63.139)" fill="#fff"/>
            <path id="Trazado_777319" data-name="Trazado 777319" d="M269.536,121.59a29.026,29.026,0,1,1-29.026,29.026,29.025,29.025,0,0,1,29.026-29.026" transform="translate(100.023 50.567)" fill="#fff"/>
            <path id="Trazado_777320" data-name="Trazado 777320" d="M269.951,181.473a30.441,30.441,0,1,1,30.441-30.441,30.476,30.476,0,0,1-30.441,30.441m0-58.051a27.61,27.61,0,1,0,27.61,27.61,27.642,27.642,0,0,0-27.61-27.61" transform="translate(99.607 50.151)" fill="#263238"/>
            <path id="Trazado_777321" data-name="Trazado 777321" d="M280.008,141.373H245.39v-14h29.96Z" transform="translate(102.053 52.971)" fill="#ffb206"/>
            <path id="Trazado_777322" data-name="Trazado 777322" d="M281.2,142.289H244.89V126.87h31.179Zm-34.893-1.416h32.929l-4.187-12.587H246.306Z" transform="translate(101.845 52.763)" fill="#263238"/>
            <rect id="Rectángulo_373473" data-name="Rectángulo 373473" width="44.345" height="30.342" transform="translate(347.443 188.51)" fill="#ffb206"/>
            <path id="Trazado_777323" data-name="Trazado 777323" d="M290.651,164.4H244.89V132.64h45.761Zm-44.345-1.416h42.929V134.056H246.306Z" transform="translate(101.845 55.162)" fill="#263238"/>
            <path id="Trazado_777324" data-name="Trazado 777324" d="M276.245,139.5a10.28,10.28,0,0,0-10.265,10.265v23.362h20.53V149.836A10.279,10.279,0,0,0,276.288,139.5h-.042m-7.433,13.168v-2.832a7.433,7.433,0,0,1,14.867,0v2.832Z" transform="translate(110.616 58.015)" fill="#263238"/>
            <path id="Trazado_777325" data-name="Trazado 777325" d="M276.844,155.1a2.832,2.832,0,1,0-3.993,2.605l-.75,6.216h3.795l-.75-6.216a2.831,2.831,0,0,0,1.7-2.605" transform="translate(112.778 63.333)" fill="#fff"/>
            <path id="Trazado_777326" data-name="Trazado 777326" d="M147.06,139.6S97.971,165.549,97.023,168.38s7.079,56.168,9.911,75.042a371.826,371.826,0,0,1,3.313,43.014v8.028H240.508s9.43-138.289,6.131-139.7-60.883-20.29-60.883-20.29Z" transform="translate(40.318 55.923)" fill="#fff"/>
            <path id="Trazado_777327" data-name="Trazado 777327" d="M240.711,295.38H110.45a.708.708,0,0,1-.708-.708v-8.028a372.416,372.416,0,0,0-3.306-42.918l-.151-1.008c-7.511-50.054-10.421-72.291-9.73-74.353.964-2.877,38.8-23.068,50.378-29.187a.659.659,0,0,1,.238-.075l38.7-5.127a.683.683,0,0,1,.312.03c2.353.77,57.652,18.9,60.942,20.312.942.4,2.517,1.08-1.4,71.073-1.923,34.356-4.279,68.984-4.3,69.33a.71.71,0,0,1-.707.66m-129.553-.708h0Zm0-.708H240.05c3.643-53.536,8.281-133.643,6.354-138.412-4.483-1.776-57.248-19.08-60.513-20.151l-38.41,5.087c-18.557,9.813-48.338,26.141-49.6,28.363-.818,2.874,7.176,56.15,9.8,73.657l.153,1.017a373.731,373.731,0,0,1,3.32,43.105Z" transform="translate(40.114 55.715)" fill="#263238"/>
            <path id="Trazado_777328" data-name="Trazado 777328" d="M175.83,181.871s-5.225-.665-12.318-7.971v0c-7.079,7.306-12.318,7.971-12.318,7.971-1.869,15.306,11.058,20.559,12.318,21.026,1.246-.467,14.187-5.72,12.318-21.026" transform="translate(62.802 72.28)" fill="#ffb206"/>
            <path id="Trazado_777329" data-name="Trazado 777329" d="M163.942,204.762a.856.856,0,0,1-.269,0,1.412,1.412,0,0,1-.481-.156,20.8,20.8,0,0,1-13.054-22.456,1.416,1.416,0,0,1,1.232-1.232s4.828-.765,11.327-7.419a1.49,1.49,0,0,1,1.034-.694,1.3,1.3,0,0,1,.736.085,1.485,1.485,0,0,1,.722.623c6.471,6.57,11.228,7.334,11.327,7.334a1.417,1.417,0,0,1,1.2,1.232,20.8,20.8,0,0,1-13.012,22.442,1.512,1.512,0,0,1-.765.241m-11.086-21.323a17.925,17.925,0,0,0,11.058,18.406,17.954,17.954,0,0,0,11.072-18.406c-1.9-.552-6-2.251-11.072-7.164C158.845,181.188,154.753,182.887,152.855,183.439Z" transform="translate(62.344 71.858)" fill="#263238"/>
            <path id="Trazado_777330" data-name="Trazado 777330" d="M138.778,285.524a.707.707,0,0,1-.7-.648c-.03-.334-2.859-33.786-3.783-57.135s-.01-69.088,0-69.547a.733.733,0,0,1,.722-.694.708.708,0,0,1,.694.722c-.01.46-.923,46.152,0,69.463s3.749,56.737,3.778,57.071a.709.709,0,0,1-.646.765l-.061,0" transform="translate(55.677 65.501)" fill="#263238"/>
            <path id="Trazado_777331" data-name="Trazado 777331" d="M138.431,173.1a2.591,2.591,0,1,1,2.591-2.591,2.594,2.594,0,0,1-2.591,2.591m0-3.766a1.175,1.175,0,1,0,1.175,1.175,1.177,1.177,0,0,0-1.175-1.175" transform="translate(56.493 69.834)" fill="#263238"/>
            <path id="Trazado_777332" data-name="Trazado 777332" d="M138.223,199.42a1.883,1.883,0,1,1-1.883,1.883,1.882,1.882,0,0,1,1.883-1.883" transform="translate(56.701 82.935)" fill="#fff"/>
            <path id="Trazado_777333" data-name="Trazado 777333" d="M138.431,204.1a2.591,2.591,0,1,1,2.591-2.591,2.594,2.594,0,0,1-2.591,2.591m0-3.766a1.175,1.175,0,1,0,1.175,1.175,1.176,1.176,0,0,0-1.175-1.175" transform="translate(56.493 82.727)" fill="#263238"/>
            <path id="Trazado_777334" data-name="Trazado 777334" d="M141.785,225.647a1.9,1.9,0,1,1-1.9-1.9h.014a1.9,1.9,0,0,1,1.883,1.9" transform="translate(57.387 93.053)" fill="#fff"/>
            <path id="Trazado_777335" data-name="Trazado 777335" d="M140.1,228.46a2.605,2.605,0,1,1,2.605-2.605,2.609,2.609,0,0,1-2.605,2.605m.01-3.795a1.189,1.189,0,1,0,1.179,1.189,1.193,1.193,0,0,0-1.179-1.189" transform="translate(57.179 92.845)" fill="#263238"/>
            <path id="Trazado_777336" data-name="Trazado 777336" d="M198.884,235.513l-14.64,7.547s-18.406-11.794-24.537-12.276-13.692.481-17.939,4.248-6.6,6.612-11.327,6.612-10.378.467-7.547,4.248,12.743,3.78,16.523,2.365,9.43-2.832,9.43-2.832a15.347,15.347,0,0,0,8.028,5.664,44.743,44.743,0,0,0,10.378,1.416s8.977,5.664,14.64,5.182a33.851,33.851,0,0,0,9.911-2.35l17.458-5.2s-4.715-11.327-10.378-14.626" transform="translate(50.793 95.93)" fill="#ababab"/>
            <path id="Trazado_777337" data-name="Trazado 777337" d="M181.4,258.629c-5.428,0-12.893-4.446-14.143-5.216a45.531,45.531,0,0,1-10.347-1.434,16.152,16.152,0,0,1-8.131-5.546c-1.413.365-5.818,1.536-8.9,2.692-4.119,1.545-14.266,1.5-17.339-2.6-.9-1.2-1.128-2.261-.682-3.152.782-1.562,3.412-2.229,8.8-2.229,3.8,0,5.935-1.954,9.174-4.913.532-.484,1.09-.994,1.683-1.521,5.647-5.007,15.561-4.654,18.464-4.423,5.839.457,21.88,10.492,24.519,12.165l14.278-7.36a.7.7,0,0,1,.682.017c5.8,3.38,10.479,14.494,10.676,14.966a.712.712,0,0,1-.452.951l-17.459,5.195a34.246,34.246,0,0,1-10.054,2.377c-.249.023-.5.033-.763.033m-32.342-13.707a.707.707,0,0,1,.572.29,14.713,14.713,0,0,0,7.657,5.4A44.04,44.04,0,0,0,167.474,252a.71.71,0,0,1,.365.109c.086.055,8.835,5.516,14.2,5.076a33.054,33.054,0,0,0,9.7-2.3L208.5,249.9c-1.11-2.459-4.99-10.5-9.438-13.366l-14.285,7.364a.712.712,0,0,1-.707-.033c-.181-.118-18.326-11.705-24.21-12.167-5.686-.44-13.258.388-17.414,4.072-.589.522-1.141,1.026-1.669,1.509-3.357,3.065-5.782,5.281-10.128,5.281-5.625,0-7.2.787-7.53,1.447-.231.463.171,1.164.549,1.668,2.564,3.424,11.984,3.523,15.708,2.127,3.775-1.414,9.275-2.8,9.508-2.856a.71.71,0,0,1,.171-.021" transform="translate(50.584 95.724)" fill="#263238"/>
            <path id="Trazado_777338" data-name="Trazado 777338" d="M149.051,228.522s-5.664-3.313-8.5,0-3.78,20.29-2.365,22.173,2.365-2.35,4.248-3.766,6.612-18.406,6.612-18.406" transform="translate(57.201 94.425)" fill="#ababab"/>
            <path id="Trazado_777339" data-name="Trazado 777339" d="M139.111,252.087a1.613,1.613,0,0,1-1.279-.756c-1.759-2.339-.416-19.771,2.393-23.059,3.18-3.718,9.139-.3,9.392-.151a.707.707,0,0,1,.323.8c-.8,2.876-4.893,17.3-6.867,18.783a8.193,8.193,0,0,0-1.671,2.2c-.7,1.148-1.3,2.139-2.226,2.185h-.065m5.121-24.117a3.681,3.681,0,0,0-2.931,1.222c-2.563,3-3.535,19.692-2.338,21.286a.645.645,0,0,0,.2.2,8.774,8.774,0,0,0,1.031-1.512,9.094,9.094,0,0,1,2.029-2.594c1.036-.779,3.93-9.4,6.2-17.48a10.348,10.348,0,0,0-4.19-1.123" transform="translate(56.993 94.216)" fill="#263238"/>
            <path id="Trazado_777340" data-name="Trazado 777340" d="M157.594,230.183s-7.079-4.248-9.911-1.883-8.028,21.238-6.612,23.121,5.664,0,6.145-2.365,8.5-14.626,8.5-14.626Z" transform="translate(58.569 94.647)" fill="#ababab"/>
            <path id="Trazado_777341" data-name="Trazado 777341" d="M143.01,253.108a2.787,2.787,0,0,1-2.318-1.051c-1.675-2.229,3.729-21.591,6.724-24.091,3.131-2.615,9.962,1.359,10.73,1.819a.71.71,0,0,1,.283.895l-1.883,4.248c-3.247,4.981-8.116,12.842-8.449,14.48-.37,1.812-2.37,3.2-4.066,3.579a4.614,4.614,0,0,1-1.021.12m7.2-24.614a2.883,2.883,0,0,0-1.887.559c-2.683,2.24-7.448,20.506-6.493,22.161.474.631,1.48.484,1.889.391a3.982,3.982,0,0,0,2.989-2.481c.5-2.427,7.77-13.605,8.6-14.872l1.572-3.562c-1.613-.885-4.521-2.2-6.666-2.2" transform="translate(58.38 94.439)" fill="#263238"/>
            <path id="Trazado_777342" data-name="Trazado 777342" d="M167.757,237.038s-8.963-8.5-11.327-7.547-15.575,20.771-12.276,23.121,14.64-11.794,14.64-11.794l4.248,3.3" transform="translate(59.732 95.41)" fill="#ababab"/>
            <path id="Trazado_777343" data-name="Trazado 777343" d="M145.2,253.769a2.1,2.1,0,0,1-1.253-.377,2.556,2.556,0,0,1-.782-2.567c.674-5.665,10.647-20.761,13.2-21.788,2.6-1.035,9.9,5.624,12.077,7.69a.708.708,0,0,1-.974,1.028c-4.17-3.952-9.411-7.858-10.575-7.4-1.713.687-11.685,15.253-12.328,20.641-.076.647,0,1.1.2,1.247,1.7,1.206,8.426-5.11,13.677-11.66a.705.705,0,0,1,.987-.116l4.248,3.3a.708.708,0,1,1-.869,1.117l-3.7-2.874c-2.852,3.5-10,11.763-13.912,11.763" transform="translate(59.525 95.207)" fill="#263238"/>
            <path id="Trazado_777344" data-name="Trazado 777344" d="M178.215,246.442s-8.5-13.692-11.327-13.692S148,247.39,148,247.39s4.729,3.766,6.145,2.832,9.43-6.145,9.43-6.145,1.416,7.561,6.612,8.977" transform="translate(61.55 96.796)" fill="#ababab"/>
            <path id="Trazado_777345" data-name="Trazado 777345" d="M170.395,253.97a.715.715,0,0,1-.187-.025c-4.422-1.2-6.275-6.313-6.88-8.518-2.094,1.361-7.453,4.847-8.586,5.594-1.665,1.106-5.433-1.64-6.975-2.869a.706.706,0,0,1-.037-1.076c2.716-2.476,16.409-14.826,19.365-14.826,2.993,0,9.887,10.735,11.929,14.026a.708.708,0,1,1-1.2.748c-3.986-6.424-9.22-13.357-10.725-13.357-1.559,0-10.142,6.962-17.785,13.887,2.052,1.514,4.2,2.59,4.653,2.287,1.416-.936,9.434-6.148,9.434-6.148a.707.707,0,0,1,1.08.462c.014.072,1.4,7.143,6.1,8.426a.708.708,0,0,1-.187,1.39" transform="translate(61.342 96.588)" fill="#263238"/>
            <path id="Trazado_777346" data-name="Trazado 777346" d="M206.073,147.8s10.846,0,11.794,4.729,1.883,15.093,1.883,15.093,41.542,97.228,40.126,101.476-64.663,25.019-66.546,25.019-16.991-24.07-16.991-24.07l30.668-19.355-16.042-43.014" transform="translate(73.336 61.467)" fill="#fff"/>
            <path id="Trazado_777347" data-name="Trazado 777347" d="M193.539,295.033c-1.88,0-10.6-13.27-17.591-24.4a.71.71,0,0,1,.222-.976l30.182-19.048L190.51,208.133a.709.709,0,1,1,1.328-.5l16.042,43.014a.71.71,0,0,1-.286.847l-30.072,18.977c6.748,10.721,14.507,22.207,16.087,23.13,4.749-.667,64.128-20.794,65.806-24.53.681-3.6-23.61-62.358-40.108-100.968a.731.731,0,0,1-.054-.214c-.01-.1-.942-10.38-1.872-15.018-.684-3.408-8.245-4.158-11.1-4.16a.708.708,0,1,1,0-1.416c.466,0,11.437.061,12.488,5.3.9,4.5,1.776,13.866,1.885,15.056,7.055,16.513,41.528,97.6,40.1,101.875-1.7,5.1-66.631,25.5-67.219,25.5" transform="translate(73.128 61.259)" fill="#263238"/>
            <path id="Trazado_777348" data-name="Trazado 777348" d="M182.878,196.908h-.044a.708.708,0,0,1-.663-.75c.957-15.231,14.3-26.9,14.871-27.393a.707.707,0,1,1,.923,1.07c-.133.116-13.464,11.784-14.381,26.41a.708.708,0,0,1-.707.664" transform="translate(75.761 70.113)" fill="#263238"/>
            <path id="Trazado_777349" data-name="Trazado 777349" d="M179.878,195.612a.708.708,0,0,1-.708-.708c0-14.2,7.346-25.793,7.658-26.28a.709.709,0,0,1,1.192.766c-.075.116-7.435,11.739-7.435,25.514a.708.708,0,0,1-.708.708" transform="translate(74.513 69.993)" fill="#263238"/>
            <path id="Trazado_777350" data-name="Trazado 777350" d="M225.11,225.577a.7.7,0,0,1-.688-.547c-1.742-7.406-9.573-9.365-13.471-9.365-2.866,0-9.829,5.665-12.271,7.848a.708.708,0,0,1-.943-1.056c.939-.84,9.291-8.208,13.214-8.208,4.284,0,12.9,2.186,14.847,10.458a.7.7,0,0,1-.527.85.636.636,0,0,1-.161.02" transform="translate(82.136 89.102)" fill="#263238"/>
            <path id="Trazado_777351" data-name="Trazado 777351" d="M226.136,221.215a.708.708,0,0,1-.648-.425,24.559,24.559,0,0,0-6.413-8.71c-3.14-2.445-12.736,2.288-16.167,4.321a.708.708,0,0,1-.722-1.218c1.346-.8,13.287-7.705,17.786-4.2a25.972,25.972,0,0,1,6.812,9.239.707.707,0,0,1-.365.932.716.716,0,0,1-.283.059" transform="translate(83.941 87.334)" fill="#263238"/>
            <path id="Trazado_777352" data-name="Trazado 777352" d="M104.434,158.42,90.275,249.036S74.7,260.363,80.364,277.354c2.237,6.711,8.5,9.911,37.294,7.079a303.231,303.231,0,0,0,0-51.439c-2.365-30.144-13.224-74.574-13.224-74.574" transform="translate(32.906 65.884)" fill="#fff"/>
            <path id="Trazado_777353" data-name="Trazado 777353" d="M100.227,286.391c-14.35,0-18.508-3.14-20.329-8.6-5.368-16.1,7.953-27.372,9.927-28.929l14.115-90.337a.71.71,0,0,1,.67-.6.7.7,0,0,1,.718.539c.109.445,10.9,44.831,13.241,74.688a304.582,304.582,0,0,1,0,51.554.71.71,0,0,1-.636.646c-7.184.705-12.995,1.043-17.706,1.043m4.555-124.09-13.6,87.054a.708.708,0,0,1-.283.463c-.151.11-15.085,11.234-9.656,27.522,2.12,6.354,8.5,9.307,35.966,6.656a303.194,303.194,0,0,0-.048-50.732c-1.951-24.861-9.791-59.876-12.376-70.962m-14.3,86.945h0Z" transform="translate(32.701 65.675)" fill="#263238"/>
            <path id="Trazado_777354" data-name="Trazado 777354" d="M109.233,233.036s9.7.227,10.378,1.345.68,16.24-1.572,17.826-3.837,2.251-4.743,0-2.478-6.994-2.478-6.994-6.088,6.768-11.964,5.409-6.541-4.049-8.34-4.729-4.248.227-8.354-1.416-8.566-7.66-8.566-7.66-10.831,9.472-13.083,8.34.227-4.729,3.837-8.566,6.088-7.674,9.7-8.58,18.038-2.7,22.555-1.345,8.354,3.384,8.793,4.049a18.391,18.391,0,0,0,3.837,2.322" transform="translate(24.808 94.061)" fill="#ababab"/>
            <path id="Trazado_777355" data-name="Trazado 777355" d="M115.172,254.57a2.184,2.184,0,0,1-.629-.091,2.742,2.742,0,0,1-1.7-1.8c-.644-1.6-1.6-4.4-2.125-5.938-1.923,1.839-6.859,5.916-11.82,4.779a13.326,13.326,0,0,1-7.027-3.694,4.771,4.771,0,0,0-1.4-1.062,7.1,7.1,0,0,0-2.237-.27,16.225,16.225,0,0,1-6.129-1.151c-3.5-1.4-7.132-5.688-8.4-7.29-3.63,3.132-11.006,9.1-13.3,7.945a2.136,2.136,0,0,1-1.212-1.569c-.3-1.7,1.242-4.276,4.851-8.113.844-.895,1.624-1.791,2.372-2.651,2.52-2.89,4.7-5.385,7.671-6.132,3.609-.9,18.251-2.747,22.932-1.335,3.9,1.174,8.182,3.17,9.09,4.221a17.628,17.628,0,0,0,3.5,2.124c6.6.16,10.242.725,10.822,1.682.813,1.337.854,16.923-1.768,18.772a6.758,6.758,0,0,1-3.483,1.579m-4.146-9.86a.744.744,0,0,1,.146.017.709.709,0,0,1,.527.47c.016.047,1.574,4.746,2.462,6.951.225.559.49.888.784.974.668.2,1.9-.586,2.894-1.29,1.627-1.144,2.081-15.209,1.359-16.906-.59-.44-5.553-.878-9.775-.977a.761.761,0,0,1-.273-.062,18.987,18.987,0,0,1-3.984-2.411.716.716,0,0,1-.154-.166c-.37-.463-3.786-2.373-8.4-3.762-4.378-1.317-18.769.5-22.18,1.354-2.544.639-4.585,2.979-6.948,5.692-.759.871-1.552,1.778-2.407,2.689-4.181,4.443-4.607,6.226-4.49,6.9a.721.721,0,0,0,.454.552c.967.47,6.718-3.363,12.3-8.243a.71.71,0,0,1,1.035.112c.042.059,4.389,5.877,8.259,7.426a15.03,15.03,0,0,0,5.645,1.048,8.148,8.148,0,0,1,2.7.361,5.775,5.775,0,0,1,1.875,1.359,12.09,12.09,0,0,0,6.376,3.343c5.39,1.252,11.219-5.127,11.277-5.192a.71.71,0,0,1,.527-.235" transform="translate(24.601 93.855)" fill="#263238"/>
            <path id="Trazado_777356" data-name="Trazado 777356" d="M75.855,225.483s-6.088-1.133-6.768,2.931.906,19.822,2.478,21.238a3.923,3.923,0,0,0,5.876-2.039c.892-2.7.665-16.906.665-16.906s.68-3.865-2.251-5.225" transform="translate(28.665 93.713)" fill="#ababab"/>
            <path id="Trazado_777357" data-name="Trazado 777357" d="M73.915,251.215a4.613,4.613,0,0,1-2.534-.763c-1.957-1.753-3.453-17.956-2.786-21.946a3.876,3.876,0,0,1,1.634-2.635c2.216-1.549,5.809-.906,5.961-.876a.709.709,0,0,1,.168.054c3.387,1.57,2.683,5.811,2.652,5.991.02.45.228,14.218-.691,17a4.646,4.646,0,0,1-.525,1.083,4.6,4.6,0,0,1-2.931,1.992,4.791,4.791,0,0,1-.947.1m.317-24.962a5.745,5.745,0,0,0-3.2.78,2.472,2.472,0,0,0-1.046,1.7c-.692,4.141.973,19.348,2.255,20.6a3.231,3.231,0,0,0,4.364-.987,3.213,3.213,0,0,0,.365-.752c.7-2.122.691-12.753.629-16.669.034-.266.541-3.409-1.759-4.555a11.074,11.074,0,0,0-1.613-.119" transform="translate(28.46 93.505)" fill="#263238"/>
            <path id="Trazado_777358" data-name="Trazado 777358" d="M85.39,228.2s-9.033-5.664-11.327-2.478.227,22.328,1.416,24.82,5.409,3.384,6.315.665,1.119-13.975,1.416-14.654" transform="translate(30.414 93.47)" fill="#ababab"/>
            <path id="Trazado_777359" data-name="Trazado 777359" d="M79.511,253.789a5.139,5.139,0,0,1-4.469-2.733c-1.147-2.4-3.892-22.011-1.351-25.54,2.609-3.616,11.3,1.676,12.277,2.291a.708.708,0,0,1-.752,1.2c-3.275-2.05-8.989-4.592-10.377-2.665-1.969,2.737.239,21.5,1.481,24.1a3.725,3.725,0,0,0,3.367,1.921,1.7,1.7,0,0,0,1.637-1.175c.542-1.623.845-6.871,1.046-10.344.188-3.244.246-4.035.392-4.369a.708.708,0,0,1,1.3.568c-.065.265-.173,2.105-.275,3.884-.231,3.969-.517,8.909-1.119,10.71a3.086,3.086,0,0,1-2.891,2.141c-.088.006-.177.008-.265.008" transform="translate(30.212 93.266)" fill="#263238"/>
            <path id="Trazado_777360" data-name="Trazado 777360" d="M88.166,231.448c-.227.68,0,20.53-2.7,21.889s-6.541,1.345-6.541-7.674.453-20.077,2.931-20.983,9.472,2.945,11.964,5.2" transform="translate(32.821 93.383)" fill="#ababab"/>
            <path id="Trazado_777361" data-name="Trazado 777361" d="M83.254,254.906a3.792,3.792,0,0,1-2.025-.561c-1.863-1.148-2.809-4-2.809-8.477,0-18.085,1.814-21.07,3.394-21.649,2.956-1.069,10.351,3.228,12.682,5.336a.708.708,0,1,1-.949,1.051c-2.59-2.339-9.256-5.785-11.246-5.056-.578.211-2.465,2.3-2.465,20.318,0,4.923,1.162,6.672,2.135,7.273a3.55,3.55,0,0,0,3.38-.231c.791-.4,1.817-3.928,2.2-18.481a17.664,17.664,0,0,1,.154-3,.708.708,0,0,1,1.358.4c-.035.238-.067,1.4-.1,2.639-.3,11.394-.9,18.666-2.975,19.708a6.136,6.136,0,0,1-2.734.732" transform="translate(32.613 93.178)" fill="#263238"/>
            <path id="Trazado_777362" data-name="Trazado 777362" d="M96.617,243.185a.7.7,0,0,1-.69-.551l-2.039-9.019a.708.708,0,0,1,1.38-.311l2.039,9.018a.708.708,0,0,1-.534.847.742.742,0,0,1-.157.017" transform="translate(39.039 96.796)" fill="#263238"/>
            <path id="Trazado_777363" data-name="Trazado 777363" d="M123.6,137.98v25.727l13.054-9.331Z" transform="translate(51.403 57.383)" fill="#bababa"/>
            <path id="Trazado_777364" data-name="Trazado 777364" d="M123.808,164.622a.706.706,0,0,1-.708-.708V138.188a.707.707,0,0,1,1.262-.44l13.056,16.394a.712.712,0,0,1-.143,1.018l-13.054,9.331a.706.706,0,0,1-.412.132m.708-24.408v22.324l11.328-8.1Z" transform="translate(51.195 57.175)" fill="#263238"/>
            <path id="Trazado_777365" data-name="Trazado 777365" d="M139.26,169.493,123.6,141.162l15.292-10.831Z" transform="translate(51.403 54.202)" fill="#fff"/>
            <path id="Trazado_777366" data-name="Trazado 777366" d="M139.467,170.409a.709.709,0,0,1-.619-.365l-15.66-28.332a.71.71,0,0,1,.21-.92L138.69,129.96a.714.714,0,0,1,.732-.052.7.7,0,0,1,.385.623l.368,39.163a.706.706,0,0,1-.708.715m-14.734-28.827,14,25.329L138.4,131.9Z" transform="translate(51.195 53.994)" fill="#263238"/>
            <path id="Trazado_777367" data-name="Trazado 777367" d="M131.23,132.543s2.988,25.727,3.738,33.188,1.119,12.318,1.119,12.318,23.121-26.9,27.6-32.834,5.593-7.83,5.593-7.83l1.133-27.6Z" transform="translate(54.576 45.659)" fill="#ababab"/>
            <path id="Trazado_777368" data-name="Trazado 777368" d="M136.3,178.965a.709.709,0,0,1-.708-.654c0-.05-.374-4.936-1.116-12.3s-3.707-32.921-3.737-33.177a.709.709,0,0,1,.347-.7l39.179-22.752a.708.708,0,0,1,1.063.641l-1.134,27.594a.716.716,0,0,1-.1.331c-.048.078-1.191,2-5.637,7.895s-27.393,32.6-27.625,32.871a.7.7,0,0,1-.535.246m-4.1-45.835c.406,3.5,3,25.906,3.686,32.738.486,4.828.814,8.6.984,10.639,4.66-5.434,22.613-26.408,26.46-31.512,3.717-4.929,5.116-7.072,5.458-7.617l1.073-26.12Z" transform="translate(54.368 45.451)" fill="#263238"/>
            <path id="Trazado_777369" data-name="Trazado 777369" d="M131.853,137.938a17.288,17.288,0,0,0,15.957,2.634c9.911-3.639,12.743-9.911,14.909-12.077,1.416-1.416,4.389-3.37,7.15-5.664l.538-13.04L131.23,132.543s.255,2.152.623,5.394" transform="translate(54.576 45.659)" fill="#263238"/>
            <path id="Trazado_777370" data-name="Trazado 777370" d="M142.52,142.382a17.957,17.957,0,0,1-10.887-3.673.7.7,0,0,1-.275-.484c-.368-3.24-.623-5.389-.623-5.39a.71.71,0,0,1,.347-.7l39.179-22.752a.708.708,0,0,1,1.063.641l-.539,13.04a.707.707,0,0,1-.256.515c-1.232,1.024-2.52,1.991-3.657,2.844a36.444,36.444,0,0,0-3.443,2.775,18.639,18.639,0,0,0-1.471,1.8,28.113,28.113,0,0,1-13.7,10.438,18.049,18.049,0,0,1-5.741.939m-9.789-4.62a16.554,16.554,0,0,0,15.062,2.346,26.471,26.471,0,0,0,13.036-9.959,19.635,19.635,0,0,1,1.6-1.947,37.006,37.006,0,0,1,3.595-2.907c1.049-.787,2.229-1.672,3.361-2.6l.473-11.435L132.2,133.131c.091.763.283,2.425.535,4.631" transform="translate(54.368 45.451)" fill="#263238"/>
            <path id="Trazado_777371" data-name="Trazado 777371" d="M145.109,141.14,134.66,165l18.279-11.936Z" transform="translate(56.002 58.697)" fill="#bababa"/>
            <path id="Trazado_777372" data-name="Trazado 777372" d="M134.868,165.914a.708.708,0,0,1-.648-.993l10.449-23.858a.708.708,0,0,1,1.24-.1l7.83,11.922a.7.7,0,0,1,.1.532.71.71,0,0,1-.306.447L135.256,165.8a.716.716,0,0,1-.388.115m10.574-23.086-8.972,20.488,15.7-10.251Z" transform="translate(55.794 58.489)" fill="#263238"/>
            <path id="Trazado_777373" data-name="Trazado 777373" d="M142.04,148.48l8.566,23.121,25.373-32.82-7.462-15.291Z" transform="translate(59.071 51.357)" fill="#fff"/>
            <path id="Trazado_777374" data-name="Trazado 777374" d="M150.814,172.518a.656.656,0,0,1-.106-.009.707.707,0,0,1-.558-.453l-8.566-23.121a.708.708,0,0,1,.178-.76l26.477-24.99a.708.708,0,0,1,1.121.2l7.462,15.291a.707.707,0,0,1-.076.743l-25.373,32.82a.7.7,0,0,1-.559.275m-7.739-23.635,7.959,21.485,24.323-31.461-6.846-14.033Z" transform="translate(58.864 51.149)" fill="#263238"/>
            <path id="Trazado_777375" data-name="Trazado 777375" d="M128.021,58.863A39.642,39.642,0,0,0,113.14,80.922c-3.441,14.428,3.837,30.1,4.375,34.93s-1.529,11.1.75,17.061,12.361,15.4,13.975,19.822,10.647,12.375,20.474,8.778,12.913-9.911,15.15-12.092,8.5-5.833,11.525-9.911,4.941-6.994,4.941-6.994,7.957-19.553,8.637-36.983-9.656-37.2-29.181-42.632-35.765,5.961-35.765,5.961" transform="translate(46.67 21.389)" fill="#ababab"/>
            <path id="Trazado_777376" data-name="Trazado 777376" d="M147.827,163.342a17.49,17.49,0,0,1-8.572-2.393c-4.04-2.291-6.665-5.552-7.474-7.768-.712-1.951-3.3-5.089-6.032-8.412-3.286-3.99-6.683-8.117-7.939-11.4-1.5-3.929-1.188-7.991-.91-11.576a31.311,31.311,0,0,0,.118-5.661,39.877,39.877,0,0,0-1.4-5.454c-2.081-7.02-5.567-18.769-2.956-29.718A40.472,40.472,0,0,1,127.806,58.5l.014-.01c.166-.115,16.744-11.528,36.361-6.063,20.384,5.676,30.371,26.1,29.7,43.341-.677,17.353-8.609,37.025-8.689,37.222-.082.15-2.02,3.1-5.028,7.15-2.039,2.741-5.443,5.261-8.178,7.288a38.267,38.267,0,0,0-3.424,2.707,20.685,20.685,0,0,0-1.546,1.829,29.347,29.347,0,0,1-13.853,10.421,15.423,15.423,0,0,1-5.336.96m-19.188-103.7A39.044,39.044,0,0,0,114.033,81.3c-2.522,10.568.9,22.089,2.939,28.975a40.112,40.112,0,0,1,1.453,5.7,32.423,32.423,0,0,1-.113,5.925c-.279,3.6-.568,7.33.821,10.962,1.172,3.067,4.645,7.285,7.709,11.007,2.815,3.418,5.472,6.648,6.27,8.825.7,1.909,3.136,4.919,6.842,7.021a14.961,14.961,0,0,0,12.725,1.335,27.7,27.7,0,0,0,13.227-9.969,21.638,21.638,0,0,1,1.671-1.965,38.483,38.483,0,0,1,3.568-2.832c2.659-1.969,5.971-4.422,7.884-6.994,2.98-4.011,4.9-6.931,4.919-6.96.014-.072,7.852-19.522,8.519-36.622.65-16.686-8.987-36.443-28.663-41.923-18.833-5.244-34.783,5.59-35.163,5.855" transform="translate(46.464 21.186)" fill="#263238"/>
            <g id="Grupo_1064168" data-name="Grupo 1064168" transform="translate(158.267 121.664)" opacity="0.5" style="isolation: isolate">
              <g id="Grupo_1064167" data-name="Grupo 1064167">
                <g id="Grupo_1064166" data-name="Grupo 1064166" clip-path="url(#clip-path-4)">
                  <path id="Trazado_777377" data-name="Trazado 777377" d="M112.346,91.41s.269,11.5,4.446,14.513,13.182,2.832,16.821,1.317,5.748-9.189,7.278-11.4,6.5-1.034,6.5-1.034,3.554,10.053,6.371,11.2,11.723,3.115,17.953-.142,7.448-15.872,7.448-15.872,3.625-.694,2.619-2.563-28.643-1.841-31.914-.765-3.7,2.549-5.479,2.52-4.248-1.9-6.032-1.926-26.576.411-26.576.411Z" transform="translate(-111.78 -85.928)" fill="#fff"/>
                </g>
              </g>
            </g>
            <path id="Trazado_777378" data-name="Trazado 777378" d="M163.126,52.975c-19.525-5.437-35.765,5.862-35.765,5.862A40.307,40.307,0,0,0,113.91,76.365c.779-1.841,3.979-8.637,9.911-10.152,6.9-1.77,6.994,4.531,15.7,2.407s22.243-8.991,28.218-5.579,10.7,10.52,8.269,17.911-2.676,12.941-.227,14.824,5.423,7.858,5.664,11.568c.184,3.058,4.248,5.14,8.566,4.587a92.948,92.948,0,0,0,2.308-16.325c.637-17.415-9.713-37.2-29.2-42.632" transform="translate(47.373 21.416)" fill="#263238"/>
            <path id="Trazado_777379" data-name="Trazado 777379" d="M188.85,112.931a9.623,9.623,0,0,1-6.043-1.937,4.778,4.778,0,0,1-1.858-3.4c-.225-3.463-3.047-9.247-5.389-11.048-2.653-2.039-2.659-7.582-.016-15.607C177.935,73.685,173.1,67,167.6,63.861c-3.986-2.28-12.1.524-19.259,2.995-3.041,1.049-5.914,2.04-8.44,2.656a11.112,11.112,0,0,1-9.362-1.317c-1.8-1-3.343-1.859-6.33-1.092-5.53,1.412-8.621,7.813-9.437,9.741a.708.708,0,0,1-1.31-.537,40.988,40.988,0,0,1,13.687-17.836c.184-.127,16.761-11.44,36.375-5.975h0c20.339,5.676,30.344,26.1,29.714,43.34a94.081,94.081,0,0,1-2.326,16.46.709.709,0,0,1-.6.541,11.522,11.522,0,0,1-1.461.093M163.713,61.6A9.168,9.168,0,0,1,168.3,62.63c5.988,3.419,11.229,10.742,8.59,18.748-2.37,7.2-2.544,12.444-.466,14.041,2.635,2.026,5.686,8.238,5.938,12.083a3.459,3.459,0,0,0,1.348,2.4,8.479,8.479,0,0,0,5.934,1.58,92.6,92.6,0,0,0,2.179-15.709c.609-16.676-9.046-36.435-28.68-41.914-18.984-5.287-35.01,5.649-35.17,5.761a39.5,39.5,0,0,0-8.044,8,11.432,11.432,0,0,1,3.925-1.893c3.533-.908,5.485.177,7.371,1.226a9.8,9.8,0,0,0,8.34,1.179c2.461-.6,5.3-1.582,8.311-2.619,5.611-1.937,11.36-3.921,15.838-3.921" transform="translate(47.165 21.212)" fill="#263238"/>
            <path id="Trazado_777380" data-name="Trazado 777380" d="M130.954,109.273a3.759,3.759,0,0,1-2.72-1.167c-2-1.433-.871-4.279.127-5.722a.708.708,0,0,1,1.165.806c-.018.027-1.875,2.762-.367,3.853a2.4,2.4,0,0,0,3.122.4.707.707,0,1,1,.8,1.168,3.753,3.753,0,0,1-2.127.661" transform="translate(52.87 42.453)" fill="#263238"/>
            <path id="Trazado_777381" data-name="Trazado 777381" d="M136.533,108.624a5.219,5.219,0,0,1-.663-.041,12.063,12.063,0,0,1-6.04-2.832.708.708,0,0,1,.933-1.065,10.616,10.616,0,0,0,5.31,2.495c2.829.364,5.933-2.612,5.966-2.642a.707.707,0,0,1,.983,1.018c-.139.133-3.214,3.067-6.489,3.067" transform="translate(53.894 43.393)" fill="#263238"/>
            <path id="Trazado_777382" data-name="Trazado 777382" d="M139.525,109.022a2.392,2.392,0,0,1-1.994-.895.708.708,0,0,1,1.16-.813c.05.064.791.869,3.02-.5a.732.732,0,0,1,.187-.081,2.847,2.847,0,0,0,1.688-1.412,3.691,3.691,0,0,0-.476-3.126.708.708,0,1,1,1.256-.656,4.978,4.978,0,0,1,.511,4.361,4.218,4.218,0,0,1-2.5,2.166,5.6,5.6,0,0,1-2.85.954" transform="translate(57.146 42.07)" fill="#263238"/>
            <path id="Trazado_777383" data-name="Trazado 777383" d="M137.351,114.421a26.532,26.532,0,0,1-8.839-1.484.708.708,0,0,1,.511-1.321c.108.041,10.747,4.037,19.9-1.9a.708.708,0,1,1,.772,1.188,22.446,22.446,0,0,1-12.348,3.518" transform="translate(53.257 45.58)" fill="#263238"/>
            <path id="Trazado_777384" data-name="Trazado 777384" d="M148.428,94.564c-.071,1.94-1.019,3.511-2.11,3.5s-1.911-1.614-1.826-3.554,1.019-3.511,2.11-3.5,1.911,1.6,1.827,3.554" transform="translate(60.089 37.849)" fill="#263238"/>
            <path id="Trazado_777385" data-name="Trazado 777385" d="M128.648,94.7c0,1.954-1.019,3.511-2.11,3.5s-1.911-1.6-1.826-3.54,1.019-3.511,2.11-3.5,1.911,1.6,1.826,3.54" transform="translate(51.863 37.911)" fill="#263238"/>
            <path id="Trazado_777386" data-name="Trazado 777386" d="M126.88,109.22c-3.759,0-7.82-.731-10.295-2.516-4.316-3.118-4.712-14.1-4.738-15.025l-.559-3.694a.7.7,0,0,1,.159-.562.712.712,0,0,1,.528-.252c1.012-.017,24.822-.443,26.6-.411a9.17,9.17,0,0,1,3.293,1.025,8.357,8.357,0,0,0,2.738.9,3.157,3.157,0,0,0,1.822-.757,12.654,12.654,0,0,1,3.425-1.729c2.751-.9,31.36-1.5,32.758,1.1a1.827,1.827,0,0,1,.089,1.72,4.2,4.2,0,0,1-2.685,1.753c-.306,2.461-1.928,12.872-7.766,15.923-6.274,3.281-15.207,1.533-18.549.17-2.795-1.137-5.889-9.195-6.636-11.243-1.464-.278-4.447-.528-5.385.825a22.257,22.257,0,0,0-1.5,3.053c-1.464,3.31-3.283,7.429-6.087,8.6a20.326,20.326,0,0,1-7.212,1.12M112.809,88.573l.445,2.939c0,.028.007.059.008.089,0,.11.309,11.18,4.151,13.955,3.86,2.786,12.523,2.74,16.134,1.237,2.282-.95,4.047-4.944,5.336-7.861a22.634,22.634,0,0,1,1.633-3.286c1.754-2.534,6.687-1.451,7.244-1.321a.714.714,0,0,1,.505.455c1.332,3.77,4.132,10.032,5.969,10.781,3.017,1.229,11.582,2.905,17.36-.115,5.815-3.04,7.058-15.191,7.069-15.313a.711.711,0,0,1,.572-.626c.74-.144,1.948-.59,2.185-1.092.028-.058.086-.178-.057-.442-1.8-1.4-28.071-1.413-31.069-.428a11.244,11.244,0,0,0-3.074,1.557,4.519,4.519,0,0,1-2.638,1,9.16,9.16,0,0,1-3.293-1.025,8.378,8.378,0,0,0-2.738-.9c-1.579-.024-21.458.321-25.744.4" transform="translate(46.279 35.529)" fill="#263238"/>
            <path id="Trazado_777387" data-name="Trazado 777387" d="M161.989,87.01l11.624,5.706-.793,1.841L159.37,89.573Z" transform="translate(66.279 36.186)" fill="#263238"/>
            <path id="Trazado_777388" data-name="Trazado 777388" d="M173.029,95.473a.718.718,0,0,1-.246-.044l-13.451-4.984a.709.709,0,0,1-.249-1.171l2.619-2.563a.707.707,0,0,1,.807-.129l11.624,5.706a.707.707,0,0,1,.337.916l-.791,1.841a.708.708,0,0,1-.65.428M160.872,89.5l11.772,4.362.261-.6-10.571-5.189Z" transform="translate(66.071 35.977)" fill="#263238"/>
            <path id="Trazado_777389" data-name="Trazado 777389" d="M149.857,86.687c-3.271,1.062-3.7,2.549-5.479,2.52s-4.248-1.9-6.032-1.926-26.576.411-26.576.411l.34,2.209,25.981-.4s3.795-.311,3.3,2.634c-.708,4.106-.51,3.71-.51,3.71,1.515-2.209,6.5-1.034,6.5-1.034l.354.949c-.241-1.869-.439-4.786.552-5.763,1.5-1.416,8.3-1.005,14.414-1.3a107.241,107.241,0,0,1,16.452,1.317l2.492-2.69c-2.209-1.742-28.587-1.685-31.786-.637" transform="translate(46.483 35.744)" fill="#263238"/>
            <path id="Trazado_777390" data-name="Trazado 777390" d="M141.068,96.768a.663.663,0,0,1-.214-.035c-.674-.222-.673-.348.044-4.512a1.339,1.339,0,0,0-.244-1.192,3.273,3.273,0,0,0-2.3-.614l-26.025.4a.647.647,0,0,1-.711-.6L111.278,88a.709.709,0,0,1,.687-.816c1.012-.018,24.839-.423,26.6-.411a9.141,9.141,0,0,1,3.293,1.025,8.328,8.328,0,0,0,2.738.9,2.8,2.8,0,0,0,1.811-.755,12.507,12.507,0,0,1,3.439-1.732c3.084-1.007,29.926-1.229,32.443.756a.71.71,0,0,1,.081,1.036l-2.491,2.69a.709.709,0,0,1-.631.218,106.728,106.728,0,0,0-16.343-1.308c-1.642.081-3.371.109-5.028.137-3.753.061-8.008.132-8.9.973-.2.2-.845,1.184-.334,5.157a.708.708,0,0,1-1.366.338l-.217-.583c-1.467-.279-4.459-.531-5.389.821a.733.733,0,0,1-.6.317m-2.425-7.782a4.27,4.27,0,0,1,3.054,1.082,2.706,2.706,0,0,1,.6,2.39c-.154.892-.263,1.56-.341,2.06a9.6,9.6,0,0,1,5.107-.327c-.127-2.274.183-3.751.933-4.493,1.24-1.17,4.555-1.281,9.859-1.369,1.642-.027,3.356-.055,5.019-.137A108.294,108.294,0,0,1,179.1,89.459l1.557-1.683c-4.764-1.246-27.438-1.174-30.371-.214h0a11.02,11.02,0,0,0-3.08,1.556,4.281,4.281,0,0,1-2.629,1,9.137,9.137,0,0,1-3.293-1.024,8.334,8.334,0,0,0-2.738-.9c-1.584-.013-21.453.321-25.742.4l.123.8L138.288,89c.041,0,.168-.013.355-.013m11.422-2.1h0Z" transform="translate(46.275 35.542)" fill="#263238"/>
            <path id="Trazado_777391" data-name="Trazado 777391" d="M161.67,98.712s8.722-11.766,12.927-9.118.85,14.853-1.883,20.389-9.246,6.924-10.506,2.464" transform="translate(67.235 37.099)" fill="#ababab"/>
            <path id="Trazado_777392" data-name="Trazado 777392" d="M165.907,116.014c-.153,0-.3-.007-.45-.021a4.119,4.119,0,0,1-3.722-3.147.708.708,0,0,1,1.363-.385,2.7,2.7,0,0,0,2.486,2.124c2.1.2,5.053-1.363,6.7-4.708,3.122-6.325,5.569-17.318,2.141-19.475-2.649-1.679-8.759,4.6-11.981,8.94a.708.708,0,1,1-1.137-.844c.933-1.257,9.251-12.208,13.873-9.3,4.735,2.98,1.213,15.548-1.627,21.3-1.821,3.691-5.128,5.512-7.649,5.512" transform="translate(67.027 36.893)" fill="#263238"/>
            <path id="Trazado_777393" data-name="Trazado 777393" d="M159.732,269.41H50.242L36.48,193.42H145.97Z" transform="translate(15.171 80.439)" fill="#263238"/>
            <path id="Trazado_777394" data-name="Trazado 777394" d="M159.94,270.326H50.45a.71.71,0,0,1-.7-.582l-13.761-75.99a.708.708,0,0,1,.7-.834h109.49a.708.708,0,0,1,.7.582l13.762,75.99a.71.71,0,0,1-.7.834m-108.9-1.416H159.092l-13.506-74.574H37.535Z" transform="translate(14.963 80.231)" fill="#263238"/>
            <path id="Trazado_777395" data-name="Trazado 777395" d="M156.732,269.41H47.242L33.48,193.42H142.97Z" transform="translate(13.924 80.439)" fill="#ffb206"/>
            <path id="Trazado_777396" data-name="Trazado 777396" d="M156.94,270.326H47.45a.71.71,0,0,1-.7-.582l-13.761-75.99a.708.708,0,0,1,.7-.834h109.49a.708.708,0,0,1,.7.582l13.762,75.99a.71.71,0,0,1-.7.834m-108.9-1.416H156.092l-13.506-74.574H34.535Z" transform="translate(13.716 80.231)" fill="#263238"/>
            <path id="Trazado_777397" data-name="Trazado 777397" d="M46.2,263.53H151.442L141.3,207.56Z" transform="translate(19.214 86.32)" fill="#263238"/>
            <path id="Trazado_777398" data-name="Trazado 777398" d="M151.65,264.446H46.408a.708.708,0,0,1-.36-1.318l95.106-55.97a.693.693,0,0,1,.653-.033.7.7,0,0,1,.4.517l10.138,55.97a.71.71,0,0,1-.7.834M49.006,263.03H150.8L141,208.894Z" transform="translate(19.005 86.112)" fill="#263238"/>
            <rect id="Rectángulo_373475" data-name="Rectángulo 373475" width="172.143" height="4.602" transform="translate(61.166 349.85)" fill="#ffb206"/>
            <path id="Trazado_777399" data-name="Trazado 777399" d="M215.551,252.607H43.408a.706.706,0,0,1-.708-.708v-4.6a.707.707,0,0,1,.708-.708H215.551a.707.707,0,0,1,.708.708v4.6a.706.706,0,0,1-.708.708M44.116,251.192H214.844v-3.186H44.116Z" transform="translate(17.758 102.552)" fill="#263238"/>
            <rect id="Rectángulo_373476" data-name="Rectángulo 373476" width="61.18" height="4.602" transform="translate(172.128 349.85)" fill="#263238"/>
            <path id="Trazado_777400" data-name="Trazado 777400" d="M182.958,252.607h-61.18a.706.706,0,0,1-.708-.708v-4.6a.707.707,0,0,1,.708-.708h61.18a.707.707,0,0,1,.708.708v4.6a.706.706,0,0,1-.708.708m-60.472-1.416H182.25v-3.186H122.486Z" transform="translate(50.35 102.552)" fill="#263238"/>
          </g>
        </g>
      </g>
    </g>
    <g id="Grupo_1066622" data-name="Grupo 1066622" transform="translate(1125 3272.905) rotate(90)">
      <g id="Grupo_1064150" data-name="Grupo 1064150" clip-path="url(#clip-path-5)">
        <path id="Trazado_777248" data-name="Trazado 777248" d="M92.19,71.378H39.678a31.7,31.7,0,0,1,0-63.4H92.19V0H39.678A39.678,39.678,0,0,0,0,39.678H0A39.678,39.678,0,0,0,39.678,79.356H92.19Z" transform="translate(0)" fill="url(#linear-gradient)"/>
      </g>
    </g>
    <g id="Grupo_1066623" data-name="Grupo 1066623" transform="translate(1437 3350) rotate(180)">
      <g id="Grupo_1064150-2" data-name="Grupo 1064150" clip-path="url(#clip-path-5)">
        <path id="Trazado_777248-2" data-name="Trazado 777248" d="M92.19,71.378H39.678a31.7,31.7,0,0,1,0-63.4H92.19V0H39.678A39.678,39.678,0,0,0,0,39.678H0A39.678,39.678,0,0,0,39.678,79.356H92.19Z" transform="translate(0)" fill="url(#linear-gradient-2)"/>
      </g>
    </g>
  </g>
</svg>
