<svg xmlns="http://www.w3.org/2000/svg" width="241.845" height="151.591" viewBox="0 0 241.845 151.591">
  <g id="Security-pana" transform="translate(-35.032 -33.8)">
    <g id="freepik--background-complete--inject-2" transform="translate(34.609 33.8)">
      <path id="Trazado_779679" data-name="Trazado 779679" d="M610.569,41.029,590.432,33.8l-19.945,7.133c-2.547,1.2-4.778,1.923-4.778,4.288V57.037a44.647,44.647,0,0,0,6.569,23.5,40.9,40.9,0,0,0,18.363,16.2C598.8,94.1,604.879,87.034,608.6,81a44.6,44.6,0,0,0,6.573-23.5V46.878C615.155,43.494,613.36,41.845,610.569,41.029Z" transform="translate(-377.325 -33.8)" fill="#f5f5f5"/>
      <path id="Trazado_779680" data-name="Trazado 779680" d="M590.642,89.89a32.578,32.578,0,0,1-14.518-12.925,35.308,35.308,0,0,1-5.2-18.594V50.088a5.227,5.227,0,0,1,3.38-4.686l16.143-6.03V33.8l-19.963,7.133c-2.093.915-4.778,1.923-4.778,4.3V57.037a44.647,44.647,0,0,0,6.569,23.5,40.9,40.9,0,0,0,18.363,16.2Z" transform="translate(-377.325 -33.8)" fill="#ebebeb"/>
      <path id="Trazado_779681" data-name="Trazado 779681" d="M635.619,96.743a24.271,24.271,0,0,0,3.955-1.7,35.586,35.586,0,0,0,8.375-6.587,45.152,45.152,0,0,0,5.824-7.825,42.979,42.979,0,0,0,6.385-23.726V47.158c0-4.856-2.483-5.214-4.611-6.129L635.41,33.8v5.569L651.726,45.5a5.237,5.237,0,0,1,3.38,4.682v8.282a35.3,35.3,0,0,1-5.2,18.594,31.723,31.723,0,0,1-14.288,12.83Z" transform="translate(-422.303 -33.8)" fill="#e0e0e0"/>
      <path id="Trazado_779682" data-name="Trazado 779682" d="M626.93,89.161l.021-1.593a5.228,5.228,0,0,0-10.457,0l-.021,1.621a2.926,2.926,0,0,0-2.483,2.891v9.4a2.926,2.926,0,0,0,2.926,2.926h9.762a2.926,2.926,0,0,0,2.926-2.926v-9.4A2.926,2.926,0,0,0,626.93,89.161Zm-3.813,9.974h-2.55l.4-1.844a1.554,1.554,0,1,1,1.688-.028Zm2.685-9.989h-8.2l.021-1.578a4.1,4.1,0,0,1,8.2,0Z" transform="translate(-408.48 -65.123)" fill="#e0e0e0"/>
      <path id="Trazado_779683" data-name="Trazado 779683" d="M588.711,81.919a6.528,6.528,0,0,1-.3-1.635,28.194,28.194,0,0,1-.163-4.012c.021-.784.074-1.529.145-2.206a4.672,4.672,0,0,1,.451-1.774,2.068,2.068,0,0,1,.88-.887c.273-.128.443-.121.447-.1a2.3,2.3,0,0,0-1.107,1.1,4.91,4.91,0,0,0-.355,1.7c-.053.67-.1,1.419-.117,2.185-.046,1.554,0,2.962.06,3.98A9.368,9.368,0,0,1,588.711,81.919Z" transform="translate(-391.859 -57.994)" fill="#fff"/>
      <path id="Trazado_779684" data-name="Trazado 779684" d="M590.057,111.784c-.1,0-.188-.482-.2-1.085s.057-1.089.153-1.089.188.482.2,1.064S590.152,111.781,590.057,111.784Z" transform="translate(-392.907 -82.72)" fill="#fff"/>
    </g>
    <g id="freepik--Floor--inject-2" transform="translate(35.032 179.708)">
      <path id="Trazado_779685" data-name="Trazado 779685" d="M277.645,445.242c0,.053-54.146.092-120.919.092S35.8,445.3,35.8,445.242s54.132-.092,120.926-.092S277.645,445.193,277.645,445.242Z" transform="translate(-35.8 -445.15)" fill="#263238"/>
    </g>
    <g id="freepik--Device--inject-2" transform="translate(75 43.824)">
      <path id="Trazado_779686" data-name="Trazado 779686" d="M307.218,62.06H153.276a4.806,4.806,0,0,0-4.8,4.8V175.576a4.806,4.806,0,0,0,4.8,4.806h59.083s3.756,11.62-7.892,17.632h55.238s-13.142-4.508-9.772-17.632h57.285a4.806,4.806,0,0,0,4.8-4.806V66.863A4.8,4.8,0,0,0,307.218,62.06Z" transform="translate(-148.48 -62.06)" fill="#455a64"/>
      <path id="Trazado_779687" data-name="Trazado 779687" d="M375.523,361.734a2.967,2.967,0,0,1-4.178,4.178,1.043,1.043,0,0,1-.255-.259,2.964,2.964,0,0,1,4.175-4.175A1.107,1.107,0,0,1,375.523,361.734Z" transform="translate(-291.702 -254.847)" fill="#263238"/>
      <path id="Trazado_779688" data-name="Trazado 779688" d="M159.423,67.67H310.769a3.441,3.441,0,0,1,3.441,3.441v93H156v-93a3.441,3.441,0,0,1,3.423-3.441Z" transform="translate(-153.333 -65.68)" fill="#fff"/>
      <path id="Trazado_779689" data-name="Trazado 779689" d="M159.231,67.67H311.542a2.667,2.667,0,0,1,2.657,2.667v5.345H156V70.916a3.246,3.246,0,0,1,3.231-3.246Z" transform="translate(-153.333 -65.68)" fill="#ebebeb"/>
      <circle id="Elipse_4730" data-name="Elipse 4730" cx="1.11" cy="1.11" r="1.11" transform="translate(6.58 5.055)" fill="#e0e0e0"/>
      <circle id="Elipse_4731" data-name="Elipse 4731" cx="1.11" cy="1.11" r="1.11" transform="translate(9.893 5.055)" fill="#e0e0e0"/>
      <circle id="Elipse_4732" data-name="Elipse 4732" cx="1.11" cy="1.11" r="1.11" transform="translate(13.043 5.055)" fill="#e0e0e0"/>
      <path id="Trazado_779690" data-name="Trazado 779690" d="M340.395,395.512c0,.053-21.9.092-48.914.092s-48.921-.039-48.921-.092,21.9-.092,48.921-.092S340.395,395.463,340.395,395.512Z" transform="translate(-209.189 -277.175)" fill="#263238"/>
      <path id="Trazado_779691" data-name="Trazado 779691" d="M350.133,112.355l-24.12-8.885-23.889,8.768c-3.05,1.476-5.725,2.362-5.725,5.274v14.522a55.916,55.916,0,0,0,7.871,28.88,49.376,49.376,0,0,0,21.992,19.91c9.765-3.253,17.054-11.925,21.509-19.346a55.9,55.9,0,0,0,7.871-28.877v-13.06C355.624,115.385,353.478,113.356,350.133,112.355Z" transform="translate(-243.931 -88.782)" fill="#ffb206"/>
      <g id="Grupo_1066614" data-name="Grupo 1066614" transform="translate(52.467 14.688)" opacity="0.8">
        <path id="Trazado_779692" data-name="Trazado 779692" d="M350.133,112.355l-24.12-8.885-23.889,8.768c-3.05,1.476-5.725,2.362-5.725,5.274v14.522a55.916,55.916,0,0,0,7.871,28.88,49.376,49.376,0,0,0,21.992,19.91c9.765-3.253,17.054-11.925,21.509-19.346a55.9,55.9,0,0,0,7.871-28.877v-13.06C355.624,115.385,353.478,113.356,350.133,112.355Z" transform="translate(-296.398 -103.47)" fill="#fff"/>
      </g>
      <path id="Trazado_779693" data-name="Trazado 779693" d="M367.805,161.394h-4.434v-24.12a10.3,10.3,0,0,0-20.6,0v24.12H338.34v-24.12a14.734,14.734,0,1,1,29.467,0Z" transform="translate(-270.996 -101.087)" fill="#ffb206"/>
      <g id="Grupo_1066615" data-name="Grupo 1066615" transform="translate(67.344 21.453)" opacity="0.4">
        <path id="Trazado_779694" data-name="Trazado 779694" d="M367.805,161.394h-4.434v-24.12a10.3,10.3,0,0,0-20.6,0v24.12H338.34v-24.12a14.734,14.734,0,1,1,29.467,0Z" transform="translate(-338.34 -122.54)"/>
      </g>
      <rect id="Rectángulo_374899" data-name="Rectángulo 374899" width="39.709" height="25.475" rx="5.81" transform="translate(62.222 49.574)" fill="#ffb206"/>
      <g id="Grupo_1066616" data-name="Grupo 1066616" transform="translate(78.755 55.672)" opacity="0.5">
        <path id="Trazado_779695" data-name="Trazado 779695" d="M377.149,222.336a3.32,3.32,0,1,0-4.225,3.192v4.966h1.813v-4.966A3.309,3.309,0,0,0,377.149,222.336Z" transform="translate(-370.509 -219.014)"/>
      </g>
      <path id="Trazado_779696" data-name="Trazado 779696" d="M329.573,232.307c-.092,0-.163-4.256-.163-9.488s.071-9.488.163-9.488.167,4.256.167,9.488S329.665,232.307,329.573,232.307Z" transform="translate(-265.233 -159.674)" fill="#fafafa"/>
      <path id="Trazado_779697" data-name="Trazado 779697" d="M368.568,224.9a1.549,1.549,0,0,1-.39-.22,3.983,3.983,0,0,1-.855-.873,4.65,4.65,0,0,1,1.653-6.981,4.079,4.079,0,0,1,1.171-.394,1.064,1.064,0,0,1,.447-.025,10.063,10.063,0,0,0-1.49.624,4.611,4.611,0,0,0-1.571,6.644,9.817,9.817,0,0,0,1.036,1.224Z" transform="translate(-289.089 -161.65)" fill="#fafafa"/>
      <path id="Trazado_779698" data-name="Trazado 779698" d="M349.134,201.73s.1-.135.287-.387l.16-.213c.057-.082.106-.177.163-.28a4.194,4.194,0,0,0,.355-.727c.057-.145.124-.294.181-.458s.1-.355.145-.525a3.283,3.283,0,0,0,.121-.585,6.031,6.031,0,0,0,.092-.646,12.378,12.378,0,0,0-.142-3.111,27.826,27.826,0,0,0-2.859-8.048,62.7,62.7,0,0,0-6.136-9.542,97.7,97.7,0,0,0-9.151-10.286,111.782,111.782,0,0,0-12.01-10.255c-2.245-1.646-4.611-3.246-7.094-4.753a69.127,69.127,0,0,0-7.889-4.136,36.89,36.89,0,0,0-8.775-2.749,15.575,15.575,0,0,0-4.682-.117,8.828,8.828,0,0,0-2.259.656,5.633,5.633,0,0,0-3.075,3.43,8.732,8.732,0,0,0-.394,2.32,15.516,15.516,0,0,0,.642,4.64,36.8,36.8,0,0,0,3.732,8.407,68.881,68.881,0,0,0,5.008,7.371c1.773,2.306,3.639,4.473,5.53,6.512a111.807,111.807,0,0,0,11.556,10.772,98.2,98.2,0,0,0,11.255,7.921,62.724,62.724,0,0,0,10.177,5.008,27.934,27.934,0,0,0,8.321,1.923,12.1,12.1,0,0,0,3.107-.213,6.241,6.241,0,0,0,.628-.16,4.152,4.152,0,0,0,.571-.188l.5-.206c.156-.074.3-.16.433-.231a4.584,4.584,0,0,0,.685-.447c.092-.071.184-.128.259-.192l.192-.184.355-.33-.337.355-.192.192c-.074.064-.163.124-.259.2a4.611,4.611,0,0,1-.681.454c-.135.074-.277.16-.433.238l-.507.209a3.594,3.594,0,0,1-.571.192,6.288,6.288,0,0,1-.631.17,12.3,12.3,0,0,1-3.121.231,27.988,27.988,0,0,1-8.353-1.9,62.531,62.531,0,0,1-10.208-5,96.682,96.682,0,0,1-11.283-7.913,111.6,111.6,0,0,1-11.585-10.772c-1.9-2.043-3.76-4.214-5.544-6.523a69.374,69.374,0,0,1-5.026-7.385,37.127,37.127,0,0,1-3.753-8.449,15.717,15.717,0,0,1-.642-4.7,8.78,8.78,0,0,1,.4-2.373,5.8,5.8,0,0,1,3.16-3.547,8.832,8.832,0,0,1,2.309-.67,15.607,15.607,0,0,1,4.739.117,36.85,36.85,0,0,1,8.818,2.767,68.029,68.029,0,0,1,7.882,4.161c2.483,1.511,4.867,3.114,7.094,4.764a112.126,112.126,0,0,1,12.021,10.286,97.735,97.735,0,0,1,9.144,10.308,62.68,62.68,0,0,1,6.126,9.577,28.113,28.113,0,0,1,2.838,8.08,12.278,12.278,0,0,1,.124,3.129,5.949,5.949,0,0,1-.092.649,4.1,4.1,0,0,1-.128.589c-.053.184-.1.355-.149.528a3.954,3.954,0,0,1-.188.458,4.056,4.056,0,0,1-.376.727c-.06.1-.11.2-.167.28l-.167.209C349.223,201.606,349.134,201.73,349.134,201.73Z" transform="translate(-237.217 -115.324)" fill="#ffb206"/>
      <path id="Trazado_779699" data-name="Trazado 779699" d="M345.985,200.9s-.018-.163-.043-.479a1.849,1.849,0,0,0-.021-.266,2.031,2.031,0,0,0-.064-.319,4.4,4.4,0,0,0-.213-.787c-.053-.145-.1-.3-.167-.461s-.16-.316-.245-.489a3.714,3.714,0,0,0-.312-.529c-.117-.17-.216-.355-.355-.539a12.259,12.259,0,0,0-2.178-2.228,28.061,28.061,0,0,0-7.488-4.1,62.878,62.878,0,0,0-10.932-3.036,97.675,97.675,0,0,0-13.67-1.578,112.088,112.088,0,0,0-15.792.355c-2.77.262-5.6.646-8.463,1.181a68.846,68.846,0,0,0-8.641,2.164,36.957,36.957,0,0,0-8.389,3.788,15.606,15.606,0,0,0-3.547,3.029,8.674,8.674,0,0,0-1.249,1.993,5.629,5.629,0,0,0,0,4.611,8.8,8.8,0,0,0,1.249,1.993,15.51,15.51,0,0,0,3.547,3.011A36.889,36.889,0,0,0,277.4,212a68.544,68.544,0,0,0,8.641,2.164c2.862.539,5.693.919,8.463,1.181a111.553,111.553,0,0,0,15.792.355,97.613,97.613,0,0,0,13.67-1.578A62.7,62.7,0,0,0,334.9,211.09a27.893,27.893,0,0,0,7.488-4.1,12.141,12.141,0,0,0,2.178-2.228,5.963,5.963,0,0,0,.355-.539,3.519,3.519,0,0,0,.3-.518l.245-.489c.064-.16.114-.316.167-.461a4.4,4.4,0,0,0,.213-.787c.021-.114.05-.22.064-.316s0-.188.021-.266c.025-.319.043-.479.043-.479s0,.163-.025.479v.27a2,2,0,0,1-.06.319,4.439,4.439,0,0,1-.206.791c-.053.149-.1.305-.167.468l-.238.493a3.7,3.7,0,0,1-.3.521c-.117.174-.216.372-.355.55a12.169,12.169,0,0,1-2.181,2.249,27.958,27.958,0,0,1-7.495,4.143,62.847,62.847,0,0,1-10.95,3.058,97.7,97.7,0,0,1-13.688,1.607,111.822,111.822,0,0,1-15.816-.33c-2.774-.262-5.608-.642-8.481-1.178a69.165,69.165,0,0,1-8.662-2.164,37.062,37.062,0,0,1-8.428-3.81,15.838,15.838,0,0,1-3.611-3.068,8.867,8.867,0,0,1-1.277-2.043,5.814,5.814,0,0,1,0-4.742,8.968,8.968,0,0,1,1.277-2.04,15.674,15.674,0,0,1,3.615-3.065,36.89,36.89,0,0,1,8.424-3.806,68.563,68.563,0,0,1,8.662-2.167c2.87-.536,5.7-.915,8.477-1.178a111.8,111.8,0,0,1,15.816-.326,97.189,97.189,0,0,1,13.692,1.614,62.719,62.719,0,0,1,10.943,3.068,28.082,28.082,0,0,1,7.5,4.143,12.294,12.294,0,0,1,2.174,2.252,6.061,6.061,0,0,1,.355.546,4.145,4.145,0,0,1,.3.521l.238.5c.067.16.113.319.167.465a4.39,4.39,0,0,1,.206.795c.021.113.046.22.06.319a1.663,1.663,0,0,1,0,.266A3.3,3.3,0,0,1,345.985,200.9Z" transform="translate(-222.718 -141.904)" fill="#ffb206"/>
      <path id="Trazado_779700" data-name="Trazado 779700" d="M356.727,129.777s-.142-.085-.4-.259l-.223-.145c-.085-.05-.188-.092-.291-.145a4.5,4.5,0,0,0-.752-.312c-.149-.046-.3-.106-.468-.153l-.543-.121a3.785,3.785,0,0,0-.592-.082c-.209,0-.422-.053-.649-.046a12.414,12.414,0,0,0-3.1.355,27.882,27.882,0,0,0-7.828,3.405,62.6,62.6,0,0,0-9.1,6.778,97.582,97.582,0,0,0-9.623,9.836,112.011,112.011,0,0,0-9.4,12.691c-1.49,2.352-2.923,4.82-4.256,7.413a69.233,69.233,0,0,0-3.583,8.158,36.85,36.85,0,0,0-2.128,8.946,15.472,15.472,0,0,0,.209,4.679,8.654,8.654,0,0,0,.809,2.21,5.622,5.622,0,0,0,3.632,2.82,8.666,8.666,0,0,0,2.341.234,15.511,15.511,0,0,0,4.583-.961,36.888,36.888,0,0,0,8.133-4.3,68.67,68.67,0,0,0,7.005-5.505c2.178-1.933,4.214-3.937,6.119-5.966a111.656,111.656,0,0,0,9.932-12.269,97.6,97.6,0,0,0,7.14-11.762,62.918,62.918,0,0,0,4.3-10.5,27.776,27.776,0,0,0,1.344-8.431,12.136,12.136,0,0,0-.426-3.086,6,6,0,0,0-.206-.617,3.747,3.747,0,0,0-.223-.553c-.085-.17-.163-.355-.238-.49s-.181-.287-.262-.415a4.4,4.4,0,0,0-.493-.653c-.074-.089-.142-.174-.209-.245l-.2-.181c-.234-.213-.355-.326-.355-.326l.355.312.2.177c.071.071.138.156.216.245a3.97,3.97,0,0,1,.5.649c.085.131.181.266.27.415l.241.489a3.6,3.6,0,0,1,.234.557c.064.2.16.4.209.621a12.323,12.323,0,0,1,.447,3.1,27.9,27.9,0,0,1-1.32,8.463,62.68,62.68,0,0,1-4.278,10.531,97.684,97.684,0,0,1-7.119,11.8,111.834,111.834,0,0,1-9.932,12.3c-1.908,2.036-3.944,4.044-6.126,5.984a68.739,68.739,0,0,1-7.023,5.519,36.833,36.833,0,0,1-8.158,4.324,15.558,15.558,0,0,1-4.664.975,8.949,8.949,0,0,1-2.394-.241,5.807,5.807,0,0,1-3.749-2.909,8.827,8.827,0,0,1-.826-2.259,15.726,15.726,0,0,1-.213-4.732,37.036,37.036,0,0,1,2.153-8.992,69.1,69.1,0,0,1,3.6-8.158c1.334-2.6,2.77-5.069,4.256-7.424a111.891,111.891,0,0,1,9.428-12.7,97.718,97.718,0,0,1,9.655-9.836,62.43,62.43,0,0,1,9.155-6.8A27.893,27.893,0,0,1,349.7,128.8a12.092,12.092,0,0,1,3.111-.355,6.256,6.256,0,0,1,.653.05,3.825,3.825,0,0,1,.6.085l.539.114c.167.05.319.106.468.156a4.226,4.226,0,0,1,.752.323c.106.053.206.1.291.149l.22.149C356.6,129.681,356.727,129.777,356.727,129.777Z" transform="translate(-248.514 -104.898)" fill="#ffb206"/>
      <circle id="Elipse_4733" data-name="Elipse 4733" cx="1.529" cy="1.529" r="1.529" transform="translate(37.84 75.545)" fill="#ffb206"/>
      <path id="Trazado_779701" data-name="Trazado 779701" d="M500.218,139.912a1.529,1.529,0,1,1-.447-1.083A1.529,1.529,0,0,1,500.218,139.912Z" transform="translate(-373.481 -111.309)" fill="#ffb206"/>
      <path id="Trazado_779702" data-name="Trazado 779702" d="M288.32,289.77a.39.39,0,1,1-.387-.39.39.39,0,0,1,.387.39Z" transform="translate(-238.215 -208.748)" fill="#ffb206"/>
      <path id="Trazado_779703" data-name="Trazado 779703" d="M311.71,168.95a.39.39,0,1,1-.39-.39A.39.39,0,0,1,311.71,168.95Z" transform="translate(-253.308 -130.784)" fill="#ffb206"/>
      <path id="Trazado_779704" data-name="Trazado 779704" d="M482.7,227.68a.387.387,0,1,1-.112-.276.39.39,0,0,1,.112.276Z" transform="translate(-363.647 -168.682)" fill="#ffb206"/>
      <path id="Trazado_779705" data-name="Trazado 779705" d="M497.93,176.6a.39.39,0,1,1-.387-.387A.39.39,0,0,1,497.93,176.6Z" transform="translate(-373.475 -135.72)" fill="#ffb206"/>
    </g>
    <g id="freepik--Plant--inject-2" transform="translate(226.527 98.928)">
      <path id="Trazado_779706" data-name="Trazado 779706" d="M675.52,337.28a13.269,13.269,0,0,1,5.675-1.947,3.774,3.774,0,0,1,2.678.493.55.55,0,0,1,.273.49.589.589,0,0,1-.263.333,8.088,8.088,0,0,1-8.35.631" transform="translate(-640.103 -293.478)" fill="#ffb206"/>
      <path id="Trazado_779707" data-name="Trazado 779707" d="M675.93,324.3a27.705,27.705,0,0,0,3.657-3.217,9.264,9.264,0,0,0,2.291-4.239,1.713,1.713,0,0,0-.181-1.419c-2.916,2.277-5.2,5.221-5.768,8.868" transform="translate(-640.367 -280.662)" fill="#ffb206"/>
      <path id="Trazado_779708" data-name="Trazado 779708" d="M670.3,324.9a13.223,13.223,0,0,0-.071-4.8,6.488,6.488,0,0,0-2.554-3.962,5.668,5.668,0,0,0,.067,3.763,18.276,18.276,0,0,0,2.533,5.338" transform="translate(-634.846 -281.12)" fill="#ffb206"/>
      <path id="Trazado_779709" data-name="Trazado 779709" d="M667.55,355.27a8.37,8.37,0,0,1,4.54,2.3,8.594,8.594,0,0,1,2.6,4.455,6.113,6.113,0,0,1-4.193-2.65c-1.05-1.348-1.774-2.82-2.919-4.076" transform="translate(-634.96 -306.37)" fill="#ffb206"/>
      <path id="Trazado_779710" data-name="Trazado 779710" d="M662.482,338.311a11.2,11.2,0,0,0-1.291-10.592,13.488,13.488,0,0,0,1.291,10.592" transform="translate(-630.512 -288.592)" fill="#ffb206"/>
      <path id="Trazado_779711" data-name="Trazado 779711" d="M655.115,370.221a8.094,8.094,0,0,1,7.747,4.455c.1.192.181.436.053.607a.578.578,0,0,1-.514.152,6.738,6.738,0,0,1-3.99-2.061,38.718,38.718,0,0,0-3.32-3.157" transform="translate(-626.919 -316.008)" fill="#ffb206"/>
      <path id="Trazado_779712" data-name="Trazado 779712" d="M651.1,350.055a14.426,14.426,0,0,0,.145-8.052,3.926,3.926,0,0,0-1.72-2.614.333.333,0,0,0-.262-.046.355.355,0,0,0-.167.192,4.852,4.852,0,0,0-.4,2.309,14.543,14.543,0,0,0,.355,2.341,12.471,12.471,0,0,0,1.245,4.2,8.6,8.6,0,0,1,.5.922c.149.316.149.426.284.674" transform="translate(-622.78 -296.087)" fill="#ffb206"/>
      <path id="Trazado_779713" data-name="Trazado 779713" d="M622.359,357.618a10.37,10.37,0,0,0-1.82-8.538c-.128-.17-.3-.355-.514-.333-.33.032-.411.465-.4.795a15.426,15.426,0,0,0,2.731,8.077" transform="translate(-604.034 -302.16)" fill="#ffb206"/>
      <path id="Trazado_779714" data-name="Trazado 779714" d="M606.257,370.122a12.415,12.415,0,0,1-10.187-2.071,8.24,8.24,0,0,1,5.516-.677,7.879,7.879,0,0,1,4.672,2.749" transform="translate(-588.834 -314.05)" fill="#ffb206"/>
      <path id="Trazado_779715" data-name="Trazado 779715" d="M605.827,360.479a11.767,11.767,0,0,0-9.247-5.349,5.7,5.7,0,0,0,3.026,3.345,16.768,16.768,0,0,0,4.437,1.3,2.987,2.987,0,0,1,1.773.709" transform="translate(-589.163 -306.28)" fill="#ffb206"/>
      <path id="Trazado_779716" data-name="Trazado 779716" d="M624.579,324.962a26.811,26.811,0,0,1-1.185-5.416,9.113,9.113,0,0,1,1.064-5.356,11.835,11.835,0,0,1,.16,10.957" transform="translate(-606.443 -279.862)" fill="#ffb206"/>
      <path id="Trazado_779717" data-name="Trazado 779717" d="M590.374,322.778a14.508,14.508,0,0,0-10.684-7.268,11.906,11.906,0,0,0,10.684,7.268" transform="translate(-578.264 -280.713)" fill="#ffb206"/>
      <path id="Trazado_779718" data-name="Trazado 779718" d="M591.355,336.945c-3.121.475-5.778,2.483-8.7,3.675a3.9,3.9,0,0,1-1.965.38,1.539,1.539,0,0,1-.965-2.724,4.178,4.178,0,0,1,1.419-.865,15.883,15.883,0,0,1,9.932-.553" transform="translate(-577.929 -294.142)" fill="#ffb206"/>
      <path id="Trazado_779719" data-name="Trazado 779719" d="M602.5,343.982a3.688,3.688,0,0,0-1.511,1.043,16.232,16.232,0,0,1-6.594,3.387c-.252.064-.582.089-.709-.138s.028-.44.17-.617a9.061,9.061,0,0,1,3.987-2.7c1.522-.568,2.838-1.249,4.657-1.1" transform="translate(-587.264 -298.991)" fill="#ffb206"/>
      <path id="Trazado_779720" data-name="Trazado 779720" d="M605.985,306.388a12.475,12.475,0,0,1-9.577,3.256.642.642,0,0,1-.433-.156c-.241-.263.046-.667.326-.883a11.025,11.025,0,0,1,9.676-2.217" transform="translate(-588.715 -274.609)" fill="#ffb206"/>
      <path id="Trazado_779721" data-name="Trazado 779721" d="M595.829,299.76a13.334,13.334,0,0,0-11.939-1.969,9.4,9.4,0,0,0,5.675,2.483,17.95,17.95,0,0,0,6.25-.529" transform="translate(-580.974 -268.876)" fill="#ffb206"/>
      <path id="Trazado_779722" data-name="Trazado 779722" d="M620.26,271.987c.277-2.806.1-5.023.291-7.846,0-.223.064-.5.273-.578.294-.11.539.248.635.55a9,9,0,0,1-1.2,7.8" transform="translate(-604.444 -247.179)" fill="#ffb206"/>
      <path id="Trazado_779723" data-name="Trazado 779723" d="M609.6,272.169a16.469,16.469,0,0,1-4.654-4.522,6.176,6.176,0,0,1-1.483-4.306,4.47,4.47,0,0,1,3.359,1.653,9.386,9.386,0,0,1,1.71,3.441c.372,1.234.631,2.5,1.064,3.721" transform="translate(-593.585 -247.048)" fill="#ffb206"/>
      <path id="Trazado_779724" data-name="Trazado 779724" d="M587.116,271.874a37.6,37.6,0,0,1-11.446-6.739,5.839,5.839,0,0,1,4.3.33,13.554,13.554,0,0,1,7.208,6.385" transform="translate(-575.67 -248.023)" fill="#ffb206"/>
      <path id="Trazado_779725" data-name="Trazado 779725" d="M594.065,286.535a23.408,23.408,0,0,1-6.356.032,26.565,26.565,0,0,1-5.934-1.972.685.685,0,0,1-.4-.309.461.461,0,0,1,.142-.507,1.31,1.31,0,0,1,.507-.238,11.017,11.017,0,0,1,6.413.383,29.708,29.708,0,0,1,5.629,2.611" transform="translate(-579.334 -259.878)" fill="#ffb206"/>
      <path id="Trazado_779726" data-name="Trazado 779726" d="M649.8,290.314a11.234,11.234,0,0,0,.1-9.3,7.088,7.088,0,0,0-.823,4.611c.16,1.575.646,3.228.674,4.824" transform="translate(-622.999 -258.451)" fill="#ffb206"/>
      <path id="Trazado_779727" data-name="Trazado 779727" d="M667.163,299.058a12.972,12.972,0,0,1,9.644,4.107,9.028,9.028,0,0,1-5.282-.979A26.94,26.94,0,0,1,667,299.157" transform="translate(-634.605 -270.096)" fill="#ffb206"/>
      <path id="Trazado_779728" data-name="Trazado 779728" d="M678.361,295.1a13.545,13.545,0,0,1,5.147.16,6.156,6.156,0,0,1,3.923,3.327,9.3,9.3,0,0,1-4.824-.912,27.573,27.573,0,0,1-4.256-2.575" transform="translate(-641.929 -267.433)" fill="#ffb206"/>
      <path id="Trazado_779729" data-name="Trazado 779729" d="M661.849,290.652a16.023,16.023,0,0,1,5.055-2.526,5.507,5.507,0,0,1,5.271,1.28,9.824,9.824,0,0,1-5.037.975,17.343,17.343,0,0,0-5.487.557" transform="translate(-631.152 -262.929)" fill="#ffb206"/>
      <path id="Trazado_779730" data-name="Trazado 779730" d="M662,275.664a11.759,11.759,0,0,0,2.643-11.074A16.859,16.859,0,0,0,662,275.664" transform="translate(-631.315 -247.855)" fill="#ffb206"/>
      <path id="Trazado_779731" data-name="Trazado 779731" d="M629.226,258.666c-.511-1.185-.869-2.433-1.327-3.639a10.506,10.506,0,0,0-1.894-3.359,4.966,4.966,0,0,0-3.356-1.738,13.521,13.521,0,0,0,6.509,8.758" transform="translate(-605.986 -238.395)" fill="#ffb206"/>
      <path id="Trazado_779732" data-name="Trazado 779732" d="M645,270.314a17.427,17.427,0,0,1,2.969-3.611,4.976,4.976,0,0,1,4.036-1.064A9.407,9.407,0,0,1,645,270.314" transform="translate(-620.408 -248.468)" fill="#ffb206"/>
      <path id="Trazado_779733" data-name="Trazado 779733" d="M642.818,258.966a20.3,20.3,0,0,0,1.337-4.327,6.764,6.764,0,0,0-.677-4.4,9.981,9.981,0,0,0-.734,8.758" transform="translate(-618.5 -238.595)" fill="#ffb206"/>
      <path id="Trazado_779734" data-name="Trazado 779734" d="M626.557,239.415a9.435,9.435,0,0,0-6.147-5.782,2.3,2.3,0,0,0-1.064-.16.94.94,0,0,0-.794.663c-.1.472.291.9.66,1.213a21,21,0,0,0,7.36,4.065" transform="translate(-603.331 -227.77)" fill="#ffb206"/>
      <path id="Trazado_779735" data-name="Trazado 779735" d="M633.413,226.774a20.044,20.044,0,0,0-.805-5.321,6.726,6.726,0,0,0-3.348-4.044,7.9,7.9,0,0,0,1.486,5.182,23.857,23.857,0,0,1,2.71,4.774" transform="translate(-610.215 -217.41)" fill="#ffb206"/>
      <path id="Trazado_779736" data-name="Trazado 779736" d="M641.19,229.522c.709-2.032.77-4.611,1.983-6.385.851-1.238,2.213-2.079,2.944-3.387a5.161,5.161,0,0,1-.17,3.845,11.24,11.24,0,0,1-2.249,3.221c-.9.961-1.671,1.681-2.508,2.7" transform="translate(-617.95 -218.92)" fill="#ffb206"/>
      <path id="Trazado_779737" data-name="Trazado 779737" d="M640.988,305.8c.053,0,.1-13.543.106-30.246S641.056,245.3,641,245.3s-.1,13.543-.1,30.253S640.935,305.8,640.988,305.8Z" transform="translate(-617.762 -235.407)" fill="#ffb206"/>
      <path id="Trazado_779738" data-name="Trazado 779738" d="M607.78,301.48a2.811,2.811,0,0,0,.511.192l1.4.472c1.181.4,2.806.986,4.569,1.71a17.225,17.225,0,0,1,4.324,2.167,3.16,3.16,0,0,1,.869,1.149c.135.319.16.514.177.511a.4.4,0,0,0,0-.142,2.125,2.125,0,0,0-.1-.4,3.026,3.026,0,0,0-.855-1.22,7.6,7.6,0,0,0-1.876-1.167c-.752-.355-1.582-.709-2.483-1.064-1.774-.709-3.4-1.288-4.611-1.66-.6-.184-1.085-.323-1.419-.411A3.32,3.32,0,0,0,607.78,301.48Z" transform="translate(-596.39 -271.66)" fill="#ffb206"/>
      <path id="Trazado_779739" data-name="Trazado 779739" d="M596.85,274.619a1.457,1.457,0,0,0,.142.153l.433.408,1.625,1.472,5.4,4.81c2.128,1.876,3.93,3.668,5.193,5.019.631.674,1.132,1.231,1.469,1.621l.394.45a1.31,1.31,0,0,0,.145.149,1.329,1.329,0,0,0-.114-.174c-.082-.11-.2-.273-.355-.472-.323-.408-.805-.983-1.419-1.671a68.68,68.68,0,0,0-5.164-5.069c-2.128-1.873-4.04-3.547-5.438-4.767l-1.664-1.419-.461-.383A1.329,1.329,0,0,0,596.85,274.619Z" transform="translate(-589.337 -254.326)" fill="#ffb206"/>
      <path id="Trazado_779740" data-name="Trazado 779740" d="M621.9,290.759c.053-.025-.387-1.043-.823-2.327s-.653-2.373-.709-2.362a8.033,8.033,0,0,0,.521,2.423,15.3,15.3,0,0,0,.656,1.628A2.458,2.458,0,0,0,621.9,290.759Z" transform="translate(-604.515 -261.716)" fill="#ffb206"/>
      <path id="Trazado_779741" data-name="Trazado 779741" d="M641.12,304.4a2.671,2.671,0,0,0,.323-.376l.834-1.064c.709-.9,1.664-2.153,2.749-3.515s2.078-2.589,2.8-3.476c.355-.422.628-.773.851-1.064a2.46,2.46,0,0,0,.294-.4,2.3,2.3,0,0,0-.355.355c-.216.234-.525.582-.9,1.014-.748.862-1.774,2.075-2.838,3.441s-2.036,2.628-2.706,3.547c-.355.465-.6.841-.784,1.107a2.285,2.285,0,0,0-.266.433Z" transform="translate(-617.905 -267.156)" fill="#ffb206"/>
      <path id="Trazado_779742" data-name="Trazado 779742" d="M648.43,305.534a4.771,4.771,0,0,0,1.089-2.036,5.785,5.785,0,0,0,.245-2.054h-.085c.039.156.067.241.082.238s.018-.089,0-.252h-.085a9.468,9.468,0,0,1-.355,2,15.044,15.044,0,0,1-.89,2.107Z" transform="translate(-622.622 -271.628)" fill="#ffb206"/>
      <path id="Trazado_779743" data-name="Trazado 779743" d="M657.88,299.595a3.634,3.634,0,0,1,.759-.44,5.108,5.108,0,0,1,2.107-.167,12.948,12.948,0,0,1,2.128.355,6.9,6.9,0,0,0,.876.213,2.947,2.947,0,0,0-.837-.355,9.81,9.81,0,0,0-2.128-.4,4.611,4.611,0,0,0-2.174.234A1.334,1.334,0,0,0,657.88,299.595Z" transform="translate(-628.72 -269.902)" fill="#ffb206"/>
      <path id="Trazado_779744" data-name="Trazado 779744" d="M660.119,295.981c0,.028.44-.177,1.163-.426a11.744,11.744,0,0,1,5.86-.447c.748.135,1.2.277,1.213.241a1.333,1.333,0,0,0-.309-.131,7.312,7.312,0,0,0-.88-.245,10.285,10.285,0,0,0-3-.209,10.407,10.407,0,0,0-2.933.66,7.062,7.062,0,0,0-.83.38C660.215,295.892,660.112,295.967,660.119,295.981Z" transform="translate(-630.164 -267.307)" fill="#ffb206"/>
      <path id="Trazado_779745" data-name="Trazado 779745" d="M641.19,275.261a23.629,23.629,0,0,0,.848-2.948,24.168,24.168,0,0,0,.66-2.994,48.546,48.546,0,0,0-1.507,5.941Z" transform="translate(-617.95 -250.907)" fill="#ffb206"/>
      <path id="Trazado_779746" data-name="Trazado 779746" d="M641,280.262a13.71,13.71,0,0,1,.94-1.773,7.74,7.74,0,0,1,1.383-1.419,1.278,1.278,0,0,0-.536.277,4.285,4.285,0,0,0-1.007,1.039A3.862,3.862,0,0,0,641,280.262Z" transform="translate(-617.827 -255.908)" fill="#ffb206"/>
      <path id="Trazado_779747" data-name="Trazado 779747" d="M641.11,359.541c.021,0,.06-.326.213-.9a12.891,12.891,0,0,1,.908-2.345,32.273,32.273,0,0,1,4.8-6.768c1.064-1.224,2.128-2.38,3-3.487a24.513,24.513,0,0,0,2.128-3.089,14.7,14.7,0,0,0,1.064-2.291c.1-.28.174-.5.213-.656a1.059,1.059,0,0,0,.057-.234s-.117.312-.355.862a16.842,16.842,0,0,1-1.128,2.252,26.074,26.074,0,0,1-2.164,3.043c-.887,1.1-1.926,2.245-3,3.473a30.7,30.7,0,0,0-4.781,6.835,11.551,11.551,0,0,0-.851,2.384,6.278,6.278,0,0,0-.121.681,1.016,1.016,0,0,0,.021.241Z" transform="translate(-617.884 -296.368)" fill="#ffb206"/>
      <path id="Trazado_779748" data-name="Trazado 779748" d="M611,361.448a5.219,5.219,0,0,0,.56.316,12.139,12.139,0,0,1,1.454.961,16.259,16.259,0,0,1,1.908,1.742c.67.709,1.362,1.529,2.064,2.408,1.419,1.774,2.728,3.331,3.515,4.579a14.942,14.942,0,0,1,.883,1.507,4.87,4.87,0,0,0,.309.568.47.47,0,0,0-.05-.16c-.043-.1-.1-.252-.192-.44a13.625,13.625,0,0,0-.834-1.547,47.408,47.408,0,0,0-3.48-4.611c-.709-.883-1.419-1.706-2.086-2.416a15.576,15.576,0,0,0-1.958-1.727,10.133,10.133,0,0,0-1.5-.915c-.184-.1-.337-.153-.436-.2A1.564,1.564,0,0,0,611,361.448Z" transform="translate(-598.468 -310.357)" fill="#ffb206"/>
      <path id="Trazado_779749" data-name="Trazado 779749" d="M610.41,372.483a8.417,8.417,0,0,0,1.185.17,15.749,15.749,0,0,1,2.809.553,8.514,8.514,0,0,1,2.515,1.319c.582.451.855.819.883.8a1.063,1.063,0,0,0-.177-.273,4.67,4.67,0,0,0-.621-.617,7.622,7.622,0,0,0-2.543-1.4,12.6,12.6,0,0,0-2.855-.507A6.484,6.484,0,0,0,610.41,372.483Z" transform="translate(-598.088 -317.472)" fill="#ffb206"/>
      <path id="Trazado_779750" data-name="Trazado 779750" d="M627.627,372c.064-.035-.472-.851-.887-1.947s-.479-2.079-.55-2.068a1.971,1.971,0,0,0,.021.635,6.807,6.807,0,0,0,.355,1.5,7.331,7.331,0,0,0,.688,1.373A1.964,1.964,0,0,0,627.627,372Z" transform="translate(-608.26 -314.572)" fill="#ffb206"/>
      <path id="Trazado_779751" data-name="Trazado 779751" d="M601.23,331.79a1.419,1.419,0,0,0,.192.1l.557.252c.245.106.539.238.873.415s.727.355,1.132.6l.646.355c.227.131.447.284.685.429.475.291.954.646,1.461,1.011a25.094,25.094,0,0,1,5.636,5.831c.355.521.685,1.011.958,1.5.138.241.284.468.408.709l.355.66c.231.415.394.809.553,1.149s.287.642.383.887l.234.568a.817.817,0,0,0,.1.192.844.844,0,0,0-.057-.206l-.2-.578a9.148,9.148,0,0,0-.355-.9c-.153-.355-.309-.748-.532-1.171-.11-.213-.22-.436-.337-.667s-.263-.465-.4-.709c-.27-.493-.607-.99-.951-1.518a24.193,24.193,0,0,0-5.675-5.874c-.514-.355-1-.709-1.483-1-.238-.145-.465-.3-.709-.426l-.656-.355c-.415-.238-.812-.408-1.153-.571a8.927,8.927,0,0,0-.89-.383l-.571-.22a.73.73,0,0,0-.2-.067Z" transform="translate(-592.164 -291.219)" fill="#ffb206"/>
      <path id="Trazado_779752" data-name="Trazado 779752" d="M615.892,345.2a1.365,1.365,0,0,0-.465-.709,2.94,2.94,0,0,0-1.876-.709,5.133,5.133,0,0,0-1.972.387,2.894,2.894,0,0,0-.748.355,4.3,4.3,0,0,0,.791-.231,6.031,6.031,0,0,1,1.923-.323,3.047,3.047,0,0,1,1.773.631A5.647,5.647,0,0,1,615.892,345.2Z" transform="translate(-598.359 -298.956)" fill="#ffb206"/>
      <path id="Trazado_779753" data-name="Trazado 779753" d="M627.3,345.014a7.339,7.339,0,0,1-.532-1.735,7.143,7.143,0,0,1,.121-1.809,1.188,1.188,0,0,0-.22.507,3.6,3.6,0,0,0,.3,2.593A1.22,1.22,0,0,0,627.3,345.014Z" transform="translate(-608.503 -297.465)" fill="#ffb206"/>
      <path id="Trazado_779754" data-name="Trazado 779754" d="M633.539,401a44.679,44.679,0,0,1-4.256,15.76H618.858a45.248,45.248,0,0,1-4-15.76Z" transform="translate(-600.959 -335.88)" fill="#263238"/>
      <path id="Trazado_779755" data-name="Trazado 779755" d="M619.62,424.409c0,.053,3.437.1,7.672.1s7.672-.046,7.672-.1-3.434-.1-7.672-.1S619.62,424.356,619.62,424.409Z" transform="translate(-604.031 -350.921)" fill="#fafafa"/>
      <path id="Trazado_779756" data-name="Trazado 779756" d="M620.28,429.7c0,.053,3.221.1,7.193.1s7.19-.043,7.19-.1-3.217-.1-7.19-.1S620.28,429.643,620.28,429.7Z" transform="translate(-604.457 -354.335)" fill="#fafafa"/>
      <path id="Trazado_779757" data-name="Trazado 779757" d="M654.889,410.56a29.131,29.131,0,0,0,0,4.806,30.186,30.186,0,0,0,0-4.806Z" transform="translate(-626.726 -342.049)" fill="#fafafa"/>
      <path id="Trazado_779758" data-name="Trazado 779758" d="M639.13,410.56a31.218,31.218,0,0,0,0,4.966,32.376,32.376,0,0,0,0-4.966Z" transform="translate(-616.557 -342.049)" fill="#fafafa"/>
      <path id="Trazado_779759" data-name="Trazado 779759" d="M624.336,410.44a33.661,33.661,0,0,0,0,5.076A32.485,32.485,0,0,0,624.336,410.44Z" transform="translate(-607.012 -341.971)" fill="#fafafa"/>
      <path id="Trazado_779760" data-name="Trazado 779760" d="M615.79,410.379c0,.053,4.029.1,9,.1s9-.043,9-.1-4.026-.1-9-.1S615.79,410.326,615.79,410.379Z" transform="translate(-601.559 -341.868)" fill="#fafafa"/>
    </g>
    <g id="freepik--Character--inject-2" transform="translate(55.779 49.724)">
      <path id="Trazado_779761" data-name="Trazado 779761" d="M99.378,412.8l-1.685,8.626-3.3,6.434a.9.9,0,0,0,.447,1.238h0a.89.89,0,0,0,.823-.057c1.586-.968,7.4-4.562,7.488-5.2.1-.738,2.38-8.978,2.38-8.978Z" transform="translate(-94.292 -294.291)" fill="#ffb206"/>
      <path id="Trazado_779762" data-name="Trazado 779762" d="M95.83,448.135l8.438-5.835-.082.355a1.348,1.348,0,0,1-.5.791c-.7.521-2.611,1.94-7.009,4.64A.9.9,0,0,1,95.83,448.135Z" transform="translate(-95.284 -313.327)" fill="#263238"/>
      <path id="Trazado_779763" data-name="Trazado 779763" d="M115.75,435.076a.543.543,0,0,0-.3.663.521.521,0,0,0,.653.3.571.571,0,0,0,.312-.709.546.546,0,0,0-.709-.241" transform="translate(-107.929 -308.643)" fill="#ebebeb"/>
      <path id="Trazado_779764" data-name="Trazado 779764" d="M100.873,447.017a2.759,2.759,0,0,0-.6-.848,2.8,2.8,0,0,0-.947-.4c0-.021.121-.064.33-.05a1.419,1.419,0,0,1,1.2.958C100.912,446.878,100.894,447.017,100.873,447.017Z" transform="translate(-97.543 -315.529)" fill="#263238"/>
      <path id="Trazado_779765" data-name="Trazado 779765" d="M98.533,450.64c-.05.028-.266-.309-.681-.536a7.459,7.459,0,0,0-.812-.291.99.99,0,0,1,.908.124C98.42,450.2,98.583,450.629,98.533,450.64Z" transform="translate(-96.065 -318.138)" fill="#263238"/>
      <path id="Trazado_779766" data-name="Trazado 779766" d="M103.8,443.258a9.27,9.27,0,0,0-.993-.9,8.861,8.861,0,0,0-1.206-.575,1.983,1.983,0,0,1,1.312.415A2.008,2.008,0,0,1,103.8,443.258Z" transform="translate(-99.008 -312.993)" fill="#263238"/>
      <path id="Trazado_779767" data-name="Trazado 779767" d="M105.846,437.411c-.035.046-.465-.255-1.064-.411s-1.135-.117-1.142-.174a1.71,1.71,0,0,1,1.188,0,1.745,1.745,0,0,1,1.018.585Z" transform="translate(-100.324 -309.726)" fill="#263238"/>
      <path id="Trazado_779768" data-name="Trazado 779768" d="M107.233,430.33a4.423,4.423,0,0,0-1.11-.461,4.314,4.314,0,0,0-1.2.039c0-.021.11-.11.33-.181a1.969,1.969,0,0,1,1.738.319C107.169,430.191,107.247,430.315,107.233,430.33Z" transform="translate(-101.15 -305.163)" fill="#263238"/>
      <path id="Trazado_779769" data-name="Trazado 779769" d="M106.565,425.974a.741.741,0,0,1,.057-.326,2.373,2.373,0,0,1,.447-.794,1.028,1.028,0,0,1,.532-.383.355.355,0,0,1,.383.167.585.585,0,0,1,.05.415,1.27,1.27,0,0,1-1.344.912,1.476,1.476,0,0,1-1.252-1.064.518.518,0,0,1,.067-.422.355.355,0,0,1,.4-.1,1.274,1.274,0,0,1,.5.419,2.536,2.536,0,0,1,.44.795.812.812,0,0,1,.067.326,4.087,4.087,0,0,0-.61-1.032,1.142,1.142,0,0,0-.447-.355.184.184,0,0,0-.22.057.355.355,0,0,0-.028.28,1.316,1.316,0,0,0,1.1.908,1.1,1.1,0,0,0,1.149-.756.429.429,0,0,0-.021-.294.191.191,0,0,0-.209-.092.887.887,0,0,0-.458.316,3.4,3.4,0,0,0-.6,1.029Z" transform="translate(-101.472 -301.743)" fill="#263238"/>
      <path id="Trazado_779770" data-name="Trazado 779770" d="M178.354,414.69l1.437,8.669,3.111,6.53a.9.9,0,0,1-.479,1.224h0a.894.894,0,0,1-.819-.082c-1.557-1.014-7.268-4.771-7.335-5.413-.082-.741-2.128-9.045-2.128-9.045Z" transform="translate(-144.527 -295.51)" fill="#ffb206"/>
      <path id="Trazado_779771" data-name="Trazado 779771" d="M186.095,449.946l-8.265-6.076.067.355a1.366,1.366,0,0,0,.479.8c.67.543,2.554,1.993,6.871,4.835a.912.912,0,0,0,.848.075Z" transform="translate(-148.199 -314.34)" fill="#263238"/>
      <path id="Trazado_779772" data-name="Trazado 779772" d="M180.022,436.748a.546.546,0,0,1,.28.67.528.528,0,0,1-.663.284.571.571,0,0,1-.291-.709.539.539,0,0,1,.709-.216" transform="translate(-149.156 -309.726)" fill="#ebebeb"/>
      <path id="Trazado_779773" data-name="Trazado 779773" d="M193.521,449.129a2.738,2.738,0,0,1,.631-.816,2.665,2.665,0,0,1,.958-.376c0-.025-.121-.071-.326-.06a1.419,1.419,0,0,0-1.227.922C193.489,448.984,193.5,449.126,193.521,449.129Z" transform="translate(-158.313 -316.925)" fill="#263238"/>
      <path id="Trazado_779774" data-name="Trazado 779774" d="M195.885,452.79c.05.028.273-.3.709-.514a7.275,7.275,0,0,1,.823-.27,1,1,0,0,0-.912.1C196.013,452.346,195.836,452.776,195.885,452.79Z" transform="translate(-159.844 -319.546)" fill="#263238"/>
      <path id="Trazado_779775" data-name="Trazado 779775" d="M189.53,445.278a9.7,9.7,0,0,1,1.018-.869,8.99,8.99,0,0,1,1.224-.539,2.455,2.455,0,0,0-2.242,1.419Z" transform="translate(-155.748 -314.34)" fill="#263238"/>
      <path id="Trazado_779776" data-name="Trazado 779776" d="M187.68,439.334c.032.046.472-.245,1.089-.383s1.135-.085,1.146-.142a1.773,1.773,0,0,0-1.188-.046A1.742,1.742,0,0,0,187.68,439.334Z" transform="translate(-154.555 -310.992)" fill="#263238"/>
      <path id="Trazado_779777" data-name="Trazado 779777" d="M186.306,432.206a4.394,4.394,0,0,1,1.124-.426,4.338,4.338,0,0,1,1.2.071c0-.021-.106-.113-.326-.192a1.99,1.99,0,0,0-.9-.071,1.954,1.954,0,0,0-.837.355C186.373,432.074,186.288,432.191,186.306,432.206Z" transform="translate(-153.666 -306.4)" fill="#263238"/>
      <path id="Trazado_779778" data-name="Trazado 779778" d="M186.528,427.9a.774.774,0,0,0-.053-.33,2.273,2.273,0,0,0-.419-.805,1.018,1.018,0,0,0-.525-.4.355.355,0,0,0-.383.156.575.575,0,0,0-.064.415,1.277,1.277,0,0,0,1.316.951,1.479,1.479,0,0,0,1.28-1.029.511.511,0,0,0-.057-.422.355.355,0,0,0-.4-.117,1.231,1.231,0,0,0-.511.4,2.625,2.625,0,0,0-.465.78.83.83,0,0,0-.074.323,4.2,4.2,0,0,1,.638-1.014,1.231,1.231,0,0,1,.458-.355.188.188,0,0,1,.216.064.355.355,0,0,1,.021.28,1.312,1.312,0,0,1-1.121.876,1.1,1.1,0,0,1-1.128-.777.426.426,0,0,1,.032-.294.206.206,0,0,1,.213-.089.954.954,0,0,1,.447.33,3.461,3.461,0,0,1,.578,1.053Z" transform="translate(-152.871 -303.003)" fill="#263238"/>
      <path id="Trazado_779779" data-name="Trazado 779779" d="M103.882,237.736c-.8-1.22-4.125,65.042-3.9,65.425l8.754.124,4.764-35.407,2.593-27.075,4.161,25.439,5.126,37.283,9.577.135-5.924-67.568L116.652,229Z" transform="translate(-97.956 -175.686)" fill="#263238"/>
      <path id="Trazado_779780" data-name="Trazado 779780" d="M114.742,126.844a10.111,10.111,0,0,0-3.707,1.376,12.114,12.114,0,0,0-2.064,2.951l-5.1,3.434,4.491,17.891L104.6,177.223l.752,2.128,28.135-.468.536-1.94-2.909-22.474,1.277-15.082,1.174-6.058-5.094-2.281s2.334-.709,2.44-1.128-5.26-3.157-5.26-3.157S117.186,125.315,114.742,126.844Z" transform="translate(-100.473 -109.312)" fill="#ffb206"/>
      <path id="Trazado_779781" data-name="Trazado 779781" d="M110.45,235.38c3.192,4.111,7.509,7.144,11.776,10.109a7.985,7.985,0,0,0,2.909,1.476,4.075,4.075,0,0,0,4.093-1.717c.617-.94.826-2.128,1.557-2.98.5-.578,1.188-.951,1.72-1.5a7.392,7.392,0,0,0,1.1-1.628l1.745-3.15c-2.128,0-4.079,1.036-5.995,1.947s-4.04,1.742-6.1,1.27c-2.862-.656-4.686-3.568-7.449-4.593a6.218,6.218,0,0,0-5.321.507" transform="translate(-104.719 -179.068)" opacity="0.3"/>
      <path id="Trazado_779782" data-name="Trazado 779782" d="M98.724,149.872a8,8,0,0,0-1.28,4.147c-.216,2.809-2.043,17.551-1.419,19.668s8.488,10.96,11.113,10.744l.979-.355.936.727,4.193-3.143-9.24-11.631.5-16.742S101.647,149.223,98.724,149.872Z" transform="translate(-95.327 -124.58)" fill="#ffb206"/>
      <path id="Trazado_779783" data-name="Trazado 779783" d="M119.14,132a2.105,2.105,0,0,0-.231.192,4.146,4.146,0,0,0-.564.667,12.7,12.7,0,0,0-.734,1.21c-.28.5-.642,1.014-1.025,1.625l-.06-.074a2.6,2.6,0,0,1,1.727,0,6.069,6.069,0,0,1,1.742.954,16.423,16.423,0,0,1,3.136,3.373,69.5,69.5,0,0,1,5.764,9.722v.046c-.043,1.461-.085,2.99-.131,4.551-.227,7.913-.429,15.075-.578,20.271-.082,2.586-.145,4.682-.192,6.14-.025.709-.046,1.28-.06,1.671a2.455,2.455,0,0,1-.021.433.956.956,0,0,1,0,.149.945.945,0,0,1,0-.149v-.433c0-.394.018-.954.028-1.671.032-1.461.074-3.547.131-6.144.124-5.189.287-12.354.525-20.271.046-1.561.089-3.093.131-4.554v.043a70.992,70.992,0,0,0-5.711-9.733,16.508,16.508,0,0,0-3.089-3.363,6.051,6.051,0,0,0-1.7-.947,2.483,2.483,0,0,0-1.66,0l-.142.053.082-.124c.39-.6.741-1.142,1.043-1.614s.525-.89.759-1.2a3.692,3.692,0,0,1,.589-.653,1.16,1.16,0,0,1,.238-.17Z" transform="translate(-108.577 -113.092)" fill="#263238"/>
      <path id="Trazado_779784" data-name="Trazado 779784" d="M162.593,138c0,.028-.539.188-1.39.529a13.256,13.256,0,0,0-3.114,1.731,20.576,20.576,0,0,0-2.6,2.462l-.734.805a1.773,1.773,0,0,1-.287.28,1.686,1.686,0,0,1,.234-.326c.156-.206.394-.493.709-.844a17.188,17.188,0,0,1,2.579-2.522,11.879,11.879,0,0,1,3.192-1.706c.436-.16.795-.262,1.046-.33A1.44,1.44,0,0,1,162.593,138Z" transform="translate(-133.124 -116.964)" fill="#263238"/>
      <path id="Trazado_779785" data-name="Trazado 779785" d="M151.517,158.769a2.673,2.673,0,0,1,.035-.529c.039-.337.11-.823.223-1.419.22-1.192.614-2.838,1.135-4.611a40.946,40.946,0,0,1,1.578-4.466c.241-.56.458-1,.621-1.3a2.858,2.858,0,0,1,.28-.447,3.038,3.038,0,0,1-.216.482c-.142.305-.355.752-.564,1.312-.454,1.117-.993,2.7-1.522,4.469s-.933,3.387-1.185,4.572c-.128.589-.22,1.064-.28,1.4A3.288,3.288,0,0,1,151.517,158.769Z" transform="translate(-131.218 -122.126)" fill="#263238"/>
      <path id="Trazado_779786" data-name="Trazado 779786" d="M154,142.587a34.338,34.338,0,0,1,1.437-3.192,33.241,33.241,0,0,1,1.607-3.114,34.052,34.052,0,0,1-1.44,3.192A32.756,32.756,0,0,1,154,142.587Z" transform="translate(-132.821 -115.854)" fill="#263238"/>
      <path id="Trazado_779787" data-name="Trazado 779787" d="M156.45,171.086l.082-.174a.614.614,0,0,0,.333.11c.142,0,.2-.043.2-.106,0-.192-.589-.067-.585-.447,0-.17.145-.312.433-.309a.667.667,0,0,1,.355.1l-.075.177a.582.582,0,0,0-.28-.085c-.138,0-.2.05-.2.114,0,.188.592.067.585.44,0,.17-.145.312-.436.309A.709.709,0,0,1,156.45,171.086Z" transform="translate(-134.402 -137.716)" fill="#fff"/>
      <path id="Trazado_779788" data-name="Trazado 779788" d="M160.077,171.09v.188h-.787l.018-1.018h.766v.188h-.532v.223h.472v.184h-.472v.234Z" transform="translate(-136.235 -137.781)" fill="#fff"/>
      <path id="Trazado_779789" data-name="Trazado 779789" d="M161.86,170.756a.529.529,0,0,1,.56-.518.514.514,0,0,1,.415.188l-.153.135a.323.323,0,0,0-.252-.121.326.326,0,1,0,0,.649.323.323,0,0,0,.255-.117l.149.142a.514.514,0,0,1-.422.174.521.521,0,0,1-.553-.532Z" transform="translate(-137.893 -137.766)" fill="#fff"/>
      <path id="Trazado_779790" data-name="Trazado 779790" d="M165.761,171.04a1.174,1.174,0,0,1-.043-.149.372.372,0,0,0-.035-.1v.1c0,.2-.089.273-.231.27s-.227-.082-.223-.277v-.56H165v.571a.426.426,0,0,0,.454.472.45.45,0,0,0,.38-.163A.6.6,0,0,1,165.761,171.04Z" transform="translate(-139.915 -137.82)" fill="#fff"/>
      <path id="Trazado_779791" data-name="Trazado 779791" d="M167.31,171v.39a.738.738,0,0,1,.028.082l.032.128a1.088,1.088,0,0,1,.021.333.472.472,0,0,0,.138-.355v-.571Z" transform="translate(-141.41 -138.258)" fill="#fff"/>
      <path id="Trazado_779792" data-name="Trazado 779792" d="M169.232,172.148l-.192-.284h-.216v.284h-.234V171.13h.44c.27,0,.44.145.436.376a.326.326,0,0,1-.216.316l.223.33Zm-.209-.826h-.192v.355h.192c.142,0,.216-.064.22-.174a.194.194,0,0,0-.22-.2Z" transform="translate(-142.236 -138.342)" fill="#fff"/>
      <path id="Trazado_779793" data-name="Trazado 779793" d="M171.63,171.1h.234v1.018h-.234Z" transform="translate(-144.198 -138.323)" fill="#fff"/>
      <path id="Trazado_779794" data-name="Trazado 779794" d="M172.966,171.322h-.326v-.192h.883v.192H173.2v.826h-.238Z" transform="translate(-144.849 -138.342)" fill="#fff"/>
      <path id="Trazado_779795" data-name="Trazado 779795" d="M175.677,171.8v.355h-.234V171.8l-.383-.66h.252l.262.458.28-.447h.231Z" transform="translate(-146.411 -138.349)" fill="#fff"/>
      <path id="Trazado_779796" data-name="Trazado 779796" d="M167.549,166.923a.962.962,0,0,1-.142-.266c-.078-.174-.181-.436-.294-.763a13.761,13.761,0,0,1-.6-2.632,13.508,13.508,0,0,1-.075-2.7c.028-.355.064-.624.1-.816a.83.83,0,0,1,.071-.291,7.711,7.711,0,0,1-.035,1.11,16.767,16.767,0,0,0,.67,5.285,10.888,10.888,0,0,1,.312,1.068Z" transform="translate(-140.823 -130.812)" fill="#263238"/>
      <g id="Grupo_1066617" data-name="Grupo 1066617" transform="translate(20.155 21.698)" opacity="0.3">
        <path id="Trazado_779797" data-name="Trazado 779797" d="M151.95,151.455a27.07,27.07,0,0,0-.575,3.157c0,.273-.436,4.576-.181,4.671s1.419-3.015,1.685-4.576c.2-1.224.539-2.838.745-4.054.6-3.565,1.919-5.484,3.774-8.587.355-.585,1.66-2.185,1.66-2.185-.124-.082-.646.167-1.007.33a20.189,20.189,0,0,0-2.919,1.965,35.518,35.518,0,0,0-1.5,3.231,46.132,46.132,0,0,0-1.706,6.253" transform="translate(-151.114 -139.865)"/>
      </g>
      <g id="Grupo_1066618" data-name="Grupo 1066618" transform="translate(8.143 22.455)" opacity="0.3">
        <path id="Trazado_779798" data-name="Trazado 779798" d="M118.385,142s-1.142.624-1.135,1.128a1.469,1.469,0,0,0,.83,1.174,10.908,10.908,0,0,0,1.419.525,8.293,8.293,0,0,1,2.87,2.047,24.319,24.319,0,0,1,3.575,4.583c.834,1.383,1.6,2.926,2.99,3.742-.944-1.688-1.922-3.324-2.866-5.012a32.383,32.383,0,0,0-3.26-4.771c-1.227-1.49-3.228-3.3-4.42-3.416" transform="translate(-117.25 -142)"/>
      </g>
      <path id="Trazado_779799" data-name="Trazado 779799" d="M108.988,187.187a.355.355,0,0,1,0-.092,1.42,1.42,0,0,1,0-.273,2.233,2.233,0,0,1,1.628-1.891,2.267,2.267,0,0,1,1.965.436l-.138.067a17.766,17.766,0,0,1,.213-3.572c.177-1.167.394-2.267.514-3.274a26.68,26.68,0,0,0,.209-2.7c.021-.77,0-1.394,0-1.823v-.5a.553.553,0,0,1,0-.174.585.585,0,0,1,.025.17c0,.135.025.3.039.5.032.433.053,1.064.05,1.83a24.07,24.07,0,0,1-.17,2.71c-.113,1.018-.323,2.128-.5,3.285a18.6,18.6,0,0,0-.227,3.547v.188l-.145-.121a2.128,2.128,0,0,0-1.823-.429,2.036,2.036,0,0,0-1.224.844,2.206,2.206,0,0,0-.355.919A1.55,1.55,0,0,0,108.988,187.187Z" transform="translate(-103.771 -139.807)" fill="#263238"/>
      <path id="Trazado_779800" data-name="Trazado 779800" d="M111.49,217.694a.648.648,0,0,1,.114.1c.078.082.181.181.309.305.277.259.681.642,1.227,1.085a18.261,18.261,0,0,0,2.068,1.458,8.158,8.158,0,0,0,1.373.692,1.774,1.774,0,0,0,.791.117,1.171,1.171,0,0,0,.731-.319l.053-.057.06.043c.294.231.614.475.94.709h-.1l4.189-3.146-.018.131-.074-.092c-1.263-1.575-2.391-3.128-3.437-4.522s-1.993-2.653-2.813-3.685-1.511-1.848-2.008-2.391c-.245-.273-.447-.479-.582-.617a1.488,1.488,0,0,1-.2-.22,1.681,1.681,0,0,1,.223.2c.145.128.355.326.61.592.514.532,1.224,1.33,2.057,2.359s1.795,2.27,2.838,3.664,2.189,2.941,3.448,4.508l.071.092.06.074-.074.057-4.2,3.139-.053.039-.053-.039-.936-.731h.117a1.327,1.327,0,0,1-.844.355,1.9,1.9,0,0,1-.855-.135,8.409,8.409,0,0,1-1.394-.709,17.234,17.234,0,0,1-2.04-1.5,16.291,16.291,0,0,1-1.2-1.124l-.294-.319a.624.624,0,0,1-.1-.1Z" transform="translate(-105.39 -161.67)" fill="#263238"/>
      <path id="Trazado_779801" data-name="Trazado 779801" d="M110.54,154.384c-.032,0-.167-.408-.511-1.025a7.19,7.19,0,0,0-.688-1.025,8.16,8.16,0,0,0-1.064-1.082,8.439,8.439,0,0,0-1.252-.844,7.625,7.625,0,0,0-1.132-.493c-.67-.223-1.11-.28-1.1-.316a1.043,1.043,0,0,1,.312,0,4.77,4.77,0,0,1,.83.174,6.763,6.763,0,0,1,1.174.468,7.6,7.6,0,0,1,1.288.851,7.69,7.69,0,0,1,1.064,1.117,6.527,6.527,0,0,1,.67,1.064,5.222,5.222,0,0,1,.323.787A1.1,1.1,0,0,1,110.54,154.384Z" transform="translate(-101.066 -124.441)" fill="#263238"/>
      <g id="Grupo_1066619" data-name="Grupo 1066619" transform="translate(25.641 30.411)" opacity="0.3">
        <path id="Trazado_779802" data-name="Trazado 779802" d="M167.34,169.243c.117.252.532.1.582-.1a.855.855,0,0,0-.128-.607,10.641,10.641,0,0,1-1.167-4.1,10.148,10.148,0,0,0,.713,4.813" transform="translate(-166.581 -164.43)"/>
      </g>
      <g id="Grupo_1066620" data-name="Grupo 1066620" transform="translate(4.963 44.141)" opacity="0.3">
        <path id="Trazado_779803" data-name="Trazado 779803" d="M108.379,206a2.334,2.334,0,0,1,1.064-2.671,1.366,1.366,0,0,1,.759-.2c.575.043.986.553,1.323,1.018a2.394,2.394,0,0,0-3.033,1.83" transform="translate(-108.285 -203.137)"/>
      </g>
      <path id="Trazado_779804" data-name="Trazado 779804" d="M182.7,150.75a10.032,10.032,0,0,1-.479.908,14.412,14.412,0,0,0-.965,2.274,14.6,14.6,0,0,0-.557,2.408,9.094,9.094,0,0,1-.149,1.018,4.207,4.207,0,0,1,0-1.036,11.5,11.5,0,0,1,1.557-4.728A4.076,4.076,0,0,1,182.7,150.75Z" transform="translate(-149.934 -125.191)" fill="#263238"/>
      <path id="Trazado_779805" data-name="Trazado 779805" d="M166.277,176.14a7.159,7.159,0,0,0-.241,1.848c0,2,.128,2.873.131,4.867a9.18,9.18,0,0,1-.22,2.455,8.966,8.966,0,0,1-.468,1.224,7.7,7.7,0,0,1-.773,1.465,8.751,8.751,0,0,1-.933,1.022,37.719,37.719,0,0,0-4.292,5.094l-.78,1.132,7.74-7.261.38-.958.021-.113Z" transform="translate(-135.854 -141.575)" opacity="0.3"/>
      <path id="Trazado_779806" data-name="Trazado 779806" d="M168.253,146.36s1.22.461,1.855,3.192a98.213,98.213,0,0,1,1.844,10.343c.124,1.664,1.774,7.743.493,10.421s-7.371,10.943-9.783,11.209l-1.007-.255-1.064.181-2.962-3.412.259-.975a.975.975,0,0,1,0-1.029c.355-.486,7.91-7.587,7.91-7.587s-.291-.035-.355-.525c-.106-.844.628-.816.628-.816l-.49-7.431Z" transform="translate(-135.164 -122.358)" fill="#ffb206"/>
      <path id="Trazado_779807" data-name="Trazado 779807" d="M183.675,209.321c-.032.046-.589-.355-1.38-.6s-1.476-.259-1.476-.316a2.838,2.838,0,0,1,1.532.138A2.77,2.77,0,0,1,183.675,209.321Z" transform="translate(-150.128 -162.363)" fill="#263238"/>
      <path id="Trazado_779808" data-name="Trazado 779808" d="M185.643,205.575a5.5,5.5,0,0,0-4.143-1.11,1.674,1.674,0,0,1,.638-.163,4.317,4.317,0,0,1,3.033.812A1.635,1.635,0,0,1,185.643,205.575Z" transform="translate(-150.567 -159.731)" fill="#263238"/>
      <path id="Trazado_779809" data-name="Trazado 779809" d="M179.9,206a.549.549,0,0,1-.28-.106.6.6,0,0,1-.2-.284.773.773,0,0,1,0-.422.932.932,0,0,1,.11-.259v.018a.539.539,0,0,1,.472-.316c.142,0,.216.032.213.053s-.078.021-.192.06a.475.475,0,0,0-.323.259h0a1.157,1.157,0,0,0-.085.213.6.6,0,0,0,.114.564C179.81,205.918,179.91,205.974,179.9,206Z" transform="translate(-149.203 -159.96)" fill="#263238"/>
      <path id="Trazado_779810" data-name="Trazado 779810" d="M179.829,175.12a1.71,1.71,0,0,1,.067.411c.032.266.067.653.1,1.128.078.954.153,2.274.216,3.732s.117,2.738.16,3.735c.018.447.032.826.043,1.132a1.885,1.885,0,0,1,0,.415,1.708,1.708,0,0,1-.067-.411c-.032-.266-.067-.649-.1-1.128-.078-.954-.149-2.274-.213-3.732s-.117-2.738-.16-3.735c-.018-.447-.035-.823-.046-1.132A1.883,1.883,0,0,1,179.829,175.12Z" transform="translate(-149.481 -140.917)" fill="#263238"/>
      <path id="Trazado_779811" data-name="Trazado 779811" d="M165.554,208.35a1.61,1.61,0,0,1-.188.184l-.56.5-2.075,1.883c-.873.805-1.912,1.774-3.054,2.894-.571.553-1.174,1.149-1.774,1.774a2.081,2.081,0,0,0-.38.507.929.929,0,0,0-.064.607,3.394,3.394,0,0,1,.11.709.709.709,0,0,1-.38.66l.035-.145c.49.564,1.007,1.149,1.529,1.749l1.5,1.72-.085-.046,1.064-.181h0a4.734,4.734,0,0,0,1.249.2,2.348,2.348,0,0,0,1.064-.5,16.911,16.911,0,0,0,1.692-1.578c1.018-1.064,1.848-2.082,2.533-2.93s1.217-1.547,1.586-2.018c.181-.227.319-.408.426-.543a1.31,1.31,0,0,1,.156-.181,1.065,1.065,0,0,1-.128.2l-.4.56c-.355.486-.873,1.192-1.547,2.054s-1.5,1.887-2.511,2.965a16.573,16.573,0,0,1-1.7,1.61,2.511,2.511,0,0,1-1.16.532,4.551,4.551,0,0,1-1.288-.2h.032l-1.064.181h-.053l-.032-.039-1.5-1.717-1.529-1.752-.085-.1.121-.046a.518.518,0,0,0,.266-.493,3.268,3.268,0,0,0-.106-.66,1.135,1.135,0,0,1,.082-.709,2.242,2.242,0,0,1,.415-.55q.933-.936,1.8-1.774c1.153-1.11,2.2-2.075,3.086-2.87s1.61-1.419,2.128-1.841l.582-.479A1.381,1.381,0,0,1,165.554,208.35Z" transform="translate(-134.738 -162.36)" fill="#263238"/>
      <path id="Trazado_779812" data-name="Trazado 779812" d="M141.374,195.733c0,.053-4.835.025-10.8-.06s-10.8-.2-10.8-.248,4.835-.025,10.8.064S141.374,195.683,141.374,195.733Z" transform="translate(-110.739 -154.003)" fill="#263238"/>
      <path id="Trazado_779813" data-name="Trazado 779813" d="M147.138,204.59a.67.67,0,0,1,0,.138,1.94,1.94,0,0,1-.064.387,7.854,7.854,0,0,1-.426,1.38,8.513,8.513,0,0,1-7.367,5.3,8.07,8.07,0,0,1-1.444-.035c-.17-.018-.3-.046-.387-.06a.443.443,0,0,1-.131-.035,15.67,15.67,0,0,0,1.951,0,8.687,8.687,0,0,0,7.257-5.225A16.211,16.211,0,0,0,147.138,204.59Z" transform="translate(-122.058 -159.934)" fill="#263238"/>
      <path id="Trazado_779814" data-name="Trazado 779814" d="M134.658,245.025c-.032.039-.234-.074-.419-.287s-.262-.426-.22-.454.188.135.355.333S134.69,244.986,134.658,245.025Z" transform="translate(-119.92 -185.546)" fill="#263238"/>
      <path id="Trazado_779815" data-name="Trazado 779815" d="M138.634,242.09c-.039.032-.192-.1-.355-.3s-.234-.387-.192-.415.2.106.355.305S138.677,242.061,138.634,242.09Z" transform="translate(-122.545 -183.667)" fill="#263238"/>
      <path id="Trazado_779816" data-name="Trazado 779816" d="M160.066,235.365c.025.046-.177.192-.433.355s-.468.3-.5.262.135-.238.4-.415S160.044,235.319,160.066,235.365Z" transform="translate(-136.131 -179.784)" fill="#263238"/>
      <path id="Trazado_779817" data-name="Trazado 779817" d="M162.954,238.165c.043.028-.082.3-.355.55s-.529.372-.553.33.184-.223.422-.461S162.912,238.137,162.954,238.165Z" transform="translate(-138.012 -181.598)" fill="#263238"/>
      <path id="Trazado_779818" data-name="Trazado 779818" d="M165.642,241.491c.035.035-.121.262-.383.468s-.518.309-.543.266.177-.213.429-.411S165.6,241.455,165.642,241.491Z" transform="translate(-139.735 -183.743)" fill="#263238"/>
      <path id="Trazado_779819" data-name="Trazado 779819" d="M128.53,135.069c.053-.021.475,1.064,1.2,2.252s1.454,2.089,1.419,2.128a2.87,2.87,0,0,1-.525-.543,12.247,12.247,0,0,1-1.043-1.49,11.657,11.657,0,0,1-.812-1.628A2.656,2.656,0,0,1,128.53,135.069Z" transform="translate(-116.385 -115.072)" fill="#263238"/>
      <path id="Trazado_779820" data-name="Trazado 779820" d="M135.22,269.236a2.478,2.478,0,0,1-.3,0h-.858l-3.16.028c-2.667.032-6.353.131-10.421.255s-7.761.206-10.428.2c-1.337,0-2.416,0-3.16-.028l-.862-.025a1.632,1.632,0,0,1-.3-.021,1.949,1.949,0,0,1,.3-.018h.862l3.157-.032c2.671-.032,6.353-.131,10.425-.255s7.757-.2,10.428-.2c1.334,0,2.416,0,3.16.028l.858.028A1.656,1.656,0,0,1,135.22,269.236Z" transform="translate(-101.673 -201.588)" fill="#263238"/>
      <path id="Trazado_779821" data-name="Trazado 779821" d="M159.444,247.21a.784.784,0,0,0,.745.355c.291,0,.571-.106.858-.121a.8.8,0,0,1,.759.319.677.677,0,0,1-.021.656,1.334,1.334,0,0,1-.5.461,2.7,2.7,0,0,1-3.065-.294" transform="translate(-135.544 -187.436)" fill="#b78876"/>
      <path id="Trazado_779822" data-name="Trazado 779822" d="M143.34,253.923a17.185,17.185,0,0,0,2.742,2.22,1.1,1.1,0,0,0,.709.245c.259-.043.461-.38.291-.575a.8.8,0,0,0,.944.025.809.809,0,0,0,.287-.858.025.025,0,0,1,.032-.028.9.9,0,0,0,.78-.053.67.67,0,0,0,.291-.748.689.689,0,0,0,1.1-.177,1.213,1.213,0,0,0-.206-1.241,6.152,6.152,0,0,0-.983-.887,1.958,1.958,0,0,1-.738-1.064" transform="translate(-125.942 -189.74)" fill="#b78876"/>
      <path id="Trazado_779823" data-name="Trazado 779823" d="M151.465,262.581a1.9,1.9,0,0,1-.933-.6,1.862,1.862,0,0,1-.592-.94c.046-.025.3.39.709.812S151.494,262.531,151.465,262.581Z" transform="translate(-130.201 -196.359)" fill="#aa6550"/>
      <path id="Trazado_779824" data-name="Trazado 779824" d="M155.393,260.485a1.972,1.972,0,0,1-.841-.585,2.008,2.008,0,0,1-.592-.834c.046-.032.33.316.709.709A8.961,8.961,0,0,1,155.393,260.485Z" transform="translate(-132.795 -195.086)" fill="#aa6550"/>
      <path id="Trazado_779825" data-name="Trazado 779825" d="M158.749,258.336a1.774,1.774,0,0,1-.805-.539,1.83,1.83,0,0,1-.564-.791c.043-.032.319.3.709.66S158.781,258.294,158.749,258.336Z" transform="translate(-135.002 -193.756)" fill="#aa6550"/>
      <path id="Trazado_779826" data-name="Trazado 779826" d="M133.954,235.987s-.106-.454,1.064-.309a13.376,13.376,0,0,0,2.994.192c1.309-.067,3.434-.44,3.434-.44l3.416,3.008a48.959,48.959,0,0,1-4.54,3.614c-1.046.546-3.171,1.908-4.384,1.844-.919-.05-1-.507-1-.507s-.9-.617-.766-.919c0,0-1.064-.06-.865-.876,0,0-.763-.142-.887-.575s.45-.944.674-1.163c.355-.355,3.462-2.632,3.476-2.7C136.561,237.175,133.9,236.909,133.954,235.987Z" transform="translate(-118.883 -179.835)" fill="#b78876"/>
      <path id="Trazado_779827" data-name="Trazado 779827" d="M137.715,246.39a9.059,9.059,0,0,1-1.4,1.192,9.225,9.225,0,0,1-1.507,1.064,8.955,8.955,0,0,1,1.4-1.2A9.517,9.517,0,0,1,137.715,246.39Z" transform="translate(-120.438 -186.907)" fill="#aa6550"/>
      <path id="Trazado_779828" data-name="Trazado 779828" d="M140.969,247.288a2.17,2.17,0,0,1-.408.557,9.077,9.077,0,0,1-2.614,2.043,2.15,2.15,0,0,1-.638.259c-.028-.05.915-.514,1.926-1.305S140.927,247.248,140.969,247.288Z" transform="translate(-122.05 -187.485)" fill="#aa6550"/>
      <path id="Trazado_779829" data-name="Trazado 779829" d="M143.723,250.26a2.353,2.353,0,0,1-.461.624,6.619,6.619,0,0,1-3.192,1.919,2.274,2.274,0,0,1-.77.117,12,12,0,0,0,2.408-1.007A11.858,11.858,0,0,0,143.723,250.26Z" transform="translate(-123.335 -189.404)" fill="#aa6550"/>
      <path id="Trazado_779830" data-name="Trazado 779830" d="M148.688,247.5a1.536,1.536,0,0,1-.259.266c-.174.163-.433.39-.763.656a22.345,22.345,0,0,1-2.731,1.887c-.56.326-1.107.617-1.614.858a5.676,5.676,0,0,1-1.419.525,2.259,2.259,0,0,1-1.018,0,.826.826,0,0,1-.355-.149,2.483,2.483,0,0,0,1.33,0,6.324,6.324,0,0,0,1.362-.55c.5-.248,1.039-.543,1.593-.865a29.232,29.232,0,0,0,2.745-1.83C148.266,247.81,148.667,247.477,148.688,247.5Z" transform="translate(-124.129 -187.622)" fill="#aa6550"/>
      <path id="Trazado_779831" data-name="Trazado 779831" d="M132.984,79.323a6.129,6.129,0,0,0-6.676,5.643c-.213,2.838-.415,5.92-.419,7.474a4.015,4.015,0,0,0,3.316,3.9s-.1.986-.206,2.21a4.384,4.384,0,0,0,4.1,4.76h0a4.377,4.377,0,0,0,4.64-4.115l.795-13.4a6.129,6.129,0,0,0-5.555-6.47Z" transform="translate(-114.682 -79.083)" fill="#b78876"/>
      <path id="Trazado_779832" data-name="Trazado 779832" d="M135.094,125.061a7.729,7.729,0,0,0,4.356-1.171,4.209,4.209,0,0,1-4.43,2.057Z" transform="translate(-120.573 -107.859)" fill="#aa6550"/>
      <path id="Trazado_779833" data-name="Trazado 779833" d="M160.317,100.646c.057-.025,2.3-.646,2.192,1.632a1.708,1.708,0,0,1-2.369,1.632C160.136,103.842,160.317,100.646,160.317,100.646Z" transform="translate(-136.783 -92.798)" fill="#b78876"/>
      <path id="Trazado_779834" data-name="Trazado 779834" d="M162.207,104.448a.725.725,0,0,0,.106.06.38.38,0,0,0,.294.021.99.99,0,0,0,.5-.858,1.355,1.355,0,0,0-.085-.571.472.472,0,0,0-.284-.319.206.206,0,0,0-.241.1c-.032.06-.021.106-.032.11s-.046-.039-.025-.135a.252.252,0,0,1,.1-.138.309.309,0,0,1,.223-.046.564.564,0,0,1,.4.355,1.341,1.341,0,0,1,.106.638,1.036,1.036,0,0,1-.624.958.433.433,0,0,1-.355-.078C162.21,104.5,162.2,104.452,162.207,104.448Z" transform="translate(-138.116 -94.163)" fill="#aa6550"/>
      <path id="Trazado_779835" data-name="Trazado 779835" d="M130.71,99.629a.479.479,0,0,0,.454.486.45.45,0,0,0,.493-.422.472.472,0,0,0-.45-.486.458.458,0,0,0-.5.422Z" transform="translate(-117.792 -91.93)" fill="#263238"/>
      <path id="Trazado_779836" data-name="Trazado 779836" d="M129.427,97.776c.057.064.422-.2.933-.188s.883.27.94.206-.032-.138-.2-.259a1.273,1.273,0,0,0-.748-.245,1.256,1.256,0,0,0-.745.227C129.452,97.637,129.4,97.747,129.427,97.776Z" transform="translate(-116.959 -90.693)" fill="#263238"/>
      <path id="Trazado_779837" data-name="Trazado 779837" d="M145.16,100.019a.475.475,0,0,0,.45.486.454.454,0,0,0,.5-.419.475.475,0,0,0-.45-.489.458.458,0,0,0-.5.422Z" transform="translate(-127.117 -92.181)" fill="#263238"/>
      <path id="Trazado_779838" data-name="Trazado 779838" d="M143.6,98.245c.057.064.422-.2.933-.188s.883.27.94.209-.032-.142-.2-.262a1.291,1.291,0,0,0-.748-.245,1.231,1.231,0,0,0-.745.231C143.622,98.107,143.568,98.217,143.6,98.245Z" transform="translate(-126.103 -90.997)" fill="#263238"/>
      <path id="Trazado_779839" data-name="Trazado 779839" d="M135.87,102.006a3.373,3.373,0,0,0-.83-.16c-.128,0-.252-.043-.273-.135a.677.677,0,0,1,.092-.383l.4-.99a17.538,17.538,0,0,0,.9-2.589,17.169,17.169,0,0,0-1.11,2.508l-.383,1a.748.748,0,0,0-.078.511.355.355,0,0,0,.213.2.932.932,0,0,0,.223.035A3.072,3.072,0,0,0,135.87,102.006Z" transform="translate(-120.288 -90.99)" fill="#263238"/>
      <path id="Trazado_779840" data-name="Trazado 779840" d="M141.933,93.086c.06.135.568.035,1.171.071s1.1.163,1.171.032c.032-.06-.064-.184-.266-.309a1.983,1.983,0,0,0-.883-.245,1.948,1.948,0,0,0-.9.167C142.011,92.9,141.909,93.022,141.933,93.086Z" transform="translate(-125.032 -87.688)" fill="#263238"/>
      <path id="Trazado_779841" data-name="Trazado 779841" d="M128.877,92.408c.089.117.44,0,.865,0s.78.092.865-.028c.035-.06-.018-.177-.174-.287a1.249,1.249,0,0,0-1.394.021C128.887,92.23,128.838,92.351,128.877,92.408Z" transform="translate(-116.601 -87.209)" fill="#263238"/>
      <path id="Trazado_779842" data-name="Trazado 779842" d="M142.772,86.439a3.9,3.9,0,0,1-.071,1.092,1.2,1.2,0,0,1-.6.823,1.23,1.23,0,0,1-1.532-.759,3.832,3.832,0,0,1-.1-1.894,9.147,9.147,0,0,0,0-2.6,3.731,3.731,0,0,0-1.217-2.252,2.377,2.377,0,0,0-2.447-.387,13.35,13.35,0,0,0-1.309.936,2,2,0,0,1-1.38.326c-.479-.082-1.124-.419-1.043-.894.188-1.11-.582-.177-.532-.355.085-.312.727-.855.993-1.064a3.547,3.547,0,0,1,1.525-.607,7.956,7.956,0,0,1,4.345.493,5.636,5.636,0,0,1,3.093,2.958,7.048,7.048,0,0,1,.323,4.207" transform="translate(-118.975 -78.694)" fill="#263238"/>
      <path id="Trazado_779843" data-name="Trazado 779843" d="M137.779,113.743c0,.1-.419.206-.947.234s-.965-.028-.972-.131.422-.209.951-.238S137.775,113.647,137.779,113.743Z" transform="translate(-121.115 -101.22)" fill="#263238"/>
      <path id="Trazado_779844" data-name="Trazado 779844" d="M153.068,98.086a2.387,2.387,0,0,1-.709-.153c-.422-.128-.99-.355-1.61-.589l-1.582-.638a3.089,3.089,0,0,1-.656-.277,2.533,2.533,0,0,1,.709.153c.422.128.99.355,1.61.589l1.582.638A3,3,0,0,1,153.068,98.086Z" transform="translate(-129.278 -90.139)" fill="#263238"/>
      <path id="Trazado_779845" data-name="Trazado 779845" d="M128.247,95.429a.681.681,0,0,1,.6.564,2.838,2.838,0,0,1-2.071,3.175,1.649,1.649,0,0,1-1.3-.124,2,2,0,0,1-.738-1.649,2.128,2.128,0,0,1,.227-1.327,1.912,1.912,0,0,1,1.532-.709A17.381,17.381,0,0,1,128.247,95.429Z" transform="translate(-113.921 -89.447)" fill="#263238"/>
      <path id="Trazado_779846" data-name="Trazado 779846" d="M141.009,95.722a.685.685,0,0,0-.617.557,2.863,2.863,0,0,0,2,3.267,1.678,1.678,0,0,0,1.316-.085,2.081,2.081,0,0,0,.795-1.649,2.128,2.128,0,0,0-.192-1.348,1.93,1.93,0,0,0-1.529-.763c-.589-.046-1.774.021-1.774.021Z" transform="translate(-124.009 -89.658)" fill="#263238"/>
      <path id="Trazado_779847" data-name="Trazado 779847" d="M136.642,95.768a10.024,10.024,0,0,1-1.951.057,10.918,10.918,0,0,1-1.951-.131,10.05,10.05,0,0,1,1.954-.057,10.9,10.9,0,0,1,1.947.131Z" transform="translate(-119.102 -89.612)" fill="#263238"/>
      <path id="Trazado_779848" data-name="Trazado 779848" d="M160.991,120.587v-.053a.708.708,0,0,1,0-.167,1.809,1.809,0,0,1,.22-.589,4.147,4.147,0,0,0,.4-.883,4.509,4.509,0,0,0,.149-1.277c0-.479-.06-1-.1-1.575a.812.812,0,0,1,.11-.461.433.433,0,0,1,.465-.213.355.355,0,0,1,.227.174.28.28,0,0,1,0,.305.447.447,0,0,1-.536.1.8.8,0,0,1-.422-.926.816.816,0,0,1,.316-.461.564.564,0,0,1,.277-.11.355.355,0,0,1,.312.106.323.323,0,0,1,.078.337.33.33,0,0,1-.3.181.7.7,0,0,1-.383-1.312.709.709,0,0,1,.511-.092.507.507,0,0,1,.241.142.309.309,0,0,1,.082.294.316.316,0,0,1-.216.213.607.607,0,0,1-.262.021.915.915,0,0,1-.447-.2.791.791,0,0,1-.291-.873.709.709,0,0,1,.766-.45.422.422,0,0,1,.355.355.316.316,0,0,1-.1.252.408.408,0,0,1-.231.1.621.621,0,0,1-.415-.153.975.975,0,0,1-.266-.323.6.6,0,0,1,.167-.759.429.429,0,0,1,.663.262v.05l-.043.021a.624.624,0,0,1-.862-.309.529.529,0,0,1,.039-.458.653.653,0,0,1,.319-.284.532.532,0,0,1,.4,0,.3.3,0,0,1,.2.326.213.213,0,0,1-.128.156.27.27,0,0,1-.184,0,.355.355,0,0,1-.192-.252,2.763,2.763,0,0,1,0-.841,1.184,1.184,0,0,1,.06-.287,4.282,4.282,0,0,0,.028,1.107.259.259,0,0,0,.145.188.121.121,0,0,0,.177-.082c.039-.181-.259-.294-.454-.192a.468.468,0,0,0-.28.582.49.49,0,0,0,.663.234l-.035.071a.284.284,0,0,0-.433-.153.44.44,0,0,0-.1.56.663.663,0,0,0,.518.38c.1,0,.184-.089.17-.167a.259.259,0,0,0-.209-.192.518.518,0,0,0-.56.355.607.607,0,0,0,.238.667.763.763,0,0,0,.355.16c.121,0,.262-.025.277-.1s-.074-.181-.192-.206a.5.5,0,0,0-.355.071.536.536,0,0,0-.259.355.511.511,0,0,0,.142.422.525.525,0,0,0,.4.177c.153,0,.184-.11.1-.213s-.241-.06-.355.025a.663.663,0,0,0-.248.355.631.631,0,0,0,.319.709c.117.053.28.039.33-.039a.162.162,0,0,0-.124-.231.28.28,0,0,0-.291.145.642.642,0,0,0-.089.355c.028.557.082,1.1.074,1.582a4.5,4.5,0,0,1-.184,1.3,3.586,3.586,0,0,1-.436.89,1.915,1.915,0,0,0-.245.56A.622.622,0,0,0,160.991,120.587Z" transform="translate(-137.329 -99.334)" fill="#e0e0e0"/>
      <path id="Trazado_779849" data-name="Trazado 779849" d="M162.806,106.518a1.249,1.249,0,0,0-.149-.489.582.582,0,0,0-.411-.28.447.447,0,0,0-.451.287.465.465,0,0,0,.167.5h0l.039.028c.06.035.145.043.2.078a.408.408,0,0,1,.156.38,4.291,4.291,0,0,0-.032.429c0,.1.067.223.17.227s.156-.089.192-.17A1.812,1.812,0,0,0,162.806,106.518Z" transform="translate(-137.839 -96.151)" fill="#e0e0e0"/>
      <path id="Trazado_779850" data-name="Trazado 779850" d="M133.687,128.033a5.087,5.087,0,0,0-.773,1.724,24.946,24.946,0,0,0,.468,3.331,4.757,4.757,0,0,0,.745,1.813l.461.677a15.8,15.8,0,0,1,1.66,3.125c.9,2.277,2.412,6.108,2.483,6.289a14.358,14.358,0,0,0,.67,1.337l.8-9.559,2.412-4.781a3.249,3.249,0,0,0,.355-1.337l.057-1.532a2.167,2.167,0,0,0-.56-1.529h0l-.121,1.383-4,3.632-4.643-3.121Z" transform="translate(-119.212 -110.246)" fill="#fff"/>
      <path id="Trazado_779851" data-name="Trazado 779851" d="M139.211,141.82a2.408,2.408,0,0,0-.837.787,8.942,8.942,0,0,0-.968,2.646c-.028.106-.053.213-.078.312l-.035.142-.113-.1a17.827,17.827,0,0,1-1.876-1.873,6.74,6.74,0,0,1-.692-.83,6.173,6.173,0,0,1,.784.745,26.214,26.214,0,0,0,1.9,1.816l-.149.05.078-.312a8.037,8.037,0,0,1,1.043-2.674,2,2,0,0,1,.642-.6.709.709,0,0,1,.3-.11Z" transform="translate(-120.309 -119.429)" fill="#263238"/>
      <path id="Trazado_779852" data-name="Trazado 779852" d="M150.952,144.4a10.9,10.9,0,0,1-.9,1.465l-.145.22v-.27a5.462,5.462,0,0,0-.248-1.3,7.2,7.2,0,0,0-.709-2.015,5.516,5.516,0,0,0-.568-.674.981.981,0,0,1,.213.121,2.129,2.129,0,0,1,.465.479,6.232,6.232,0,0,1,.78,2.04,4.9,4.9,0,0,1,.234,1.351l-.149-.05A11.029,11.029,0,0,1,150.952,144.4Z" transform="translate(-129.195 -119.435)" fill="#263238"/>
      <path id="Trazado_779853" data-name="Trazado 779853" d="M148.936,155.007c-.05,0-.277-2.894-.507-6.473s-.376-6.48-.326-6.484.28,2.894.511,6.473S148.986,155,148.936,155.007Z" transform="translate(-129.009 -119.577)" fill="#263238"/>
      <path id="Trazado_779854" data-name="Trazado 779854" d="M125.045,98.416a.912.912,0,0,1-.043-.834c.153-.465.511-.685.532-.642a5.4,5.4,0,0,0-.355.709C125.052,98.065,125.1,98.405,125.045,98.416Z" transform="translate(-114.057 -90.465)" fill="#e0e0e0"/>
      <path id="Trazado_779855" data-name="Trazado 779855" d="M141.28,99.082c-.039.032-.273-.27-.27-.709s.231-.752.27-.709-.089.326-.085.709S141.326,99.057,141.28,99.082Z" transform="translate(-124.439 -90.932)" fill="#e0e0e0"/>
    </g>
  </g>
</svg>
