<svg xmlns="http://www.w3.org/2000/svg" xmlns:xlink="http://www.w3.org/1999/xlink" width="295" height="382" viewBox="0 0 295 382">
  <defs>
    <clipPath id="clip-path">
      <rect id="Rectángulo_374151" data-name="Rectángulo 374151" width="218" height="218" transform="translate(1125 -8937)" fill="#fff"/>
    </clipPath>
    <clipPath id="clip-path-2">
      <path id="path2466" d="M0-218H218V0H0Z"/>
    </clipPath>
  </defs>
  <g id="Grupo_1066831" data-name="Grupo 1066831" transform="translate(-1086 9019)">
    <path id="Trazado_780620" data-name="Trazado 780620" d="M20,0H275a20,20,0,0,1,20,20V362a20,20,0,0,1-20,20H20A20,20,0,0,1,0,362V20A20,20,0,0,1,20,0Z" transform="translate(1086 -9019)" fill="#500c75"/>
    <path id="Trazado_780621" data-name="Trazado 780621" d="M88,0A88,88,0,1,1,0,88,88,88,0,0,1,88,0Z" transform="translate(1191 -8989)" fill="#ffb206"/>
    <g id="Enmascarar_grupo_70" data-name="Enmascarar grupo 70" clip-path="url(#clip-path)">
      <g id="g2448" transform="translate(1125 -8719)">
        <g id="g2450" transform="translate(168.93 -47.366)">
          <path id="path2452" d="M0,0-10.18,10.18-78.552-58.192l10.18-10.18Z" fill="#cbc4cb"/>
        </g>
        <g id="g2454" transform="translate(100.558 -115.738)">
          <path id="path2456" d="M0,0H0L-10.18,10.18,58.192,78.552l4.986-4.986L-5.194,5.194Z" fill="#b5adb6"/>
        </g>
        <g id="g2458" transform="translate(168.93 -47.366)">
          <path id="path2460" d="M0,0-10.18,10.18-78.552-58.192l10.18-10.18Z" fill="none" stroke="#000" stroke-linecap="round" stroke-linejoin="round" stroke-miterlimit="10" stroke-width="6.387"/>
        </g>
        <g id="g2462">
          <g id="g2464" clip-path="url(#clip-path-2)">
            <g id="g2470" transform="translate(174.478 -14.501)">
              <path id="path2472" d="M0,0-37.056-37.056a4.621,4.621,0,0,1,0-6.534l10.6-10.6a4.621,4.621,0,0,1,6.535,0L-3.455-37.728" fill="#fff" stroke="#000" stroke-linecap="round" stroke-linejoin="round" stroke-miterlimit="10" stroke-width="6.387"/>
            </g>
            <g id="g2474" transform="translate(200.892 -12.558)">
              <path id="path2476" d="M0,0-7.335,7.335a6.932,6.932,0,0,1-9.8,0L-55.826-31.355l17.136-17.136L0-9.8A6.931,6.931,0,0,1,0,0" fill="#27a5fe"/>
            </g>
            <g id="g2478" transform="translate(163.155 -46.923)">
              <path id="path2480" d="M0,0,6.587-6.587-.952-14.126-18.088,3.011,20.6,41.7a6.931,6.931,0,0,0,9.8,0l2.638-2.638L0,6.021A4.258,4.258,0,0,1,0,0" fill="#0593fc"/>
            </g>
            <g id="g2482" transform="translate(175.228 -48.024)">
              <path id="path2484" d="M0,0-13.025-13.025-30.161,4.111,8.528,42.8a6.932,6.932,0,0,0,9.8,0l7.335-7.335a6.931,6.931,0,0,0,0-9.8L10.538,10.538" fill="none" stroke="#000" stroke-linecap="round" stroke-linejoin="round" stroke-miterlimit="10" stroke-width="6.387"/>
            </g>
            <g id="g2486" transform="translate(77.703 -188.944)">
              <path id="path2488" d="M0,0A60.531,60.531,0,0,1,60.532,60.532,60.532,60.532,0,0,1,0,121.063,60.532,60.532,0,0,1-60.532,60.532,60.531,60.531,0,0,1,0,0" fill="#00f3a7"/>
            </g>
            <g id="g2490" transform="translate(77.703 -188.944)">
              <path id="path2492" d="M0,0A60.531,60.531,0,0,1,60.532,60.532,60.532,60.532,0,0,1,0,121.063,60.532,60.532,0,0,1-60.532,60.532,60.531,60.531,0,0,1,0,0Z" fill="none" stroke="#000" stroke-linecap="round" stroke-linejoin="round" stroke-miterlimit="10" stroke-width="6.387"/>
            </g>
            <g id="g2494" transform="translate(77.703 -175.082)">
              <path id="path2496" d="M0,0A46.669,46.669,0,0,1,46.669,46.669,46.669,46.669,0,0,1,0,93.339,46.669,46.669,0,0,1-46.669,46.669,46.669,46.669,0,0,1,0,0" fill="#d8ecfe"/>
            </g>
            <g id="g2498" transform="translate(48.965 -128.413)">
              <path id="path2500" d="M0,0A46.682,46.682,0,0,1,37.7-45.806a46.909,46.909,0,0,0-8.966-.864A46.67,46.67,0,0,0-17.931,0,46.67,46.67,0,0,0,28.738,46.669a46.909,46.909,0,0,0,8.966-.864A46.682,46.682,0,0,1,0,0" fill="#c4e2ff"/>
            </g>
            <g id="g2502" transform="translate(77.703 -175.082)">
              <path id="path2504" d="M0,0A46.669,46.669,0,0,1,46.669,46.669,46.669,46.669,0,0,1,0,93.339,46.669,46.669,0,0,1-46.669,46.669,46.669,46.669,0,0,1,0,0Z" fill="none" stroke="#000" stroke-linecap="round" stroke-linejoin="round" stroke-miterlimit="10" stroke-width="6.387"/>
            </g>
            <g id="g2506" transform="translate(148.172 -214.807)">
              <path id="path2508" d="M0,0H-77.067A2.129,2.129,0,0,0-79.2,2.129V79.2a2.129,2.129,0,0,0,2.129,2.129H-60.73A2.129,2.129,0,0,1-58.6,83.454V95.724a2.129,2.129,0,0,0,3.634,1.506l15.281-15.281a2.129,2.129,0,0,1,1.506-.624H0A2.129,2.129,0,0,0,2.129,79.2V2.129A2.129,2.129,0,0,0,0,0" fill="#27a5fe"/>
            </g>
            <g id="g2510" transform="translate(83.452 -135.611)">
              <path id="path2512" d="M0,0V-77.067A2.129,2.129,0,0,1,2.129-79.2H-12.348a2.129,2.129,0,0,0-2.129,2.129V0a2.129,2.129,0,0,0,2.129,2.129H2.129A2.129,2.129,0,0,1,0,0" fill="#0593fc"/>
            </g>
            <g id="g2514" transform="translate(150.301 -180.531)">
              <path id="path2516" d="M0,0V-32.146a2.129,2.129,0,0,0-2.129-2.129H-79.2a2.129,2.129,0,0,0-2.129,2.129V44.92A2.129,2.129,0,0,0-79.2,47.049h16.337a2.129,2.129,0,0,1,2.129,2.129V61.449A2.129,2.129,0,0,0-57.1,62.954l15.281-15.281a2.129,2.129,0,0,1,1.506-.624h38.18A2.129,2.129,0,0,0,0,44.92V14.9" fill="none" stroke="#000" stroke-linecap="round" stroke-linejoin="round" stroke-miterlimit="10" stroke-width="6.387"/>
            </g>
            <g id="g2518" transform="translate(115.724 -148.598)">
              <path id="path2520" d="M0,0H-12.031V-31.473h11.1A.934.934,0,0,1,0-30.539Z" fill="#fff"/>
            </g>
            <g id="g2522" transform="translate(115.724 -148.598)">
              <path id="path2524" d="M0,0H-12.031V-31.473h11.1A.934.934,0,0,1,0-30.539Z" fill="none" stroke="#000" stroke-linecap="round" stroke-linejoin="round" stroke-miterlimit="10" stroke-width="6.387"/>
            </g>
            <g id="g2526" transform="translate(114.789 -189.363)">
              <path id="path2528" d="M0,0H-10.163A.934.934,0,0,1-11.1-.935V-11.1a.934.934,0,0,1,.934-.935H0a.935.935,0,0,1,.935.935V-.935A.935.935,0,0,1,0,0" fill="#fff"/>
            </g>
            <g id="g2530" transform="translate(114.789 -189.363)">
              <path id="path2532" d="M0,0H-10.163A.934.934,0,0,1-11.1-.935V-11.1a.934.934,0,0,1,.934-.935H0a.935.935,0,0,1,.935.935V-.935A.935.935,0,0,1,0,0Z" fill="none" stroke="#000" stroke-linecap="round" stroke-linejoin="round" stroke-miterlimit="10" stroke-width="6.387"/>
            </g>
            <g id="g2534" transform="translate(108.808 -180.071)">
              <path id="path2536" d="M0,0H-9.412" fill="#fff" stroke="#000" stroke-linecap="round" stroke-linejoin="round" stroke-miterlimit="10" stroke-width="6.387"/>
            </g>
            <g id="g2538" transform="translate(119.881 -148.598)">
              <path id="path2540" d="M0,0H-20.346" fill="#fff" stroke="#000" stroke-linecap="round" stroke-linejoin="round" stroke-miterlimit="10" stroke-width="6.387"/>
            </g>
            <g id="g2542" transform="translate(182.053 -89.552)">
              <path id="path2544" d="M0,0H-28.866a1.277,1.277,0,0,1-1.277-1.277V-30.144a1.277,1.277,0,0,1,1.277-1.277H0a1.277,1.277,0,0,1,1.277,1.277V-1.277A1.277,1.277,0,0,1,0,0" fill="#00f3a7"/>
            </g>
            <g id="g2546" transform="translate(162.648 -90.829)">
              <path id="path2548" d="M0,0V-28.866a1.277,1.277,0,0,1,1.277-1.277H-9.462a1.277,1.277,0,0,0-1.277,1.277V0A1.277,1.277,0,0,0-9.462,1.277H1.277A1.277,1.277,0,0,1,0,0" fill="#05e39c"/>
            </g>
            <g id="g2550" transform="translate(182.053 -89.552)">
              <path id="path2552" d="M0,0H-28.866a1.277,1.277,0,0,1-1.277-1.277V-30.144a1.277,1.277,0,0,1,1.277-1.277H0a1.277,1.277,0,0,1,1.277,1.277V-1.277A1.277,1.277,0,0,1,0,0Z" fill="none" stroke="#000" stroke-linecap="round" stroke-linejoin="round" stroke-miterlimit="10" stroke-width="6.387"/>
            </g>
            <g id="g2554" transform="translate(103.962 -31.33)">
              <path id="path2556" d="M0,0H-19.163A1.277,1.277,0,0,1-20.44-1.277V-20.44a1.277,1.277,0,0,1,1.277-1.277H0A1.277,1.277,0,0,1,1.277-20.44V-1.277A1.277,1.277,0,0,1,0,0" fill="#fd8087"/>
            </g>
            <g id="g2558" transform="translate(92.82 -32.608)">
              <path id="path2560" d="M0,0V-19.163A1.277,1.277,0,0,1,1.277-20.44h-9.3A1.277,1.277,0,0,0-9.3-19.163V0A1.277,1.277,0,0,0-8.021,1.277h9.3A1.277,1.277,0,0,1,0,0" fill="#fe646f"/>
            </g>
            <g id="g2562" transform="translate(103.962 -31.33)">
              <path id="path2564" d="M0,0H-19.163A1.277,1.277,0,0,1-20.44-1.277V-20.44a1.277,1.277,0,0,1,1.277-1.277H0A1.277,1.277,0,0,1,1.277-20.44V-1.277A1.277,1.277,0,0,1,0,0Z" fill="none" stroke="#000" stroke-linecap="round" stroke-linejoin="round" stroke-miterlimit="10" stroke-width="6.387"/>
            </g>
            <g id="g2566" transform="translate(42.786 -189.265)">
              <path id="path2568" d="M0,0H-15.961a1.277,1.277,0,0,1-1.277-1.277V-17.239a1.277,1.277,0,0,1,1.277-1.277H0a1.277,1.277,0,0,1,1.277,1.277V-1.277A1.277,1.277,0,0,1,0,0" fill="#fed402"/>
            </g>
            <g id="g2570" transform="translate(33.979 -190.543)">
              <path id="path2572" d="M0,0V-15.961a1.277,1.277,0,0,1,1.277-1.277H-7.155a1.277,1.277,0,0,0-1.277,1.277V0A1.277,1.277,0,0,0-7.155,1.277H1.277A1.277,1.277,0,0,1,0,0" fill="#fac600"/>
            </g>
            <g id="g2574" transform="translate(42.786 -189.265)">
              <path id="path2576" d="M0,0H-15.961a1.277,1.277,0,0,1-1.277-1.277V-17.239a1.277,1.277,0,0,1,1.277-1.277H0a1.277,1.277,0,0,1,1.277,1.277V-1.277A1.277,1.277,0,0,1,0,0Z" fill="none" stroke="#000" stroke-linecap="round" stroke-linejoin="round" stroke-miterlimit="10" stroke-width="6.387"/>
            </g>
            <g id="g2578" transform="translate(53.728 -108.554)">
              <path id="path2580" d="M0,0H-37.373a1.277,1.277,0,0,0-1.277,1.277V62.836a1.278,1.278,0,0,0,1.277,1.277H11.362a1.278,1.278,0,0,0,1.277-1.277v-50.2a1.277,1.277,0,0,0-.374-.9L.9.374A1.277,1.277,0,0,0,0,0" fill="#fed402"/>
            </g>
            <g id="g2582" transform="translate(29.379 -45.719)">
              <path id="path2584" d="M0,0V-61.558a1.278,1.278,0,0,1,1.277-1.277h-14.3A1.278,1.278,0,0,0-14.3-61.558V0a1.277,1.277,0,0,0,1.277,1.277h14.3A1.277,1.277,0,0,1,0,0" fill="#fac600"/>
            </g>
            <g id="g2586" transform="translate(53.648 -44.442)">
              <path id="path2588" d="M0,0H11.442a1.277,1.277,0,0,0,1.277-1.277v-50.2a1.276,1.276,0,0,0-.374-.9L.984-63.739a1.279,1.279,0,0,0-.9-.374H-37.293a1.278,1.278,0,0,0-1.277,1.277V-1.277A1.277,1.277,0,0,0-37.293,0H-14.9" fill="none" stroke="#000" stroke-linecap="round" stroke-linejoin="round" stroke-miterlimit="10" stroke-width="6.387"/>
            </g>
            <g id="g2590" transform="translate(30.465 -62.137)">
              <path id="path2592" d="M0,0H20.516" fill="none" stroke="#000" stroke-linecap="round" stroke-linejoin="round" stroke-miterlimit="10" stroke-width="6.387"/>
            </g>
            <g id="g2594" transform="translate(30.465 -76.498)">
              <path id="path2596" d="M0,0H20.516" fill="none" stroke="#000" stroke-linecap="round" stroke-linejoin="round" stroke-miterlimit="10" stroke-width="6.387"/>
            </g>
            <g id="g2598" transform="translate(30.465 -90.859)">
              <path id="path2600" d="M0,0H11.626" fill="none" stroke="#000" stroke-linecap="round" stroke-linejoin="round" stroke-miterlimit="10" stroke-width="6.387"/>
            </g>
            <g id="g2602" transform="translate(191.526 -187.511)">
              <path id="path2604" d="M0,0H-26.326A1.278,1.278,0,0,0-27.6,1.277v43.48a1.278,1.278,0,0,0,1.277,1.277H7.947a1.278,1.278,0,0,0,1.277-1.277V9.225a1.277,1.277,0,0,0-.374-.9L.9.374A1.277,1.277,0,0,0,0,0" fill="#d8ecfe"/>
            </g>
            <g id="g2606" transform="translate(176.063 -142.754)">
              <path id="path2608" d="M0,0V-43.48a1.278,1.278,0,0,1,1.277-1.277H-10.863a1.278,1.278,0,0,0-1.277,1.277V0a1.278,1.278,0,0,0,1.277,1.277H1.277A1.277,1.277,0,0,1,0,0" fill="#c4e2ff"/>
            </g>
            <g id="g2610" transform="translate(191.526 -187.511)">
              <path id="path2612" d="M0,0H-26.326A1.278,1.278,0,0,0-27.6,1.277v43.48a1.278,1.278,0,0,0,1.277,1.277H7.947a1.278,1.278,0,0,0,1.277-1.277V9.225a1.277,1.277,0,0,0-.374-.9L.9.374A1.277,1.277,0,0,0,0,0Z" fill="none" stroke="#000" stroke-linecap="round" stroke-linejoin="round" stroke-miterlimit="10" stroke-width="6.387"/>
            </g>
            <g id="g2614" transform="translate(174.971 -154.182)">
              <path id="path2616" d="M0,0H14.731" fill="none" stroke="#000" stroke-linecap="round" stroke-linejoin="round" stroke-miterlimit="10" stroke-width="6.387"/>
            </g>
            <g id="g2618" transform="translate(174.971 -164.494)">
              <path id="path2620" d="M0,0H14.731" fill="none" stroke="#000" stroke-linecap="round" stroke-linejoin="round" stroke-miterlimit="10" stroke-width="6.387"/>
            </g>
            <g id="g2622" transform="translate(174.971 -174.806)">
              <path id="path2624" d="M0,0H8.347" fill="none" stroke="#000" stroke-linecap="round" stroke-linejoin="round" stroke-miterlimit="10" stroke-width="6.387"/>
            </g>
          </g>
        </g>
      </g>
    </g>
    <path id="Trazado_780622" data-name="Trazado 780622" d="M40.5,4.2v8.376a4.814,4.814,0,0,1-.606,2.465,3.929,3.929,0,0,1-1.74,1.586,6.131,6.131,0,0,1-2.681.545,5.3,5.3,0,0,1-3.683-1.213,4.326,4.326,0,0,1-1.371-3.322V4.2h3.1v8.5q.053,2.1,1.951,2.1a1.889,1.889,0,0,0,1.45-.527,2.465,2.465,0,0,0,.492-1.714V4.2Zm6.768,10.125a.684.684,0,0,0-.4-.606,6.016,6.016,0,0,0-1.5-.475,6.853,6.853,0,0,1-1.828-.646,3.062,3.062,0,0,1-1.1-.971,2.319,2.319,0,0,1-.378-1.31,2.628,2.628,0,0,1,1.081-2.158,4.453,4.453,0,0,1,2.83-.848A4.934,4.934,0,0,1,49,8.167a2.666,2.666,0,0,1,1.143,2.241H47.174q0-1.143-1.2-1.143a1.194,1.194,0,0,0-.782.259.8.8,0,0,0-.316.646.737.737,0,0,0,.387.642,3.654,3.654,0,0,0,1.235.4,10.671,10.671,0,0,1,1.49.378,2.706,2.706,0,0,1,2.145,2.646,2.491,2.491,0,0,1-1.156,2.118,5.068,5.068,0,0,1-2.993.817,5.172,5.172,0,0,1-2.18-.439,3.645,3.645,0,0,1-1.494-1.2,2.707,2.707,0,0,1-.536-1.591h2.769a1.145,1.145,0,0,0,.439.962,1.808,1.808,0,0,0,1.081.3,1.422,1.422,0,0,0,.91-.246A.787.787,0,0,0,47.271,14.328Zm3.867-2.171a5.613,5.613,0,0,1,.554-2.536,3.96,3.96,0,0,1,1.591-1.709,4.791,4.791,0,0,1,2.435-.6,4.373,4.373,0,0,1,3.366,1.323,5.076,5.076,0,0,1,1.23,3.6v.105a4.925,4.925,0,0,1-1.235,3.529,4.384,4.384,0,0,1-3.344,1.305,4.434,4.434,0,0,1-3.261-1.217,4.761,4.761,0,0,1-1.327-3.3Zm2.962.185a3.538,3.538,0,0,0,.413,1.934,1.376,1.376,0,0,0,1.222.615q1.582,0,1.617-2.435v-.3q0-2.558-1.635-2.558-1.485,0-1.608,2.206Zm11.628-.167a5.809,5.809,0,0,1,.976-3.56,3.211,3.211,0,0,1,2.725-1.3,2.731,2.731,0,0,1,2.145,1V3.5h2.971V17H71.88l-.149-1.02a2.8,2.8,0,0,1-2.32,1.2,3.205,3.205,0,0,1-2.689-1.3A5.993,5.993,0,0,1,65.728,12.175Zm2.962.185q0,2.531,1.477,2.531a1.458,1.458,0,0,0,1.406-.826V10.443A1.419,1.419,0,0,0,70.184,9.6q-1.371,0-1.485,2.215Zm12.138,4.816a4.889,4.889,0,0,1-3.542-1.305,4.507,4.507,0,0,1-1.354-3.4v-.246a5.84,5.84,0,0,1,.541-2.575A3.955,3.955,0,0,1,78.05,7.925a4.763,4.763,0,0,1,2.461-.611,4.117,4.117,0,0,1,3.164,1.244,4.887,4.887,0,0,1,1.16,3.467v1.151H78.947a2.135,2.135,0,0,0,.694,1.257,2.066,2.066,0,0,0,1.389.457,2.662,2.662,0,0,0,2.2-.984l1.354,1.6a3.784,3.784,0,0,1-1.569,1.217A5.3,5.3,0,0,1,80.828,17.176ZM80.494,9.6q-1.3,0-1.547,1.723h2.988v-.229a1.467,1.467,0,0,0-.36-1.1A1.434,1.434,0,0,0,80.494,9.6ZM91.164,17V9.547h-1.38V7.49h1.38V6.734a3.286,3.286,0,0,1,.958-2.522,3.785,3.785,0,0,1,2.689-.9A5.89,5.89,0,0,1,96.2,3.5l.009,2.18a2.706,2.706,0,0,0-.729-.079q-1.345,0-1.345,1.16V7.49h1.854V9.547H94.134V17Zm11.531-1.028a3.054,3.054,0,0,1-2.54,1.2,3,3,0,0,1-2.369-.91,3.826,3.826,0,0,1-.8-2.615V7.49h2.962v6.179a1.065,1.065,0,0,0,1.187,1.222,1.548,1.548,0,0,0,1.45-.729V7.49h2.979V17h-2.777Zm9.088,1.2a4.889,4.889,0,0,1-3.542-1.305,4.507,4.507,0,0,1-1.354-3.4v-.246a5.84,5.84,0,0,1,.541-2.575,3.955,3.955,0,0,1,1.578-1.727,4.763,4.763,0,0,1,2.461-.611,4.117,4.117,0,0,1,3.164,1.244,4.887,4.887,0,0,1,1.16,3.467v1.151H109.9a2.135,2.135,0,0,0,.694,1.257,2.066,2.066,0,0,0,1.389.457,2.662,2.662,0,0,0,2.2-.984l1.354,1.6a3.784,3.784,0,0,1-1.569,1.217A5.3,5.3,0,0,1,111.783,17.176ZM111.449,9.6q-1.3,0-1.547,1.723h2.988v-.229a1.467,1.467,0,0,0-.36-1.1A1.434,1.434,0,0,0,111.449,9.6ZM119.7,7.49l.1,1.116a3.225,3.225,0,0,1,2.716-1.292,2.713,2.713,0,0,1,2.219.888,4.226,4.226,0,0,1,.76,2.672V17h-2.971V11a1.6,1.6,0,0,0-.29-1.059,1.342,1.342,0,0,0-1.055-.338,1.413,1.413,0,0,0-1.292.686V17h-2.962V7.49Zm10.881-2.364V7.49h1.564V9.547h-1.564V13.9a1.111,1.111,0,0,0,.193.747,1.037,1.037,0,0,0,.765.211,4.345,4.345,0,0,0,.738-.053v2.118a5.466,5.466,0,0,1-1.67.255,3.1,3.1,0,0,1-2.259-.721,2.954,2.954,0,0,1-.729-2.188V9.547h-1.213V7.49h1.213V5.126Zm7.33,12.05a4.889,4.889,0,0,1-3.542-1.305,4.507,4.507,0,0,1-1.354-3.4v-.246a5.84,5.84,0,0,1,.541-2.575,3.955,3.955,0,0,1,1.578-1.727,4.763,4.763,0,0,1,2.461-.611,4.117,4.117,0,0,1,3.164,1.244,4.887,4.887,0,0,1,1.16,3.467v1.151h-5.889a2.135,2.135,0,0,0,.694,1.257,2.066,2.066,0,0,0,1.389.457,2.662,2.662,0,0,0,2.2-.984l1.354,1.6a3.784,3.784,0,0,1-1.569,1.217A5.3,5.3,0,0,1,137.913,17.176ZM137.579,9.6q-1.3,0-1.547,1.723h2.988v-.229a1.467,1.467,0,0,0-.36-1.1A1.434,1.434,0,0,0,137.579,9.6Zm10.512,4.729a.684.684,0,0,0-.4-.606,6.016,6.016,0,0,0-1.5-.475,6.853,6.853,0,0,1-1.828-.646,3.062,3.062,0,0,1-1.1-.971,2.319,2.319,0,0,1-.378-1.31,2.628,2.628,0,0,1,1.081-2.158,4.453,4.453,0,0,1,2.83-.848,4.934,4.934,0,0,1,3.023.853,2.666,2.666,0,0,1,1.143,2.241h-2.971q0-1.143-1.2-1.143a1.194,1.194,0,0,0-.782.259.8.8,0,0,0-.316.646.737.737,0,0,0,.387.642,3.654,3.654,0,0,0,1.235.4,10.671,10.671,0,0,1,1.49.378,2.706,2.706,0,0,1,2.145,2.646,2.491,2.491,0,0,1-1.156,2.118,5.068,5.068,0,0,1-2.993.817,5.172,5.172,0,0,1-2.18-.439,3.645,3.645,0,0,1-1.494-1.2,2.707,2.707,0,0,1-.536-1.591h2.769a1.145,1.145,0,0,0,.439.962,1.808,1.808,0,0,0,1.081.3,1.422,1.422,0,0,0,.91-.246A.787.787,0,0,0,148.09,14.328ZM19.607,42a3.344,3.344,0,0,1-.281-.853,2.754,2.754,0,0,1-2.285,1.028,3.374,3.374,0,0,1-2.285-.813,2.588,2.588,0,0,1-.94-2.043,2.66,2.66,0,0,1,1.143-2.338,5.821,5.821,0,0,1,3.322-.791h.914v-.5q0-1.316-1.134-1.316a.927.927,0,0,0-1.055,1.042H14.044a2.655,2.655,0,0,1,1.173-2.239,4.931,4.931,0,0,1,2.993-.86,4.323,4.323,0,0,1,2.874.888,3.086,3.086,0,0,1,1.081,2.435v4.21a4.311,4.311,0,0,0,.4,2V42Zm-1.854-1.934a1.652,1.652,0,0,0,.918-.237,1.487,1.487,0,0,0,.523-.536V37.772h-.861q-1.547,0-1.547,1.389a.848.848,0,0,0,.272.655A.986.986,0,0,0,17.753,40.066Zm14.88-2.742a5.8,5.8,0,0,1-.967,3.595,3.238,3.238,0,0,1-2.725,1.257A2.81,2.81,0,0,1,26.6,41.024L26.48,42H23.826V28.5h2.962v4.755a2.711,2.711,0,0,1,2.136-.94,3.239,3.239,0,0,1,2.742,1.274,5.826,5.826,0,0,1,.967,3.586Zm-2.971-.189a3.866,3.866,0,0,0-.365-1.952,1.229,1.229,0,0,0-1.121-.584,1.418,1.418,0,0,0-1.389.763v3.773a1.426,1.426,0,0,0,1.406.755,1.258,1.258,0,0,0,1.327-1.018A7.309,7.309,0,0,0,29.662,37.135ZM37.063,42H34.092V32.49h2.971ZM33.916,30.038A1.322,1.322,0,0,1,34.373,29a1.943,1.943,0,0,1,2.373,0,1.405,1.405,0,0,1,0,2.074,1.943,1.943,0,0,1-2.373,0A1.322,1.322,0,0,1,33.916,30.038Zm9.571,12.138a4.889,4.889,0,0,1-3.542-1.305,4.507,4.507,0,0,1-1.354-3.4v-.246a5.84,5.84,0,0,1,.541-2.575,3.955,3.955,0,0,1,1.578-1.727,4.763,4.763,0,0,1,2.461-.611,4.117,4.117,0,0,1,3.164,1.244,4.887,4.887,0,0,1,1.16,3.467v1.151H41.606a2.135,2.135,0,0,0,.694,1.257,2.066,2.066,0,0,0,1.389.457,2.662,2.662,0,0,0,2.2-.984l1.354,1.6a3.784,3.784,0,0,1-1.569,1.217A5.3,5.3,0,0,1,43.487,42.176ZM43.153,34.6q-1.3,0-1.547,1.723h2.988v-.229a1.467,1.467,0,0,0-.36-1.1A1.434,1.434,0,0,0,43.153,34.6Zm11.285.571-.976-.07a1.752,1.752,0,0,0-1.793.879V42H48.708V32.49h2.777l.1,1.222a2.294,2.294,0,0,1,2.083-1.4,2.888,2.888,0,0,1,.826.105ZM59.4,30.126V32.49H60.96v2.057H59.4V38.9a1.111,1.111,0,0,0,.193.747,1.037,1.037,0,0,0,.765.211,4.345,4.345,0,0,0,.738-.053v2.118a5.466,5.466,0,0,1-1.67.255,3.1,3.1,0,0,1-2.259-.721,2.954,2.954,0,0,1-.729-2.188v-4.72H55.221V32.49h1.213V30.126ZM67.481,42a3.344,3.344,0,0,1-.281-.853,2.754,2.754,0,0,1-2.285,1.028,3.374,3.374,0,0,1-2.285-.813,2.588,2.588,0,0,1-.94-2.043,2.66,2.66,0,0,1,1.143-2.338,5.821,5.821,0,0,1,3.322-.791h.914v-.5q0-1.316-1.134-1.316a.927.927,0,0,0-1.055,1.042H61.918a2.655,2.655,0,0,1,1.173-2.239,4.931,4.931,0,0,1,2.993-.86,4.323,4.323,0,0,1,2.874.888,3.086,3.086,0,0,1,1.081,2.435v4.21a4.311,4.311,0,0,0,.4,2V42Zm-1.854-1.934a1.652,1.652,0,0,0,.918-.237,1.487,1.487,0,0,0,.523-.536V37.772h-.861q-1.547,0-1.547,1.389a.848.848,0,0,0,.272.655A.986.986,0,0,0,65.627,40.066Zm11.03-.738a.684.684,0,0,0-.4-.606,6.016,6.016,0,0,0-1.5-.475,6.853,6.853,0,0,1-1.828-.646,3.062,3.062,0,0,1-1.1-.971,2.319,2.319,0,0,1-.378-1.31,2.628,2.628,0,0,1,1.081-2.158,4.453,4.453,0,0,1,2.83-.848,4.934,4.934,0,0,1,3.023.853,2.666,2.666,0,0,1,1.143,2.241H76.561q0-1.143-1.2-1.143a1.194,1.194,0,0,0-.782.259.8.8,0,0,0-.316.646.737.737,0,0,0,.387.642,3.654,3.654,0,0,0,1.235.4,10.671,10.671,0,0,1,1.49.378,2.706,2.706,0,0,1,2.145,2.646,2.491,2.491,0,0,1-1.156,2.118,5.068,5.068,0,0,1-2.993.817,5.172,5.172,0,0,1-2.18-.439,3.645,3.645,0,0,1-1.494-1.2,2.707,2.707,0,0,1-.536-1.591h2.769a1.145,1.145,0,0,0,.439.962,1.808,1.808,0,0,0,1.081.3,1.422,1.422,0,0,0,.91-.246A.787.787,0,0,0,76.657,39.328Zm8.35-2.171a5.613,5.613,0,0,1,.554-2.536,3.96,3.96,0,0,1,1.591-1.709,4.791,4.791,0,0,1,2.435-.6,4.373,4.373,0,0,1,3.366,1.323,5.076,5.076,0,0,1,1.23,3.6v.105a4.925,4.925,0,0,1-1.235,3.529A4.384,4.384,0,0,1,89.6,42.176a4.434,4.434,0,0,1-3.261-1.217,4.761,4.761,0,0,1-1.327-3.3Zm2.962.185a3.538,3.538,0,0,0,.413,1.934,1.376,1.376,0,0,0,1.222.615q1.582,0,1.617-2.435v-.3q0-2.558-1.635-2.558-1.485,0-1.608,2.206Zm20.83-.026a5.735,5.735,0,0,1-1,3.538,3.2,3.2,0,0,1-2.694,1.323,2.742,2.742,0,0,1-2.153-.958v4.438H99.992V32.49h2.769l.088.879a2.742,2.742,0,0,1,2.241-1.055,3.224,3.224,0,0,1,2.733,1.3,5.805,5.805,0,0,1,.976,3.564Zm-2.962-.185q0-2.531-1.477-2.531a1.394,1.394,0,0,0-1.406.756V39.1a1.439,1.439,0,0,0,1.424.791q1.415,0,1.459-2.443Zm9.932,3.841a3.054,3.054,0,0,1-2.54,1.2,3,3,0,0,1-2.369-.91,3.826,3.826,0,0,1-.8-2.615V32.49h2.962v6.179a1.065,1.065,0,0,0,1.187,1.222,1.548,1.548,0,0,0,1.45-.729V32.49h2.979V42h-2.777ZM114.714,28.5h3.129L115.4,31.26l-2.417,0Zm14.37,8.824a5.8,5.8,0,0,1-.967,3.595,3.238,3.238,0,0,1-2.725,1.257,2.81,2.81,0,0,1-2.338-1.151l-.123.976h-2.654V28.5h2.962v4.755a2.711,2.711,0,0,1,2.136-.94,3.239,3.239,0,0,1,2.742,1.274,5.826,5.826,0,0,1,.967,3.586Zm-2.971-.189a3.866,3.866,0,0,0-.365-1.952,1.229,1.229,0,0,0-1.121-.584,1.418,1.418,0,0,0-1.389.763v3.773a1.426,1.426,0,0,0,1.406.755,1.258,1.258,0,0,0,1.327-1.018A7.309,7.309,0,0,0,126.113,37.135Zm7.4,4.865h-2.971V28.5h2.971Zm4.948,0h-2.971V32.49h2.971Zm-3.146-11.962A1.322,1.322,0,0,1,135.772,29a1.943,1.943,0,0,1,2.373,0,1.405,1.405,0,0,1,0,2.074,1.943,1.943,0,0,1-2.373,0A1.322,1.322,0,0,1,135.315,30.038Zm8.991,9.853a1.317,1.317,0,0,0,.967-.338,1.241,1.241,0,0,0,.334-.945h2.777a3.288,3.288,0,0,1-1.121,2.566,4.168,4.168,0,0,1-2.887,1,4.22,4.22,0,0,1-3.27-1.3,5.125,5.125,0,0,1-1.2-3.6v-.123a5.792,5.792,0,0,1,.532-2.544,3.872,3.872,0,0,1,1.534-1.7,4.573,4.573,0,0,1,2.373-.593,4.116,4.116,0,0,1,2.944,1.028,3.647,3.647,0,0,1,1.09,2.786h-2.777a1.626,1.626,0,0,0-.36-1.134,1.244,1.244,0,0,0-.967-.4q-1.151,0-1.345,1.468a10.357,10.357,0,0,0-.062,1.283,4.068,4.068,0,0,0,.343,1.986A1.187,1.187,0,0,0,144.307,39.891ZM154.994,42a3.344,3.344,0,0,1-.281-.853,2.754,2.754,0,0,1-2.285,1.028,3.374,3.374,0,0,1-2.285-.813,2.588,2.588,0,0,1-.94-2.043,2.66,2.66,0,0,1,1.143-2.338,5.821,5.821,0,0,1,3.322-.791h.914v-.5q0-1.316-1.134-1.316a.927.927,0,0,0-1.055,1.042h-2.962a2.655,2.655,0,0,1,1.173-2.239,4.931,4.931,0,0,1,2.993-.86,4.323,4.323,0,0,1,2.874.888,3.086,3.086,0,0,1,1.081,2.435v4.21a4.311,4.311,0,0,0,.4,2V42Zm-1.854-1.934a1.652,1.652,0,0,0,.918-.237,1.487,1.487,0,0,0,.523-.536V37.772h-.861q-1.547,0-1.547,1.389a.848.848,0,0,0,.272.655A.986.986,0,0,0,153.14,40.066Zm11.03-.738a.684.684,0,0,0-.4-.606,6.016,6.016,0,0,0-1.5-.475,6.853,6.853,0,0,1-1.828-.646,3.062,3.062,0,0,1-1.1-.971,2.319,2.319,0,0,1-.378-1.31,2.628,2.628,0,0,1,1.081-2.158,4.453,4.453,0,0,1,2.83-.848,4.934,4.934,0,0,1,3.023.853,2.666,2.666,0,0,1,1.143,2.241h-2.971q0-1.143-1.2-1.143a1.194,1.194,0,0,0-.782.259.8.8,0,0,0-.316.646.737.737,0,0,0,.387.642,3.654,3.654,0,0,0,1.235.4,10.671,10.671,0,0,1,1.49.378,2.706,2.706,0,0,1,2.145,2.646,2.491,2.491,0,0,1-1.156,2.118,5.068,5.068,0,0,1-2.993.817,5.172,5.172,0,0,1-2.18-.439,3.645,3.645,0,0,1-1.494-1.2,2.707,2.707,0,0,1-.536-1.591h2.769a1.145,1.145,0,0,0,.439.962,1.808,1.808,0,0,0,1.081.3,1.422,1.422,0,0,0,.91-.246A.787.787,0,0,0,164.17,39.328Z" transform="translate(1144 -8705)" fill="#fff"/>
  </g>
</svg>
