<svg id="Grupo_1066607" data-name="Grupo 1066607" xmlns="http://www.w3.org/2000/svg" xmlns:xlink="http://www.w3.org/1999/xlink" width="114.805" height="136.306" viewBox="0 0 114.805 136.306">
  <defs>
    <clipPath id="clip-path">
      <path id="Trazado_779657" data-name="Trazado 779657" d="M58.354,0,5.585,14.636A183.242,183.242,0,0,0,0,57.884v.453c.048,30.422,9.374,57.751,32.131,72.537C73.88,110.84,97.754,62.768,104.825,16.828Z" fill="none"/>
    </clipPath>
    <linearGradient id="linear-gradient" y1="1.042" x2="0.01" y2="1.042" gradientUnits="objectBoundingBox">
      <stop offset="0" stop-color="#a1f9ff"/>
      <stop offset="0.005" stop-color="#a1f9ff"/>
      <stop offset="0.999" stop-color="#0ef"/>
      <stop offset="1" stop-color="#0ef"/>
    </linearGradient>
    <clipPath id="clip-path-2">
      <path id="Trazado_779658" data-name="Trazado 779658" d="M104.05,21.477c-.09.506-.191,1.012-.285,1.519-.2,1.048-.394,2.1-.607,3.147-.121.6-.25,1.195-.377,1.791q-.306,1.444-.632,2.889-.215.939-.439,1.876-.336,1.414-.694,2.828c-.184.725-.367,1.45-.56,2.175q-.176.662-.355,1.324-.393,1.437-.809,2.872c-.1.358-.2.716-.308,1.073q-.575,1.946-1.188,3.881c-.071.224-.147.447-.219.671q-.488,1.514-1,3.017-.732,2.158-1.519,4.3c-.062.169-.12.341-.182.51q-.882,2.382-1.835,4.738c-.245.607-.5,1.21-.75,1.816-.331.8-.661,1.6-1,2.388-.272.63-.553,1.254-.833,1.88-.344.775-.69,1.549-1.046,2.317-.333.721-.675,1.437-1.019,2.152-.27.564-.538,1.128-.814,1.687-.37.75-.751,1.493-1.132,2.236-.274.536-.544,1.074-.824,1.606q-.831,1.578-1.694,3.135c-.087.158-.171.318-.259.476q-1.008,1.8-2.062,3.575c-.171.289-.348.573-.521.861q-.785,1.3-1.591,2.585-.354.561-.713,1.119-.812,1.263-1.645,2.506c-.182.271-.361.544-.545.813q-1.078,1.583-2.195,3.132-1.6,2.217-3.283,4.357c-.3.378-.6.75-.9,1.125q-1.294,1.617-2.635,3.185c-.4.464-.788.932-1.19,1.389q-.336.384-.677.762-1.153,1.292-2.338,2.548c-.1.1-.194.211-.293.315q-1.32,1.384-2.681,2.719-.355.35-.715.695-1.1,1.071-2.237,2.109c-.225.207-.447.416-.674.622q-1.412,1.275-2.864,2.5c-.24.2-.486.4-.728.6q-1.148.953-2.318,1.872c-.334.262-.671.521-1.008.78-.682.522-1.373,1.031-2.067,1.537-.436.317-.872.635-1.314.946-.7.5-1.416.976-2.132,1.454-.413.275-.821.557-1.239.826-.492.319-1,.619-1.495.93-.806.5-1.614,1-2.436,1.481-.536.313-1.082.613-1.625.917-.79.44-1.582.877-2.385,1.3-1,.524-2.005,1.045-3.028,1.537l9.98,5.432q1.171-.562,2.325-1.154c.237-.122.466-.259.7-.382.8-.421,1.6-.857,2.385-1.3.542-.3,1.088-.6,1.623-.915.823-.48,1.632-.981,2.439-1.483.378-.235.769-.455,1.144-.7.118-.076.232-.158.35-.234.417-.269.826-.55,1.238-.826.716-.478,1.43-.959,2.134-1.454.441-.311.877-.63,1.314-.948.388-.282.784-.555,1.169-.843.3-.226.6-.463.9-.691q.508-.389,1.011-.781,1.17-.919,2.316-1.872c.243-.2.488-.4.73-.6.076-.065.155-.126.231-.191q1.335-1.133,2.631-2.311c.227-.205.45-.415.675-.621.433-.4.871-.793,1.3-1.2.316-.3.625-.607.937-.91.239-.232.479-.462.716-.7.874-.861,1.739-1.73,2.588-2.619.031-.033.061-.067.092-.1.1-.105.195-.212.294-.316q1.187-1.254,2.338-2.547.339-.38.677-.762c.2-.223.4-.442.592-.666s.395-.486.6-.723q1.341-1.569,2.635-3.185c.193-.241.4-.469.589-.711.107-.136.205-.278.311-.414q1.68-2.144,3.283-4.357c.037-.05.077-.1.113-.149.706-.982,1.4-1.979,2.081-2.981.185-.271.365-.546.548-.818.338-.5.681-1.005,1.013-1.514.214-.327.419-.661.63-.989q.358-.558.714-1.119.807-1.284,1.59-2.586c.174-.287.35-.571.522-.86.055-.094.113-.185.168-.278q.966-1.635,1.894-3.3c.088-.158.172-.32.26-.479.505-.911,1.005-1.823,1.494-2.745.067-.127.131-.258.2-.385.281-.535.553-1.074.828-1.612.38-.741.76-1.483,1.13-2.232.276-.56.543-1.124.814-1.686.243-.508.494-1.01.733-1.52.1-.209.189-.423.286-.632.355-.77.7-1.544,1.047-2.319.279-.625.559-1.25.831-1.879.342-.793.673-1.591,1-2.388.2-.479.407-.955.6-1.435.051-.127.1-.255.147-.382q.948-2.355,1.836-4.737c.062-.17.12-.341.182-.51q.786-2.14,1.519-4.3c.056-.165.119-.328.174-.493.284-.84.555-1.683.826-2.526.072-.223.149-.445.22-.669q.615-1.937,1.187-3.881c.106-.358.206-.717.31-1.075q.414-1.434.807-2.872c.121-.441.238-.882.356-1.324.1-.368.2-.735.3-1.1s.173-.715.263-1.072q.358-1.411.695-2.827.223-.937.438-1.876.329-1.443.633-2.888c.126-.6.256-1.195.377-1.792.213-1.05.411-2.1.607-3.148.093-.506.194-1.012.284-1.519q.414-2.327.776-4.647l-9.98-5.434q-.357,2.321-.775,4.649" fill="none"/>
    </clipPath>
    <linearGradient id="linear-gradient-2" x1="-0.027" y1="1.015" x2="-0.02" y2="1.015" gradientUnits="objectBoundingBox">
      <stop offset="0" stop-color="#0079a4"/>
      <stop offset="0.003" stop-color="#0079a4"/>
      <stop offset="0.999" stop-color="#0ef"/>
      <stop offset="1" stop-color="#0ef"/>
    </linearGradient>
    <clipPath id="clip-path-3">
      <path id="Trazado_779659" data-name="Trazado 779659" d="M10.6,20.575C6.011,41.654,5.283,61.686,8.5,78.815c3.67,19.51,12.178,34.19,25.306,43.694,16.8-8.842,31.1-23.019,42.516-42.2C86.352,63.477,93.616,43.589,97.475,22.494L56.8,7.762Z" fill="none"/>
    </clipPath>
    <linearGradient id="linear-gradient-3" x1="0.13" y1="0.988" x2="0.137" y2="0.988" gradientUnits="objectBoundingBox">
      <stop offset="0" stop-color="#a1f9ff"/>
      <stop offset="0.005" stop-color="#a1f9ff"/>
      <stop offset="1" stop-color="#fff"/>
    </linearGradient>
    <clipPath id="clip-path-4">
      <path id="Trazado_779660" data-name="Trazado 779660" d="M37.558,72.545A223.85,223.85,0,0,1,14.86,96.9a58.986,58.986,0,0,0,19.023,24.551c16.439-8.782,30.455-22.774,41.667-41.6,9.812-16.471,17.033-36.088,20.9-56.773l-24.028-8.7C62.719,34.844,51.706,54.8,37.558,72.545" fill="none"/>
    </clipPath>
    <linearGradient id="linear-gradient-4" x1="0.07" y1="1.009" x2="0.078" y2="1.009" xlink:href="#linear-gradient-3"/>
    <clipPath id="clip-path-5">
      <path id="Trazado_779661" data-name="Trazado 779661" d="M40.483,65.564,31.821,51.973l-1.24-.763L36.06,80.68l1.241.763,34-31.775-5.156-8.089-1.24-.763Z" fill="none"/>
    </clipPath>
    <linearGradient id="linear-gradient-5" x1="-0.391" y1="1.816" x2="-0.374" y2="1.816" xlink:href="#linear-gradient-2"/>
    <clipPath id="clip-path-6">
      <path id="Trazado_779662" data-name="Trazado 779662" d="M39.243,64.8,30.581,51.21,22.245,59,36.06,80.68l34-31.776-5.154-8.088Z" fill="none"/>
    </clipPath>
    <linearGradient id="linear-gradient-6" x1="-0.465" y1="2.395" x2="-0.444" y2="2.395" xlink:href="#linear-gradient"/>
  </defs>
  <g id="Grupo_1066596" data-name="Grupo 1066596">
    <g id="Grupo_1066595" data-name="Grupo 1066595" clip-path="url(#clip-path)">
      <rect id="Rectángulo_374891" data-name="Rectángulo 374891" width="104.825" height="130.874" fill="url(#linear-gradient)"/>
    </g>
  </g>
  <g id="Grupo_1066598" data-name="Grupo 1066598">
    <g id="Grupo_1066597" data-name="Grupo 1066597" clip-path="url(#clip-path-2)">
      <rect id="Rectángulo_374892" data-name="Rectángulo 374892" width="139.378" height="115.973" transform="translate(-3.449 124.555) rotate(-71.723)" fill="url(#linear-gradient-2)"/>
    </g>
  </g>
  <g id="Grupo_1066600" data-name="Grupo 1066600">
    <g id="Grupo_1066599" data-name="Grupo 1066599" clip-path="url(#clip-path-3)">
      <rect id="Rectángulo_374893" data-name="Rectángulo 374893" width="138.798" height="146.096" transform="translate(-46.084 39.579) rotate(-31.774)" fill="url(#linear-gradient-3)"/>
    </g>
  </g>
  <g id="Grupo_1066602" data-name="Grupo 1066602">
    <g id="Grupo_1066601" data-name="Grupo 1066601" clip-path="url(#clip-path-4)">
      <rect id="Rectángulo_374894" data-name="Rectángulo 374894" width="129.463" height="134.611" transform="matrix(0.801, -0.599, 0.599, 0.801, -36.492, 52.776)" fill="url(#linear-gradient-4)"/>
    </g>
  </g>
  <g id="Grupo_1066604" data-name="Grupo 1066604">
    <g id="Grupo_1066603" data-name="Grupo 1066603" clip-path="url(#clip-path-5)">
      <rect id="Rectángulo_374895" data-name="Rectángulo 374895" width="57.144" height="57.128" transform="translate(10.811 56.461) rotate(-38.357)" fill="url(#linear-gradient-5)"/>
    </g>
  </g>
  <g id="Grupo_1066606" data-name="Grupo 1066606">
    <g id="Grupo_1066605" data-name="Grupo 1066605" clip-path="url(#clip-path-6)">
      <rect id="Rectángulo_374896" data-name="Rectángulo 374896" width="47.816" height="39.864" transform="translate(22.245 40.816)" fill="url(#linear-gradient-6)"/>
    </g>
  </g>
</svg>
