<svg xmlns="http://www.w3.org/2000/svg" xmlns:xlink="http://www.w3.org/1999/xlink" width="70" height="70" viewBox="0 0 70 70">
  <defs>
    <clipPath id="clip-path">
      <rect id="Rectángulo_374110" data-name="Rectángulo 374110" width="70" height="70" transform="translate(611 852)" fill="#8f52f5"/>
    </clipPath>
  </defs>
  <g id="Enmascarar_grupo_55" data-name="Enmascarar grupo 55" transform="translate(-611 -852)" clip-path="url(#clip-path)">
    <g id="Location_Outline_Create_Outline" data-name="Location_Outline Create Outline" transform="translate(611 852)">
      <g id="_17_Target" data-name="17_Target">
        <path id="Trazado_778521" data-name="Trazado 778521" d="M35,52.5a1.094,1.094,0,0,1-.9-.472c-.454-.657-11.131-16.186-11.131-22.5a12.031,12.031,0,0,1,24.063,0c0,6.31-10.677,21.839-11.131,22.5A1.094,1.094,0,0,1,35,52.5Zm0-32.812a9.855,9.855,0,0,0-9.844,9.844c0,4.259,6.44,14.81,9.844,19.925,3.4-5.114,9.844-15.666,9.844-19.925A9.855,9.855,0,0,0,35,19.688Z" fill="#8f52f5"/>
        <path id="Trazado_778522" data-name="Trazado 778522" d="M32.655,63.338a.883.883,0,0,1-.093,0A28.328,28.328,0,0,1,6.652,37.274,1.094,1.094,0,0,1,8.833,37.1,26.147,26.147,0,0,0,32.747,61.155a1.095,1.095,0,0,1-.092,2.188Zm4.686,0a1.095,1.095,0,1,1-.092-2.187,26.173,26.173,0,0,0,23.905-23.9,1.094,1.094,0,0,1,2.179.186,28.355,28.355,0,0,1-25.9,25.892A.931.931,0,0,1,37.341,63.338ZM37.2,58.963a1.095,1.095,0,1,1-.1-2.187A21.9,21.9,0,0,0,56.766,37.239a1.094,1.094,0,1,1,2.178.219,24.087,24.087,0,0,1-21.637,21.5.838.838,0,0,1-.1,0Zm-4.548-.013a.733.733,0,0,1-.109-.005A23.986,23.986,0,0,1,20.563,54.25a1.094,1.094,0,0,1,1.312-1.75,21.782,21.782,0,0,0,10.889,4.266,1.1,1.1,0,1,1-.109,2.188Zm-15.5-8.4a1.094,1.094,0,0,1-.851-.4A23.917,23.917,0,0,1,11.05,37.29a1.094,1.094,0,1,1,2.177-.206A21.755,21.755,0,0,0,18,48.769a1.094,1.094,0,0,1-.848,1.783Zm-5.01-16.646h-.109a1.094,1.094,0,0,1-.984-1.192A24.106,24.106,0,0,1,32.435,11.072a1.094,1.094,0,1,1,.231,2.175A21.912,21.912,0,0,0,13.222,32.915,1.094,1.094,0,0,1,12.141,33.906Zm45.73,0a1.094,1.094,0,0,1-1.087-.991,21.773,21.773,0,0,0-4.454-11.277A1.094,1.094,0,1,1,54.06,20.3,23.935,23.935,0,0,1,58.953,32.71a1.094,1.094,0,0,1-.984,1.2h-.1Zm4.391,0A1.094,1.094,0,0,1,61.168,32.9,26.167,26.167,0,0,0,37.361,8.859a1.1,1.1,0,0,1,.195-2.187A28.35,28.35,0,0,1,63.348,32.725a1.094,1.094,0,0,1-1,1.181h-.088Zm-54.518,0H7.656a1.094,1.094,0,0,1-1-1.178A28.656,28.656,0,0,1,32.726,6.652,1.094,1.094,0,1,1,32.9,8.833,26.445,26.445,0,0,0,8.836,32.9a1.094,1.094,0,0,1-1.093,1.011ZM49.219,18.053a1.084,1.084,0,0,1-.676-.235,21.78,21.78,0,0,0-11.2-4.57,1.094,1.094,0,1,1,.231-2.174A23.947,23.947,0,0,1,49.9,16.105a1.094,1.094,0,0,1-.678,1.948Z" fill="#8f52f5"/>
        <path id="Trazado_778523" data-name="Trazado 778523" d="M35,16.406a3.281,3.281,0,0,1-3.281-3.281V3.281a3.281,3.281,0,1,1,6.563,0v9.844A3.281,3.281,0,0,1,35,16.406ZM35,2.188a1.094,1.094,0,0,0-1.094,1.094v9.844a1.094,1.094,0,0,0,2.188,0V3.281A1.094,1.094,0,0,0,35,2.188Z" fill="#8f52f5"/>
        <path id="Trazado_778524" data-name="Trazado 778524" d="M35,70a3.281,3.281,0,0,1-3.281-3.281V56.875a3.281,3.281,0,0,1,6.563,0v9.844A3.281,3.281,0,0,1,35,70Zm0-14.219a1.094,1.094,0,0,0-1.094,1.094v9.844a1.094,1.094,0,0,0,2.188,0V56.875A1.094,1.094,0,0,0,35,55.781Z" fill="#8f52f5"/>
        <path id="Trazado_778525" data-name="Trazado 778525" d="M66.719,38.281H56.875a3.281,3.281,0,0,1,0-6.562h9.844a3.281,3.281,0,0,1,0,6.563Zm-9.844-4.375a1.094,1.094,0,0,0,0,2.188h9.844a1.094,1.094,0,0,0,0-2.187Z" fill="#8f52f5"/>
        <path id="Trazado_778526" data-name="Trazado 778526" d="M13.125,38.281H3.281a3.281,3.281,0,1,1,0-6.562h9.844a3.281,3.281,0,0,1,0,6.563ZM3.281,33.906a1.094,1.094,0,0,0,0,2.188h9.844a1.094,1.094,0,0,0,0-2.187Z" fill="#8f52f5"/>
        <path id="Trazado_778527" data-name="Trazado 778527" d="M35,37.188a6.562,6.562,0,1,1,6.563-6.562A6.562,6.562,0,0,1,35,37.188ZM35,26.25a4.375,4.375,0,1,0,4.375,4.375A4.375,4.375,0,0,0,35,26.25Z" fill="#8f52f5"/>
        <path id="Trazado_778528" data-name="Trazado 778528" d="M62.344,14.219a1.094,1.094,0,0,1-1.094-1.094V4.375H49.219a1.094,1.094,0,0,1,0-2.187H62.344a1.094,1.094,0,0,1,1.094,1.094v9.844A1.094,1.094,0,0,1,62.344,14.219Z" fill="#8f52f5"/>
        <path id="Trazado_778529" data-name="Trazado 778529" d="M62.344,67.813H49.219a1.094,1.094,0,0,1,0-2.187H61.25v-8.75a1.094,1.094,0,0,1,2.188,0v9.844A1.094,1.094,0,0,1,62.344,67.813Z" fill="#8f52f5"/>
        <path id="Trazado_778530" data-name="Trazado 778530" d="M7.656,14.219a1.094,1.094,0,0,1-1.094-1.094V3.281A1.094,1.094,0,0,1,7.656,2.188H20.781a1.094,1.094,0,0,1,0,2.188H8.75v8.75A1.094,1.094,0,0,1,7.656,14.219Z" fill="#8f52f5"/>
        <path id="Trazado_778531" data-name="Trazado 778531" d="M20.781,67.813H7.656a1.094,1.094,0,0,1-1.094-1.094V56.875a1.094,1.094,0,0,1,2.188,0v8.75H20.781a1.094,1.094,0,0,1,0,2.188Z" fill="#8f52f5"/>
      </g>
    </g>
  </g>
</svg>
