<svg xmlns="http://www.w3.org/2000/svg" xmlns:xlink="http://www.w3.org/1999/xlink" width="631.95" height="624.215" viewBox="0 0 631.95 624.215">
  <defs>
    <clipPath id="clip-path">
      <rect id="Rectángulo_374007" data-name="Rectángulo 374007" width="38" height="38" transform="translate(952 807)" fill="#fff"/>
    </clipPath>
    <clipPath id="clip-path-2">
      <path id="path3218" d="M0-38H38V0H0Z" fill="#fff"/>
    </clipPath>
    <clipPath id="clip-path-3">
      <rect id="Rectángulo_374011" data-name="Rectángulo 374011" width="38" height="38" transform="translate(696 783)" fill="#12263f"/>
    </clipPath>
    <clipPath id="clip-path-4">
      <rect id="Rectángulo_374008" data-name="Rectángulo 374008" width="38" height="38" transform="translate(1037 1131)" fill="#12263f"/>
    </clipPath>
    <clipPath id="clip-path-5">
      <path id="path3783" d="M0-38H38V0H0Z" fill="#12263f"/>
    </clipPath>
    <clipPath id="clip-path-6">
      <rect id="Rectángulo_374009" data-name="Rectángulo 374009" width="38" height="38" transform="translate(752 1272)" fill="#fff"/>
    </clipPath>
    <clipPath id="clip-path-7">
      <rect id="Rectángulo_374010" data-name="Rectángulo 374010" width="38" height="38" transform="translate(542 1033)" fill="#fff"/>
    </clipPath>
  </defs>
  <g id="Grupo_1066829" data-name="Grupo 1066829" transform="translate(-494.05 -719.308)">
    <path id="Trazado_778370" data-name="Trazado 778370" d="M456.509,284.435A149.237,149.237,0,1,1,307.271,135.2,149.237,149.237,0,0,1,456.509,284.435" transform="translate(505.092 728.754)" fill="#500c75"/>
    <path id="Trazado_778371" data-name="Trazado 778371" d="M102,109.9l77.09,61.051a178.327,178.327,0,0,1,131.127-57.255V15.543A276.285,276.285,0,0,0,102,109.9" transform="translate(501.177 720.394)" fill="#ffb206"/>
    <path id="Trazado_778372" data-name="Trazado 778372" d="M281.114,70a70,70,0,1,1-70-70,70,70,0,0,1,70,70" transform="translate(503.91 719.308)" fill="#e29f0a"/>
    <path id="Trazado_778375" data-name="Trazado 778375" d="M330.054,17.642l-5.028,98.486A179.058,179.058,0,0,1,460.13,224.55l93.476-30.529C517.965,100.2,432.816,30.761,330.054,17.642" transform="translate(516.76 720.54)" fill="#8f52f5"/>
    <path id="Trazado_778376" data-name="Trazado 778376" d="M528.246,96.861a70,70,0,1,1-70-70,70,70,0,0,1,70,70" transform="translate(512.754 713.138)" fill="#5b05e9"/>
    <path id="Trazado_778378" data-name="Trazado 778378" d="M308.5,542.3a276.822,276.822,0,0,0,82.7-12.562l-30.081-93.46a179.079,179.079,0,0,1-165.065-31.915l-69.489,69.79A275.883,275.883,0,0,0,308.5,542.3" transform="translate(502.893 747.561)" fill="#e01650"/>
    <path id="Trazado_778379" data-name="Trazado 778379" d="M330.233,522.593a70,70,0,1,1-70-70,70,70,0,0,1,70,70" transform="translate(507.342 750.931)" fill="#c2063c"/>
    <path id="Trazado_778381" data-name="Trazado 778381" d="M568.288,278.749a277.562,277.562,0,0,0-8.007-66.311l-94.256,28.053a179.016,179.016,0,0,1-93.675,197.7l34.815,92.186c95.1-43.854,161.123-140.026,161.123-251.627" transform="translate(520.066 734.15)" fill="#ffb206"/>
    <path id="Trazado_778382" data-name="Trazado 778382" d="M599.964,390.817a70,70,0,1,1-70-70,70,70,0,0,1,70,70" transform="translate(526.036 742.184)" fill="#e29f0a"/>
    <path id="Trazado_778384" data-name="Trazado 778384" d="M37.746,284.456a275.907,275.907,0,0,0,69.782,183.782l72.821-65.8a178.818,178.818,0,0,1-15.572-215.444l-80.49-56.234a275.659,275.659,0,0,0-46.542,153.7" transform="translate(496.688 728.443)" fill="#8f52f5"/>
    <path id="Trazado_778385" data-name="Trazado 778385" d="M140,299.422a70,70,0,1,1-70-70,70,70,0,0,1,70,70" transform="translate(494.05 735.338)" fill="#5b05e9"/>
    <path id="Trazado_780613" data-name="Trazado 780613" d="M-66.9-8.569h19.392V0H-78.044V-46.211H-66.9ZM-5.713-22.153A27.251,27.251,0,0,1-8.22-10.188a18.531,18.531,0,0,1-7.125,8.014A19.84,19.84,0,0,1-25.867.635,20.121,20.121,0,0,1-36.34-2.079a18.5,18.5,0,0,1-7.125-7.76,26.467,26.467,0,0,1-2.682-11.584v-2.6a27.371,27.371,0,0,1,2.491-11.981,18.485,18.485,0,0,1,7.141-8.014A19.979,19.979,0,0,1-25.93-46.846a19.784,19.784,0,0,1,10.474,2.793A18.819,18.819,0,0,1-8.3-36.1,26.585,26.585,0,0,1-5.713-24.28Zm-11.331-1.936q0-6.887-2.3-10.458a7.381,7.381,0,0,0-6.586-3.571q-8.379,0-8.855,12.568l-.032,3.4q0,6.792,2.253,10.442a7.37,7.37,0,0,0,6.7,3.65,7.281,7.281,0,0,0,6.506-3.586q2.285-3.586,2.317-10.315ZM37.864-5.713a17.912,17.912,0,0,1-7.522,4.6A32.443,32.443,0,0,1,19.487.635q-9.077,0-14.5-5.554T-.825-20.376l-.032-4A27.578,27.578,0,0,1,1.555-36.293a17.912,17.912,0,0,1,6.9-7.839,19.526,19.526,0,0,1,10.394-2.745q8.633,0,13.409,3.951t5.57,11.791H27.1q-.571-3.872-2.476-5.522a7.988,7.988,0,0,0-5.4-1.65,7.269,7.269,0,0,0-6.475,3.555Q10.474-31.2,10.442-24.6V-21.8q0,6.919,2.365,10.394t7.443,3.475q4.348,0,6.475-1.936v-7.173H18.979v-7.649H37.864Zm30.31-6.57a4.577,4.577,0,0,0-1.73-3.809,21.5,21.5,0,0,0-6.078-2.825,58.31,58.31,0,0,1-7.109-2.825q-8.982-4.412-8.982-12.124a10.872,10.872,0,0,1,2.238-6.776,14.472,14.472,0,0,1,6.332-4.57,24.64,24.64,0,0,1,9.2-1.635,21.553,21.553,0,0,1,8.934,1.777,14.145,14.145,0,0,1,6.141,5.062,13.22,13.22,0,0,1,2.19,7.506H68.206a5.586,5.586,0,0,0-1.73-4.38,6.742,6.742,0,0,0-4.681-1.555,7.6,7.6,0,0,0-4.713,1.317,4.04,4.04,0,0,0-1.73,3.348,4.068,4.068,0,0,0,1.9,3.221,24.014,24.014,0,0,0,6.7,2.983,41.024,41.024,0,0,1,7.871,3.317q7.49,4.316,7.49,11.9a11.284,11.284,0,0,1-4.57,9.521Q70.173.635,62.207.635A24.872,24.872,0,0,1,52.035-1.381,15.337,15.337,0,0,1,45.179-6.9a14.389,14.389,0,0,1-2.3-8.077H54.05q0,3.713,1.92,5.475t6.237,1.761a7.17,7.17,0,0,0,4.364-1.19A3.928,3.928,0,0,0,68.174-12.283Z" transform="translate(800 1027)" fill="#fff"/>
    <path id="Trazado_780614" data-name="Trazado 780614" d="M9.248,16.627H14.46L14.047,19H5.829L8.044,6.2h3.015ZM20.8,9.314A3.994,3.994,0,0,1,23,9.952a3.59,3.59,0,0,1,1.367,1.727,5.33,5.33,0,0,1,.312,2.461l-.018.193a5.636,5.636,0,0,1-1.626,3.533,4.575,4.575,0,0,1-3.41,1.31,3.977,3.977,0,0,1-2.188-.628,3.612,3.612,0,0,1-1.367-1.709,5.179,5.179,0,0,1-.321-2.443,5.863,5.863,0,0,1,1.6-3.727A4.547,4.547,0,0,1,20.8,9.314ZM18.644,14.4l-.026.518q-.123,1.957,1.2,1.992,1.705.053,1.978-2.764l.035-.8a2.155,2.155,0,0,0-.294-1.259,1.073,1.073,0,0,0-.918-.487,1.512,1.512,0,0,0-1.314.654A4.278,4.278,0,0,0,18.644,14.4Zm7-.171a7.226,7.226,0,0,1,.787-2.593,4.564,4.564,0,0,1,1.551-1.753,3.735,3.735,0,0,1,2.109-.576,2.6,2.6,0,0,1,2.162,1.028l.308-.853,2.672.009-1.556,9.141a4.467,4.467,0,0,1-1.7,3.05,5.4,5.4,0,0,1-3.568,1.063,5.1,5.1,0,0,1-1.837-.378,3.957,3.957,0,0,1-1.521-1.09l1.371-1.705a2.489,2.489,0,0,0,1.986.993,2.324,2.324,0,0,0,2.443-2.048l.07-.29a2.973,2.973,0,0,1-2.171.949,2.932,2.932,0,0,1-1.608-.461,3.034,3.034,0,0,1-1.09-1.305,5.076,5.076,0,0,1-.448-1.9A8.253,8.253,0,0,1,25.64,14.228Zm2.856.94a2.306,2.306,0,0,0,.29,1.257.984.984,0,0,0,.844.466,1.933,1.933,0,0,0,1.485-.633l.747-4.034a1.281,1.281,0,0,0-1.178-.633,1.683,1.683,0,0,0-1.415.716,3.861,3.861,0,0,0-.721,1.929Q28.5,14.79,28.5,15.168Zm11.795-1.011a5.613,5.613,0,0,1,.554-2.536,3.96,3.96,0,0,1,1.591-1.709,4.791,4.791,0,0,1,2.435-.6,4.373,4.373,0,0,1,3.366,1.323,5.076,5.076,0,0,1,1.23,3.6v.105a4.925,4.925,0,0,1-1.235,3.529,4.384,4.384,0,0,1-3.344,1.305,4.434,4.434,0,0,1-3.261-1.217,4.761,4.761,0,0,1-1.327-3.3Zm2.962.185a3.538,3.538,0,0,0,.413,1.934,1.376,1.376,0,0,0,1.222.615q1.582,0,1.617-2.435v-.3q0-2.558-1.635-2.558-1.485,0-1.608,2.206Zm17.754-2.171-.976-.07a1.752,1.752,0,0,0-1.793.879V19H55.276V9.49h2.777l.1,1.222a2.294,2.294,0,0,1,2.083-1.4,2.888,2.888,0,0,1,.826.105Zm5.5,7a4.889,4.889,0,0,1-3.542-1.305,4.507,4.507,0,0,1-1.354-3.4v-.246a5.84,5.84,0,0,1,.541-2.575,3.955,3.955,0,0,1,1.578-1.727,4.763,4.763,0,0,1,2.461-.611,4.117,4.117,0,0,1,3.164,1.244,4.887,4.887,0,0,1,1.16,3.467v1.151H64.628a2.135,2.135,0,0,0,.694,1.257,2.066,2.066,0,0,0,1.389.457,2.662,2.662,0,0,0,2.2-.984l1.354,1.6a3.784,3.784,0,0,1-1.569,1.217A5.3,5.3,0,0,1,66.509,19.176ZM66.175,11.6q-1.3,0-1.547,1.723h2.988v-.229a1.467,1.467,0,0,0-.36-1.1A1.434,1.434,0,0,0,66.175,11.6Zm5.186,2.575a6.421,6.421,0,0,1,.475-2.549A3.821,3.821,0,0,1,73.2,9.917a3.591,3.591,0,0,1,2.065-.6,2.855,2.855,0,0,1,2.32,1l.105-.826h2.689V18.64a4.009,4.009,0,0,1-.584,2.184A3.75,3.75,0,0,1,78.1,22.248a6.219,6.219,0,0,1-2.566.5,5.365,5.365,0,0,1-2.026-.4,3.657,3.657,0,0,1-1.5-1.028l1.239-1.74a2.716,2.716,0,0,0,2.18.976A1.764,1.764,0,0,0,77.4,18.534v-.3a2.781,2.781,0,0,1-2.153.94,3.437,3.437,0,0,1-2.812-1.332A5.517,5.517,0,0,1,71.36,14.28Zm2.971.185a3.383,3.383,0,0,0,.439,1.85,1.387,1.387,0,0,0,1.23.681,1.573,1.573,0,0,0,1.4-.642v-4a1.534,1.534,0,0,0-1.38-.65,1.4,1.4,0,0,0-1.239.708A3.858,3.858,0,0,0,74.331,14.359ZM85.186,19H82.215V9.49h2.971ZM82.039,7.038A1.322,1.322,0,0,1,82.5,6a1.943,1.943,0,0,1,2.373,0,1.322,1.322,0,0,1,.457,1.037,1.322,1.322,0,0,1-.457,1.037,1.943,1.943,0,0,1-2.373,0A1.322,1.322,0,0,1,82.039,7.038Zm9.949,9.29a.684.684,0,0,0-.4-.606,6.016,6.016,0,0,0-1.5-.475,6.853,6.853,0,0,1-1.828-.646,3.062,3.062,0,0,1-1.1-.971,2.319,2.319,0,0,1-.378-1.31,2.628,2.628,0,0,1,1.081-2.158,4.453,4.453,0,0,1,2.83-.848,4.934,4.934,0,0,1,3.023.853,2.666,2.666,0,0,1,1.143,2.241H91.892q0-1.143-1.2-1.143a1.194,1.194,0,0,0-.782.259.8.8,0,0,0-.316.646.737.737,0,0,0,.387.642,3.654,3.654,0,0,0,1.235.4,10.671,10.671,0,0,1,1.49.378,2.706,2.706,0,0,1,2.145,2.646,2.491,2.491,0,0,1-1.156,2.118,5.068,5.068,0,0,1-2.993.817,5.172,5.172,0,0,1-2.18-.439,3.645,3.645,0,0,1-1.494-1.2,2.707,2.707,0,0,1-.536-1.591h2.769a1.145,1.145,0,0,0,.439.962,1.808,1.808,0,0,0,1.081.3,1.422,1.422,0,0,0,.91-.246A.787.787,0,0,0,91.988,16.328Zm7.69-9.2V9.49h1.564v2.057H99.679V15.9a1.111,1.111,0,0,0,.193.747,1.037,1.037,0,0,0,.765.211,4.345,4.345,0,0,0,.738-.053v2.118a5.466,5.466,0,0,1-1.67.255,3.1,3.1,0,0,1-2.259-.721,2.954,2.954,0,0,1-.729-2.188v-4.72H95.5V9.49h1.213V7.126Zm8.481,5.045-.976-.07a1.752,1.752,0,0,0-1.793.879V19H102.43V9.49h2.777l.1,1.222a2.294,2.294,0,0,1,2.083-1.4,2.888,2.888,0,0,1,.826.105Zm.378,1.986a5.613,5.613,0,0,1,.554-2.536,3.96,3.96,0,0,1,1.591-1.709,4.791,4.791,0,0,1,2.435-.6,4.373,4.373,0,0,1,3.366,1.323,5.076,5.076,0,0,1,1.23,3.6v.105a4.925,4.925,0,0,1-1.235,3.529,4.384,4.384,0,0,1-3.344,1.305,4.434,4.434,0,0,1-3.261-1.217,4.761,4.761,0,0,1-1.327-3.3Zm2.962.185a3.538,3.538,0,0,0,.413,1.934,1.376,1.376,0,0,0,1.222.615q1.582,0,1.617-2.435v-.3q0-2.558-1.635-2.558-1.485,0-1.608,2.206Z" transform="translate(909 803)" fill="#fff"/>
    <path id="Trazado_780615" data-name="Trazado 780615" d="M25.306,17V4.2h4.122a6.064,6.064,0,0,1,3.05.769,5.406,5.406,0,0,1,2.114,2.171,6.554,6.554,0,0,1,.769,3.142v.589a6.592,6.592,0,0,1-.743,3.151,5.429,5.429,0,0,1-2.092,2.18,5.93,5.93,0,0,1-3.01.8ZM28.391,6.585v8.042h1.072a2.4,2.4,0,0,0,2.039-.945,4.63,4.63,0,0,0,.712-2.808V10.32A4.592,4.592,0,0,0,31.5,7.525a2.442,2.442,0,0,0-2.074-.94Zm8.042,5.572a5.613,5.613,0,0,1,.554-2.536,3.96,3.96,0,0,1,1.591-1.709,4.791,4.791,0,0,1,2.435-.6,4.373,4.373,0,0,1,3.366,1.323,5.076,5.076,0,0,1,1.23,3.6v.105a4.925,4.925,0,0,1-1.235,3.529,4.384,4.384,0,0,1-3.344,1.305,4.434,4.434,0,0,1-3.261-1.217,4.761,4.761,0,0,1-1.327-3.3Zm2.962.185a3.538,3.538,0,0,0,.413,1.934,1.376,1.376,0,0,0,1.222.615q1.582,0,1.617-2.435v-.3q0-2.558-1.635-2.558-1.485,0-1.608,2.206ZM41.416,3.5h3.129L42.1,6.26l-2.417,0Zm8.218,3.99.1,1.116a3.225,3.225,0,0,1,2.716-1.292,2.713,2.713,0,0,1,2.219.888,4.226,4.226,0,0,1,.76,2.672V17H52.455V11a1.6,1.6,0,0,0-.29-1.059A1.342,1.342,0,0,0,51.11,9.6a1.413,1.413,0,0,0-1.292.686V17H46.856V7.49Zm7.058,4.685a5.809,5.809,0,0,1,.976-3.56,3.211,3.211,0,0,1,2.725-1.3,2.731,2.731,0,0,1,2.145,1V3.5h2.971V17H62.844l-.149-1.02a2.8,2.8,0,0,1-2.32,1.2,3.205,3.205,0,0,1-2.689-1.3A5.993,5.993,0,0,1,56.691,12.175Zm2.962.185q0,2.531,1.477,2.531a1.458,1.458,0,0,0,1.406-.826V10.443A1.419,1.419,0,0,0,61.147,9.6q-1.371,0-1.485,2.215Zm12.138,4.816a4.889,4.889,0,0,1-3.542-1.305,4.507,4.507,0,0,1-1.354-3.4v-.246a5.84,5.84,0,0,1,.541-2.575,3.955,3.955,0,0,1,1.578-1.727,4.763,4.763,0,0,1,2.461-.611,4.117,4.117,0,0,1,3.164,1.244,4.887,4.887,0,0,1,1.16,3.467v1.151H69.91a2.135,2.135,0,0,0,.694,1.257,2.066,2.066,0,0,0,1.389.457,2.662,2.662,0,0,0,2.2-.984l1.354,1.6a3.784,3.784,0,0,1-1.569,1.217A5.3,5.3,0,0,1,71.791,17.176ZM71.457,9.6q-1.3,0-1.547,1.723H72.9v-.229a1.467,1.467,0,0,0-.36-1.1A1.434,1.434,0,0,0,71.457,9.6Zm14.994,4.729a.684.684,0,0,0-.4-.606,6.016,6.016,0,0,0-1.5-.475,6.853,6.853,0,0,1-1.828-.646,3.062,3.062,0,0,1-1.1-.971,2.319,2.319,0,0,1-.378-1.31,2.628,2.628,0,0,1,1.081-2.158,4.453,4.453,0,0,1,2.83-.848,4.934,4.934,0,0,1,3.023.853,2.666,2.666,0,0,1,1.143,2.241H86.354q0-1.143-1.2-1.143a1.194,1.194,0,0,0-.782.259.8.8,0,0,0-.316.646.737.737,0,0,0,.387.642,3.654,3.654,0,0,0,1.235.4,10.671,10.671,0,0,1,1.49.378,2.706,2.706,0,0,1,2.145,2.646,2.491,2.491,0,0,1-1.156,2.118,5.068,5.068,0,0,1-2.993.817,5.172,5.172,0,0,1-2.18-.439,3.645,3.645,0,0,1-1.494-1.2,2.707,2.707,0,0,1-.536-1.591h2.769a1.145,1.145,0,0,0,.439.962,1.808,1.808,0,0,0,1.081.3,1.422,1.422,0,0,0,.91-.246A.787.787,0,0,0,86.451,14.328Zm8.842,2.848a4.889,4.889,0,0,1-3.542-1.305,4.507,4.507,0,0,1-1.354-3.4v-.246a5.84,5.84,0,0,1,.541-2.575,3.955,3.955,0,0,1,1.578-1.727,4.763,4.763,0,0,1,2.461-.611,4.117,4.117,0,0,1,3.164,1.244,4.887,4.887,0,0,1,1.16,3.467v1.151H93.412a2.135,2.135,0,0,0,.694,1.257,2.066,2.066,0,0,0,1.389.457,2.662,2.662,0,0,0,2.2-.984l1.354,1.6a3.784,3.784,0,0,1-1.569,1.217A5.3,5.3,0,0,1,95.293,17.176ZM94.959,9.6q-1.3,0-1.547,1.723H96.4v-.229a1.467,1.467,0,0,0-.36-1.1A1.434,1.434,0,0,0,94.959,9.6ZM21.509,37.176a4.889,4.889,0,0,1-3.542-1.305,4.507,4.507,0,0,1-1.354-3.4v-.246a5.84,5.84,0,0,1,.541-2.575,3.955,3.955,0,0,1,1.578-1.727,4.763,4.763,0,0,1,2.461-.611,4.117,4.117,0,0,1,3.164,1.244,4.887,4.887,0,0,1,1.16,3.467v1.151H19.628a2.135,2.135,0,0,0,.694,1.257,2.066,2.066,0,0,0,1.389.457,2.662,2.662,0,0,0,2.2-.984l1.354,1.6a3.784,3.784,0,0,1-1.569,1.217A5.3,5.3,0,0,1,21.509,37.176ZM21.175,29.6q-1.3,0-1.547,1.723h2.988v-.229a1.467,1.467,0,0,0-.36-1.1A1.434,1.434,0,0,0,21.175,29.6Zm8.253-2.109.1,1.116a3.225,3.225,0,0,1,2.716-1.292,2.713,2.713,0,0,1,2.219.888,4.226,4.226,0,0,1,.76,2.672V37H32.249V31a1.6,1.6,0,0,0-.29-1.059A1.342,1.342,0,0,0,30.9,29.6a1.413,1.413,0,0,0-1.292.686V37H26.65V27.49Zm11.452,7.4a1.317,1.317,0,0,0,.967-.338,1.241,1.241,0,0,0,.334-.945h2.777a3.288,3.288,0,0,1-1.121,2.566,4.168,4.168,0,0,1-2.887,1,4.22,4.22,0,0,1-3.27-1.3,5.125,5.125,0,0,1-1.2-3.6v-.123a5.792,5.792,0,0,1,.532-2.544,3.872,3.872,0,0,1,1.534-1.7,4.573,4.573,0,0,1,2.373-.593,4.116,4.116,0,0,1,2.944,1.028,3.647,3.647,0,0,1,1.09,2.786H42.181A1.626,1.626,0,0,0,41.82,30a1.244,1.244,0,0,0-.967-.4q-1.151,0-1.345,1.468a10.357,10.357,0,0,0-.062,1.283,4.068,4.068,0,0,0,.343,1.986A1.187,1.187,0,0,0,40.88,34.891Zm11,1.081a3.054,3.054,0,0,1-2.54,1.2,3,3,0,0,1-2.369-.91,3.826,3.826,0,0,1-.8-2.615V27.49h2.962v6.179a1.065,1.065,0,0,0,1.187,1.222,1.548,1.548,0,0,0,1.45-.729V27.49H54.74V37H51.963Zm9.088,1.2a4.889,4.889,0,0,1-3.542-1.305,4.507,4.507,0,0,1-1.354-3.4v-.246a5.84,5.84,0,0,1,.541-2.575,3.955,3.955,0,0,1,1.578-1.727,4.763,4.763,0,0,1,2.461-.611,4.117,4.117,0,0,1,3.164,1.244,4.887,4.887,0,0,1,1.16,3.467v1.151H59.082a2.135,2.135,0,0,0,.694,1.257,2.066,2.066,0,0,0,1.389.457,2.662,2.662,0,0,0,2.2-.984l1.354,1.6a3.784,3.784,0,0,1-1.569,1.217A5.3,5.3,0,0,1,60.963,37.176ZM60.629,29.6q-1.3,0-1.547,1.723H62.07v-.229a1.467,1.467,0,0,0-.36-1.1A1.434,1.434,0,0,0,60.629,29.6Zm8.253-2.109.1,1.116a3.225,3.225,0,0,1,2.716-1.292,2.713,2.713,0,0,1,2.219.888,4.226,4.226,0,0,1,.76,2.672V37H71.7V31a1.6,1.6,0,0,0-.29-1.059,1.342,1.342,0,0,0-1.055-.338,1.413,1.413,0,0,0-1.292.686V37H66.1V27.49Zm10.881-2.364V27.49h1.564v2.057H79.763V33.9a1.111,1.111,0,0,0,.193.747,1.037,1.037,0,0,0,.765.211,4.345,4.345,0,0,0,.738-.053v2.118a5.466,5.466,0,0,1-1.67.255,3.1,3.1,0,0,1-2.259-.721,2.954,2.954,0,0,1-.729-2.188v-4.72H75.588V27.49H76.8V25.126Zm8.481,5.045-.976-.07a1.752,1.752,0,0,0-1.793.879V37H82.514V27.49h2.777l.1,1.222a2.294,2.294,0,0,1,2.083-1.4,2.888,2.888,0,0,1,.826.105ZM94.405,37a3.344,3.344,0,0,1-.281-.853,2.754,2.754,0,0,1-2.285,1.028,3.374,3.374,0,0,1-2.285-.813,2.588,2.588,0,0,1-.94-2.043,2.66,2.66,0,0,1,1.143-2.338,5.821,5.821,0,0,1,3.322-.791h.914v-.5q0-1.316-1.134-1.316A.927.927,0,0,0,91.8,30.413H88.842a2.655,2.655,0,0,1,1.173-2.239,4.931,4.931,0,0,1,2.993-.86,4.323,4.323,0,0,1,2.874.888,3.086,3.086,0,0,1,1.081,2.435v4.21a4.311,4.311,0,0,0,.4,2V37Zm-1.854-1.934a1.652,1.652,0,0,0,.918-.237,1.487,1.487,0,0,0,.523-.536V32.772h-.861q-1.547,0-1.547,1.389a.848.848,0,0,0,.272.655A.986.986,0,0,0,92.551,35.066Zm8.771-7.576.1,1.116a3.225,3.225,0,0,1,2.716-1.292,2.713,2.713,0,0,1,2.219.888,4.226,4.226,0,0,1,.76,2.672V37h-2.971V31a1.6,1.6,0,0,0-.29-1.059A1.342,1.342,0,0,0,102.8,29.6a1.413,1.413,0,0,0-1.292.686V37H98.545V27.49Z" transform="translate(994 1126)" fill="#12263f"/>
    <path id="Trazado_780616" data-name="Trazado 780616" d="M14.042,17H10.975V11.656H6.431V17H3.346V4.2H6.431v5.08h4.544V4.2h3.067Zm7.479-1.028a3.054,3.054,0,0,1-2.54,1.2,3,3,0,0,1-2.369-.91,3.826,3.826,0,0,1-.8-2.615V7.49h2.962v6.179a1.065,1.065,0,0,0,1.187,1.222,1.548,1.548,0,0,0,1.45-.729V7.49h2.979V17H21.61Zm9.088,1.2a4.889,4.889,0,0,1-3.542-1.305,4.507,4.507,0,0,1-1.354-3.4v-.246a5.84,5.84,0,0,1,.541-2.575,3.955,3.955,0,0,1,1.578-1.727,4.763,4.763,0,0,1,2.461-.611,4.117,4.117,0,0,1,3.164,1.244,4.887,4.887,0,0,1,1.16,3.467v1.151H28.729a2.135,2.135,0,0,0,.694,1.257,2.066,2.066,0,0,0,1.389.457,2.662,2.662,0,0,0,2.2-.984l1.354,1.6a3.784,3.784,0,0,1-1.569,1.217A5.3,5.3,0,0,1,30.61,17.176ZM30.276,9.6q-1.3,0-1.547,1.723h2.988v-.229a1.467,1.467,0,0,0-.36-1.1A1.434,1.434,0,0,0,30.276,9.6ZM38.933,17H35.962V3.5h2.971Zm4.948,0H40.911V3.5h2.971Zm7.181,0a3.344,3.344,0,0,1-.281-.853A2.754,2.754,0,0,1,48.5,17.176a3.374,3.374,0,0,1-2.285-.813,2.588,2.588,0,0,1-.94-2.043,2.66,2.66,0,0,1,1.143-2.338,5.821,5.821,0,0,1,3.322-.791h.914v-.5q0-1.316-1.134-1.316a.927.927,0,0,0-1.055,1.042H45.5a2.655,2.655,0,0,1,1.173-2.239,4.931,4.931,0,0,1,2.993-.86,4.323,4.323,0,0,1,2.874.888,3.086,3.086,0,0,1,1.081,2.435v4.21a4.311,4.311,0,0,0,.4,2V17Zm-1.854-1.934a1.652,1.652,0,0,0,.918-.237,1.487,1.487,0,0,0,.523-.536V12.772h-.861q-1.547,0-1.547,1.389a.848.848,0,0,0,.272.655A.986.986,0,0,0,49.208,15.066Zm10.16-2.909a5.613,5.613,0,0,1,.554-2.536,3.96,3.96,0,0,1,1.591-1.709,4.791,4.791,0,0,1,2.435-.6,4.373,4.373,0,0,1,3.366,1.323,5.076,5.076,0,0,1,1.23,3.6v.105a4.925,4.925,0,0,1-1.235,3.529,4.384,4.384,0,0,1-3.344,1.305A4.434,4.434,0,0,1,60.7,15.958a4.761,4.761,0,0,1-1.327-3.3Zm2.962.185a3.538,3.538,0,0,0,.413,1.934,1.376,1.376,0,0,0,1.222.615q1.582,0,1.617-2.435v-.3q0-2.558-1.635-2.558-1.485,0-1.608,2.206Zm17.754-2.171-.976-.07a1.752,1.752,0,0,0-1.793.879V17H74.353V7.49H77.13l.1,1.222a2.294,2.294,0,0,1,2.083-1.4,2.888,2.888,0,0,1,.826.105ZM86.245,17a3.344,3.344,0,0,1-.281-.853,2.754,2.754,0,0,1-2.285,1.028,3.374,3.374,0,0,1-2.285-.813,2.588,2.588,0,0,1-.94-2.043A2.66,2.66,0,0,1,81.6,11.981a5.821,5.821,0,0,1,3.322-.791h.914v-.5q0-1.316-1.134-1.316a.927.927,0,0,0-1.055,1.042H80.681a2.655,2.655,0,0,1,1.173-2.239,4.931,4.931,0,0,1,2.993-.86,4.323,4.323,0,0,1,2.874.888A3.086,3.086,0,0,1,88.8,10.637v4.21a4.311,4.311,0,0,0,.4,2V17ZM84.39,15.066a1.652,1.652,0,0,0,.918-.237,1.487,1.487,0,0,0,.523-.536V12.772H84.97q-1.547,0-1.547,1.389a.848.848,0,0,0,.272.655A.986.986,0,0,0,84.39,15.066Zm11.03-.738a.684.684,0,0,0-.4-.606,6.016,6.016,0,0,0-1.5-.475,6.853,6.853,0,0,1-1.828-.646,3.062,3.062,0,0,1-1.1-.971,2.319,2.319,0,0,1-.378-1.31A2.628,2.628,0,0,1,91.3,8.163a4.453,4.453,0,0,1,2.83-.848,4.934,4.934,0,0,1,3.023.853,2.666,2.666,0,0,1,1.143,2.241H95.324q0-1.143-1.2-1.143a1.194,1.194,0,0,0-.782.259.8.8,0,0,0-.316.646.737.737,0,0,0,.387.642,3.654,3.654,0,0,0,1.235.4,10.671,10.671,0,0,1,1.49.378,2.706,2.706,0,0,1,2.145,2.646,2.491,2.491,0,0,1-1.156,2.118,5.068,5.068,0,0,1-2.993.817,5.172,5.172,0,0,1-2.18-.439,3.645,3.645,0,0,1-1.494-1.2,2.707,2.707,0,0,1-.536-1.591h2.769a1.145,1.145,0,0,0,.439.962,1.808,1.808,0,0,0,1.081.3,1.422,1.422,0,0,0,.91-.246A.787.787,0,0,0,95.42,14.328Zm7.69-9.2V7.49h1.564V9.547h-1.564V13.9a1.111,1.111,0,0,0,.193.747,1.037,1.037,0,0,0,.765.211,4.345,4.345,0,0,0,.738-.053v2.118a5.466,5.466,0,0,1-1.67.255,3.1,3.1,0,0,1-2.259-.721,2.954,2.954,0,0,1-.729-2.188V9.547H98.936V7.49h1.213V5.126Zm8.481,5.045-.976-.07a1.752,1.752,0,0,0-1.793.879V17h-2.962V7.49h2.777l.1,1.222a2.294,2.294,0,0,1,2.083-1.4,2.888,2.888,0,0,1,.826.105Zm.378,1.986a5.613,5.613,0,0,1,.554-2.536,3.96,3.96,0,0,1,1.591-1.709,4.791,4.791,0,0,1,2.435-.6,4.373,4.373,0,0,1,3.366,1.323,5.076,5.076,0,0,1,1.23,3.6v.105a4.925,4.925,0,0,1-1.235,3.529,4.384,4.384,0,0,1-3.344,1.305,4.434,4.434,0,0,1-3.261-1.217,4.761,4.761,0,0,1-1.327-3.3Zm2.962.185a3.538,3.538,0,0,0,.413,1.934,1.376,1.376,0,0,0,1.222.615q1.582,0,1.617-2.435v-.3q0-2.558-1.635-2.558-1.485,0-1.608,2.206Z" transform="translate(705 1274)" fill="#fff"/>
    <path id="Trazado_780617" data-name="Trazado 780617" d="M25.618,14.609H21.39L20.652,17h-3.3L22.049,4.2h2.9L29.678,17H26.365Zm-3.489-2.382h2.751L23.5,7.789ZM32.772,7.49l.1,1.116a3.225,3.225,0,0,1,2.716-1.292A2.713,2.713,0,0,1,37.8,8.2a4.226,4.226,0,0,1,.76,2.672V17H35.593V11a1.6,1.6,0,0,0-.29-1.059A1.342,1.342,0,0,0,34.249,9.6a1.413,1.413,0,0,0-1.292.686V17H29.995V7.49ZM45.56,17a3.344,3.344,0,0,1-.281-.853,2.754,2.754,0,0,1-2.285,1.028,3.374,3.374,0,0,1-2.285-.813,2.588,2.588,0,0,1-.94-2.043,2.66,2.66,0,0,1,1.143-2.338,5.821,5.821,0,0,1,3.322-.791h.914v-.5q0-1.316-1.134-1.316a.927.927,0,0,0-1.055,1.042H40A2.655,2.655,0,0,1,41.17,8.175a4.931,4.931,0,0,1,2.993-.86,4.323,4.323,0,0,1,2.874.888,3.086,3.086,0,0,1,1.081,2.435v4.21a4.311,4.311,0,0,0,.4,2V17Zm-1.854-1.934a1.652,1.652,0,0,0,.918-.237,1.487,1.487,0,0,0,.523-.536V12.772h-.861q-1.547,0-1.547,1.389a.848.848,0,0,0,.272.655A.986.986,0,0,0,43.706,15.066ZM44.444,3.5h3.129L45.129,6.26l-2.417,0ZM52.881,17H49.911V3.5h2.971Zm4.948,0H54.859V7.49H57.83ZM54.683,5.038A1.322,1.322,0,0,1,55.14,4a1.943,1.943,0,0,1,2.373,0,1.322,1.322,0,0,1,.457,1.037,1.322,1.322,0,0,1-.457,1.037,1.943,1.943,0,0,1-2.373,0A1.322,1.322,0,0,1,54.683,5.038Zm9.949,9.29a.684.684,0,0,0-.4-.606,6.016,6.016,0,0,0-1.5-.475,6.853,6.853,0,0,1-1.828-.646,3.062,3.062,0,0,1-1.1-.971,2.319,2.319,0,0,1-.378-1.31A2.628,2.628,0,0,1,60.51,8.163a4.453,4.453,0,0,1,2.83-.848,4.934,4.934,0,0,1,3.023.853,2.666,2.666,0,0,1,1.143,2.241H64.536q0-1.143-1.2-1.143a1.194,1.194,0,0,0-.782.259.8.8,0,0,0-.316.646.737.737,0,0,0,.387.642,3.654,3.654,0,0,0,1.235.4,10.671,10.671,0,0,1,1.49.378,2.706,2.706,0,0,1,2.145,2.646,2.491,2.491,0,0,1-1.156,2.118,5.068,5.068,0,0,1-2.993.817,5.172,5.172,0,0,1-2.18-.439,3.645,3.645,0,0,1-1.494-1.2,2.707,2.707,0,0,1-.536-1.591H61.9a1.145,1.145,0,0,0,.439.962,1.808,1.808,0,0,0,1.081.3,1.422,1.422,0,0,0,.91-.246A.787.787,0,0,0,64.632,14.328ZM72,17H69.027V7.49H72ZM68.851,5.038A1.322,1.322,0,0,1,69.308,4a1.943,1.943,0,0,1,2.373,0,1.322,1.322,0,0,1,.457,1.037,1.322,1.322,0,0,1-.457,1.037,1.943,1.943,0,0,1-2.373,0A1.322,1.322,0,0,1,68.851,5.038Zm9.949,9.29a.684.684,0,0,0-.4-.606,6.016,6.016,0,0,0-1.5-.475,6.853,6.853,0,0,1-1.828-.646,3.062,3.062,0,0,1-1.1-.971,2.319,2.319,0,0,1-.378-1.31,2.628,2.628,0,0,1,1.081-2.158,4.453,4.453,0,0,1,2.83-.848,4.934,4.934,0,0,1,3.023.853,2.666,2.666,0,0,1,1.143,2.241H78.7q0-1.143-1.2-1.143a1.194,1.194,0,0,0-.782.259.8.8,0,0,0-.316.646.737.737,0,0,0,.387.642,3.654,3.654,0,0,0,1.235.4,10.671,10.671,0,0,1,1.49.378,2.706,2.706,0,0,1,2.145,2.646A2.491,2.491,0,0,1,80.5,16.358a5.068,5.068,0,0,1-2.993.817,5.172,5.172,0,0,1-2.18-.439,3.645,3.645,0,0,1-1.494-1.2A2.707,2.707,0,0,1,73.3,13.95h2.769a1.145,1.145,0,0,0,.439.962,1.808,1.808,0,0,0,1.081.3,1.422,1.422,0,0,0,.91-.246A.787.787,0,0,0,78.8,14.328Zm8.35-2.153a5.809,5.809,0,0,1,.976-3.56,3.211,3.211,0,0,1,2.725-1.3,2.731,2.731,0,0,1,2.145,1V3.5h2.971V17H93.3l-.149-1.02a2.8,2.8,0,0,1-2.32,1.2,3.205,3.205,0,0,1-2.689-1.3A5.993,5.993,0,0,1,87.15,12.175Zm2.962.185q0,2.531,1.477,2.531a1.458,1.458,0,0,0,1.406-.826V10.443A1.419,1.419,0,0,0,91.606,9.6q-1.371,0-1.485,2.215Zm12.138,4.816a4.889,4.889,0,0,1-3.542-1.305,4.507,4.507,0,0,1-1.354-3.4v-.246a5.84,5.84,0,0,1,.541-2.575,3.955,3.955,0,0,1,1.578-1.727,4.763,4.763,0,0,1,2.461-.611A4.117,4.117,0,0,1,105.1,8.558a4.887,4.887,0,0,1,1.16,3.467v1.151h-5.889a2.135,2.135,0,0,0,.694,1.257,2.066,2.066,0,0,0,1.389.457,2.662,2.662,0,0,0,2.2-.984l1.354,1.6a3.784,3.784,0,0,1-1.569,1.217A5.3,5.3,0,0,1,102.25,17.176ZM101.916,9.6q-1.3,0-1.547,1.723h2.988v-.229a1.467,1.467,0,0,0-.36-1.1A1.434,1.434,0,0,0,101.916,9.6ZM47.959,37h-2.9L47.4,23.5h2.9Zm7.383-9.686a3.994,3.994,0,0,1,2.206.637,3.59,3.59,0,0,1,1.367,1.727,5.33,5.33,0,0,1,.312,2.461l-.018.193a5.636,5.636,0,0,1-1.626,3.533,4.575,4.575,0,0,1-3.41,1.31,3.977,3.977,0,0,1-2.188-.628,3.612,3.612,0,0,1-1.367-1.709,5.179,5.179,0,0,1-.321-2.443,5.863,5.863,0,0,1,1.6-3.727A4.547,4.547,0,0,1,55.342,27.314ZM53.189,32.4l-.026.518q-.123,1.957,1.2,1.992,1.705.053,1.978-2.764l.035-.8a2.155,2.155,0,0,0-.294-1.259,1.073,1.073,0,0,0-.918-.487,1.512,1.512,0,0,0-1.314.654A4.278,4.278,0,0,0,53.189,32.4Zm7-.171a7.226,7.226,0,0,1,.787-2.593,4.564,4.564,0,0,1,1.551-1.753,3.735,3.735,0,0,1,2.109-.576,2.6,2.6,0,0,1,2.162,1.028l.308-.853,2.672.009-1.556,9.141a4.467,4.467,0,0,1-1.7,3.05,5.4,5.4,0,0,1-3.568,1.063,5.1,5.1,0,0,1-1.837-.378,3.957,3.957,0,0,1-1.521-1.09l1.371-1.705a2.489,2.489,0,0,0,1.986.993A2.324,2.324,0,0,0,65.4,36.517l.07-.29a2.973,2.973,0,0,1-2.171.949,2.932,2.932,0,0,1-1.608-.461,3.034,3.034,0,0,1-1.09-1.305,5.076,5.076,0,0,1-.448-1.9A8.253,8.253,0,0,1,60.185,32.228Zm2.856.94a2.306,2.306,0,0,0,.29,1.257.984.984,0,0,0,.844.466,1.933,1.933,0,0,0,1.485-.633l.747-4.034a1.281,1.281,0,0,0-1.178-.633,1.683,1.683,0,0,0-1.415.716,3.861,3.861,0,0,0-.721,1.929Q63.042,32.79,63.042,33.168Zm12.146,1.107q.114-.58-.9-.87l-.624-.158a4.806,4.806,0,0,1-2.241-1.134,2.244,2.244,0,0,1-.668-1.731,2.758,2.758,0,0,1,1.217-2.228,4.633,4.633,0,0,1,2.861-.839,4.292,4.292,0,0,1,2.72.853,2.781,2.781,0,0,1,1.059,2.25l-2.883-.009q.035-1.125-.993-1.125a1.417,1.417,0,0,0-.817.259,1.007,1.007,0,0,0-.448.69q-.149.712,1.257.976a7.3,7.3,0,0,1,1.89.672,2.821,2.821,0,0,1,1.02.945,2.35,2.35,0,0,1,.325,1.354,2.541,2.541,0,0,1-.562,1.538A3.642,3.642,0,0,1,75.852,36.8a5.557,5.557,0,0,1-2.2.378,4.469,4.469,0,0,1-1.912-.431,3.408,3.408,0,0,1-1.38-1.147,2.979,2.979,0,0,1-.514-1.666l2.689.018A1.111,1.111,0,0,0,73.8,35.2a1.661,1.661,0,0,0,.914-.242A1.045,1.045,0,0,0,75.188,34.275Z" transform="translate(502 1028)" fill="#fff"/>
    <path id="Trazado_780618" data-name="Trazado 780618" d="M13.032,4.2l2.856,8.9,2.848-8.9H22.8V17H19.7V14.012L20,7.895,16.908,17H14.869l-3.1-9.114.3,6.126V17H8.98V4.2Zm11.215,7.954A5.613,5.613,0,0,1,24.8,9.622a3.96,3.96,0,0,1,1.591-1.709,4.791,4.791,0,0,1,2.435-.6,4.373,4.373,0,0,1,3.366,1.323,5.076,5.076,0,0,1,1.23,3.6v.105a4.925,4.925,0,0,1-1.235,3.529,4.384,4.384,0,0,1-3.344,1.305,4.434,4.434,0,0,1-3.261-1.217,4.761,4.761,0,0,1-1.327-3.3Zm2.962.185a3.538,3.538,0,0,0,.413,1.934,1.376,1.376,0,0,0,1.222.615q1.582,0,1.617-2.435v-.3q0-2.558-1.635-2.558-1.485,0-1.608,2.206ZM37.448,7.49l.1,1.116A3.225,3.225,0,0,1,40.26,7.314a2.713,2.713,0,0,1,2.219.888,4.226,4.226,0,0,1,.76,2.672V17H40.269V11a1.6,1.6,0,0,0-.29-1.059A1.342,1.342,0,0,0,38.924,9.6a1.413,1.413,0,0,0-1.292.686V17H34.67V7.49ZM48,17H45.033V7.49H48ZM44.857,5.038A1.322,1.322,0,0,1,45.314,4a1.943,1.943,0,0,1,2.373,0,1.322,1.322,0,0,1,.457,1.037,1.322,1.322,0,0,1-.457,1.037,1.943,1.943,0,0,1-2.373,0A1.322,1.322,0,0,1,44.857,5.038Zm8.42.088V7.49h1.564V9.547H53.277V13.9a1.111,1.111,0,0,0,.193.747,1.037,1.037,0,0,0,.765.211,4.345,4.345,0,0,0,.738-.053v2.118a5.466,5.466,0,0,1-1.67.255,3.1,3.1,0,0,1-2.259-.721,2.954,2.954,0,0,1-.729-2.188V9.547H49.1V7.49h1.213V5.126Zm2.092,7.031a5.613,5.613,0,0,1,.554-2.536,3.96,3.96,0,0,1,1.591-1.709,4.791,4.791,0,0,1,2.435-.6,4.373,4.373,0,0,1,3.366,1.323,5.076,5.076,0,0,1,1.23,3.6v.105a4.925,4.925,0,0,1-1.235,3.529,4.384,4.384,0,0,1-3.344,1.305A4.434,4.434,0,0,1,56.7,15.958a4.761,4.761,0,0,1-1.327-3.3Zm2.962.185a3.538,3.538,0,0,0,.413,1.934,1.376,1.376,0,0,0,1.222.615q1.582,0,1.617-2.435v-.3q0-2.558-1.635-2.558-1.485,0-1.608,2.206ZM71.6,10.171l-.976-.07a1.752,1.752,0,0,0-1.793.879V17H65.872V7.49h2.777l.1,1.222a2.294,2.294,0,0,1,2.083-1.4,2.888,2.888,0,0,1,.826.105Zm5.5,7a4.889,4.889,0,0,1-3.542-1.305,4.507,4.507,0,0,1-1.354-3.4v-.246a5.84,5.84,0,0,1,.541-2.575,3.955,3.955,0,0,1,1.578-1.727,4.763,4.763,0,0,1,2.461-.611,4.117,4.117,0,0,1,3.164,1.244,4.887,4.887,0,0,1,1.16,3.467v1.151H75.223a2.135,2.135,0,0,0,.694,1.257,2.066,2.066,0,0,0,1.389.457,2.662,2.662,0,0,0,2.2-.984l1.354,1.6a3.784,3.784,0,0,1-1.569,1.217A5.3,5.3,0,0,1,77.1,17.176ZM76.77,9.6q-1.3,0-1.547,1.723h2.988v-.229a1.467,1.467,0,0,0-.36-1.1A1.434,1.434,0,0,0,76.77,9.6Zm5.159,2.558a5.613,5.613,0,0,1,.554-2.536,3.96,3.96,0,0,1,1.591-1.709,4.791,4.791,0,0,1,2.435-.6,4.373,4.373,0,0,1,3.366,1.323,5.076,5.076,0,0,1,1.23,3.6v.105a4.925,4.925,0,0,1-1.235,3.529,4.384,4.384,0,0,1-3.344,1.305,4.434,4.434,0,0,1-3.261-1.217,4.761,4.761,0,0,1-1.327-3.3Zm2.962.185a3.538,3.538,0,0,0,.413,1.934,1.376,1.376,0,0,0,1.222.615q1.582,0,1.617-2.435v-.3q0-2.558-1.635-2.558-1.485,0-1.608,2.206Zm11.628-.167a5.809,5.809,0,0,1,.976-3.56,3.211,3.211,0,0,1,2.725-1.3,2.731,2.731,0,0,1,2.145,1V3.5h2.971V17h-2.663l-.149-1.02a2.8,2.8,0,0,1-2.32,1.2,3.205,3.205,0,0,1-2.689-1.3A5.993,5.993,0,0,1,96.519,12.175Zm2.962.185q0,2.531,1.477,2.531a1.458,1.458,0,0,0,1.406-.826V10.443a1.419,1.419,0,0,0-1.389-.844q-1.371,0-1.485,2.215Zm12.138,4.816a4.889,4.889,0,0,1-3.542-1.305,4.507,4.507,0,0,1-1.354-3.4v-.246a5.84,5.84,0,0,1,.541-2.575,3.955,3.955,0,0,1,1.578-1.727,4.763,4.763,0,0,1,2.461-.611,4.117,4.117,0,0,1,3.164,1.244,4.887,4.887,0,0,1,1.16,3.467v1.151h-5.889a2.135,2.135,0,0,0,.694,1.257,2.066,2.066,0,0,0,1.389.457,2.662,2.662,0,0,0,2.2-.984l1.354,1.6a3.784,3.784,0,0,1-1.569,1.217A5.3,5.3,0,0,1,111.619,17.176ZM111.285,9.6q-1.3,0-1.547,1.723h2.988v-.229a1.467,1.467,0,0,0-.36-1.1A1.434,1.434,0,0,0,111.285,9.6ZM47.959,37h-2.9L47.4,23.5h2.9Zm7.383-9.686a3.994,3.994,0,0,1,2.206.637,3.59,3.59,0,0,1,1.367,1.727,5.33,5.33,0,0,1,.312,2.461l-.018.193a5.636,5.636,0,0,1-1.626,3.533,4.575,4.575,0,0,1-3.41,1.31,3.977,3.977,0,0,1-2.188-.628,3.612,3.612,0,0,1-1.367-1.709,5.179,5.179,0,0,1-.321-2.443,5.863,5.863,0,0,1,1.6-3.727A4.547,4.547,0,0,1,55.342,27.314ZM53.189,32.4l-.026.518q-.123,1.957,1.2,1.992,1.705.053,1.978-2.764l.035-.8a2.155,2.155,0,0,0-.294-1.259,1.073,1.073,0,0,0-.918-.487,1.512,1.512,0,0,0-1.314.654A4.278,4.278,0,0,0,53.189,32.4Zm7-.171a7.226,7.226,0,0,1,.787-2.593,4.564,4.564,0,0,1,1.551-1.753,3.735,3.735,0,0,1,2.109-.576,2.6,2.6,0,0,1,2.162,1.028l.308-.853,2.672.009-1.556,9.141a4.467,4.467,0,0,1-1.7,3.05,5.4,5.4,0,0,1-3.568,1.063,5.1,5.1,0,0,1-1.837-.378,3.957,3.957,0,0,1-1.521-1.09l1.371-1.705a2.489,2.489,0,0,0,1.986.993A2.324,2.324,0,0,0,65.4,36.517l.07-.29a2.973,2.973,0,0,1-2.171.949,2.932,2.932,0,0,1-1.608-.461,3.034,3.034,0,0,1-1.09-1.305,5.076,5.076,0,0,1-.448-1.9A8.253,8.253,0,0,1,60.185,32.228Zm2.856.94a2.306,2.306,0,0,0,.29,1.257.984.984,0,0,0,.844.466,1.933,1.933,0,0,0,1.485-.633l.747-4.034a1.281,1.281,0,0,0-1.178-.633,1.683,1.683,0,0,0-1.415.716,3.861,3.861,0,0,0-.721,1.929Q63.042,32.79,63.042,33.168Zm12.146,1.107q.114-.58-.9-.87l-.624-.158a4.806,4.806,0,0,1-2.241-1.134,2.244,2.244,0,0,1-.668-1.731,2.758,2.758,0,0,1,1.217-2.228,4.633,4.633,0,0,1,2.861-.839,4.292,4.292,0,0,1,2.72.853,2.781,2.781,0,0,1,1.059,2.25l-2.883-.009q.035-1.125-.993-1.125a1.417,1.417,0,0,0-.817.259,1.007,1.007,0,0,0-.448.69q-.149.712,1.257.976a7.3,7.3,0,0,1,1.89.672,2.821,2.821,0,0,1,1.02.945,2.35,2.35,0,0,1,.325,1.354,2.541,2.541,0,0,1-.562,1.538A3.642,3.642,0,0,1,75.852,36.8a5.557,5.557,0,0,1-2.2.378,4.469,4.469,0,0,1-1.912-.431,3.408,3.408,0,0,1-1.38-1.147,2.979,2.979,0,0,1-.514-1.666l2.689.018A1.111,1.111,0,0,0,73.8,35.2a1.661,1.661,0,0,0,.914-.242A1.045,1.045,0,0,0,75.188,34.275Z" transform="translate(653 775)" fill="#12263f"/>
    <g id="Enmascarar_grupo_49" data-name="Enmascarar grupo 49" transform="translate(0 -51)" clip-path="url(#clip-path)">
      <g id="g3204" transform="translate(952 845)">
        <g id="g3206" transform="translate(15.717 -4.606)">
          <path id="path3208" d="M0,0V-3.831" fill="none" stroke="#fff" stroke-linecap="round" stroke-linejoin="round" stroke-miterlimit="10" stroke-width="1.113"/>
        </g>
        <g id="g3210" transform="translate(22.283 -4.606)">
          <path id="path3212" d="M0,0V-3.831" fill="none" stroke="#fff" stroke-linecap="round" stroke-linejoin="round" stroke-miterlimit="10" stroke-width="1.113"/>
        </g>
        <g id="g3214">
          <g id="g3216" clip-path="url(#clip-path-2)">
            <g id="g3222" transform="translate(29.448 -8.437)">
              <path id="path3224" d="M0,0H-26.664a2.227,2.227,0,0,1-2.227-2.227V-24.466a2.227,2.227,0,0,1,2.227-2.227h6.395" fill="none" stroke="#fff" stroke-linecap="round" stroke-linejoin="round" stroke-miterlimit="10" stroke-width="1.113"/>
            </g>
            <g id="g3226" transform="translate(28.822 -35.129)">
              <path id="path3228" d="M0,0H6.395A2.227,2.227,0,0,1,8.621,2.227V24.466a2.227,2.227,0,0,1-2.227,2.227H3.223" fill="none" stroke="#fff" stroke-linecap="round" stroke-linejoin="round" stroke-miterlimit="10" stroke-width="1.113"/>
            </g>
            <g id="g3230" transform="translate(9.178 -32.903)">
              <path id="path3232" d="M0,0H-6.1a.3.3,0,0,0-.3.3V21.942a.3.3,0,0,0,.3.3h31.84a.3.3,0,0,0,.3-.3V.3a.3.3,0,0,0-.3-.3h-6.1" fill="none" stroke="#fff" stroke-linecap="round" stroke-linejoin="round" stroke-miterlimit="10" stroke-width="1.113"/>
            </g>
            <g id="g3234" transform="translate(22.888 -4.606)">
              <path id="path3236" d="M0,0H-7.775a2.7,2.7,0,0,0-2.7,2.7v.99a.36.36,0,0,0,.36.36H2.34a.36.36,0,0,0,.36-.36V2.7A2.7,2.7,0,0,0,0,0Z" fill="none" stroke="#fff" stroke-linecap="round" stroke-linejoin="round" stroke-miterlimit="10" stroke-width="1.113"/>
            </g>
            <g id="g3238" transform="translate(9.178 -30.306)">
              <path id="path3240" d="M0,0V-4.911A2.227,2.227,0,0,1,2.227-7.138H17.417a2.227,2.227,0,0,1,2.227,2.227V19.642H0V2.6" fill="none" stroke="#fff" stroke-linecap="round" stroke-linejoin="round" stroke-miterlimit="10" stroke-width="1.113"/>
            </g>
            <g id="g3242" transform="translate(19 -20.967)">
              <path id="path3244" d="M0,0A6.576,6.576,0,0,1-6.568-6.568,6.576,6.576,0,0,1,0-13.137,6.576,6.576,0,0,1,6.568-6.568,6.576,6.576,0,0,1,0,0Z" fill="none" stroke="#fff" stroke-linecap="round" stroke-linejoin="round" stroke-miterlimit="10" stroke-width="1.113"/>
            </g>
            <g id="g3246" transform="translate(17.878 -24.63)">
              <path id="path3248" d="M0,0A1.48,1.48,0,0,1-1.05-.434L-2.283-1.667a1.113,1.113,0,0,1,0-1.574,1.113,1.113,0,0,1,1.574,0l.551.551a.223.223,0,0,0,.315,0L2.929-5.462a1.134,1.134,0,0,1,1.558-.059A1.113,1.113,0,0,1,4.526-3.91L1.05-.434A1.48,1.48,0,0,1,0,0Z" fill="none" stroke="#fff" stroke-linecap="round" stroke-linejoin="round" stroke-miterlimit="10" stroke-width="1.113"/>
            </g>
            <g id="g3250" transform="translate(12.591 -17.33)">
              <path id="path3252" d="M0,0H12.819" fill="none" stroke="#fff" stroke-linecap="round" stroke-linejoin="round" stroke-miterlimit="10" stroke-width="1.113"/>
            </g>
            <g id="g3254" transform="translate(12.591 -13.99)">
              <path id="path3256" d="M0,0H12.819" fill="none" stroke="#fff" stroke-linecap="round" stroke-linejoin="round" stroke-miterlimit="10" stroke-width="1.113"/>
            </g>
          </g>
        </g>
      </g>
    </g>
    <g id="Enmascarar_grupo_52" data-name="Enmascarar grupo 52" transform="translate(0 -51)" clip-path="url(#clip-path-3)">
      <g id="investigar" transform="translate(696.002 783)">
        <path id="Trazado_778432" data-name="Trazado 778432" d="M35.956,27.978H21.113a2.044,2.044,0,0,0-2.041,2.041v5.937A2.044,2.044,0,0,0,21.113,38H35.956A2.044,2.044,0,0,0,38,35.956V30.019a2.044,2.044,0,0,0-2.041-2.041Zm.928,7.978a.929.929,0,0,1-.928.928H21.113a.929.929,0,0,1-.928-.928V30.019a.929.929,0,0,1,.928-.928H35.956a.929.929,0,0,1,.928.928Z" fill="#12263f"/>
        <path id="Trazado_778433" data-name="Trazado 778433" d="M34.843,33.915H22.226a.557.557,0,0,0,0,1.113H34.843a.557.557,0,1,0,0-1.113Z" fill="#12263f"/>
        <path id="Trazado_778434" data-name="Trazado 778434" d="M34.843,30.946H26.054a.557.557,0,0,0,0,1.113h8.788a.557.557,0,1,0,0-1.113Z" fill="#12263f"/>
        <path id="Trazado_778435" data-name="Trazado 778435" d="M22.226,32.06H24.15a.557.557,0,1,0,0-1.113H22.226a.557.557,0,0,0,0,1.113Z" fill="#12263f"/>
        <path id="Trazado_778436" data-name="Trazado 778436" d="M24.824,26.352A13.173,13.173,0,1,0,18.835,1.443,2.045,2.045,0,0,0,16.883,0H2.041A2.044,2.044,0,0,0,0,2.041V7.978a2.044,2.044,0,0,0,2.041,2.041h10a13.161,13.161,0,0,0,.627,8.23L11.311,19.6a2.043,2.043,0,0,0,0,2.886l.785.787-2.037,2.036-.522-.524a1.672,1.672,0,0,0-2.361,0L5.863,26.1a.556.556,0,0,0,0,.787l.918.919L.706,33.879A2.414,2.414,0,0,0,4.12,37.293L10.2,31.217l.916.917a.555.555,0,0,0,.787,0l1.311-1.313a1.672,1.672,0,0,0,0-2.361l-.525-.525L14.722,25.9l.788.785a2.043,2.043,0,0,0,2.886,0L19.74,25.34a13.151,13.151,0,0,0,5.084,1.012ZM16.293,10.019h.59a2.044,2.044,0,0,0,2.041-2.041V6.256a9.049,9.049,0,1,1-2.631,3.763ZM1.113,7.978V2.041a.929.929,0,0,1,.928-.928H16.883a.929.929,0,0,1,.928.928V7.978a.929.929,0,0,1-.928.928H2.041a.929.929,0,0,1-.928-.928Zm14,2.041a10.21,10.21,0,1,0,3.809-5.173V2.659a12.062,12.062,0,1,1-5.739,7.36ZM3.33,36.5a1.3,1.3,0,1,1-1.836-1.836L7.57,28.59l1.837,1.837Zm9.093-6.469-.92.918L7.045,26.494l.918-.92a.557.557,0,0,1,.787,0l3.673,3.673A.557.557,0,0,1,12.423,30.034ZM11.9,27.147,10.849,26.1l2.036-2.036,1.049,1.049Zm5.71-1.248a.927.927,0,0,1-1.311,0l-4.2-4.2a.927.927,0,0,1,0-1.311l1.069-1.069a13.254,13.254,0,0,0,5.505,5.515Z" fill="#12263f"/>
        <path id="Trazado_778437" data-name="Trazado 778437" d="M15.77,5.937H3.154a.557.557,0,0,0,0,1.113H15.77a.557.557,0,0,0,0-1.113Z" fill="#12263f"/>
        <path id="Trazado_778438" data-name="Trazado 778438" d="M15.77,2.968H6.982a.557.557,0,1,0,0,1.113H15.77a.557.557,0,0,0,0-1.113Z" fill="#12263f"/>
        <path id="Trazado_778439" data-name="Trazado 778439" d="M3.154,4.082H5.078a.557.557,0,1,0,0-1.113H3.154a.557.557,0,0,0,0,1.113Z" fill="#12263f"/>
        <path id="Trazado_778440" data-name="Trazado 778440" d="M21.976,17.893a1.818,1.818,0,0,0,2.64,0l6.574-6.939a1.818,1.818,0,0,0-2.64-2.5L23.3,14l-2.2-2.321a1.818,1.818,0,1,0-2.64,2.5ZM19.3,12.416a.7.7,0,0,1,.484-.193h.02a.7.7,0,0,1,.493.223l2.6,2.746a.557.557,0,0,0,.808,0L29.36,9.22a.705.705,0,1,1,1.024.969L23.81,17.128a.7.7,0,0,1-1.023,0l-3.519-3.711a.7.7,0,0,1,.027-1Z" fill="#12263f"/>
      </g>
    </g>
    <g id="Enmascarar_grupo_50" data-name="Enmascarar grupo 50" transform="translate(0 -51)" clip-path="url(#clip-path-4)">
      <g id="g3777" transform="translate(1037 1169)">
        <g id="g3779">
          <g id="g3781" clip-path="url(#clip-path-5)">
            <g id="g3787" transform="translate(10.267 -34.202)">
              <path id="path3789" d="M0,0V-2.247a.994.994,0,0,1,.994-.994H19.683a.994.994,0,0,1,.994.994v8.02" fill="none" stroke="#12263f" stroke-linecap="round" stroke-linejoin="round" stroke-miterlimit="10" stroke-width="1.113"/>
            </g>
            <g id="g3791" transform="translate(4.715 -21.969)">
              <path id="path3793" d="M0,0V-11.238a.994.994,0,0,1,.994-.994H19.683a.994.994,0,0,1,.994.994v7.4" fill="none" stroke="#12263f" stroke-linecap="round" stroke-linejoin="round" stroke-miterlimit="10" stroke-width="1.113"/>
            </g>
            <g id="g3795" transform="translate(32.502 -0.557)">
              <path id="path3797" d="M0,0H-9.72a3.2,3.2,0,0,1-3.2-3.2v-9.72a3.2,3.2,0,0,1,3.2-3.2H0a3.2,3.2,0,0,1,3.2,3.2V-3.2A3.2,3.2,0,0,1,0,0Z" fill="none" stroke="#12263f" stroke-linecap="round" stroke-linejoin="round" stroke-miterlimit="10" stroke-width="1.113"/>
            </g>
            <g id="g3799" transform="translate(31.671 -7.431)">
              <path id="path3801" d="M0,0-2.887,3.6a1.464,1.464,0,0,1-2.283,0L-8.056,0A1.367,1.367,0,0,1-7-2.209h1.119V-5.783a.731.731,0,0,1,.731-.731H-2.91a.731.731,0,0,1,.731.731v3.574H-1.06A1.367,1.367,0,0,1,0,0Z" fill="none" stroke="#12263f" stroke-linecap="round" stroke-linejoin="round" stroke-miterlimit="10" stroke-width="1.113"/>
            </g>
            <g id="g3803" transform="translate(14.542 -13.639)">
              <path id="path3805" d="M0,0H-8.053a.918.918,0,0,1-.918-.918v-1.2a.918.918,0,0,1,.918-.918H0a.918.918,0,0,1,.918.918v1.2A.918.918,0,0,1,0,0Z" fill="none" stroke="#12263f" stroke-linecap="round" stroke-linejoin="round" stroke-miterlimit="10" stroke-width="1.113"/>
            </g>
            <g id="g3807" transform="translate(12.289 -29.119)">
              <path id="path3809" d="M0,0H-3.547A1.012,1.012,0,0,1-4.56-1.012,1.012,1.012,0,0,1-3.547-2.024H0A1.012,1.012,0,0,1,1.012-1.012,1.012,1.012,0,0,1,0,0Z" fill="none" stroke="#12263f" stroke-linecap="round" stroke-linejoin="round" stroke-miterlimit="10" stroke-width="1.113"/>
            </g>
            <g id="g3811" transform="translate(15.468 -30.131)">
              <path id="path3813" d="M0,0H7.049" fill="none" stroke="#12263f" stroke-linecap="round" stroke-linejoin="round" stroke-miterlimit="10" stroke-width="1.113"/>
            </g>
            <g id="g3815" transform="translate(11.937 -26.971)">
              <path id="path3817" d="M0,0H4.618" fill="none" stroke="#12263f" stroke-linecap="round" stroke-linejoin="round" stroke-miterlimit="10" stroke-width="1.113"/>
            </g>
            <g id="g3819" transform="translate(7.729 -26.971)">
              <path id="path3821" d="M0,0H1.573" fill="none" stroke="#12263f" stroke-linecap="round" stroke-linejoin="round" stroke-miterlimit="10" stroke-width="1.113"/>
            </g>
            <g id="g3823" transform="translate(7.729 -24.701)">
              <path id="path3825" d="M0,0H8.826" fill="none" stroke="#12263f" stroke-linecap="round" stroke-linejoin="round" stroke-miterlimit="10" stroke-width="1.113"/>
            </g>
            <g id="g3827" transform="translate(33.361 -16.556)">
              <path id="path3829" d="M0,0V-7.317A1.932,1.932,0,0,0-1.932-9.249H-11.988A2.438,2.438,0,0,0-14.2-7.836l-.467,1.007a2.438,2.438,0,0,1-2.212,1.413H-28.527a2.535,2.535,0,0,0-2.535,2.535V11.7a2.535,2.535,0,0,0,2.535,2.535h12.284" fill="none" stroke="#12263f" stroke-linecap="round" stroke-linejoin="round" stroke-miterlimit="10" stroke-width="1.113"/>
            </g>
          </g>
        </g>
      </g>
    </g>
    <g id="Enmascarar_grupo_51" data-name="Enmascarar grupo 51" transform="translate(0 -51)" clip-path="url(#clip-path-6)">
      <g id="ver-una-marca-de-huella-digital-como-codigo-binario" transform="translate(752 1272)">
        <g id="Grupo_1064807" data-name="Grupo 1064807">
          <path id="Trazado_778386" data-name="Trazado 778386" d="M2.584,10.68c.255.056.491.052,1.217-.506A6.7,6.7,0,0,0,5.039,8.929l.192-.256c1.647-2.19,5.5-7.318,11.071-7.04,4.592.335,7.848,3.8,9.414,10.03.053.211.086.342.122.441,0,.013.008.027.01.041a10.86,10.86,0,0,1,1.035,2.5,1.249,1.249,0,0,0,.173.161.811.811,0,0,0,.986-1.287,7.3,7.3,0,0,1-.64-1.849.778.778,0,0,0-.044-.134c-.014-.053-.044-.169-.07-.272a20.2,20.2,0,0,0-2.507-6.074A10.56,10.56,0,0,0,16.41.016l-.017,0C9.96-.315,5.738,5.3,3.935,7.7l-.189.251A4.872,4.872,0,0,1,2.468,9.127a.824.824,0,0,0-.5.936A.813.813,0,0,0,2.584,10.68Z" fill="#fff"/>
          <path id="Trazado_778387" data-name="Trazado 778387" d="M21.9,8.129a4.968,4.968,0,0,0-1.79-.961,3.685,3.685,0,0,0-.788-.146A10.874,10.874,0,0,1,21.9,8.129Z" fill="#fff"/>
          <path id="Trazado_778388" data-name="Trazado 778388" d="M2.946,19.006a19.253,19.253,0,0,0,2.509-.892c-.01-.2-.016-.392-.016-.59a10.994,10.994,0,0,1,.069-1.211A18.984,18.984,0,0,1,2.52,17.442a.811.811,0,1,0,.426,1.564Z" fill="#fff"/>
          <path id="Trazado_778389" data-name="Trazado 778389" d="M7.643,24.092c-1.288.706-2.577,1.362-3.71,1.846a.811.811,0,0,0,.318,1.556.825.825,0,0,0,.319-.064c1.276-.546,2.736-1.3,4.172-2.093A11.015,11.015,0,0,1,7.643,24.092Z" fill="#fff"/>
          <path id="Trazado_778390" data-name="Trazado 778390" d="M9.834,7.736c-.368.406-.7.841-1.054,1.257a16.749,16.749,0,0,1-1.506,1.533A8.843,8.843,0,0,1,5.64,11.743c-.684.392-1.381.79-2.089,1.134a4.507,4.507,0,0,1-.728.278.811.811,0,0,0,.432,1.564,11.479,11.479,0,0,0,2.329-1.1c.253-.145.5-.283.753-.426a10.973,10.973,0,0,1,6.346-5.947l.147-.122L13,6.984a11.914,11.914,0,0,1,1.8-1.142,7.323,7.323,0,0,1,1.925-.674,3.494,3.494,0,0,1,.474-.074.829.829,0,0,0,.811-.811.812.812,0,0,0-.811-.811C14.272,3.777,11.766,5.609,9.834,7.736Z" fill="#fff"/>
          <path id="Trazado_778391" data-name="Trazado 778391" d="M3.524,23.262c.49-.168,1.545-.551,2.921-1.17a10.764,10.764,0,0,1-.569-1.52c-1.356.612-2.4.991-2.878,1.156l-.066.023a.811.811,0,0,0,.564,1.521Z" fill="#fff"/>
          <path id="Trazado_778392" data-name="Trazado 778392" d="M21.129,27.33c.807.573,1.625,1.141,2.424,1.594l-1.876-1.88C21.5,27.145,21.314,27.24,21.129,27.33Z" fill="#fff"/>
          <path id="Trazado_778393" data-name="Trazado 778393" d="M12.487,27.73a10.863,10.863,0,0,1-1.7-.822,27.246,27.246,0,0,1-4.892,2.836A.811.811,0,0,0,6.1,31.339a.8.8,0,0,0,.211-.028c1.251-.337,3.455-1.79,5.788-3.327Z" fill="#fff"/>
          <path id="Trazado_778394" data-name="Trazado 778394" d="M23.557,32.061a19.577,19.577,0,0,1-2.744-1.528c-2.17-1.341-3.55-2.154-4.539-1.984s-3.108,1.6-6.642,4.185c-.433.316-.806.588-1.065.772A.811.811,0,1,0,9.5,34.83c.27-.191.648-.467,1.086-.786,1.406-1.028,5.143-3.755,5.954-3.9.505-.034,2.33,1.091,3.42,1.764a19.718,19.718,0,0,0,3.045,1.673.811.811,0,1,0,.551-1.525Z" fill="#fff"/>
          <path id="Trazado_778395" data-name="Trazado 778395" d="M20.819,36.092c-.456-.3-.874-.6-1.279-.885-1.329-.95-2.479-1.771-3.739-1.551-1.418.245-3.678,2.516-4.116,2.969a.811.811,0,1,0,1.164,1.128,10.7,10.7,0,0,1,3.228-2.5c.592-.1,1.487.535,2.522,1.274.4.285.851.607,1.335.923a.811.811,0,1,0,.886-1.358Z" fill="#fff"/>
          <path id="Trazado_778396" data-name="Trazado 778396" d="M28.244,20.464a.81.81,0,0,0-.291-1.109c-.261-.11-.525-.226-.785-.349a10.8,10.8,0,0,1-.35,1.61c.1.048.21.093.317.139A.829.829,0,0,0,28.244,20.464Z" fill="#fff"/>
          <path id="Trazado_778397" data-name="Trazado 778397" d="M26.38,23.586a5.854,5.854,0,0,1-.721-.277l1.259,1.261A.791.791,0,0,0,26.38,23.586Z" fill="#fff"/>
          <path id="Trazado_778398" data-name="Trazado 778398" d="M35.53,34.057,24.57,23.078c-.017-.018-.037-.028-.055-.044a10.063,10.063,0,1,0-2.693,2.573c.033.039.061.083.1.12L32.88,36.707a1.874,1.874,0,0,0,2.65-2.65Zm-11.11-17.1a.356.356,0,0,1-.312.18c-.267,0-.441-.278-.441-.768,0-.513.187-.784.444-.784a.361.361,0,0,1,.168.041A8.183,8.183,0,0,1,24.42,16.953Zm-3.671-5.919c0,.48-.143.785-.444.785-.267,0-.441-.277-.441-.767,0-.513.187-.785.444-.785C20.612,10.266,20.749,10.571,20.749,11.034ZM9.771,13.022c.3,0,.441.3.441.768,0,.481-.144.785-.444.785-.267,0-.44-.278-.44-.768C9.327,13.294,9.514,13.022,9.771,13.022ZM8.376,18.375a.353.353,0,0,1,.289-.16c.3,0,.441.3.441.767s-.13.747-.4.779A8.039,8.039,0,0,1,8.376,18.375Zm1.908,4.109a8.08,8.08,0,0,1-.6-.763c.009-.49.191-.751.442-.751.3,0,.441.3.441.768C10.568,22.122,10.475,22.39,10.284,22.484ZM12.9,24.463A7.9,7.9,0,0,1,12.053,24c.062-.307.217-.469.414-.469.3,0,.441.3.441.768C12.909,24.355,12.905,24.41,12.9,24.463Zm.837-.15c0-.513.187-.785.444-.785.3,0,.44.3.44.768A.9.9,0,0,1,14.4,25c-.189-.047-.377-.1-.561-.157A1.183,1.183,0,0,1,13.738,24.314Zm5.143,0c0-.513.187-.785.444-.785.3,0,.441.3.441.768a1.858,1.858,0,0,1-.015.195,8.071,8.071,0,0,1-.781.315A1.211,1.211,0,0,1,18.88,24.314Zm1.175.03c0-.021,0-.038,0-.06,0-.6-.26-.954-.718-.954-.441,0-.755.348-.755.979a1.314,1.314,0,0,0,.128.586,7.922,7.922,0,0,1-.89.214V23.362h-.25l-.474.221.057.193.377-.176h.007v1.552a8.171,8.171,0,0,1-1.186.1c-.082,0-.163-.01-.244-.013V23.362h-.25l-.474.221.057.193.377-.176h.007v1.622a8.257,8.257,0,0,1-1.154-.152,1.119,1.119,0,0,0,.245-.787c0-.6-.261-.954-.718-.954-.441,0-.755.348-.755.979a1.552,1.552,0,0,0,.054.409c-.109-.041-.219-.078-.325-.124a1.684,1.684,0,0,0,.029-.311c0-.6-.261-.954-.718-.954a.7.7,0,0,0-.679.511,8.1,8.1,0,0,1-1.371-1.191.935.935,0,0,0,.427-.924c0-.6-.26-.953-.718-.953a.711.711,0,0,0-.7.561,8.007,8.007,0,0,1-.665-1.383c.4-.062.62-.4.62-.98,0-.6-.26-.953-.718-.953a.7.7,0,0,0-.347.09,7.6,7.6,0,0,1,.075-2.364l.2-.092h.007V17.3H8.9V15.415H8.646l-.194.091a7.986,7.986,0,0,1,.582-1.725c0,.008,0,.015,0,.024.007.622.294.968.719.968.48,0,.754-.353.754-.994,0-.6-.26-.953-.718-.953a.714.714,0,0,0-.26.05,8.128,8.128,0,0,1,2.139-2.267v1.377h.283V10.41a8.044,8.044,0,0,1,8.266-.329c-.382.055-.645.391-.645.968.007.623.294.968.718.968.481,0,.755-.353.755-.993a1.449,1.449,0,0,0-.072-.468,8.147,8.147,0,0,1,2.259,2.4l-.258.119.057.194.3-.142c.026.045.055.086.08.13v1.48H23.7v-.91a8.021,8.021,0,0,1,.529,1.564.723.723,0,0,0-.1-.01c-.441,0-.755.348-.755.979s.294.968.718.968a.755.755,0,0,0,.336-.074,8.106,8.106,0,0,1-.12,1.282v-.489h-.25l-.474.221.057.194.377-.177h.006v1.408a7.923,7.923,0,0,1-.484,1.151.865.865,0,0,0-.425.735,7.985,7.985,0,0,1-.774,1V20.8h-.25l-.474.221.057.194.378-.177h.007v1.646h.183A8.152,8.152,0,0,1,20.055,24.344Z" fill="#fff"/>
          <path id="Trazado_778399" data-name="Trazado 778399" d="M13.432,12.016c.481,0,.755-.353.755-.993,0-.6-.26-.953-.718-.953-.441,0-.755.348-.755.979S13.007,12.016,13.432,12.016Zm.02-1.75c.3,0,.441.3.441.768,0,.48-.144.785-.444.785-.267,0-.44-.277-.44-.767C13.007,10.539,13.195,10.266,13.452,10.266Z" fill="#fff"/>
          <path id="Trazado_778400" data-name="Trazado 778400" d="M15.089,10.339H15.1v1.645h.284V10.1h-.251l-.474.22.057.194Z" fill="#fff"/>
          <path id="Trazado_778401" data-name="Trazado 778401" d="M16.8,10.339h.006v1.645h.284V10.1h-.251l-.474.22.057.194Z" fill="#fff"/>
          <path id="Trazado_778402" data-name="Trazado 778402" d="M18.611,10.069c-.441,0-.755.348-.755.979s.294.968.718.968c.481,0,.755-.353.755-.993C19.329,10.423,19.068,10.069,18.611,10.069Zm-.02,1.75c-.267,0-.441-.277-.441-.767,0-.513.187-.785.444-.785.3,0,.441.3.441.768C19.034,11.514,18.891,11.819,18.591,11.819Z" fill="#fff"/>
          <path id="Trazado_778403" data-name="Trazado 778403" d="M11.408,13.095h.006v1.645H11.7V12.857h-.251l-.474.22.056.194Z" fill="#fff"/>
          <path id="Trazado_778404" data-name="Trazado 778404" d="M13.129,13.095v1.645h.284V12.857h-.251l-.475.22.057.194.378-.176Z" fill="#fff"/>
          <path id="Trazado_778405" data-name="Trazado 778405" d="M15.648,13.778c0-.6-.26-.954-.718-.954-.441,0-.755.348-.755.98s.294.968.718.968C15.375,14.772,15.648,14.418,15.648,13.778Zm-1.179.03c0-.513.187-.785.444-.785.3,0,.441.3.441.768,0,.481-.143.785-.444.785C14.643,14.575,14.469,14.3,14.469,13.807Z" fill="#fff"/>
          <path id="Trazado_778406" data-name="Trazado 778406" d="M16.551,13.095h.006v1.645h.284V12.857h-.25l-.474.22.057.194Z" fill="#fff"/>
          <path id="Trazado_778407" data-name="Trazado 778407" d="M18.322,14.772c.481,0,.755-.353.755-.994,0-.6-.26-.953-.718-.953-.441,0-.755.348-.755.98S17.9,14.772,18.322,14.772Zm.02-1.75c.3,0,.441.3.441.768,0,.481-.144.785-.444.785-.267,0-.441-.278-.441-.768C17.9,13.294,18.085,13.022,18.342,13.022Z" fill="#fff"/>
          <path id="Trazado_778408" data-name="Trazado 778408" d="M19.986,13.095v1.645h.284V12.857h-.25l-.474.22.056.194.377-.176Z" fill="#fff"/>
          <path id="Trazado_778409" data-name="Trazado 778409" d="M21.751,14.772c.481,0,.754-.353.754-.994,0-.6-.26-.953-.718-.953-.441,0-.755.348-.755.98S21.326,14.772,21.751,14.772Zm.02-1.75c.3,0,.441.3.441.768,0,.481-.144.785-.444.785-.267,0-.441-.278-.441-.768C21.326,13.294,21.513,13.022,21.77,13.022Z" fill="#fff"/>
          <path id="Trazado_778410" data-name="Trazado 778410" d="M10.414,15.384c-.441,0-.755.348-.755.979s.294.968.718.968c.481,0,.755-.353.755-.993C11.132,15.737,10.871,15.384,10.414,15.384Zm-.021,1.749c-.267,0-.441-.278-.441-.768,0-.513.187-.784.444-.784.3,0,.441.3.441.767C10.838,16.829,10.694,17.133,10.394,17.133Z" fill="#fff"/>
          <path id="Trazado_778411" data-name="Trazado 778411" d="M12.128,15.384c-.441,0-.755.348-.755.979s.294.968.718.968c.481,0,.755-.353.755-.993C12.847,15.737,12.585,15.384,12.128,15.384Zm-.02,1.749c-.268,0-.441-.278-.441-.768,0-.513.187-.784.444-.784.3,0,.441.3.441.767C12.552,16.829,12.409,17.133,12.108,17.133Z" fill="#fff"/>
          <path id="Trazado_778412" data-name="Trazado 778412" d="M13.314,15.635l.057.195.377-.177h.007V17.3h.284V15.415h-.25Z" fill="#fff"/>
          <path id="Trazado_778413" data-name="Trazado 778413" d="M15.753,17.3V15.415H15.5l-.474.22.057.195.377-.177h.006V17.3Z" fill="#fff"/>
          <path id="Trazado_778414" data-name="Trazado 778414" d="M17.271,15.384c-.44,0-.755.348-.755.979s.294.968.718.968c.481,0,.755-.353.755-.993C17.989,15.737,17.729,15.384,17.271,15.384Zm-.021,1.749c-.267,0-.441-.278-.441-.768,0-.513.187-.784.444-.784.3,0,.441.3.441.767C17.695,16.829,17.551,17.133,17.25,17.133Z" fill="#fff"/>
          <path id="Trazado_778415" data-name="Trazado 778415" d="M18.457,15.635l.057.195.377-.177H18.9V17.3h.284V15.415h-.25Z" fill="#fff"/>
          <path id="Trazado_778416" data-name="Trazado 778416" d="M20.7,15.384c-.441,0-.755.348-.755.979s.295.968.719.968c.481,0,.754-.353.754-.993C21.417,15.737,21.157,15.384,20.7,15.384Zm-.02,1.749c-.267,0-.441-.278-.441-.768,0-.513.187-.784.444-.784.3,0,.441.3.441.767C21.124,16.829,20.98,17.133,20.68,17.133Z" fill="#fff"/>
          <path id="Trazado_778417" data-name="Trazado 778417" d="M21.886,15.635l.057.195.378-.177h.006V17.3h.284V15.415H22.36Z" fill="#fff"/>
          <path id="Trazado_778418" data-name="Trazado 778418" d="M9.869,18.27l.056.194.378-.177h.006v1.646h.284V18.05h-.25Z" fill="#fff"/>
          <path id="Trazado_778419" data-name="Trazado 778419" d="M12.307,19.933V18.05h-.25l-.475.22.057.194.378-.177h.006v1.646Z" fill="#fff"/>
          <path id="Trazado_778420" data-name="Trazado 778420" d="M13.3,18.27l.057.194.377-.177h.007v1.646h.284V18.05h-.25Z" fill="#fff"/>
          <path id="Trazado_778421" data-name="Trazado 778421" d="M15.538,18.017c-.441,0-.755.348-.755.979s.294.968.718.968c.481,0,.755-.353.755-.994C16.257,18.371,16,18.017,15.538,18.017Zm-.02,1.749c-.267,0-.441-.278-.441-.768,0-.512.187-.784.444-.784.3,0,.441.3.441.767C15.963,19.463,15.819,19.767,15.519,19.767Z" fill="#fff"/>
          <path id="Trazado_778422" data-name="Trazado 778422" d="M17.45,19.933V18.05H17.2l-.474.22.057.194.378-.177h.007v1.646Z" fill="#fff"/>
          <path id="Trazado_778423" data-name="Trazado 778423" d="M18.439,18.27l.057.194.377-.177h.007v1.646h.284V18.05h-.251Z" fill="#fff"/>
          <path id="Trazado_778424" data-name="Trazado 778424" d="M20.682,18.017c-.441,0-.755.348-.755.979s.294.968.718.968c.481,0,.755-.353.755-.994C21.4,18.371,21.138,18.017,20.682,18.017Zm-.02,1.749c-.267,0-.441-.278-.441-.768,0-.512.187-.784.444-.784.3,0,.441.3.441.767C21.105,19.463,20.962,19.767,20.662,19.767Z" fill="#fff"/>
          <path id="Trazado_778425" data-name="Trazado 778425" d="M21.641,19c.007.622.294.968.718.968.481,0,.755-.353.755-.993,0-.6-.261-.953-.718-.953C21.954,18.017,21.641,18.365,21.641,19Zm1.178-.016c0,.481-.143.785-.444.785-.267,0-.441-.278-.441-.768,0-.512.187-.784.444-.784C22.683,18.215,22.82,18.519,22.82,18.982Z" fill="#fff"/>
          <path id="Trazado_778426" data-name="Trazado 778426" d="M11.858,20.773c-.44,0-.755.348-.755.979s.294.967.719.967c.48,0,.755-.353.755-.993C12.576,21.126,12.315,20.773,11.858,20.773Zm-.02,1.749c-.267,0-.441-.277-.441-.768,0-.512.187-.784.444-.784.3,0,.441.3.441.768C12.282,22.218,12.138,22.522,11.838,22.522Z" fill="#fff"/>
          <path id="Trazado_778427" data-name="Trazado 778427" d="M13.044,21.025l.057.194.378-.177h.006v1.645h.284V20.8h-.251Z" fill="#fff"/>
          <path id="Trazado_778428" data-name="Trazado 778428" d="M14.758,21.025l.057.194.378-.177H15.2v1.645h.285V20.8h-.251Z" fill="#fff"/>
          <path id="Trazado_778429" data-name="Trazado 778429" d="M17,20.773c-.441,0-.755.348-.755.979s.294.967.718.967c.481,0,.755-.353.755-.993C17.719,21.126,17.458,20.773,17,20.773Zm-.02,1.749c-.267,0-.441-.277-.441-.768,0-.512.188-.784.444-.784.3,0,.441.3.441.768C17.425,22.218,17.282,22.522,16.981,22.522Z" fill="#fff"/>
          <path id="Trazado_778430" data-name="Trazado 778430" d="M18.187,21.025l.057.194.377-.177h.006v1.645h.284V20.8h-.25Z" fill="#fff"/>
          <path id="Trazado_778431" data-name="Trazado 778431" d="M20.429,20.773c-.441,0-.755.348-.755.979s.294.967.719.967c.481,0,.755-.353.755-.993C21.147,21.126,20.886,20.773,20.429,20.773Zm-.02,1.749c-.267,0-.441-.277-.441-.768,0-.512.187-.784.445-.784.3,0,.44.3.44.768C20.853,22.218,20.709,22.522,20.409,22.522Z" fill="#fff"/>
        </g>
      </g>
    </g>
    <g id="Enmascarar_grupo_53" data-name="Enmascarar grupo 53" transform="translate(0 -51)" clip-path="url(#clip-path-7)">
      <g id="g1626" transform="translate(542 1071)">
        <g id="g1628">
          <g id="g1630" clip-path="url(#clip-path-2)">
            <g id="g1636" transform="translate(4.326 -32.997)">
              <path id="path1638" d="M0,0A1.188,1.188,0,0,1,1.188-1.187H23.66V-3.258a1.187,1.187,0,0,0-1.187-1.187H-1.962A1.187,1.187,0,0,0-3.15-3.258V27.995a1.187,1.187,0,0,0,1.188,1.188H0Z" fill="none" stroke="#fff" stroke-linecap="round" stroke-linejoin="round" stroke-miterlimit="10" stroke-width="1.113" stroke-dasharray="590 35 800 0"/>
            </g>
            <g id="g1640" transform="translate(28.664 -19.712)">
              <path id="path1642" d="M0,0A5.314,5.314,0,0,1-7.507,0a5.314,5.314,0,0,1,0-7.507A5.314,5.314,0,0,1,0-7.507,5.314,5.314,0,0,1,0,0Z" fill="none" stroke="#fff" stroke-linecap="round" stroke-linejoin="round" stroke-miterlimit="10" stroke-width="1.113"/>
            </g>
            <g id="g1644" transform="translate(30.293 -28.848)">
              <path id="path1646" d="M0,0A7.611,7.611,0,0,1,0,10.764a7.611,7.611,0,0,1-10.764,0A7.611,7.611,0,0,1-10.764,0,7.611,7.611,0,0,1,0,0Z" fill="none" stroke="#fff" stroke-linecap="round" stroke-linejoin="round" stroke-miterlimit="10" stroke-width="1.113"/>
            </g>
            <g id="g1648" transform="translate(36.321 -14.482)">
              <path id="path1650" d="M0,0-4.954-4.954A7.586,7.586,0,0,1-7.381-2.528l4.954,4.954A1.716,1.716,0,0,0,0,2.427H0A1.716,1.716,0,0,0,0,0Z" fill="none" stroke="#fff" stroke-linecap="round" stroke-linejoin="round" stroke-miterlimit="10" stroke-width="1.113" stroke-dasharray="22 35 781 0"/>
            </g>
            <g id="g1652" transform="translate(19.308 -10.003)">
              <path id="path1654" d="M0,0H-5.809V5.809A5.808,5.808,0,0,0,0,0Z" fill="none" stroke="#fff" stroke-linecap="round" stroke-linejoin="round" stroke-miterlimit="10" stroke-width="1.113"/>
            </g>
            <g id="g1656" transform="translate(19.308 -10.003)">
              <path id="path1658" d="M0,0A5.808,5.808,0,0,0-5.809-5.808,5.808,5.808,0,0,0-11.617,0,5.808,5.808,0,0,0-5.809,5.809V0Z" fill="none" stroke="#fff" stroke-linecap="round" stroke-linejoin="round" stroke-miterlimit="10" stroke-width="1.113"/>
            </g>
            <g id="g1660" transform="translate(7.691 -29.62)">
              <path id="path1662" d="M0,0H6.89" fill="none" stroke="#fff" stroke-linecap="round" stroke-linejoin="round" stroke-miterlimit="10" stroke-width="1.113"/>
            </g>
            <g id="g1664" transform="translate(7.691 -26.465)">
              <path id="path1666" d="M0,0H6.89" fill="none" stroke="#fff" stroke-linecap="round" stroke-linejoin="round" stroke-miterlimit="10" stroke-width="1.113"/>
            </g>
            <g id="g1668" transform="translate(7.691 -23.309)">
              <path id="path1670" d="M0,0H6.89" fill="none" stroke="#fff" stroke-linecap="round" stroke-linejoin="round" stroke-miterlimit="10" stroke-width="1.113"/>
            </g>
            <g id="g1672" transform="translate(7.691 -19.943)">
              <path id="path1674" d="M0,0H6.89" fill="none" stroke="#fff" stroke-linecap="round" stroke-linejoin="round" stroke-miterlimit="10" stroke-width="1.113"/>
            </g>
            <g id="g1676" transform="translate(16.403 -7.099)">
              <path id="path1678" d="M0,0,1.7,3.851H7.939" fill="none" stroke="#fff" stroke-linecap="round" stroke-linejoin="round" stroke-miterlimit="10" stroke-width="1.113"/>
            </g>
            <g id="g1680" transform="translate(16.403 -13.094)">
              <path id="path1682" d="M0,0H8.3" fill="none" stroke="#fff" stroke-linecap="round" stroke-linejoin="round" stroke-miterlimit="10" stroke-width="1.113"/>
            </g>
            <g id="g1684" transform="translate(24.7 -10.003)">
              <path id="path1686" d="M0,0H3.551" fill="none" stroke="#fff" stroke-linecap="round" stroke-linejoin="round" stroke-miterlimit="10" stroke-width="1.113"/>
            </g>
            <g id="g1688" transform="translate(24.7 -7.268)">
              <path id="path1690" d="M0,0H3.551" fill="none" stroke="#fff" stroke-linecap="round" stroke-linejoin="round" stroke-miterlimit="10" stroke-width="1.113"/>
            </g>
            <g id="g1692" transform="translate(22.602 -23.755)">
              <path id="path1694" d="M0,0,1,2.029,4.618-1.449" fill="none" stroke="#fff" stroke-linecap="round" stroke-linejoin="round" stroke-miterlimit="10" stroke-width="1.113"/>
            </g>
            <g id="g1696" transform="translate(28.941 -17.009)">
              <path id="path1698" d="M0,0H0A7.613,7.613,0,0,1-9.412-1.074a7.611,7.611,0,0,1,0-10.764,7.611,7.611,0,0,1,10.764,0,7.656,7.656,0,0,1,.843,1v-5.151a1.187,1.187,0,0,0-1.187-1.187H-23.427a1.188,1.188,0,0,0-1.187,1.188V15.265a1.188,1.188,0,0,0,1.188,1.188H1.008A1.187,1.187,0,0,0,2.2,15.265V2.2Z" fill="none" stroke="#fff" stroke-linecap="round" stroke-linejoin="round" stroke-miterlimit="10" stroke-width="1.113"/>
            </g>
          </g>
        </g>
      </g>
    </g>
  </g>
</svg>
