<svg xmlns="http://www.w3.org/2000/svg" xmlns:xlink="http://www.w3.org/1999/xlink" width="70" height="70" viewBox="0 0 70 70">
  <defs>
    <clipPath id="clip-path">
      <rect id="Rectángulo_374109" data-name="Rectángulo 374109" width="70" height="70" transform="translate(300 852)" fill="#8f52f5"/>
    </clipPath>
  </defs>
  <g id="Enmascarar_grupo_54" data-name="Enmascarar grupo 54" transform="translate(-300 -852)" clip-path="url(#clip-path)">
    <g id="prevencion" transform="translate(300.001 852.002)">
      <path id="Trazado_778518" data-name="Trazado 778518" d="M66.5,10.2a3.487,3.487,0,0,0-3.383-3.523c-14.881-.411-24-4.884-26.45-6.252a3.486,3.486,0,0,0-3.344.007C30.882,1.79,21.765,6.261,6.884,6.673A3.487,3.487,0,0,0,3.5,10.2V26.482A45.645,45.645,0,0,0,7.753,45.651a8.877,8.877,0,0,0,.339,7.832,9.137,9.137,0,0,0,8.172,4.848h.311a44.631,44.631,0,0,0,10.35,7.8l6.266,3.414A3.85,3.85,0,0,0,35,70a3.9,3.9,0,0,0,1.822-.455l6.254-3.407a44.649,44.649,0,0,0,10.346-7.8h.311A9.135,9.135,0,0,0,61.9,53.483a8.873,8.873,0,0,0,.341-7.832A45.646,45.646,0,0,0,66.5,26.482ZM41.954,64.085l-6.241,3.4a1.517,1.517,0,0,1-1.416.007l-6.252-3.408a42.545,42.545,0,0,1-8.1-5.754h3.617a39.651,39.651,0,0,0,5.588,3.7l4.177,2.281a3.557,3.557,0,0,0,3.347,0l4.165-2.275a39.6,39.6,0,0,0,5.589-3.7h3.617a42.573,42.573,0,0,1-8.094,5.754ZM27.546,58.331h14.9c-.881.583-1.788,1.135-2.726,1.647L35.57,62.248a1.2,1.2,0,0,1-1.132.006l-4.167-2.275C29.334,59.466,28.427,58.915,27.546,58.331Zm32.3-5.95A6.832,6.832,0,0,1,53.732,56H16.265a6.832,6.832,0,0,1-6.115-3.617,6.615,6.615,0,0,1,.31-6.883L29.191,17.1a6.988,6.988,0,0,1,11.615,0L59.538,45.5A6.615,6.615,0,0,1,59.848,52.382ZM42.753,15.816a9.32,9.32,0,0,0-15.509,0L12.38,38.352A38.341,38.341,0,0,1,10.5,26.482l.01-12.975A66.239,66.239,0,0,0,35,7.441a66.315,66.315,0,0,0,24.5,6.066V26.482A38.355,38.355,0,0,1,57.615,38.36ZM64.164,26.482A43.347,43.347,0,0,1,60.8,43.172L59.231,40.8a40.65,40.65,0,0,0,2.6-14.316V13.51a2.359,2.359,0,0,0-2.184-2.333,63.888,63.888,0,0,1-23.642-5.84,2.387,2.387,0,0,0-2.036.01A63.9,63.9,0,0,1,10.34,11.18a2.355,2.355,0,0,0-2.173,2.33V26.482a40.65,40.65,0,0,0,2.6,14.316L9.2,43.172a43.347,43.347,0,0,1-3.368-16.69V10.2A1.167,1.167,0,0,1,6.95,9.006c14.99-.414,24.232-4.712,27.5-6.533a1.167,1.167,0,0,1,1.092-.007c3.277,1.828,12.519,6.126,27.508,6.54a1.167,1.167,0,0,1,1.118,1.19Z" fill="#8f52f5"/>
      <path id="Trazado_778519" data-name="Trazado 778519" d="M35,18.666a3.5,3.5,0,0,0-3.5,3.5v17.5a3.5,3.5,0,1,0,7,0v-17.5A3.5,3.5,0,0,0,35,18.666Zm1.167,21a1.167,1.167,0,1,1-2.333,0v-17.5a1.167,1.167,0,0,1,2.333,0Z" fill="#8f52f5"/>
      <path id="Trazado_778520" data-name="Trazado 778520" d="M35,45.5A3.5,3.5,0,1,0,38.5,49,3.5,3.5,0,0,0,35,45.5Zm0,4.667A1.167,1.167,0,1,1,36.165,49,1.167,1.167,0,0,1,35,50.165Z" fill="#8f52f5"/>
    </g>
  </g>
</svg>
