<svg xmlns="http://www.w3.org/2000/svg" xmlns:xlink="http://www.w3.org/1999/xlink" width="295" height="382" viewBox="0 0 295 382">
  <defs>
    <clipPath id="clip-path">
      <rect id="Rectángulo_374152" data-name="Rectángulo 374152" width="218" height="218" transform="translate(1164 2763)" fill="#fff"/>
    </clipPath>
  </defs>
  <g id="Grupo_1066834" data-name="Grupo 1066834" transform="translate(-1125 -2681)">
    <path id="Trazado_780629" data-name="Trazado 780629" d="M20,0H275a20,20,0,0,1,20,20V362a20,20,0,0,1-20,20H20A20,20,0,0,1,0,362V20A20,20,0,0,1,20,0Z" transform="translate(1125 2681)" fill="#500c75"/>
    <path id="Trazado_780630" data-name="Trazado 780630" d="M88,0A88,88,0,1,1,0,88,88,88,0,0,1,88,0Z" transform="translate(1230 2711)" fill="#ffb206"/>
    <g id="Enmascarar_grupo_73" data-name="Enmascarar grupo 73" clip-path="url(#clip-path)">
      <g id="red" transform="translate(1168.491 2761.43)">
        <circle id="Elipse_4722" data-name="Elipse 4722" cx="55.7" cy="55.7" r="55.7" transform="translate(49.908 140.799) rotate(-45)" fill="#2dcffc"/>
        <path id="Trazado_778662" data-name="Trazado 778662" d="M128.706,85.1a55.7,55.7,0,0,0,0,111.4c.643,0,1.283-.015,1.921-.036a47.545,47.545,0,0,0,14.8-5.8c16.123-9.758,25.113-29.644,25.113-49.866s-8.99-40.108-25.113-49.866a47.532,47.532,0,0,0-14.8-5.8q-.96-.034-1.921-.036Z" fill="#66deff" fill-rule="evenodd"/>
        <path id="Trazado_778663" data-name="Trazado 778663" d="M94.61,96.2a4.727,4.727,0,1,1-6.685,0A4.727,4.727,0,0,1,94.61,96.2Z" fill="#f9ac00" fill-rule="evenodd"/>
        <circle id="Elipse_4723" data-name="Elipse 4723" cx="6.171" cy="6.171" r="6.171" transform="translate(122.535 134.629)" fill="#f9ac00"/>
        <path id="Trazado_778664" data-name="Trazado 778664" d="M126.845,146.684a6.173,6.173,0,0,1,0-11.769,6.172,6.172,0,0,1,0,11.769Z" fill="#fdc72e" fill-rule="evenodd"/>
        <path id="Trazado_778665" data-name="Trazado 778665" d="M169.489,96.2a4.728,4.728,0,1,1-6.686,0A4.728,4.728,0,0,1,169.489,96.2Z" fill="#f9ac00" fill-rule="evenodd"/>
        <path id="Trazado_778666" data-name="Trazado 778666" d="M164.606,104.012a4.729,4.729,0,0,1,0-8.941,4.729,4.729,0,0,1,0,8.941Z" fill="#fdc72e" fill-rule="evenodd"/>
        <circle id="Elipse_4724" data-name="Elipse 4724" cx="6.171" cy="6.171" r="6.171" transform="translate(85.096 175.887)" fill="#f9ac00"/>
        <path id="Trazado_778667" data-name="Trazado 778667" d="M89.406,187.943a6.172,6.172,0,0,1,0-11.769,6.172,6.172,0,0,1,0,11.769Z" fill="#fdc72e" fill-rule="evenodd"/>
        <circle id="Elipse_4725" data-name="Elipse 4725" cx="6.171" cy="6.171" r="6.171" transform="translate(159.975 175.887)" fill="#f9ac00"/>
        <path id="Trazado_778668" data-name="Trazado 778668" d="M164.284,187.943a6.172,6.172,0,0,1,0-11.769,6.172,6.172,0,0,1,0,11.769Z" fill="#fdc72e" fill-rule="evenodd"/>
        <circle id="Elipse_4726" data-name="Elipse 4726" cx="6.171" cy="6.171" r="6.171" transform="translate(178.248 134.629)" fill="#f9ac00"/>
        <path id="Trazado_778669" data-name="Trazado 778669" d="M182.558,146.685a6.172,6.172,0,0,1,0-11.769,6.172,6.172,0,0,1,0,11.769Z" fill="#fdc72e" fill-rule="evenodd"/>
        <circle id="Elipse_4727" data-name="Elipse 4727" cx="6.171" cy="6.171" r="6.171" transform="translate(122.535 79.727)" fill="#f9ac00"/>
        <g id="Grupo_1064858" data-name="Grupo 1064858">
          <path id="Trazado_778670" data-name="Trazado 778670" d="M126.845,91.783a6.173,6.173,0,0,1,0-11.769,6.172,6.172,0,0,1,0,11.769ZM89.728,104.012a4.729,4.729,0,0,1,0-8.941,4.729,4.729,0,0,1,0,8.941Z" fill="#fdc72e" fill-rule="evenodd"/>
          <path id="Trazado_778671" data-name="Trazado 778671" d="M45.933,152.412l21.946,38.011a4.06,4.06,0,0,1-3.516,6.089H20.471a4.06,4.06,0,0,1-3.516-6.089L38.9,152.412a4.059,4.059,0,0,1,7.031,0Z" fill="#e8333c" fill-rule="evenodd"/>
          <path id="Trazado_778672" data-name="Trazado 778672" d="M57.89,196.513H20.471a4.06,4.06,0,0,1-3.516-6.089L38.9,152.412a4.468,4.468,0,0,1,.279-.425,4.4,4.4,0,0,1,.28.425l21.946,38.011a4.06,4.06,0,0,1-3.516,6.089Z" fill="#ff6161" fill-rule="evenodd"/>
          <path id="Trazado_778673" data-name="Trazado 778673" d="M88.55,118.667c7.721-.859,15.506-9.994,14.448-22.263a46.412,46.412,0,0,1,.6-19.542,35.427,35.427,0,0,0-8.36-30.36C88.064,38.478,77.032,34.466,66,34.466S43.937,38.478,36.767,46.5a35.427,35.427,0,0,0-8.36,30.36A46.412,46.412,0,0,1,29,96.4c-1.058,12.269,6.727,21.4,14.448,22.263C44.068,132.22,54.618,135.724,66,136.039c11.382-.315,21.932-3.819,22.549-17.372Z" fill="#e8333c" fill-rule="evenodd"/>
          <path id="Trazado_778674" data-name="Trazado 778674" d="M62.218,34.624c-9.724.814-19.1,4.772-25.451,11.877a35.426,35.426,0,0,0-8.36,30.36A46.406,46.406,0,0,1,29,96.4c-1.058,12.269,6.727,21.4,14.448,22.263C44.069,132.22,54.619,135.724,66,136.039c5.542-.153,10.887-1.064,14.984-3.522V118.666c7.721-.859,15.506-9.994,14.448-22.263a46.406,46.406,0,0,1,.6-19.542,35.426,35.426,0,0,0-8.36-30.36C81.32,39.4,71.942,35.437,62.218,34.624Z" fill="#ff6161" fill-rule="evenodd"/>
          <path id="Trazado_778675" data-name="Trazado 778675" d="M63.333,95.93l-4.76,9.42a2.99,2.99,0,0,0,2.668,4.338h9.519a2.99,2.99,0,0,0,2.668-4.338l-4.76-9.42a2.99,2.99,0,0,0-5.337,0Z" fill="#323e66" fill-rule="evenodd"/>
          <path id="Trazado_778676" data-name="Trazado 778676" d="M63.332,95.93l-4.76,9.42a2.99,2.99,0,0,0,2.668,4.338h5.077a2.99,2.99,0,0,0,2.668-4.338l-4.76-9.42a3.113,3.113,0,0,0-.448-.662,3.092,3.092,0,0,0-.448.662Z" fill="#495586" fill-rule="evenodd"/>
          <path id="Trazado_778677" data-name="Trazado 778677" d="M91.97,84.69c-4.392,7.643-13.533,7.443-17.359,3.4a9.4,9.4,0,0,1-2.72-6.437c.04-4.475,2.295-4.926,5.677-6.046,2.929-.97,5.359-3.311,8.086-3.961,3.909-.931,6.463.865,7.5,3.712a11.476,11.476,0,0,1-1.181,9.332Zm-51.938,0c4.392,7.643,13.532,7.443,17.359,3.4a9.4,9.4,0,0,0,2.72-6.437c-.04-4.475-2.295-4.926-5.677-6.046-2.929-.97-5.359-3.311-8.086-3.961-3.909-.931-6.463.865-7.5,3.712a11.476,11.476,0,0,0,1.181,9.332Z" fill="#323e66" fill-rule="evenodd"/>
          <path id="Trazado_778678" data-name="Trazado 778678" d="M78.888,90.5a8.962,8.962,0,0,1-4.277-2.414,9.4,9.4,0,0,1-2.72-6.437c.04-4.475,2.295-4.926,5.677-6.046,2.556-.846,4.731-2.736,7.055-3.636a5.867,5.867,0,0,1,2.893,3.387,11.476,11.476,0,0,1-1.181,9.332A11.9,11.9,0,0,1,78.888,90.5Zm-31.41,0a8.962,8.962,0,0,0,4.277-2.414,9.4,9.4,0,0,0,2.72-6.437c-.04-4.475-2.295-4.926-5.677-6.046-2.556-.846-4.731-2.736-7.055-3.636a5.867,5.867,0,0,0-2.893,3.387,11.476,11.476,0,0,0,1.181,9.332A11.9,11.9,0,0,0,47.478,90.5Z" fill="#495586" fill-rule="evenodd"/>
        </g>
        <ellipse id="Elipse_4728" data-name="Elipse 4728" cx="61.779" cy="23.943" rx="61.779" ry="23.943" transform="translate(4.222 30.123)" fill="#ea806f"/>
        <path id="Trazado_778679" data-name="Trazado 778679" d="M66,30.123c14.2,0,27.271,1.857,37.7,4.977,9.345,4.2,15,9.661,15,15.638,0,13.223-27.659,23.943-61.779,23.943-14.2,0-27.272-1.857-37.7-4.977-9.345-4.2-15-9.661-15-15.638C4.222,40.843,31.882,30.123,66,30.123Z" fill="#f29988" fill-rule="evenodd"/>
        <path id="Trazado_778680" data-name="Trazado 778680" d="M101.12,52.2c0-15.442-3.9-37.135-12.631-45.546-5.234-5.045-9.909-.7-16.6,2.133A15.064,15.064,0,0,1,66,9.973a15.064,15.064,0,0,1-5.883-1.188c-6.7-2.833-11.37-7.178-16.6-2.133-8.726,8.411-12.631,30.1-12.631,45.546A117.237,117.237,0,0,0,66,57.58,117.237,117.237,0,0,0,101.12,52.2Z" fill="#fdb0a0" fill-rule="evenodd"/>
        <path id="Trazado_778681" data-name="Trazado 778681" d="M73.69,7.97q-.894.427-1.806.815a14.949,14.949,0,0,1-1.5.542c-1.716.828-3.545,1.815-5.556,2.666a15.064,15.064,0,0,1-5.883,1.188,15.064,15.064,0,0,1-5.883-1.188c-4.036-1.708-7.338-3.964-10.471-4.383-8.08,9-11.71,29.7-11.71,44.587a117.237,117.237,0,0,0,63.174,1.977c-.2-15.343-4.125-36.125-12.623-44.314a7.117,7.117,0,0,0-7.745-1.89Z" fill="#ffcec0" fill-rule="evenodd"/>
        <path id="Trazado_778682" data-name="Trazado 778682" d="M187.847,140.8a3.427,3.427,0,1,0-1,2.424A3.4,3.4,0,0,0,187.847,140.8Zm-18.274,41.26a3.426,3.426,0,1,0-1,2.422,3.407,3.407,0,0,0,1-2.422Zm-75.882,2.422a3.423,3.423,0,1,0-2.423,1A3.4,3.4,0,0,0,93.692,184.483ZM51.98,129.913v-5.806a2.746,2.746,0,0,1,5.491,0v8.124a34.333,34.333,0,0,0,5.786.934v-9.058a2.746,2.746,0,0,1,5.491,0v9.058a34.333,34.333,0,0,0,5.786-.934v-8.124a2.746,2.746,0,0,1,5.491,0v5.806c3.677-2.386,5.586-6.107,5.826-11.38a2.743,2.743,0,0,1,2.439-2.6c6.4-.711,12.9-8.769,12.055-19.219a49.37,49.37,0,0,1,.56-20.175q-2.177.564-4.458,1.049a15.1,15.1,0,0,1-2.046,8.4,14.662,14.662,0,0,1-10.988,7.453,13.8,13.8,0,0,1-1.673.1,12.573,12.573,0,0,1-9.106-3.628,12.224,12.224,0,0,1-3.477-8.358c0-.329.018-.643.042-.949-1.062.019-2.128.032-3.2.032s-2.136-.013-3.2-.032c.024.306.039.62.042.949a12.225,12.225,0,0,1-3.477,8.358,12.591,12.591,0,0,1-9.106,3.628,13.808,13.808,0,0,1-1.673-.1A14.662,14.662,0,0,1,37.6,85.984a15.105,15.105,0,0,1-2.046-8.4q-2.24-.477-4.458-1.049a49.384,49.384,0,0,1,.56,20.175c-.843,10.45,5.657,18.508,12.055,19.219a2.743,2.743,0,0,1,2.439,2.6c.24,5.273,2.149,8.994,5.826,11.38Zm5.274-49.518a6.911,6.911,0,0,1,.1,1.2,6.709,6.709,0,0,1-1.974,4.538,7.46,7.46,0,0,1-6.144,1.851,9.056,9.056,0,0,1-6.875-4.738,9.907,9.907,0,0,1-1.343-4.617,146.1,146.1,0,0,0,16.232,1.766Zm17.4,1.2a6.916,6.916,0,0,1,.1-1.2,146.007,146.007,0,0,0,16.231-1.766,9.9,9.9,0,0,1-1.343,4.617,9.054,9.054,0,0,1-6.875,4.738,7.443,7.443,0,0,1-6.144-1.851A6.715,6.715,0,0,1,74.65,81.6ZM23.374,68.321C34.718,72.715,49.857,75.138,66,75.138s31.286-2.424,42.629-6.818C119,64.3,124.948,59.071,124.948,53.973c0-6.022-8.542-12.238-22.094-16.3a113.208,113.208,0,0,1,.964,14.441,2.746,2.746,0,0,1-1.924,2.621A119.73,119.73,0,0,1,66,60.229a119.737,119.737,0,0,1-35.891-5.5,2.746,2.746,0,0,1-1.923-2.621,113.265,113.265,0,0,1,.963-14.441C15.6,41.734,7.059,47.951,7.059,53.973c0,5.1,5.946,10.329,16.315,14.348ZM33.7,50.081C34.027,34.47,38.049,15.743,45.455,8.6c2.532-2.439,4.4-1.815,9.528.754,1.284.643,2.611,1.31,4.077,1.928A17.74,17.74,0,0,0,66,12.692a17.754,17.754,0,0,0,6.945-1.4c1.465-.618,2.792-1.285,4.076-1.928,5.126-2.569,7-3.193,9.528-.754C93.958,15.743,97.981,34.47,98.3,50.081A114.2,114.2,0,0,1,66,54.738,114.2,114.2,0,0,1,33.7,50.081Zm92.584,38.24a3.422,3.422,0,1,0,0-4.844A3.427,3.427,0,0,0,126.287,88.322Zm38.46,9.822a1.981,1.981,0,1,0,1.4-.581A1.981,1.981,0,0,0,164.747,98.144Zm16.288,34.412a8.9,8.9,0,0,0-5.095,5.5H160.692a93.92,93.92,0,0,0-4.788-28,58.778,58.778,0,0,0,6.544-4.029,7.454,7.454,0,0,0,6.569.412,52.364,52.364,0,0,1,12.017,26.116ZM144.16,191.479a52.617,52.617,0,0,0,13.608-6.39,8.818,8.818,0,0,1,0-6.056q-1.9-1.25-3.9-2.331-.939,2.145-2.039,4.214A43.123,43.123,0,0,1,144.16,191.479Zm-43.973-9.419a8.92,8.92,0,0,1-.536,3.029,52.6,52.6,0,0,0,13.608,6.39,43.123,43.123,0,0,1-7.671-10.563q-1.1-2.067-2.038-4.214-2,1.08-3.9,2.331a8.885,8.885,0,0,1,.536,3.027Zm13.072-91.939a52.706,52.706,0,0,0-7.882,3.12q.159,1.314.4,2.617c.016.085.027.172.036.257a28.493,28.493,0,0,1,.06,3.989,42.33,42.33,0,0,1,7.39-9.983Zm41.94,47.934a89.586,89.586,0,0,0-4.3-25.654,57.924,57.924,0,0,1-19.443,4.277v15.641a8.914,8.914,0,0,1,5.736,5.736ZM150.876,169.2a88.3,88.3,0,0,0,4.323-25.654H137.191a8.907,8.907,0,0,1-5.736,5.74v15.638A58.108,58.108,0,0,1,150.876,169.2Zm-3.89,9.13c-4.344,8.147-9.778,13.129-15.531,14.337v-22.24a52.686,52.686,0,0,1,17.457,3.9q-.882,2.038-1.925,4Zm-38.48-4a52.71,52.71,0,0,1,17.457-3.9v22.24c-5.753-1.208-11.187-6.19-15.531-14.337q-1.043-1.961-1.926-4Zm-6.287-30.784a88.241,88.241,0,0,0,4.323,25.654,58.1,58.1,0,0,1,19.421-4.277V149.285a8.962,8.962,0,0,1-3.559-2.178,8.863,8.863,0,0,1-2.177-3.562Zm23.744-26.872a58.69,58.69,0,0,1-19.434-4.3,89.517,89.517,0,0,0-4.309,25.677h18.008a8.91,8.91,0,0,1,5.735-5.736V116.674Zm6.171,24.126a3.426,3.426,0,1,1-1-2.42,3.4,3.4,0,0,1,1,2.42Zm2.88-48.6a8.843,8.843,0,0,1-3.559,2.169v16.8a52.439,52.439,0,0,0,17.485-3.919c-3.292-7.636-7.7-13.462-12.784-16.447a8.919,8.919,0,0,1-1.142,1.4Zm23.993,5.15a7.525,7.525,0,0,0,0,4.381,52.963,52.963,0,0,1-5.112,3.159,46.681,46.681,0,0,0-9.719-14.757,52.941,52.941,0,0,1,14.83,7.217Zm-37.744-6.547a8.943,8.943,0,0,0,1.142,1.4,8.851,8.851,0,0,0,3.559,2.169v16.8a53.048,53.048,0,0,1-17.479-3.931C111.775,99.611,116.177,93.789,121.262,90.807ZM75.813,138.055c.009-.168.021-.342.031-.511,9.1-2.35,14.241-7.9,15.315-16.6a18.551,18.551,0,0,0,8.786-5.778,97.447,97.447,0,0,0-3.221,22.888H75.813ZM91.27,173.14a8.858,8.858,0,0,1,5,1.539,57.992,57.992,0,0,1,5.269-3.138,93.584,93.584,0,0,1-4.815-27.995H75.816a52.888,52.888,0,0,0,11.629,30.466,8.864,8.864,0,0,1,3.825-.872Zm78.7.868a8.876,8.876,0,0,0-8.823.672,57.9,57.9,0,0,0-5.27-3.138,93.6,93.6,0,0,0,4.816-27.995H175.94a8.924,8.924,0,0,0,5.091,5.508,52.45,52.45,0,0,1-11.063,24.955ZM190.728,134.5a8.9,8.9,0,0,1-4.2,14.961,57.977,57.977,0,0,1-12.552,28.335,8.915,8.915,0,0,1-12.832,11.646,58.486,58.486,0,0,1-64.876,0,8.918,8.918,0,0,1-12.829-11.654A58.4,58.4,0,0,1,70.251,140.8c0-.752.018-1.514.048-2.271q-2.1.223-4.219.278h-.153c-15.242-.424-23.668-6.428-25.078-17.863-8.287-2.318-15.746-12.117-14.65-24.83.007-.085.019-.172.035-.257a43.99,43.99,0,0,0-.565-18.438q-.016-.062-.027-.125-.237-1.233-.394-2.479-1.948-.637-3.859-1.378C8.607,68.485,1.568,61.575,1.568,53.973c0-9.328,10.369-17.4,28.529-22.287,2.066-11.1,5.848-21.542,11.547-27.035,5.543-5.341,10.992-2.613,15.8-.2C58.649,5.056,59.9,5.68,61.2,6.228A12.249,12.249,0,0,0,66,7.2a12.24,12.24,0,0,0,4.8-.974c1.3-.548,2.549-1.172,3.756-1.781,4.807-2.409,10.257-5.137,15.8.2,5.7,5.492,9.482,15.938,11.547,27.035,18.159,4.883,28.529,12.958,28.529,22.287,0,7.6-7.04,14.513-19.822,19.466q-1.91.741-3.858,1.378-.157,1.245-.394,2.479-.012.063-.027.125a44.833,44.833,0,0,0-1.272,9.9,57.827,57.827,0,0,1,15.242-4.373,8.9,8.9,0,0,1,16.8-.006A58.3,58.3,0,0,1,162.449,93.06a7.462,7.462,0,0,1,10.511,9.54,57.83,57.83,0,0,1,13.572,29.551,8.839,8.839,0,0,1,4.2,2.346ZM42.42,162.068a2.744,2.744,0,0,0-2.746,2.745v14.764a2.746,2.746,0,1,0,5.491,0V164.814a2.744,2.744,0,0,0-2.745-2.745Zm0,22.268a2.746,2.746,0,0,0-2.746,2.745v.322a2.746,2.746,0,1,0,5.491,0v-.322A2.746,2.746,0,0,0,42.42,184.336ZM65.5,191.8l-21.946-38.01a1.312,1.312,0,0,0-2.275,0L19.336,191.8a1.315,1.315,0,0,0,1.138,1.972H64.366A1.315,1.315,0,0,0,65.5,191.8Zm4.755-2.747L48.313,151.042a6.8,6.8,0,0,0-11.787,0L14.581,189.05a6.808,6.808,0,0,0,5.894,10.211H64.365a6.808,6.808,0,0,0,5.894-10.211ZM61.022,106.8a.192.192,0,0,1-.01-.242l4.769-9.442a.253.253,0,0,1,.444,0v.006l4.769,9.436a.249.249,0,0,1-.223.361H61.235a.2.2,0,0,1-.213-.119Zm-4.677,2.881a5.7,5.7,0,0,1-.235-5.6l4.769-9.442a5.743,5.743,0,0,1,10.248,0h0l4.769,9.442a5.736,5.736,0,0,1-5.125,8.326H61.235a5.7,5.7,0,0,1-4.89-2.728ZM164.119,89.146a2.746,2.746,0,0,1-.561-5.464,16.272,16.272,0,0,1,18.452,18.451,2.746,2.746,0,1,1-5.462-.561,10.8,10.8,0,0,0-12.428-12.425ZM190.7,74.992c6.421,6.421,9.393,15.435,8.368,25.386a2.745,2.745,0,1,1-5.462-.56c.851-8.277-1.56-15.713-6.787-20.943s-12.664-7.636-20.944-6.785a2.746,2.746,0,0,1-.561-5.464c9.952-1.023,18.969,1.949,25.387,8.366Zm-28.713,3.173a2.746,2.746,0,0,1,2.45-3.012c7.684-.788,14.652,1.514,19.622,6.479s7.27,11.942,6.481,19.625a2.745,2.745,0,0,1-2.728,2.463c-.094,0-.188,0-.284-.011a2.748,2.748,0,0,1-2.45-3.012c.618-6.01-1.123-11.4-4.9-15.182S171,80,165,80.617a2.747,2.747,0,0,1-3.012-2.452Z" fill-rule="evenodd"/>
      </g>
    </g>
    <path id="Trazado_780631" data-name="Trazado 780631" d="M35.425,4.2l2.856,8.9,2.848-8.9H45.19V17H42.1V14.012l.3-6.117L39.3,17H37.262l-3.1-9.114.3,6.126V17H31.374V4.2ZM51.615,17.176a4.889,4.889,0,0,1-3.542-1.305,4.507,4.507,0,0,1-1.354-3.4v-.246a5.84,5.84,0,0,1,.541-2.575,3.955,3.955,0,0,1,1.578-1.727A4.763,4.763,0,0,1,51.3,7.314a4.117,4.117,0,0,1,3.164,1.244,4.887,4.887,0,0,1,1.16,3.467v1.151H49.734a2.135,2.135,0,0,0,.694,1.257,2.066,2.066,0,0,0,1.389.457,2.662,2.662,0,0,0,2.2-.984l1.354,1.6A3.784,3.784,0,0,1,53.8,16.723,5.3,5.3,0,0,1,51.615,17.176ZM51.281,9.6q-1.3,0-1.547,1.723h2.988v-.229a1.467,1.467,0,0,0-.36-1.1A1.434,1.434,0,0,0,51.281,9.6ZM60,7.49v9.835a3.452,3.452,0,0,1-.967,2.6,3.714,3.714,0,0,1-2.672.914,6.308,6.308,0,0,1-1.4-.149V18.45a5.667,5.667,0,0,0,.835.079,1.084,1.084,0,0,0,1.23-1.222V7.49Zm-3.19-2.452A1.322,1.322,0,0,1,57.266,4a1.943,1.943,0,0,1,2.373,0A1.322,1.322,0,0,1,60.1,5.038a1.322,1.322,0,0,1-.457,1.037,1.943,1.943,0,0,1-2.373,0A1.322,1.322,0,0,1,56.809,5.038ZM61.3,12.157a5.613,5.613,0,0,1,.554-2.536,3.96,3.96,0,0,1,1.591-1.709,4.791,4.791,0,0,1,2.435-.6,4.373,4.373,0,0,1,3.366,1.323,5.076,5.076,0,0,1,1.23,3.6v.105a4.925,4.925,0,0,1-1.235,3.529A4.384,4.384,0,0,1,65.9,17.176a4.434,4.434,0,0,1-3.261-1.217,4.761,4.761,0,0,1-1.327-3.3Zm2.962.185a3.538,3.538,0,0,0,.413,1.934,1.376,1.376,0,0,0,1.222.615q1.582,0,1.617-2.435v-.3q0-2.558-1.635-2.558-1.485,0-1.608,2.206Zm13.271-2.171-.976-.07a1.752,1.752,0,0,0-1.793.879V17H71.8V7.49h2.777l.1,1.222a2.294,2.294,0,0,1,2.083-1.4,2.888,2.888,0,0,1,.826.105ZM83.695,17a3.344,3.344,0,0,1-.281-.853,2.754,2.754,0,0,1-2.285,1.028,3.374,3.374,0,0,1-2.285-.813,2.588,2.588,0,0,1-.94-2.043,2.66,2.66,0,0,1,1.143-2.338,5.821,5.821,0,0,1,3.322-.791h.914v-.5q0-1.316-1.134-1.316a.927.927,0,0,0-1.055,1.042H78.131A2.655,2.655,0,0,1,79.3,8.175a4.931,4.931,0,0,1,2.993-.86,4.323,4.323,0,0,1,2.874.888,3.086,3.086,0,0,1,1.081,2.435v4.21a4.311,4.311,0,0,0,.4,2V17ZM81.84,15.066a1.652,1.652,0,0,0,.918-.237,1.487,1.487,0,0,0,.523-.536V12.772H82.42q-1.547,0-1.547,1.389a.848.848,0,0,0,.272.655A.986.986,0,0,0,81.84,15.066ZM101.2,12.315a5.735,5.735,0,0,1-1,3.538,3.2,3.2,0,0,1-2.694,1.323,2.742,2.742,0,0,1-2.153-.958v4.438H92.4V7.49h2.769l.088.879a2.742,2.742,0,0,1,2.241-1.055,3.224,3.224,0,0,1,2.733,1.3,5.805,5.805,0,0,1,.976,3.564Zm-2.962-.185q0-2.531-1.477-2.531a1.394,1.394,0,0,0-1.406.756V14.1a1.439,1.439,0,0,0,1.424.791q1.415,0,1.459-2.443ZM105.632,17h-2.971V3.5h2.971Zm7.181,0a3.344,3.344,0,0,1-.281-.853,2.754,2.754,0,0,1-2.285,1.028,3.374,3.374,0,0,1-2.285-.813,2.588,2.588,0,0,1-.94-2.043,2.66,2.66,0,0,1,1.143-2.338,5.821,5.821,0,0,1,3.322-.791h.914v-.5q0-1.316-1.134-1.316a.927.927,0,0,0-1.055,1.042H107.25a2.655,2.655,0,0,1,1.173-2.239,4.931,4.931,0,0,1,2.993-.86,4.323,4.323,0,0,1,2.874.888,3.086,3.086,0,0,1,1.081,2.435v4.21a4.311,4.311,0,0,0,.4,2V17Zm-1.854-1.934a1.652,1.652,0,0,0,.918-.237,1.487,1.487,0,0,0,.523-.536V12.772h-.861q-1.547,0-1.547,1.389a.848.848,0,0,0,.272.655A.986.986,0,0,0,110.958,15.066ZM119.73,7.49l.1,1.116a3.225,3.225,0,0,1,2.716-1.292,2.713,2.713,0,0,1,2.219.888,4.226,4.226,0,0,1,.76,2.672V17h-2.971V11a1.6,1.6,0,0,0-.29-1.059,1.342,1.342,0,0,0-1.055-.338,1.413,1.413,0,0,0-1.292.686V17h-2.962V7.49ZM130.286,17h-2.971V7.49h2.971ZM127.139,5.038A1.322,1.322,0,0,1,127.6,4a1.943,1.943,0,0,1,2.373,0,1.322,1.322,0,0,1,.457,1.037,1.322,1.322,0,0,1-.457,1.037,1.943,1.943,0,0,1-2.373,0A1.322,1.322,0,0,1,127.139,5.038ZM132.8,17V9.547h-1.38V7.49h1.38V7.174a3.631,3.631,0,0,1,1.248-2.909,4.987,4.987,0,0,1,3.243-.949,11.509,11.509,0,0,1,3.094.51l-.4,2.338-.492-.132a7.832,7.832,0,0,0-2.021-.255q-1.7,0-1.7,1.547V7.49h1.863V9.547H135.77V17Zm8.947,0h-2.979V7.49h2.979Zm5.827-2.109a1.317,1.317,0,0,0,.967-.338,1.241,1.241,0,0,0,.334-.945h2.777a3.288,3.288,0,0,1-1.121,2.566,4.168,4.168,0,0,1-2.887,1,4.22,4.22,0,0,1-3.27-1.3,5.125,5.125,0,0,1-1.2-3.6v-.123a5.792,5.792,0,0,1,.532-2.544,3.872,3.872,0,0,1,1.534-1.7,4.573,4.573,0,0,1,2.373-.593,4.116,4.116,0,0,1,2.944,1.028,3.647,3.647,0,0,1,1.09,2.786h-2.777a1.626,1.626,0,0,0-.36-1.134,1.244,1.244,0,0,0-.967-.4q-1.151,0-1.345,1.468a10.357,10.357,0,0,0-.062,1.283,4.068,4.068,0,0,0,.343,1.986A1.187,1.187,0,0,0,147.574,14.891ZM158.261,17a3.344,3.344,0,0,1-.281-.853,2.754,2.754,0,0,1-2.285,1.028,3.374,3.374,0,0,1-2.285-.813,2.588,2.588,0,0,1-.94-2.043,2.66,2.66,0,0,1,1.143-2.338,5.821,5.821,0,0,1,3.322-.791h.914v-.5q0-1.316-1.134-1.316a.927.927,0,0,0-1.055,1.042H152.7a2.655,2.655,0,0,1,1.173-2.239,4.931,4.931,0,0,1,2.993-.86,4.323,4.323,0,0,1,2.874.888,3.086,3.086,0,0,1,1.081,2.435v4.21a4.311,4.311,0,0,0,.4,2V17Zm-1.854-1.934a1.652,1.652,0,0,0,.918-.237,1.487,1.487,0,0,0,.523-.536V12.772h-.861q-1.547,0-1.547,1.389a.848.848,0,0,0,.272.655A.986.986,0,0,0,156.407,15.066Zm10.072-.176a1.317,1.317,0,0,0,.967-.338,1.241,1.241,0,0,0,.334-.945h2.777a3.288,3.288,0,0,1-1.121,2.566,4.168,4.168,0,0,1-2.887,1,4.22,4.22,0,0,1-3.27-1.3,5.125,5.125,0,0,1-1.2-3.6v-.123a5.792,5.792,0,0,1,.532-2.544,3.872,3.872,0,0,1,1.534-1.7,4.573,4.573,0,0,1,2.373-.593,4.116,4.116,0,0,1,2.944,1.028,3.647,3.647,0,0,1,1.09,2.786H167.78a1.626,1.626,0,0,0-.36-1.134,1.244,1.244,0,0,0-.967-.4q-1.151,0-1.345,1.468a10.357,10.357,0,0,0-.062,1.283,4.068,4.068,0,0,0,.343,1.986A1.187,1.187,0,0,0,166.479,14.891ZM174.934,17h-2.971V7.49h2.971ZM171.788,5.038A1.322,1.322,0,0,1,172.245,4a1.943,1.943,0,0,1,2.373,0,1.322,1.322,0,0,1,.457,1.037,1.322,1.322,0,0,1-.457,1.037,1.943,1.943,0,0,1-2.373,0A1.322,1.322,0,0,1,171.788,5.038Zm4.6,7.119a5.613,5.613,0,0,1,.554-2.536,3.96,3.96,0,0,1,1.591-1.709,4.791,4.791,0,0,1,2.435-.6,4.373,4.373,0,0,1,3.366,1.323,5.076,5.076,0,0,1,1.23,3.6v.105a4.925,4.925,0,0,1-1.235,3.529,4.384,4.384,0,0,1-3.344,1.305,4.434,4.434,0,0,1-3.261-1.217,4.761,4.761,0,0,1-1.327-3.3Zm2.962.185a3.538,3.538,0,0,0,.413,1.934,1.376,1.376,0,0,0,1.222.615q1.582,0,1.617-2.435v-.3q0-2.558-1.635-2.558-1.485,0-1.608,2.206ZM181.368,3.5H184.5l-2.443,2.76-2.417,0Zm8.218,3.99.1,1.116A3.225,3.225,0,0,1,192.4,7.314a2.713,2.713,0,0,1,2.219.888,4.226,4.226,0,0,1,.76,2.672V17h-2.971V11a1.6,1.6,0,0,0-.29-1.059,1.342,1.342,0,0,0-1.055-.338,1.413,1.413,0,0,0-1.292.686V17h-2.962V7.49Zm11.54,4.685a5.809,5.809,0,0,1,.976-3.56,3.211,3.211,0,0,1,2.725-1.3,2.731,2.731,0,0,1,2.145,1V3.5h2.971V17h-2.663l-.149-1.02a2.8,2.8,0,0,1-2.32,1.2,3.205,3.205,0,0,1-2.689-1.3A5.993,5.993,0,0,1,201.125,12.175Zm2.962.185q0,2.531,1.477,2.531a1.458,1.458,0,0,0,1.406-.826V10.443a1.419,1.419,0,0,0-1.389-.844q-1.371,0-1.485,2.215Zm12.138,4.816a4.889,4.889,0,0,1-3.542-1.305,4.507,4.507,0,0,1-1.354-3.4v-.246a5.84,5.84,0,0,1,.541-2.575,3.955,3.955,0,0,1,1.578-1.727,4.763,4.763,0,0,1,2.461-.611,4.117,4.117,0,0,1,3.164,1.244,4.887,4.887,0,0,1,1.16,3.467v1.151h-5.889a2.135,2.135,0,0,0,.694,1.257,2.066,2.066,0,0,0,1.389.457,2.662,2.662,0,0,0,2.2-.984l1.354,1.6a3.784,3.784,0,0,1-1.569,1.217A5.3,5.3,0,0,1,216.225,17.176ZM215.891,9.6q-1.3,0-1.547,1.723h2.988v-.229a1.467,1.467,0,0,0-.36-1.1A1.434,1.434,0,0,0,215.891,9.6ZM51.47,37.315a5.735,5.735,0,0,1-1,3.538,3.2,3.2,0,0,1-2.694,1.323,2.742,2.742,0,0,1-2.153-.958v4.438H42.663V32.49h2.769l.088.879a2.742,2.742,0,0,1,2.241-1.055,3.224,3.224,0,0,1,2.733,1.3,5.805,5.805,0,0,1,.976,3.564Zm-2.962-.185q0-2.531-1.477-2.531a1.394,1.394,0,0,0-1.406.756V39.1a1.439,1.439,0,0,0,1.424.791q1.415,0,1.459-2.443Zm10.02-1.96-.976-.07a1.752,1.752,0,0,0-1.793.879V42H52.8V32.49h2.777l.1,1.222a2.294,2.294,0,0,1,2.083-1.4,2.888,2.888,0,0,1,.826.105Zm6.732,5.8a3.054,3.054,0,0,1-2.54,1.2,3,3,0,0,1-2.369-.91,3.826,3.826,0,0,1-.8-2.615V32.49h2.962v6.179A1.065,1.065,0,0,0,63.7,39.891a1.548,1.548,0,0,0,1.45-.729V32.49h2.979V42H65.348Zm9.088,1.2a4.889,4.889,0,0,1-3.542-1.305,4.507,4.507,0,0,1-1.354-3.4v-.246a5.84,5.84,0,0,1,.541-2.575,3.955,3.955,0,0,1,1.578-1.727,4.763,4.763,0,0,1,2.461-.611A4.117,4.117,0,0,1,77.2,33.558a4.887,4.887,0,0,1,1.16,3.467v1.151H72.467a2.135,2.135,0,0,0,.694,1.257,2.066,2.066,0,0,0,1.389.457,2.662,2.662,0,0,0,2.2-.984l1.354,1.6a3.784,3.784,0,0,1-1.569,1.217A5.3,5.3,0,0,1,74.348,42.176ZM74.014,34.6q-1.3,0-1.547,1.723h2.988v-.229a1.467,1.467,0,0,0-.36-1.1A1.434,1.434,0,0,0,74.014,34.6Zm14.361,2.725a5.8,5.8,0,0,1-.967,3.595,3.238,3.238,0,0,1-2.725,1.257,2.81,2.81,0,0,1-2.338-1.151L82.223,42H79.568V28.5H82.53v4.755a2.711,2.711,0,0,1,2.136-.94,3.239,3.239,0,0,1,2.742,1.274,5.826,5.826,0,0,1,.967,3.586ZM85.4,37.135a3.866,3.866,0,0,0-.365-1.952,1.229,1.229,0,0,0-1.121-.584,1.418,1.418,0,0,0-1.389.763v3.773a1.426,1.426,0,0,0,1.406.755,1.258,1.258,0,0,0,1.327-1.018A7.309,7.309,0,0,0,85.4,37.135ZM95.037,42a3.344,3.344,0,0,1-.281-.853,2.754,2.754,0,0,1-2.285,1.028,3.374,3.374,0,0,1-2.285-.813,2.588,2.588,0,0,1-.94-2.043,2.66,2.66,0,0,1,1.143-2.338,5.821,5.821,0,0,1,3.322-.791h.914v-.5q0-1.316-1.134-1.316a.927.927,0,0,0-1.055,1.042H89.474a2.655,2.655,0,0,1,1.173-2.239,4.931,4.931,0,0,1,2.993-.86,4.323,4.323,0,0,1,2.874.888,3.086,3.086,0,0,1,1.081,2.435v4.21a4.311,4.311,0,0,0,.4,2V42Zm-1.854-1.934a1.652,1.652,0,0,0,.918-.237,1.487,1.487,0,0,0,.523-.536V37.772h-.861q-1.547,0-1.547,1.389a.848.848,0,0,0,.272.655A.986.986,0,0,0,93.183,40.066Zm11.03-.738a.684.684,0,0,0-.4-.606,6.016,6.016,0,0,0-1.5-.475,6.853,6.853,0,0,1-1.828-.646,3.062,3.062,0,0,1-1.1-.971,2.319,2.319,0,0,1-.378-1.31,2.628,2.628,0,0,1,1.081-2.158,4.453,4.453,0,0,1,2.83-.848,4.934,4.934,0,0,1,3.023.853,2.666,2.666,0,0,1,1.143,2.241h-2.971q0-1.143-1.2-1.143a1.194,1.194,0,0,0-.782.259.8.8,0,0,0-.316.646.737.737,0,0,0,.387.642,3.654,3.654,0,0,0,1.235.4,10.671,10.671,0,0,1,1.49.378,2.706,2.706,0,0,1,2.145,2.646,2.491,2.491,0,0,1-1.156,2.118,5.068,5.068,0,0,1-2.993.817,5.172,5.172,0,0,1-2.18-.439,3.645,3.645,0,0,1-1.494-1.2,2.707,2.707,0,0,1-.536-1.591h2.769a1.145,1.145,0,0,0,.439.962,1.808,1.808,0,0,0,1.081.3,1.422,1.422,0,0,0,.91-.246A.787.787,0,0,0,104.213,39.328Zm8.35-2.153a5.809,5.809,0,0,1,.976-3.56,3.211,3.211,0,0,1,2.725-1.3,2.731,2.731,0,0,1,2.145,1V28.5h2.971V42h-2.663l-.149-1.02a2.8,2.8,0,0,1-2.32,1.2,3.205,3.205,0,0,1-2.689-1.3A5.993,5.993,0,0,1,112.563,37.175Zm2.962.185q0,2.531,1.477,2.531a1.458,1.458,0,0,0,1.406-.826V35.443a1.419,1.419,0,0,0-1.389-.844q-1.371,0-1.485,2.215Zm12.138,4.816a4.889,4.889,0,0,1-3.542-1.305,4.507,4.507,0,0,1-1.354-3.4v-.246a5.84,5.84,0,0,1,.541-2.575,3.955,3.955,0,0,1,1.578-1.727,4.763,4.763,0,0,1,2.461-.611,4.117,4.117,0,0,1,3.164,1.244,4.887,4.887,0,0,1,1.16,3.467v1.151h-5.889a2.135,2.135,0,0,0,.694,1.257,2.066,2.066,0,0,0,1.389.457,2.662,2.662,0,0,0,2.2-.984l1.354,1.6a3.784,3.784,0,0,1-1.569,1.217A5.3,5.3,0,0,1,127.662,42.176Zm-.334-7.576q-1.3,0-1.547,1.723h2.988v-.229a1.467,1.467,0,0,0-.36-1.1A1.434,1.434,0,0,0,127.328,34.6Zm13.14,7.4H137.5V32.49h2.971Zm-3.146-11.962A1.322,1.322,0,0,1,137.778,29a1.943,1.943,0,0,1,2.373,0,1.405,1.405,0,0,1,0,2.074,1.943,1.943,0,0,1-2.373,0A1.322,1.322,0,0,1,137.321,30.038Zm7.69,2.452.1,1.116a3.225,3.225,0,0,1,2.716-1.292,2.713,2.713,0,0,1,2.219.888,4.226,4.226,0,0,1,.76,2.672V42h-2.971V36a1.6,1.6,0,0,0-.29-1.059,1.342,1.342,0,0,0-1.055-.338,1.413,1.413,0,0,0-1.292.686V42h-2.962V32.49Zm10.881-2.364V32.49h1.564v2.057h-1.564V38.9a1.111,1.111,0,0,0,.193.747,1.037,1.037,0,0,0,.765.211,4.345,4.345,0,0,0,.738-.053v2.118a5.466,5.466,0,0,1-1.67.255,3.1,3.1,0,0,1-2.259-.721,2.954,2.954,0,0,1-.729-2.188v-4.72h-1.213V32.49h1.213V30.126Zm8.481,5.045-.976-.07a1.752,1.752,0,0,0-1.793.879V42h-2.962V32.49h2.777l.1,1.222a2.294,2.294,0,0,1,2.083-1.4,2.888,2.888,0,0,1,.826.105Zm6.732,5.8a3.054,3.054,0,0,1-2.54,1.2,3,3,0,0,1-2.369-.91,3.826,3.826,0,0,1-.8-2.615V32.49h2.962v6.179a1.065,1.065,0,0,0,1.187,1.222,1.548,1.548,0,0,0,1.45-.729V32.49h2.979V42h-2.777Zm9.466-1.644a.684.684,0,0,0-.4-.606,6.016,6.016,0,0,0-1.5-.475,6.853,6.853,0,0,1-1.828-.646,3.062,3.062,0,0,1-1.1-.971,2.319,2.319,0,0,1-.378-1.31,2.628,2.628,0,0,1,1.081-2.158,4.453,4.453,0,0,1,2.83-.848,4.934,4.934,0,0,1,3.023.853,2.666,2.666,0,0,1,1.143,2.241h-2.971q0-1.143-1.2-1.143a1.194,1.194,0,0,0-.782.259.8.8,0,0,0-.316.646.737.737,0,0,0,.387.642,3.654,3.654,0,0,0,1.235.4,10.671,10.671,0,0,1,1.49.378,2.706,2.706,0,0,1,2.145,2.646,2.491,2.491,0,0,1-1.156,2.118,5.068,5.068,0,0,1-2.993.817,5.172,5.172,0,0,1-2.18-.439,3.645,3.645,0,0,1-1.494-1.2,2.707,2.707,0,0,1-.536-1.591h2.769a1.145,1.145,0,0,0,.439.962,1.808,1.808,0,0,0,1.081.3,1.422,1.422,0,0,0,.91-.246A.787.787,0,0,0,180.572,39.328ZM187.938,42h-2.971V32.49h2.971Zm-3.146-11.962A1.322,1.322,0,0,1,185.248,29a1.943,1.943,0,0,1,2.373,0,1.405,1.405,0,0,1,0,2.074,1.943,1.943,0,0,1-2.373,0A1.322,1.322,0,0,1,184.791,30.038Zm4.6,7.119a5.613,5.613,0,0,1,.554-2.536,3.96,3.96,0,0,1,1.591-1.709,4.791,4.791,0,0,1,2.435-.6,4.373,4.373,0,0,1,3.366,1.323,5.076,5.076,0,0,1,1.23,3.6v.105a4.925,4.925,0,0,1-1.235,3.529,4.384,4.384,0,0,1-3.344,1.305,4.434,4.434,0,0,1-3.261-1.217,4.761,4.761,0,0,1-1.327-3.3Zm2.962.185a3.538,3.538,0,0,0,.413,1.934,1.376,1.376,0,0,0,1.222.615q1.582,0,1.617-2.435v-.3q0-2.558-1.635-2.558-1.485,0-1.608,2.206Zm2.021-8.842H197.5l-2.443,2.76-2.417,0Zm8.218,3.99.1,1.116a3.225,3.225,0,0,1,2.716-1.292,2.713,2.713,0,0,1,2.219.888,4.226,4.226,0,0,1,.76,2.672V42H205.41V36a1.6,1.6,0,0,0-.29-1.059,1.342,1.342,0,0,0-1.055-.338,1.413,1.413,0,0,0-1.292.686V42h-2.962V32.49Z" transform="translate(1147 2995)" fill="#fff"/>
  </g>
</svg>
