<svg xmlns="http://www.w3.org/2000/svg" xmlns:xlink="http://www.w3.org/1999/xlink" width="295" height="382" viewBox="0 0 295 382">
  <defs>
    <clipPath id="clip-path">
      <rect id="Rectángulo_374154" data-name="Rectángulo 374154" width="218" height="218" transform="translate(534 2763)" fill="#fff"/>
    </clipPath>
  </defs>
  <g id="Grupo_1066832" data-name="Grupo 1066832" transform="translate(-495 -2681)">
    <path id="Trazado_780623" data-name="Trazado 780623" d="M20,0H275a20,20,0,0,1,20,20V362a20,20,0,0,1-20,20H20A20,20,0,0,1,0,362V20A20,20,0,0,1,20,0Z" transform="translate(495 2681)" fill="#500c75"/>
    <path id="Trazado_780624" data-name="Trazado 780624" d="M88,0A88,88,0,1,1,0,88,88,88,0,0,1,88,0Z" transform="translate(600 2711)" fill="#ffb206"/>
    <g id="Enmascarar_grupo_71" data-name="Enmascarar grupo 71" clip-path="url(#clip-path)">
      <g id="reconocimiento-ocular" transform="translate(530.484 2759.484)">
        <g id="Grupo_1064855" data-name="Grupo 1064855">
          <g id="Grupo_1064844" data-name="Grupo 1064844">
            <circle id="Elipse_4715" data-name="Elipse 4715" cx="91.419" cy="91.419" r="91.419" transform="translate(21.097 14.065)" fill="#ffeaa7"/>
          </g>
          <g id="Grupo_1064845" data-name="Grupo 1064845">
            <path id="Trazado_778607" data-name="Trazado 778607" d="M133.613,63.29V7.032H218V63.29Z" fill="#f0d0b4"/>
          </g>
          <g id="Grupo_1064846" data-name="Grupo 1064846">
            <path id="Trazado_778608" data-name="Trazado 778608" d="M63.29,7.032H21.1A14.061,14.061,0,0,0,7.032,21.1V49.226A14.061,14.061,0,0,0,21.1,63.29H63.29A14.061,14.061,0,0,0,77.355,49.226V21.062A14.053,14.053,0,0,0,63.29,7.032Z" fill="#e6e9ed"/>
          </g>
          <g id="Grupo_1064847" data-name="Grupo 1064847">
            <path id="Trazado_778609" data-name="Trazado 778609" d="M84.387,192.508v18.46A7.053,7.053,0,0,1,77.355,218H14.065a7.053,7.053,0,0,1-7.032-7.032V140.645a7.053,7.053,0,0,1,7.032-7.032h63.29a7.053,7.053,0,0,1,7.032,7.032Z" fill="#e6e9ed"/>
          </g>
          <g id="Grupo_1064848" data-name="Grupo 1064848">
            <path id="Trazado_778610" data-name="Trazado 778610" d="M43.037,170.04l-.035.035-8.228,3.305a10.582,10.582,0,0,0-6.645,9.81v3.375a19.932,19.932,0,0,0,.352,3.551l-4.852-9.423a22.619,22.619,0,0,1,20.112-33.016h3.938a22.619,22.619,0,0,1,20.112,33.016l-4.852,9.423a19.932,19.932,0,0,0,.352-3.551v-4.571a7.024,7.024,0,0,0-5.872-6.927l-6.856-1.16A13.414,13.414,0,0,1,43.037,170.04Z" fill="#b27946"/>
          </g>
          <g id="Grupo_1064849" data-name="Grupo 1064849">
            <path id="Trazado_778611" data-name="Trazado 778611" d="M63.29,181.995v4.571a19.932,19.932,0,0,1-.352,3.551,17.587,17.587,0,0,1-34.458,0,19.932,19.932,0,0,1-.352-3.551V183.19a10.582,10.582,0,0,1,6.645-9.81L43,170.075l.035-.035a13.414,13.414,0,0,0,7.525,3.868l6.856,1.16a7.024,7.024,0,0,1,5.872,6.927Z" fill="#f0d0b4"/>
          </g>
          <g id="Grupo_1064850" data-name="Grupo 1064850">
            <path id="Trazado_778612" data-name="Trazado 778612" d="M110.934,77.39a28.139,28.139,0,0,0,0,56.188,56.978,56.978,0,0,1-26.09-7.1A57.615,57.615,0,0,1,64.1,106.785l-.809-1.3.809-1.3A57.073,57.073,0,0,1,110.934,77.39Z" fill="#ccd1d9"/>
          </g>
          <g id="Grupo_1064851" data-name="Grupo 1064851">
            <path id="Trazado_778613" data-name="Trazado 778613" d="M160.933,104.183l.809,1.3-.809,1.3A57.073,57.073,0,0,1,114.1,133.578a28.139,28.139,0,0,0,0-56.188,56.979,56.979,0,0,1,26.09,7.1,57.615,57.615,0,0,1,20.745,19.69Z" fill="#ccd1d9"/>
          </g>
          <g id="Grupo_1064852" data-name="Grupo 1064852">
            <path id="Trazado_778614" data-name="Trazado 778614" d="M112.516,77.355l1.582.035a28.139,28.139,0,0,1,0,56.188c-.527.035-1.055.035-1.582.035l-1.582-.035a28.139,28.139,0,0,1,0-56.188c.527-.035,1.055-.035,1.582-.035Z" fill="#69d6f4"/>
          </g>
          <g id="Grupo_1064853" data-name="Grupo 1064853">
            <path id="Trazado_778615" data-name="Trazado 778615" d="M197.36,139.52a42.211,42.211,0,1,1-21.554-5.907A42.2,42.2,0,0,1,197.36,139.52Z" fill="#69d6f4"/>
          </g>
          <g id="Grupo_1064854" data-name="Grupo 1064854">
            <circle id="Elipse_4716" data-name="Elipse 4716" cx="14.065" cy="14.065" r="14.065" transform="translate(98.452 91.419)" fill="#4fc1e9"/>
          </g>
        </g>
        <g id="Grupo_1064856" data-name="Grupo 1064856">
          <path id="Trazado_778616" data-name="Trazado 778616" d="M112.516,123.065a17.581,17.581,0,1,0-17.581-17.581A17.6,17.6,0,0,0,112.516,123.065Zm0-28.129a10.548,10.548,0,1,1-10.548,10.548A10.561,10.561,0,0,1,112.516,94.935Z"/>
          <path id="Trazado_778617" data-name="Trazado 778617" d="M47.693,144.161h-3.97A26.149,26.149,0,0,0,20.5,182.308l4.691,9.075a21.129,21.129,0,0,0,20.517,16.3h.014a21.125,21.125,0,0,0,20.517-16.3l4.691-9.075a26.149,26.149,0,0,0-23.231-38.146Zm12.081,42.415a14.065,14.065,0,1,1-28.129,0v-3.4a6.992,6.992,0,0,1,4.42-6.526l6.28-2.511a17.55,17.55,0,0,0,7.626,3.242l6.867,1.146a3.5,3.5,0,0,1,2.936,3.463Zm5.788-9.508a10.486,10.486,0,0,0-7.57-5.482l-6.867-1.146a10.529,10.529,0,0,1-8.277-7.071l-.837-2.514-6.667,2.226.837,2.514a18.083,18.083,0,0,0,1.273,2.922l-4,1.6a13.979,13.979,0,0,0-7.525,7.117,19.083,19.083,0,0,1,17.8-26.044H47.7a19.094,19.094,0,0,1,17.865,25.875Z"/>
          <path id="Trazado_778618" data-name="Trazado 778618" d="M17.581,17.581H66.806v7.032H17.581Z"/>
          <path id="Trazado_778619" data-name="Trazado 778619" d="M17.581,31.645H66.806v7.032H17.581Z"/>
          <path id="Trazado_778620" data-name="Trazado 778620" d="M17.581,45.71h21.1v7.032h-21.1Z"/>
          <path id="Trazado_778621" data-name="Trazado 778621" d="M59.774,45.71h7.032v7.032H59.774Z"/>
          <path id="Trazado_778622" data-name="Trazado 778622" d="M45.71,45.71h7.032v7.032H45.71Z"/>
          <path id="Trazado_778623" data-name="Trazado 778623" d="M221.516,3.516H130.1V12.2a94.931,94.931,0,0,0-50,4.033A17.547,17.547,0,0,0,63.29,3.516H21.1A17.6,17.6,0,0,0,3.516,21.1V49.226A17.6,17.6,0,0,0,21.1,66.806h4.7a94.6,94.6,0,0,0-4.923,63.29H14.065A10.561,10.561,0,0,0,3.516,140.645v70.323a10.561,10.561,0,0,0,10.548,10.548h63.29A10.561,10.561,0,0,0,87.9,210.968V197.128a93.707,93.707,0,0,0,47.7.4,45.7,45.7,0,1,0,66.068-59.377,95.068,95.068,0,0,0-2.447-71.349h22.3ZM137.129,105.484a24.613,24.613,0,1,1-24.613-24.613A24.642,24.642,0,0,1,137.129,105.484Zm-50.71,17.865a53.456,53.456,0,0,1-18.98-17.865,53.487,53.487,0,0,1,18.98-17.865,31.537,31.537,0,0,0,0,35.731Zm52.193-35.731a53.456,53.456,0,0,1,18.98,17.865,53.425,53.425,0,0,1-18.98,17.865,31.537,31.537,0,0,0,0-35.731ZM10.548,49.226V21.1A10.561,10.561,0,0,1,21.1,10.548H63.29A10.561,10.561,0,0,1,73.839,21.1V49.226A10.561,10.561,0,0,1,63.29,59.774H21.1A10.561,10.561,0,0,1,10.548,49.226ZM63.29,66.806A17.6,17.6,0,0,0,80.871,49.226V23.477A87.109,87.109,0,0,1,109,17.669V73.951a60.192,60.192,0,0,0-47.64,28.017H24.718A88.072,88.072,0,0,1,33.6,66.806ZM80.871,210.968a3.52,3.52,0,0,1-3.516,3.516H14.065a3.52,3.52,0,0,1-3.516-3.516V140.645a3.52,3.52,0,0,1,3.516-3.516h63.29a3.52,3.52,0,0,1,3.516,3.516ZM77.355,130.1H28.168A87.612,87.612,0,0,1,24.75,109H61.363A60.192,60.192,0,0,0,109,137.017v56.23a88.092,88.092,0,0,1-21.1-3.414V140.645A10.567,10.567,0,0,0,77.355,130.1Zm137.129,45.71a38.677,38.677,0,1,1-38.677-38.677A38.723,38.723,0,0,1,214.484,175.806ZM175.806,130.1a45.583,45.583,0,0,0-43.062,60.892,88.241,88.241,0,0,1-16.712,2.271V137.017A60.2,60.2,0,0,0,163.672,109h36.659a87.261,87.261,0,0,1-4.866,25.6,45.332,45.332,0,0,0-19.659-4.508Zm24.5-28.129H163.672a60.192,60.192,0,0,0-47.64-28.017V17.683A87.908,87.908,0,0,1,130.1,19.377V66.806h61.332a88.058,88.058,0,0,1,8.882,35.161Zm14.174-42.194h-7.032V24.613h-7.032V59.774h-7.032V31.645h-7.032V59.774h-7.032v-21.1H172.29v21.1h-7.032V45.71h-7.032V59.774h-7.032V52.742h-7.032v7.032h-7.032V10.548h77.355Z"/>
          <path id="Trazado_778624" data-name="Trazado 778624" d="M172.29,144.161v33.1L190.9,195.873l4.972-4.972-16.55-16.55V144.161Z"/>
        </g>
      </g>
    </g>
    <path id="Trazado_780625" data-name="Trazado 780625" d="M51.806,11.568H46.955v3.059h5.73V17H43.87V4.2H52.7V6.585H46.955v2.7h4.852Zm5.854-1.459L59.04,7.49h3.076l-2.5,4.632L62.239,17H59.145l-1.494-2.812L56.183,17H53.072l2.637-4.878-2.5-4.632h3.111ZM71.9,12.315a5.735,5.735,0,0,1-1,3.538,3.2,3.2,0,0,1-2.694,1.323,2.742,2.742,0,0,1-2.153-.958v4.438H63.091V7.49H65.86l.088.879a2.742,2.742,0,0,1,2.241-1.055,3.224,3.224,0,0,1,2.733,1.3,5.805,5.805,0,0,1,.976,3.564Zm-2.962-.185q0-2.531-1.477-2.531a1.394,1.394,0,0,0-1.406.756V14.1a1.439,1.439,0,0,0,1.424.791q1.415,0,1.459-2.443ZM76.328,17H73.357V3.5h2.971Zm1.45-4.843a5.613,5.613,0,0,1,.554-2.536,3.96,3.96,0,0,1,1.591-1.709,4.791,4.791,0,0,1,2.435-.6,4.373,4.373,0,0,1,3.366,1.323,5.076,5.076,0,0,1,1.23,3.6v.105a4.925,4.925,0,0,1-1.235,3.529,4.384,4.384,0,0,1-3.344,1.305,4.434,4.434,0,0,1-3.261-1.217,4.761,4.761,0,0,1-1.327-3.3Zm2.962.185a3.538,3.538,0,0,0,.413,1.934,1.376,1.376,0,0,0,1.222.615q1.582,0,1.617-2.435v-.3q0-2.558-1.635-2.558-1.485,0-1.608,2.206Zm13.271-2.171-.976-.07a1.752,1.752,0,0,0-1.793.879V17H88.281V7.49h2.777l.1,1.222a2.294,2.294,0,0,1,2.083-1.4,2.888,2.888,0,0,1,.826.105ZM100.172,17a3.344,3.344,0,0,1-.281-.853,2.754,2.754,0,0,1-2.285,1.028,3.374,3.374,0,0,1-2.285-.813,2.588,2.588,0,0,1-.94-2.043,2.66,2.66,0,0,1,1.143-2.338,5.821,5.821,0,0,1,3.322-.791h.914v-.5q0-1.316-1.134-1.316a.927.927,0,0,0-1.055,1.042H94.609a2.655,2.655,0,0,1,1.173-2.239,4.931,4.931,0,0,1,2.993-.86,4.323,4.323,0,0,1,2.874.888,3.086,3.086,0,0,1,1.081,2.435v4.21a4.311,4.311,0,0,0,.4,2V17Zm-1.854-1.934a1.652,1.652,0,0,0,.918-.237,1.487,1.487,0,0,0,.523-.536V12.772H98.9q-1.547,0-1.547,1.389a.848.848,0,0,0,.272.655A.986.986,0,0,0,98.318,15.066Zm10.072-.176a1.317,1.317,0,0,0,.967-.338,1.241,1.241,0,0,0,.334-.945h2.777a3.288,3.288,0,0,1-1.121,2.566,4.168,4.168,0,0,1-2.887,1,4.22,4.22,0,0,1-3.27-1.3,5.125,5.125,0,0,1-1.2-3.6v-.123a5.792,5.792,0,0,1,.532-2.544,3.872,3.872,0,0,1,1.534-1.7,4.573,4.573,0,0,1,2.373-.593,4.116,4.116,0,0,1,2.944,1.028,3.647,3.647,0,0,1,1.09,2.786h-2.777a1.626,1.626,0,0,0-.36-1.134,1.244,1.244,0,0,0-.967-.4q-1.151,0-1.345,1.468a10.357,10.357,0,0,0-.062,1.283,4.068,4.068,0,0,0,.343,1.986A1.187,1.187,0,0,0,108.39,14.891ZM116.845,17h-2.971V7.49h2.971ZM113.7,5.038A1.322,1.322,0,0,1,114.156,4a1.943,1.943,0,0,1,2.373,0,1.322,1.322,0,0,1,.457,1.037,1.322,1.322,0,0,1-.457,1.037,1.943,1.943,0,0,1-2.373,0A1.322,1.322,0,0,1,113.7,5.038Zm4.6,7.119a5.613,5.613,0,0,1,.554-2.536,3.96,3.96,0,0,1,1.591-1.709,4.791,4.791,0,0,1,2.435-.6,4.373,4.373,0,0,1,3.366,1.323,5.076,5.076,0,0,1,1.23,3.6v.105a4.925,4.925,0,0,1-1.235,3.529,4.384,4.384,0,0,1-3.344,1.305,4.434,4.434,0,0,1-3.261-1.217,4.761,4.761,0,0,1-1.327-3.3Zm2.962.185a3.538,3.538,0,0,0,.413,1.934,1.376,1.376,0,0,0,1.222.615q1.582,0,1.617-2.435v-.3q0-2.558-1.635-2.558-1.485,0-1.608,2.206ZM123.279,3.5h3.129l-2.443,2.76-2.417,0ZM131.5,7.49l.1,1.116a3.225,3.225,0,0,1,2.716-1.292,2.713,2.713,0,0,1,2.219.888,4.226,4.226,0,0,1,.76,2.672V17h-2.971V11a1.6,1.6,0,0,0-.29-1.059,1.342,1.342,0,0,0-1.055-.338,1.413,1.413,0,0,0-1.292.686V17h-2.962V7.49Z" transform="translate(552 3007)" fill="#fff"/>
  </g>
</svg>
