<svg xmlns="http://www.w3.org/2000/svg" xmlns:xlink="http://www.w3.org/1999/xlink" width="295" height="382" viewBox="0 0 295 382">
  <defs>
    <clipPath id="clip-path">
      <rect id="Rectángulo_374153" data-name="Rectángulo 374153" width="218" height="218" transform="translate(849 2763)" fill="#fff"/>
    </clipPath>
  </defs>
  <g id="Grupo_1066833" data-name="Grupo 1066833" transform="translate(-810 -2681)">
    <path id="Trazado_780626" data-name="Trazado 780626" d="M20,0H275a20,20,0,0,1,20,20V362a20,20,0,0,1-20,20H20A20,20,0,0,1,0,362V20A20,20,0,0,1,20,0Z" transform="translate(810 2681)" fill="#500c75"/>
    <path id="Trazado_780627" data-name="Trazado 780627" d="M88,0A88,88,0,1,1,0,88,88,88,0,0,1,88,0Z" transform="translate(915 2711)" fill="#ffb206"/>
    <g id="Enmascarar_grupo_72" data-name="Enmascarar grupo 72" clip-path="url(#clip-path)">
      <g id="Filled_outline" data-name="Filled outline" transform="translate(841.733 2755.733)">
        <path id="Trazado_778625" data-name="Trazado 778625" d="M218.623,204.09l-26.057-26.057-14.533,14.533,26.057,26.057a10.277,10.277,0,0,0,14.533-14.533Z" fill="#ffb531"/>
        <path id="Trazado_778626" data-name="Trazado 778626" d="M198.751,184.217l-6.184-6.184-14.533,14.533,5.536,5.536a58.343,58.343,0,0,0,15.181-13.886Z" fill="#ffa912"/>
        <path id="Trazado_778627" data-name="Trazado 778627" d="M156.233,50.867v87.2c0,22.072-32.532,39.967-72.667,39.967-18.862,0-36.043-3.951-48.959-10.387C20.038,160.389,10.9,149.979,10.9,138.521V50.867Z" fill="#c7c7c5"/>
        <path id="Trazado_778628" data-name="Trazado 778628" d="M156.233,50.867v87.2c0,22.072-32.532,39.967-72.667,39.967-18.862,0-36.043-3.951-48.959-10.387,42.079-20.783,86.092-56.326,110.1-116.78Z" fill="#bfbfbd"/>
        <ellipse id="Elipse_4721" data-name="Elipse 4721" cx="72.667" cy="39.967" rx="72.667" ry="39.967" transform="translate(10.9 10.9)" fill="#e0e0de"/>
        <g id="Grupo_1064857" data-name="Grupo 1064857">
          <path id="Trazado_778629" data-name="Trazado 778629" d="M79.933,101.733H87.2V109H79.933Z" fill="#348fd9"/>
          <path id="Trazado_778630" data-name="Trazado 778630" d="M94.467,101.733h7.267V109H94.467Z" fill="#348fd9"/>
          <path id="Trazado_778631" data-name="Trazado 778631" d="M65.4,101.733h7.267V109H65.4Z" fill="#348fd9"/>
          <path id="Trazado_778632" data-name="Trazado 778632" d="M79.933,130.8H87.2v7.267H79.933Z" fill="#348fd9"/>
          <path id="Trazado_778633" data-name="Trazado 778633" d="M94.467,130.8h7.267v7.267H94.467Z" fill="#348fd9"/>
          <path id="Trazado_778634" data-name="Trazado 778634" d="M65.4,130.8h7.267v7.267H65.4Z" fill="#348fd9"/>
          <path id="Trazado_778635" data-name="Trazado 778635" d="M79.933,159.867H87.2v7.267H79.933Z" fill="#348fd9"/>
          <path id="Trazado_778636" data-name="Trazado 778636" d="M94.467,159.867h7.267v7.267H94.467Z" fill="#348fd9"/>
          <path id="Trazado_778637" data-name="Trazado 778637" d="M65.4,159.867h7.267v7.267H65.4Z" fill="#348fd9"/>
        </g>
        <path id="Trazado_778638" data-name="Trazado 778638" d="M83.567,123.533c32.708,0,60.17-10.219,72.667-25.232V79.933c0,19.694-33.278,36.333-72.667,36.333S10.9,99.627,10.9,79.933V98.3C23.4,113.315,50.859,123.533,83.567,123.533Z" fill="#b0b0ae"/>
        <path id="Trazado_778639" data-name="Trazado 778639" d="M83.567,152.6c32.708,0,60.17-10.219,72.667-25.232V109c0,19.694-33.278,36.333-72.667,36.333S10.9,128.694,10.9,109v18.368C23.4,142.381,50.859,152.6,83.567,152.6Z" fill="#b0b0ae"/>
        <path id="Trazado_778640" data-name="Trazado 778640" d="M203.467,145.474a58.141,58.141,0,1,1-19.288-43.246A58.143,58.143,0,0,1,203.467,145.474Z" fill="#ffb531"/>
        <path id="Trazado_778641" data-name="Trazado 778641" d="M203.467,145.474a58.14,58.14,0,0,1-109.173,27.85c42.773-5.745,77.612-33.917,89.884-71.1A57.967,57.967,0,0,1,203.467,145.474Z" fill="#ffa912"/>
        <path id="Trazado_778642" data-name="Trazado 778642" d="M188.933,145.333a43.588,43.588,0,1,1-5.836-21.8A43.588,43.588,0,0,1,188.933,145.333Z" fill="#3086cd"/>
        <path id="Trazado_778643" data-name="Trazado 778643" d="M130.8,145.333H109a36.337,36.337,0,0,1,65.4-21.8H138.067v-7.267L119.9,134.433Z" fill="#348fd9"/>
        <path id="Trazado_778644" data-name="Trazado 778644" d="M181.667,145.333a36.336,36.336,0,0,1-65.4,21.8h39.971V174.4L174.4,156.233l-10.9-10.9Z" fill="#348fd9"/>
        <path id="Trazado_778645" data-name="Trazado 778645" d="M188.933,145.333H138.067V152.6L119.9,134.433l18.167-18.167v7.267H183.1A43.342,43.342,0,0,1,188.933,145.333Z" fill="#f35244"/>
        <path id="Trazado_778646" data-name="Trazado 778646" d="M188.933,145.333h-7.267a36.179,36.179,0,0,0-7.262-21.8H183.1a43.342,43.342,0,0,1,5.836,21.8Z" fill="#ea4a3b"/>
        <path id="Trazado_778647" data-name="Trazado 778647" d="M156.233,174.4v-7.267H107.569a43.342,43.342,0,0,1-5.836-21.8h54.5v-7.267L174.4,156.233Z" fill="#4db7e5"/>
        <path id="Trazado_778648" data-name="Trazado 778648" d="M109,145.333a36.179,36.179,0,0,0,7.262,21.8h-8.693a43.342,43.342,0,0,1-5.836-21.8Z" fill="#48add9"/>
        <path id="Trazado_778649" data-name="Trazado 778649" d="M130.8,145.333h7.267V152.6Z" fill="#4db7e5"/>
        <path id="Trazado_778650" data-name="Trazado 778650" d="M163.5,145.333h-7.267v-7.267Z" fill="#4db7e5"/>
        <path id="Trazado_778651" data-name="Trazado 778651" d="M138.067,145.333H130.8l7.267,7.267Z" fill="#f35244"/>
        <path id="Trazado_778652" data-name="Trazado 778652" d="M138.067,50.867c0,4.632-8.039,12.2-22.935,17.105l2.271,6.9c16.967-5.586,27.931-15.011,27.931-24.007Z"/>
        <path id="Trazado_778653" data-name="Trazado 778653" d="M30.437,169.578c14.284,7.8,33.152,12.089,53.129,12.089V174.4c-37.42,0-69.033-16.441-69.033-35.9V127.78a52.033,52.033,0,0,0,13.414,11.242C40.568,146.643,57.67,151.393,76.1,152.4l.4-7.256C41.752,143.247,14.533,127.372,14.533,109V98.731a53.15,53.15,0,0,0,14.648,11.952c13.427,7.734,31.416,12.28,50.654,12.8l.2-7.264c-18.053-.488-34.824-4.69-47.223-11.832C21.023,97.6,14.533,88.914,14.533,79.933V69.669a54.323,54.323,0,0,0,15.9,12.64c14.252,7.843,33.122,12.157,53.134,12.157a133.623,133.623,0,0,0,18.676-1.3l-1.018-7.194A126.423,126.423,0,0,1,83.567,87.2c-18.808,0-36.435-4-49.632-11.256-12.511-6.882-19.4-15.787-19.4-25.077s6.89-18.2,19.4-25.077c13.2-7.259,30.824-11.256,49.632-11.256S120,18.53,133.2,25.789c12.511,6.882,19.4,15.787,19.4,25.077,0,8.013-5.324,15.972-14.991,22.409l4.028,6.049A49.737,49.737,0,0,0,152.6,69.618V76.3h7.267V50.867c0-12.061-8.227-23.228-23.166-31.444C122.448,11.584,103.578,7.267,83.567,7.267S44.685,11.581,30.433,19.422C15.494,27.639,7.267,38.806,7.267,50.867V138.5c0,11.884,8.229,22.92,23.171,31.075Z"/>
        <path id="Trazado_778654" data-name="Trazado 778654" d="M55.482,32.7c2.248-.631,4.6-1.189,6.986-1.659l-1.4-7.13c-2.575.507-5.114,1.11-7.546,1.793Z"/>
        <path id="Trazado_778655" data-name="Trazado 778655" d="M21.8,50.867h7.267c0-4.164,6.689-10.952,19.471-15.87l-2.61-6.782C31.045,33.94,21.8,42.62,21.8,50.867Z"/>
        <path id="Trazado_778656" data-name="Trazado 778656" d="M79.933,101.733H87.2V109H79.933Z"/>
        <path id="Trazado_778657" data-name="Trazado 778657" d="M65.4,101.733h7.267V109H65.4Z"/>
        <path id="Trazado_778658" data-name="Trazado 778658" d="M65.4,130.8h7.267v7.267H65.4Z"/>
        <path id="Trazado_778659" data-name="Trazado 778659" d="M65.4,159.867h7.267v7.267H65.4Z"/>
        <path id="Trazado_778660" data-name="Trazado 778660" d="M197.708,178.036a61.82,61.82,0,1,0-19.672,19.672l23.484,23.484a13.91,13.91,0,0,0,19.672-19.671Zm-52.375,21.8a54.5,54.5,0,1,1,54.5-54.5,54.5,54.5,0,0,1-54.5,54.5ZM211.357,218a6.6,6.6,0,0,1-4.7-1.946l-22.622-22.622a62.329,62.329,0,0,0,9.395-9.395l22.622,22.622a6.644,6.644,0,0,1-4.7,11.341Z"/>
        <path id="Trazado_778661" data-name="Trazado 778661" d="M145.333,98.1a47.233,47.233,0,1,0,47.233,47.233A47.233,47.233,0,0,0,145.333,98.1Zm35.594,29.067a39.668,39.668,0,0,1,4.206,14.533H165.005l-6.2-6.2a3.633,3.633,0,0,0-6.2,2.569V141.7H138.067a3.634,3.634,0,0,0-3.4,2.359l-9.625-9.626,9.626-9.625a3.633,3.633,0,0,0,3.4,2.358Zm-35.594-21.8a39.907,39.907,0,0,1,30.812,14.539L141.7,119.9v-3.633a3.633,3.633,0,0,0-6.2-2.569l-18.167,18.167a3.633,3.633,0,0,0,0,5.138l4.7,4.7H105.533a40.02,40.02,0,0,1,39.8-36.333ZM109.739,163.5a39.667,39.667,0,0,1-4.206-14.533h23.762l6.2,6.2a3.633,3.633,0,0,0,6.2-2.569v-3.633h14.533a3.634,3.634,0,0,0,3.4-2.359l9.625,9.626-9.626,9.625a3.633,3.633,0,0,0-3.4-2.358Zm35.594,21.8a39.907,39.907,0,0,1-30.812-14.539l38.079.006V174.4a3.633,3.633,0,0,0,6.2,2.569L176.969,158.8a3.633,3.633,0,0,0,0-5.138l-4.7-4.7h12.862a40.02,40.02,0,0,1-39.8,36.333Z"/>
      </g>
    </g>
    <path id="Trazado_780628" data-name="Trazado 780628" d="M39.255,12.658V17H36.17V4.2h5.106a5.948,5.948,0,0,1,2.6.541,4.074,4.074,0,0,1,1.749,1.538,4.2,4.2,0,0,1,.62,2.263,3.7,3.7,0,0,1-1.34,2.993,5.561,5.561,0,0,1-3.678,1.121Zm0-2.382h2.021a1.906,1.906,0,0,0,1.367-.448,1.665,1.665,0,0,0,.47-1.266A2.059,2.059,0,0,0,42.63,7.13a1.712,1.712,0,0,0-1.318-.545H39.255Zm12.981,6.9a4.889,4.889,0,0,1-3.542-1.305,4.507,4.507,0,0,1-1.354-3.4v-.246a5.84,5.84,0,0,1,.541-2.575,3.955,3.955,0,0,1,1.578-1.727,4.763,4.763,0,0,1,2.461-.611,4.117,4.117,0,0,1,3.164,1.244,4.887,4.887,0,0,1,1.16,3.467v1.151H50.356a2.135,2.135,0,0,0,.694,1.257,2.066,2.066,0,0,0,1.389.457,2.662,2.662,0,0,0,2.2-.984l1.354,1.6a3.784,3.784,0,0,1-1.569,1.217A5.3,5.3,0,0,1,52.237,17.176ZM51.9,9.6q-1.3,0-1.547,1.723h2.988v-.229a1.467,1.467,0,0,0-.36-1.1A1.434,1.434,0,0,0,51.9,9.6Zm11.285.571-.976-.07a1.752,1.752,0,0,0-1.793.879V17H57.458V7.49h2.777l.1,1.222a2.294,2.294,0,0,1,2.083-1.4,2.888,2.888,0,0,1,.826.105ZM64.946,17V9.547h-1.38V7.49h1.38V7.174a3.631,3.631,0,0,1,1.248-2.909,4.987,4.987,0,0,1,3.243-.949,11.509,11.509,0,0,1,3.094.51l-.4,2.338-.492-.132a7.832,7.832,0,0,0-2.021-.255q-1.7,0-1.7,1.547V7.49H69.78V9.547H67.917V17Zm8.947,0H70.914V7.49h2.979Zm4.931,0H75.853V3.5h2.971ZM86,17a3.344,3.344,0,0,1-.281-.853,2.754,2.754,0,0,1-2.285,1.028,3.374,3.374,0,0,1-2.285-.813,2.588,2.588,0,0,1-.94-2.043,2.66,2.66,0,0,1,1.143-2.338,5.821,5.821,0,0,1,3.322-.791h.914v-.5q0-1.316-1.134-1.316A.927.927,0,0,0,83.4,10.413H80.441a2.655,2.655,0,0,1,1.173-2.239,4.931,4.931,0,0,1,2.993-.86,4.323,4.323,0,0,1,2.874.888,3.086,3.086,0,0,1,1.081,2.435v4.21a4.311,4.311,0,0,0,.4,2V17ZM84.15,15.066a1.652,1.652,0,0,0,.918-.237,1.487,1.487,0,0,0,.523-.536V12.772H84.73q-1.547,0-1.547,1.389a.848.848,0,0,0,.272.655A.986.986,0,0,0,84.15,15.066ZM93,7.49l.1,1.116a3.27,3.27,0,0,1,2.716-1.292,2.407,2.407,0,0,1,2.435,1.433,3.165,3.165,0,0,1,2.795-1.433q2.892,0,2.971,3.5V17h-2.971V11a1.813,1.813,0,0,0-.246-1.063,1.048,1.048,0,0,0-.9-.334,1.4,1.4,0,0,0-1.31.782l.009.123V17H95.628V11.015a1.906,1.906,0,0,0-.237-1.081,1.045,1.045,0,0,0-.905-.334,1.42,1.42,0,0,0-1.3.782V17H90.223V7.49ZM108.83,17h-2.971V7.49h2.971ZM105.683,5.038A1.322,1.322,0,0,1,106.14,4a1.943,1.943,0,0,1,2.373,0,1.322,1.322,0,0,1,.457,1.037,1.322,1.322,0,0,1-.457,1.037,1.943,1.943,0,0,1-2.373,0A1.322,1.322,0,0,1,105.683,5.038Zm9.571,12.138a4.889,4.889,0,0,1-3.542-1.305,4.507,4.507,0,0,1-1.354-3.4v-.246a5.84,5.84,0,0,1,.541-2.575,3.955,3.955,0,0,1,1.578-1.727,4.763,4.763,0,0,1,2.461-.611A4.117,4.117,0,0,1,118.1,8.558a4.887,4.887,0,0,1,1.16,3.467v1.151h-5.889a2.135,2.135,0,0,0,.694,1.257,2.066,2.066,0,0,0,1.389.457,2.662,2.662,0,0,0,2.2-.984l1.354,1.6a3.784,3.784,0,0,1-1.569,1.217A5.3,5.3,0,0,1,115.254,17.176ZM114.92,9.6q-1.3,0-1.547,1.723h2.988v-.229a1.467,1.467,0,0,0-.36-1.1A1.434,1.434,0,0,0,114.92,9.6Zm8.253-2.109.1,1.116a3.225,3.225,0,0,1,2.716-1.292,2.713,2.713,0,0,1,2.219.888,4.226,4.226,0,0,1,.76,2.672V17h-2.971V11a1.6,1.6,0,0,0-.29-1.059A1.342,1.342,0,0,0,124.65,9.6a1.413,1.413,0,0,0-1.292.686V17H120.4V7.49Zm10.881-2.364V7.49h1.564V9.547h-1.564V13.9a1.111,1.111,0,0,0,.193.747,1.037,1.037,0,0,0,.765.211,4.345,4.345,0,0,0,.738-.053v2.118a5.466,5.466,0,0,1-1.67.255,3.1,3.1,0,0,1-2.259-.721,2.954,2.954,0,0,1-.729-2.188V9.547h-1.213V7.49h1.213V5.126Zm2.092,7.031a5.613,5.613,0,0,1,.554-2.536,3.96,3.96,0,0,1,1.591-1.709,4.791,4.791,0,0,1,2.435-.6,4.373,4.373,0,0,1,3.366,1.323,5.076,5.076,0,0,1,1.23,3.6v.105a4.925,4.925,0,0,1-1.235,3.529,4.384,4.384,0,0,1-3.344,1.305,4.434,4.434,0,0,1-3.261-1.217,4.761,4.761,0,0,1-1.327-3.3Zm2.962.185a3.538,3.538,0,0,0,.413,1.934,1.376,1.376,0,0,0,1.222.615q1.582,0,1.617-2.435v-.3q0-2.558-1.635-2.558-1.485,0-1.608,2.206Z" transform="translate(867 3007)" fill="#fff"/>
  </g>
</svg>
